G04 #@! TF.GenerationSoftware,KiCad,Pcbnew,(5.1.2)-1*
G04 #@! TF.CreationDate,2019-08-02T20:14:07-05:00*
G04 #@! TF.ProjectId,NavBoard_Hardware,4e617642-6f61-4726-945f-486172647761,rev?*
G04 #@! TF.SameCoordinates,Original*
G04 #@! TF.FileFunction,Paste,Top*
G04 #@! TF.FilePolarity,Positive*
%FSLAX46Y46*%
G04 Gerber Fmt 4.6, Leading zero omitted, Abs format (unit mm)*
G04 Created by KiCad (PCBNEW (5.1.2)-1) date 2019-08-02 20:14:07*
%MOMM*%
%LPD*%
G04 APERTURE LIST*
%ADD10R,2.000000X1.000000*%
%ADD11C,1.520000*%
%ADD12C,0.100000*%
%ADD13C,0.950000*%
%ADD14C,10.160000*%
%ADD15R,2.540000X6.350000*%
%ADD16C,5.080000*%
%ADD17R,0.800000X0.900000*%
%ADD18R,0.450000X0.600000*%
G04 APERTURE END LIST*
D10*
X164857234Y-69927208D03*
X164857234Y-71427208D03*
X164857234Y-72927208D03*
X164857234Y-74427208D03*
X164857234Y-75927208D03*
X164857234Y-77427208D03*
X164857234Y-78927208D03*
X164857234Y-80427208D03*
X164857234Y-81927208D03*
X164857234Y-83427208D03*
X148691600Y-83197600D03*
X148691600Y-81697600D03*
X148691600Y-80197600D03*
X148691600Y-78697600D03*
X148691600Y-77197600D03*
X148691600Y-75697600D03*
X148691600Y-74197600D03*
X148691600Y-72697600D03*
X148691600Y-71197600D03*
X148691600Y-69697600D03*
D11*
X139395200Y-80060800D03*
X136855200Y-80060800D03*
X134315200Y-80060800D03*
X131775200Y-80060800D03*
X129235200Y-80060800D03*
X126695200Y-80060800D03*
X124155200Y-80060800D03*
X121615200Y-80060800D03*
X119075200Y-80060800D03*
X116535200Y-80060800D03*
X139395200Y-82600800D03*
X136855200Y-82600800D03*
X134315200Y-82600800D03*
X131775200Y-82600800D03*
X129235200Y-82600800D03*
X126695200Y-82600800D03*
X124155200Y-82600800D03*
X121615200Y-82600800D03*
X119075200Y-82600800D03*
X116535200Y-82600800D03*
X139395200Y-125780800D03*
X136855200Y-125780800D03*
X134315200Y-125780800D03*
X131775200Y-125780800D03*
X129235200Y-125780800D03*
X126695200Y-125780800D03*
X124155200Y-125780800D03*
X121615200Y-125780800D03*
X119075200Y-125780800D03*
X116535200Y-125780800D03*
X139395200Y-123240800D03*
X136855200Y-123240800D03*
X134315200Y-123240800D03*
X131775200Y-123240800D03*
X129235200Y-123240800D03*
X126695200Y-123240800D03*
X124155200Y-123240800D03*
X121615200Y-123240800D03*
X119075200Y-123240800D03*
X116535200Y-123240800D03*
D12*
G36*
X121722779Y-116874144D02*
G01*
X121745834Y-116877563D01*
X121768443Y-116883227D01*
X121790387Y-116891079D01*
X121811457Y-116901044D01*
X121831448Y-116913026D01*
X121850168Y-116926910D01*
X121867438Y-116942562D01*
X121883090Y-116959832D01*
X121896974Y-116978552D01*
X121908956Y-116998543D01*
X121918921Y-117019613D01*
X121926773Y-117041557D01*
X121932437Y-117064166D01*
X121935856Y-117087221D01*
X121937000Y-117110500D01*
X121937000Y-117585500D01*
X121935856Y-117608779D01*
X121932437Y-117631834D01*
X121926773Y-117654443D01*
X121918921Y-117676387D01*
X121908956Y-117697457D01*
X121896974Y-117717448D01*
X121883090Y-117736168D01*
X121867438Y-117753438D01*
X121850168Y-117769090D01*
X121831448Y-117782974D01*
X121811457Y-117794956D01*
X121790387Y-117804921D01*
X121768443Y-117812773D01*
X121745834Y-117818437D01*
X121722779Y-117821856D01*
X121699500Y-117823000D01*
X121124500Y-117823000D01*
X121101221Y-117821856D01*
X121078166Y-117818437D01*
X121055557Y-117812773D01*
X121033613Y-117804921D01*
X121012543Y-117794956D01*
X120992552Y-117782974D01*
X120973832Y-117769090D01*
X120956562Y-117753438D01*
X120940910Y-117736168D01*
X120927026Y-117717448D01*
X120915044Y-117697457D01*
X120905079Y-117676387D01*
X120897227Y-117654443D01*
X120891563Y-117631834D01*
X120888144Y-117608779D01*
X120887000Y-117585500D01*
X120887000Y-117110500D01*
X120888144Y-117087221D01*
X120891563Y-117064166D01*
X120897227Y-117041557D01*
X120905079Y-117019613D01*
X120915044Y-116998543D01*
X120927026Y-116978552D01*
X120940910Y-116959832D01*
X120956562Y-116942562D01*
X120973832Y-116926910D01*
X120992552Y-116913026D01*
X121012543Y-116901044D01*
X121033613Y-116891079D01*
X121055557Y-116883227D01*
X121078166Y-116877563D01*
X121101221Y-116874144D01*
X121124500Y-116873000D01*
X121699500Y-116873000D01*
X121722779Y-116874144D01*
X121722779Y-116874144D01*
G37*
D13*
X121412000Y-117348000D03*
D12*
G36*
X123472779Y-116874144D02*
G01*
X123495834Y-116877563D01*
X123518443Y-116883227D01*
X123540387Y-116891079D01*
X123561457Y-116901044D01*
X123581448Y-116913026D01*
X123600168Y-116926910D01*
X123617438Y-116942562D01*
X123633090Y-116959832D01*
X123646974Y-116978552D01*
X123658956Y-116998543D01*
X123668921Y-117019613D01*
X123676773Y-117041557D01*
X123682437Y-117064166D01*
X123685856Y-117087221D01*
X123687000Y-117110500D01*
X123687000Y-117585500D01*
X123685856Y-117608779D01*
X123682437Y-117631834D01*
X123676773Y-117654443D01*
X123668921Y-117676387D01*
X123658956Y-117697457D01*
X123646974Y-117717448D01*
X123633090Y-117736168D01*
X123617438Y-117753438D01*
X123600168Y-117769090D01*
X123581448Y-117782974D01*
X123561457Y-117794956D01*
X123540387Y-117804921D01*
X123518443Y-117812773D01*
X123495834Y-117818437D01*
X123472779Y-117821856D01*
X123449500Y-117823000D01*
X122874500Y-117823000D01*
X122851221Y-117821856D01*
X122828166Y-117818437D01*
X122805557Y-117812773D01*
X122783613Y-117804921D01*
X122762543Y-117794956D01*
X122742552Y-117782974D01*
X122723832Y-117769090D01*
X122706562Y-117753438D01*
X122690910Y-117736168D01*
X122677026Y-117717448D01*
X122665044Y-117697457D01*
X122655079Y-117676387D01*
X122647227Y-117654443D01*
X122641563Y-117631834D01*
X122638144Y-117608779D01*
X122637000Y-117585500D01*
X122637000Y-117110500D01*
X122638144Y-117087221D01*
X122641563Y-117064166D01*
X122647227Y-117041557D01*
X122655079Y-117019613D01*
X122665044Y-116998543D01*
X122677026Y-116978552D01*
X122690910Y-116959832D01*
X122706562Y-116942562D01*
X122723832Y-116926910D01*
X122742552Y-116913026D01*
X122762543Y-116901044D01*
X122783613Y-116891079D01*
X122805557Y-116883227D01*
X122828166Y-116877563D01*
X122851221Y-116874144D01*
X122874500Y-116873000D01*
X123449500Y-116873000D01*
X123472779Y-116874144D01*
X123472779Y-116874144D01*
G37*
D13*
X123162000Y-117348000D03*
D14*
X126238000Y-58166000D03*
D15*
X118618000Y-58166000D03*
X133858000Y-58166000D03*
D16*
X121945400Y-98933000D03*
X121945400Y-106807000D03*
D12*
G36*
X138487579Y-99058144D02*
G01*
X138510634Y-99061563D01*
X138533243Y-99067227D01*
X138555187Y-99075079D01*
X138576257Y-99085044D01*
X138596248Y-99097026D01*
X138614968Y-99110910D01*
X138632238Y-99126562D01*
X138647890Y-99143832D01*
X138661774Y-99162552D01*
X138673756Y-99182543D01*
X138683721Y-99203613D01*
X138691573Y-99225557D01*
X138697237Y-99248166D01*
X138700656Y-99271221D01*
X138701800Y-99294500D01*
X138701800Y-99869500D01*
X138700656Y-99892779D01*
X138697237Y-99915834D01*
X138691573Y-99938443D01*
X138683721Y-99960387D01*
X138673756Y-99981457D01*
X138661774Y-100001448D01*
X138647890Y-100020168D01*
X138632238Y-100037438D01*
X138614968Y-100053090D01*
X138596248Y-100066974D01*
X138576257Y-100078956D01*
X138555187Y-100088921D01*
X138533243Y-100096773D01*
X138510634Y-100102437D01*
X138487579Y-100105856D01*
X138464300Y-100107000D01*
X137989300Y-100107000D01*
X137966021Y-100105856D01*
X137942966Y-100102437D01*
X137920357Y-100096773D01*
X137898413Y-100088921D01*
X137877343Y-100078956D01*
X137857352Y-100066974D01*
X137838632Y-100053090D01*
X137821362Y-100037438D01*
X137805710Y-100020168D01*
X137791826Y-100001448D01*
X137779844Y-99981457D01*
X137769879Y-99960387D01*
X137762027Y-99938443D01*
X137756363Y-99915834D01*
X137752944Y-99892779D01*
X137751800Y-99869500D01*
X137751800Y-99294500D01*
X137752944Y-99271221D01*
X137756363Y-99248166D01*
X137762027Y-99225557D01*
X137769879Y-99203613D01*
X137779844Y-99182543D01*
X137791826Y-99162552D01*
X137805710Y-99143832D01*
X137821362Y-99126562D01*
X137838632Y-99110910D01*
X137857352Y-99097026D01*
X137877343Y-99085044D01*
X137898413Y-99075079D01*
X137920357Y-99067227D01*
X137942966Y-99061563D01*
X137966021Y-99058144D01*
X137989300Y-99057000D01*
X138464300Y-99057000D01*
X138487579Y-99058144D01*
X138487579Y-99058144D01*
G37*
D13*
X138226800Y-99582000D03*
D12*
G36*
X138487579Y-100808144D02*
G01*
X138510634Y-100811563D01*
X138533243Y-100817227D01*
X138555187Y-100825079D01*
X138576257Y-100835044D01*
X138596248Y-100847026D01*
X138614968Y-100860910D01*
X138632238Y-100876562D01*
X138647890Y-100893832D01*
X138661774Y-100912552D01*
X138673756Y-100932543D01*
X138683721Y-100953613D01*
X138691573Y-100975557D01*
X138697237Y-100998166D01*
X138700656Y-101021221D01*
X138701800Y-101044500D01*
X138701800Y-101619500D01*
X138700656Y-101642779D01*
X138697237Y-101665834D01*
X138691573Y-101688443D01*
X138683721Y-101710387D01*
X138673756Y-101731457D01*
X138661774Y-101751448D01*
X138647890Y-101770168D01*
X138632238Y-101787438D01*
X138614968Y-101803090D01*
X138596248Y-101816974D01*
X138576257Y-101828956D01*
X138555187Y-101838921D01*
X138533243Y-101846773D01*
X138510634Y-101852437D01*
X138487579Y-101855856D01*
X138464300Y-101857000D01*
X137989300Y-101857000D01*
X137966021Y-101855856D01*
X137942966Y-101852437D01*
X137920357Y-101846773D01*
X137898413Y-101838921D01*
X137877343Y-101828956D01*
X137857352Y-101816974D01*
X137838632Y-101803090D01*
X137821362Y-101787438D01*
X137805710Y-101770168D01*
X137791826Y-101751448D01*
X137779844Y-101731457D01*
X137769879Y-101710387D01*
X137762027Y-101688443D01*
X137756363Y-101665834D01*
X137752944Y-101642779D01*
X137751800Y-101619500D01*
X137751800Y-101044500D01*
X137752944Y-101021221D01*
X137756363Y-100998166D01*
X137762027Y-100975557D01*
X137769879Y-100953613D01*
X137779844Y-100932543D01*
X137791826Y-100912552D01*
X137805710Y-100893832D01*
X137821362Y-100876562D01*
X137838632Y-100860910D01*
X137857352Y-100847026D01*
X137877343Y-100835044D01*
X137898413Y-100825079D01*
X137920357Y-100817227D01*
X137942966Y-100811563D01*
X137966021Y-100808144D01*
X137989300Y-100807000D01*
X138464300Y-100807000D01*
X138487579Y-100808144D01*
X138487579Y-100808144D01*
G37*
D13*
X138226800Y-101332000D03*
D12*
G36*
X152682779Y-114334144D02*
G01*
X152705834Y-114337563D01*
X152728443Y-114343227D01*
X152750387Y-114351079D01*
X152771457Y-114361044D01*
X152791448Y-114373026D01*
X152810168Y-114386910D01*
X152827438Y-114402562D01*
X152843090Y-114419832D01*
X152856974Y-114438552D01*
X152868956Y-114458543D01*
X152878921Y-114479613D01*
X152886773Y-114501557D01*
X152892437Y-114524166D01*
X152895856Y-114547221D01*
X152897000Y-114570500D01*
X152897000Y-115045500D01*
X152895856Y-115068779D01*
X152892437Y-115091834D01*
X152886773Y-115114443D01*
X152878921Y-115136387D01*
X152868956Y-115157457D01*
X152856974Y-115177448D01*
X152843090Y-115196168D01*
X152827438Y-115213438D01*
X152810168Y-115229090D01*
X152791448Y-115242974D01*
X152771457Y-115254956D01*
X152750387Y-115264921D01*
X152728443Y-115272773D01*
X152705834Y-115278437D01*
X152682779Y-115281856D01*
X152659500Y-115283000D01*
X152084500Y-115283000D01*
X152061221Y-115281856D01*
X152038166Y-115278437D01*
X152015557Y-115272773D01*
X151993613Y-115264921D01*
X151972543Y-115254956D01*
X151952552Y-115242974D01*
X151933832Y-115229090D01*
X151916562Y-115213438D01*
X151900910Y-115196168D01*
X151887026Y-115177448D01*
X151875044Y-115157457D01*
X151865079Y-115136387D01*
X151857227Y-115114443D01*
X151851563Y-115091834D01*
X151848144Y-115068779D01*
X151847000Y-115045500D01*
X151847000Y-114570500D01*
X151848144Y-114547221D01*
X151851563Y-114524166D01*
X151857227Y-114501557D01*
X151865079Y-114479613D01*
X151875044Y-114458543D01*
X151887026Y-114438552D01*
X151900910Y-114419832D01*
X151916562Y-114402562D01*
X151933832Y-114386910D01*
X151952552Y-114373026D01*
X151972543Y-114361044D01*
X151993613Y-114351079D01*
X152015557Y-114343227D01*
X152038166Y-114337563D01*
X152061221Y-114334144D01*
X152084500Y-114333000D01*
X152659500Y-114333000D01*
X152682779Y-114334144D01*
X152682779Y-114334144D01*
G37*
D13*
X152372000Y-114808000D03*
D12*
G36*
X150932779Y-114334144D02*
G01*
X150955834Y-114337563D01*
X150978443Y-114343227D01*
X151000387Y-114351079D01*
X151021457Y-114361044D01*
X151041448Y-114373026D01*
X151060168Y-114386910D01*
X151077438Y-114402562D01*
X151093090Y-114419832D01*
X151106974Y-114438552D01*
X151118956Y-114458543D01*
X151128921Y-114479613D01*
X151136773Y-114501557D01*
X151142437Y-114524166D01*
X151145856Y-114547221D01*
X151147000Y-114570500D01*
X151147000Y-115045500D01*
X151145856Y-115068779D01*
X151142437Y-115091834D01*
X151136773Y-115114443D01*
X151128921Y-115136387D01*
X151118956Y-115157457D01*
X151106974Y-115177448D01*
X151093090Y-115196168D01*
X151077438Y-115213438D01*
X151060168Y-115229090D01*
X151041448Y-115242974D01*
X151021457Y-115254956D01*
X151000387Y-115264921D01*
X150978443Y-115272773D01*
X150955834Y-115278437D01*
X150932779Y-115281856D01*
X150909500Y-115283000D01*
X150334500Y-115283000D01*
X150311221Y-115281856D01*
X150288166Y-115278437D01*
X150265557Y-115272773D01*
X150243613Y-115264921D01*
X150222543Y-115254956D01*
X150202552Y-115242974D01*
X150183832Y-115229090D01*
X150166562Y-115213438D01*
X150150910Y-115196168D01*
X150137026Y-115177448D01*
X150125044Y-115157457D01*
X150115079Y-115136387D01*
X150107227Y-115114443D01*
X150101563Y-115091834D01*
X150098144Y-115068779D01*
X150097000Y-115045500D01*
X150097000Y-114570500D01*
X150098144Y-114547221D01*
X150101563Y-114524166D01*
X150107227Y-114501557D01*
X150115079Y-114479613D01*
X150125044Y-114458543D01*
X150137026Y-114438552D01*
X150150910Y-114419832D01*
X150166562Y-114402562D01*
X150183832Y-114386910D01*
X150202552Y-114373026D01*
X150222543Y-114361044D01*
X150243613Y-114351079D01*
X150265557Y-114343227D01*
X150288166Y-114337563D01*
X150311221Y-114334144D01*
X150334500Y-114333000D01*
X150909500Y-114333000D01*
X150932779Y-114334144D01*
X150932779Y-114334144D01*
G37*
D13*
X150622000Y-114808000D03*
D12*
G36*
X155024779Y-107349144D02*
G01*
X155047834Y-107352563D01*
X155070443Y-107358227D01*
X155092387Y-107366079D01*
X155113457Y-107376044D01*
X155133448Y-107388026D01*
X155152168Y-107401910D01*
X155169438Y-107417562D01*
X155185090Y-107434832D01*
X155198974Y-107453552D01*
X155210956Y-107473543D01*
X155220921Y-107494613D01*
X155228773Y-107516557D01*
X155234437Y-107539166D01*
X155237856Y-107562221D01*
X155239000Y-107585500D01*
X155239000Y-108060500D01*
X155237856Y-108083779D01*
X155234437Y-108106834D01*
X155228773Y-108129443D01*
X155220921Y-108151387D01*
X155210956Y-108172457D01*
X155198974Y-108192448D01*
X155185090Y-108211168D01*
X155169438Y-108228438D01*
X155152168Y-108244090D01*
X155133448Y-108257974D01*
X155113457Y-108269956D01*
X155092387Y-108279921D01*
X155070443Y-108287773D01*
X155047834Y-108293437D01*
X155024779Y-108296856D01*
X155001500Y-108298000D01*
X154426500Y-108298000D01*
X154403221Y-108296856D01*
X154380166Y-108293437D01*
X154357557Y-108287773D01*
X154335613Y-108279921D01*
X154314543Y-108269956D01*
X154294552Y-108257974D01*
X154275832Y-108244090D01*
X154258562Y-108228438D01*
X154242910Y-108211168D01*
X154229026Y-108192448D01*
X154217044Y-108172457D01*
X154207079Y-108151387D01*
X154199227Y-108129443D01*
X154193563Y-108106834D01*
X154190144Y-108083779D01*
X154189000Y-108060500D01*
X154189000Y-107585500D01*
X154190144Y-107562221D01*
X154193563Y-107539166D01*
X154199227Y-107516557D01*
X154207079Y-107494613D01*
X154217044Y-107473543D01*
X154229026Y-107453552D01*
X154242910Y-107434832D01*
X154258562Y-107417562D01*
X154275832Y-107401910D01*
X154294552Y-107388026D01*
X154314543Y-107376044D01*
X154335613Y-107366079D01*
X154357557Y-107358227D01*
X154380166Y-107352563D01*
X154403221Y-107349144D01*
X154426500Y-107348000D01*
X155001500Y-107348000D01*
X155024779Y-107349144D01*
X155024779Y-107349144D01*
G37*
D13*
X154714000Y-107823000D03*
D12*
G36*
X156774779Y-107349144D02*
G01*
X156797834Y-107352563D01*
X156820443Y-107358227D01*
X156842387Y-107366079D01*
X156863457Y-107376044D01*
X156883448Y-107388026D01*
X156902168Y-107401910D01*
X156919438Y-107417562D01*
X156935090Y-107434832D01*
X156948974Y-107453552D01*
X156960956Y-107473543D01*
X156970921Y-107494613D01*
X156978773Y-107516557D01*
X156984437Y-107539166D01*
X156987856Y-107562221D01*
X156989000Y-107585500D01*
X156989000Y-108060500D01*
X156987856Y-108083779D01*
X156984437Y-108106834D01*
X156978773Y-108129443D01*
X156970921Y-108151387D01*
X156960956Y-108172457D01*
X156948974Y-108192448D01*
X156935090Y-108211168D01*
X156919438Y-108228438D01*
X156902168Y-108244090D01*
X156883448Y-108257974D01*
X156863457Y-108269956D01*
X156842387Y-108279921D01*
X156820443Y-108287773D01*
X156797834Y-108293437D01*
X156774779Y-108296856D01*
X156751500Y-108298000D01*
X156176500Y-108298000D01*
X156153221Y-108296856D01*
X156130166Y-108293437D01*
X156107557Y-108287773D01*
X156085613Y-108279921D01*
X156064543Y-108269956D01*
X156044552Y-108257974D01*
X156025832Y-108244090D01*
X156008562Y-108228438D01*
X155992910Y-108211168D01*
X155979026Y-108192448D01*
X155967044Y-108172457D01*
X155957079Y-108151387D01*
X155949227Y-108129443D01*
X155943563Y-108106834D01*
X155940144Y-108083779D01*
X155939000Y-108060500D01*
X155939000Y-107585500D01*
X155940144Y-107562221D01*
X155943563Y-107539166D01*
X155949227Y-107516557D01*
X155957079Y-107494613D01*
X155967044Y-107473543D01*
X155979026Y-107453552D01*
X155992910Y-107434832D01*
X156008562Y-107417562D01*
X156025832Y-107401910D01*
X156044552Y-107388026D01*
X156064543Y-107376044D01*
X156085613Y-107366079D01*
X156107557Y-107358227D01*
X156130166Y-107352563D01*
X156153221Y-107349144D01*
X156176500Y-107348000D01*
X156751500Y-107348000D01*
X156774779Y-107349144D01*
X156774779Y-107349144D01*
G37*
D13*
X156464000Y-107823000D03*
D12*
G36*
X144060339Y-71276894D02*
G01*
X144083394Y-71280313D01*
X144106003Y-71285977D01*
X144127947Y-71293829D01*
X144149017Y-71303794D01*
X144169008Y-71315776D01*
X144187728Y-71329660D01*
X144204998Y-71345312D01*
X144220650Y-71362582D01*
X144234534Y-71381302D01*
X144246516Y-71401293D01*
X144256481Y-71422363D01*
X144264333Y-71444307D01*
X144269997Y-71466916D01*
X144273416Y-71489971D01*
X144274560Y-71513250D01*
X144274560Y-72088250D01*
X144273416Y-72111529D01*
X144269997Y-72134584D01*
X144264333Y-72157193D01*
X144256481Y-72179137D01*
X144246516Y-72200207D01*
X144234534Y-72220198D01*
X144220650Y-72238918D01*
X144204998Y-72256188D01*
X144187728Y-72271840D01*
X144169008Y-72285724D01*
X144149017Y-72297706D01*
X144127947Y-72307671D01*
X144106003Y-72315523D01*
X144083394Y-72321187D01*
X144060339Y-72324606D01*
X144037060Y-72325750D01*
X143562060Y-72325750D01*
X143538781Y-72324606D01*
X143515726Y-72321187D01*
X143493117Y-72315523D01*
X143471173Y-72307671D01*
X143450103Y-72297706D01*
X143430112Y-72285724D01*
X143411392Y-72271840D01*
X143394122Y-72256188D01*
X143378470Y-72238918D01*
X143364586Y-72220198D01*
X143352604Y-72200207D01*
X143342639Y-72179137D01*
X143334787Y-72157193D01*
X143329123Y-72134584D01*
X143325704Y-72111529D01*
X143324560Y-72088250D01*
X143324560Y-71513250D01*
X143325704Y-71489971D01*
X143329123Y-71466916D01*
X143334787Y-71444307D01*
X143342639Y-71422363D01*
X143352604Y-71401293D01*
X143364586Y-71381302D01*
X143378470Y-71362582D01*
X143394122Y-71345312D01*
X143411392Y-71329660D01*
X143430112Y-71315776D01*
X143450103Y-71303794D01*
X143471173Y-71293829D01*
X143493117Y-71285977D01*
X143515726Y-71280313D01*
X143538781Y-71276894D01*
X143562060Y-71275750D01*
X144037060Y-71275750D01*
X144060339Y-71276894D01*
X144060339Y-71276894D01*
G37*
D13*
X143799560Y-71800750D03*
D12*
G36*
X144060339Y-73026894D02*
G01*
X144083394Y-73030313D01*
X144106003Y-73035977D01*
X144127947Y-73043829D01*
X144149017Y-73053794D01*
X144169008Y-73065776D01*
X144187728Y-73079660D01*
X144204998Y-73095312D01*
X144220650Y-73112582D01*
X144234534Y-73131302D01*
X144246516Y-73151293D01*
X144256481Y-73172363D01*
X144264333Y-73194307D01*
X144269997Y-73216916D01*
X144273416Y-73239971D01*
X144274560Y-73263250D01*
X144274560Y-73838250D01*
X144273416Y-73861529D01*
X144269997Y-73884584D01*
X144264333Y-73907193D01*
X144256481Y-73929137D01*
X144246516Y-73950207D01*
X144234534Y-73970198D01*
X144220650Y-73988918D01*
X144204998Y-74006188D01*
X144187728Y-74021840D01*
X144169008Y-74035724D01*
X144149017Y-74047706D01*
X144127947Y-74057671D01*
X144106003Y-74065523D01*
X144083394Y-74071187D01*
X144060339Y-74074606D01*
X144037060Y-74075750D01*
X143562060Y-74075750D01*
X143538781Y-74074606D01*
X143515726Y-74071187D01*
X143493117Y-74065523D01*
X143471173Y-74057671D01*
X143450103Y-74047706D01*
X143430112Y-74035724D01*
X143411392Y-74021840D01*
X143394122Y-74006188D01*
X143378470Y-73988918D01*
X143364586Y-73970198D01*
X143352604Y-73950207D01*
X143342639Y-73929137D01*
X143334787Y-73907193D01*
X143329123Y-73884584D01*
X143325704Y-73861529D01*
X143324560Y-73838250D01*
X143324560Y-73263250D01*
X143325704Y-73239971D01*
X143329123Y-73216916D01*
X143334787Y-73194307D01*
X143342639Y-73172363D01*
X143352604Y-73151293D01*
X143364586Y-73131302D01*
X143378470Y-73112582D01*
X143394122Y-73095312D01*
X143411392Y-73079660D01*
X143430112Y-73065776D01*
X143450103Y-73053794D01*
X143471173Y-73043829D01*
X143493117Y-73035977D01*
X143515726Y-73030313D01*
X143538781Y-73026894D01*
X143562060Y-73025750D01*
X144037060Y-73025750D01*
X144060339Y-73026894D01*
X144060339Y-73026894D01*
G37*
D13*
X143799560Y-73550750D03*
D12*
G36*
X146092339Y-71276894D02*
G01*
X146115394Y-71280313D01*
X146138003Y-71285977D01*
X146159947Y-71293829D01*
X146181017Y-71303794D01*
X146201008Y-71315776D01*
X146219728Y-71329660D01*
X146236998Y-71345312D01*
X146252650Y-71362582D01*
X146266534Y-71381302D01*
X146278516Y-71401293D01*
X146288481Y-71422363D01*
X146296333Y-71444307D01*
X146301997Y-71466916D01*
X146305416Y-71489971D01*
X146306560Y-71513250D01*
X146306560Y-72088250D01*
X146305416Y-72111529D01*
X146301997Y-72134584D01*
X146296333Y-72157193D01*
X146288481Y-72179137D01*
X146278516Y-72200207D01*
X146266534Y-72220198D01*
X146252650Y-72238918D01*
X146236998Y-72256188D01*
X146219728Y-72271840D01*
X146201008Y-72285724D01*
X146181017Y-72297706D01*
X146159947Y-72307671D01*
X146138003Y-72315523D01*
X146115394Y-72321187D01*
X146092339Y-72324606D01*
X146069060Y-72325750D01*
X145594060Y-72325750D01*
X145570781Y-72324606D01*
X145547726Y-72321187D01*
X145525117Y-72315523D01*
X145503173Y-72307671D01*
X145482103Y-72297706D01*
X145462112Y-72285724D01*
X145443392Y-72271840D01*
X145426122Y-72256188D01*
X145410470Y-72238918D01*
X145396586Y-72220198D01*
X145384604Y-72200207D01*
X145374639Y-72179137D01*
X145366787Y-72157193D01*
X145361123Y-72134584D01*
X145357704Y-72111529D01*
X145356560Y-72088250D01*
X145356560Y-71513250D01*
X145357704Y-71489971D01*
X145361123Y-71466916D01*
X145366787Y-71444307D01*
X145374639Y-71422363D01*
X145384604Y-71401293D01*
X145396586Y-71381302D01*
X145410470Y-71362582D01*
X145426122Y-71345312D01*
X145443392Y-71329660D01*
X145462112Y-71315776D01*
X145482103Y-71303794D01*
X145503173Y-71293829D01*
X145525117Y-71285977D01*
X145547726Y-71280313D01*
X145570781Y-71276894D01*
X145594060Y-71275750D01*
X146069060Y-71275750D01*
X146092339Y-71276894D01*
X146092339Y-71276894D01*
G37*
D13*
X145831560Y-71800750D03*
D12*
G36*
X146092339Y-73026894D02*
G01*
X146115394Y-73030313D01*
X146138003Y-73035977D01*
X146159947Y-73043829D01*
X146181017Y-73053794D01*
X146201008Y-73065776D01*
X146219728Y-73079660D01*
X146236998Y-73095312D01*
X146252650Y-73112582D01*
X146266534Y-73131302D01*
X146278516Y-73151293D01*
X146288481Y-73172363D01*
X146296333Y-73194307D01*
X146301997Y-73216916D01*
X146305416Y-73239971D01*
X146306560Y-73263250D01*
X146306560Y-73838250D01*
X146305416Y-73861529D01*
X146301997Y-73884584D01*
X146296333Y-73907193D01*
X146288481Y-73929137D01*
X146278516Y-73950207D01*
X146266534Y-73970198D01*
X146252650Y-73988918D01*
X146236998Y-74006188D01*
X146219728Y-74021840D01*
X146201008Y-74035724D01*
X146181017Y-74047706D01*
X146159947Y-74057671D01*
X146138003Y-74065523D01*
X146115394Y-74071187D01*
X146092339Y-74074606D01*
X146069060Y-74075750D01*
X145594060Y-74075750D01*
X145570781Y-74074606D01*
X145547726Y-74071187D01*
X145525117Y-74065523D01*
X145503173Y-74057671D01*
X145482103Y-74047706D01*
X145462112Y-74035724D01*
X145443392Y-74021840D01*
X145426122Y-74006188D01*
X145410470Y-73988918D01*
X145396586Y-73970198D01*
X145384604Y-73950207D01*
X145374639Y-73929137D01*
X145366787Y-73907193D01*
X145361123Y-73884584D01*
X145357704Y-73861529D01*
X145356560Y-73838250D01*
X145356560Y-73263250D01*
X145357704Y-73239971D01*
X145361123Y-73216916D01*
X145366787Y-73194307D01*
X145374639Y-73172363D01*
X145384604Y-73151293D01*
X145396586Y-73131302D01*
X145410470Y-73112582D01*
X145426122Y-73095312D01*
X145443392Y-73079660D01*
X145462112Y-73065776D01*
X145482103Y-73053794D01*
X145503173Y-73043829D01*
X145525117Y-73035977D01*
X145547726Y-73030313D01*
X145570781Y-73026894D01*
X145594060Y-73025750D01*
X146069060Y-73025750D01*
X146092339Y-73026894D01*
X146092339Y-73026894D01*
G37*
D13*
X145831560Y-73550750D03*
D12*
G36*
X117940779Y-65058144D02*
G01*
X117963834Y-65061563D01*
X117986443Y-65067227D01*
X118008387Y-65075079D01*
X118029457Y-65085044D01*
X118049448Y-65097026D01*
X118068168Y-65110910D01*
X118085438Y-65126562D01*
X118101090Y-65143832D01*
X118114974Y-65162552D01*
X118126956Y-65182543D01*
X118136921Y-65203613D01*
X118144773Y-65225557D01*
X118150437Y-65248166D01*
X118153856Y-65271221D01*
X118155000Y-65294500D01*
X118155000Y-65769500D01*
X118153856Y-65792779D01*
X118150437Y-65815834D01*
X118144773Y-65838443D01*
X118136921Y-65860387D01*
X118126956Y-65881457D01*
X118114974Y-65901448D01*
X118101090Y-65920168D01*
X118085438Y-65937438D01*
X118068168Y-65953090D01*
X118049448Y-65966974D01*
X118029457Y-65978956D01*
X118008387Y-65988921D01*
X117986443Y-65996773D01*
X117963834Y-66002437D01*
X117940779Y-66005856D01*
X117917500Y-66007000D01*
X117342500Y-66007000D01*
X117319221Y-66005856D01*
X117296166Y-66002437D01*
X117273557Y-65996773D01*
X117251613Y-65988921D01*
X117230543Y-65978956D01*
X117210552Y-65966974D01*
X117191832Y-65953090D01*
X117174562Y-65937438D01*
X117158910Y-65920168D01*
X117145026Y-65901448D01*
X117133044Y-65881457D01*
X117123079Y-65860387D01*
X117115227Y-65838443D01*
X117109563Y-65815834D01*
X117106144Y-65792779D01*
X117105000Y-65769500D01*
X117105000Y-65294500D01*
X117106144Y-65271221D01*
X117109563Y-65248166D01*
X117115227Y-65225557D01*
X117123079Y-65203613D01*
X117133044Y-65182543D01*
X117145026Y-65162552D01*
X117158910Y-65143832D01*
X117174562Y-65126562D01*
X117191832Y-65110910D01*
X117210552Y-65097026D01*
X117230543Y-65085044D01*
X117251613Y-65075079D01*
X117273557Y-65067227D01*
X117296166Y-65061563D01*
X117319221Y-65058144D01*
X117342500Y-65057000D01*
X117917500Y-65057000D01*
X117940779Y-65058144D01*
X117940779Y-65058144D01*
G37*
D13*
X117630000Y-65532000D03*
D12*
G36*
X119690779Y-65058144D02*
G01*
X119713834Y-65061563D01*
X119736443Y-65067227D01*
X119758387Y-65075079D01*
X119779457Y-65085044D01*
X119799448Y-65097026D01*
X119818168Y-65110910D01*
X119835438Y-65126562D01*
X119851090Y-65143832D01*
X119864974Y-65162552D01*
X119876956Y-65182543D01*
X119886921Y-65203613D01*
X119894773Y-65225557D01*
X119900437Y-65248166D01*
X119903856Y-65271221D01*
X119905000Y-65294500D01*
X119905000Y-65769500D01*
X119903856Y-65792779D01*
X119900437Y-65815834D01*
X119894773Y-65838443D01*
X119886921Y-65860387D01*
X119876956Y-65881457D01*
X119864974Y-65901448D01*
X119851090Y-65920168D01*
X119835438Y-65937438D01*
X119818168Y-65953090D01*
X119799448Y-65966974D01*
X119779457Y-65978956D01*
X119758387Y-65988921D01*
X119736443Y-65996773D01*
X119713834Y-66002437D01*
X119690779Y-66005856D01*
X119667500Y-66007000D01*
X119092500Y-66007000D01*
X119069221Y-66005856D01*
X119046166Y-66002437D01*
X119023557Y-65996773D01*
X119001613Y-65988921D01*
X118980543Y-65978956D01*
X118960552Y-65966974D01*
X118941832Y-65953090D01*
X118924562Y-65937438D01*
X118908910Y-65920168D01*
X118895026Y-65901448D01*
X118883044Y-65881457D01*
X118873079Y-65860387D01*
X118865227Y-65838443D01*
X118859563Y-65815834D01*
X118856144Y-65792779D01*
X118855000Y-65769500D01*
X118855000Y-65294500D01*
X118856144Y-65271221D01*
X118859563Y-65248166D01*
X118865227Y-65225557D01*
X118873079Y-65203613D01*
X118883044Y-65182543D01*
X118895026Y-65162552D01*
X118908910Y-65143832D01*
X118924562Y-65126562D01*
X118941832Y-65110910D01*
X118960552Y-65097026D01*
X118980543Y-65085044D01*
X119001613Y-65075079D01*
X119023557Y-65067227D01*
X119046166Y-65061563D01*
X119069221Y-65058144D01*
X119092500Y-65057000D01*
X119667500Y-65057000D01*
X119690779Y-65058144D01*
X119690779Y-65058144D01*
G37*
D13*
X119380000Y-65532000D03*
D12*
G36*
X126498779Y-106497744D02*
G01*
X126521834Y-106501163D01*
X126544443Y-106506827D01*
X126566387Y-106514679D01*
X126587457Y-106524644D01*
X126607448Y-106536626D01*
X126626168Y-106550510D01*
X126643438Y-106566162D01*
X126659090Y-106583432D01*
X126672974Y-106602152D01*
X126684956Y-106622143D01*
X126694921Y-106643213D01*
X126702773Y-106665157D01*
X126708437Y-106687766D01*
X126711856Y-106710821D01*
X126713000Y-106734100D01*
X126713000Y-107309100D01*
X126711856Y-107332379D01*
X126708437Y-107355434D01*
X126702773Y-107378043D01*
X126694921Y-107399987D01*
X126684956Y-107421057D01*
X126672974Y-107441048D01*
X126659090Y-107459768D01*
X126643438Y-107477038D01*
X126626168Y-107492690D01*
X126607448Y-107506574D01*
X126587457Y-107518556D01*
X126566387Y-107528521D01*
X126544443Y-107536373D01*
X126521834Y-107542037D01*
X126498779Y-107545456D01*
X126475500Y-107546600D01*
X126000500Y-107546600D01*
X125977221Y-107545456D01*
X125954166Y-107542037D01*
X125931557Y-107536373D01*
X125909613Y-107528521D01*
X125888543Y-107518556D01*
X125868552Y-107506574D01*
X125849832Y-107492690D01*
X125832562Y-107477038D01*
X125816910Y-107459768D01*
X125803026Y-107441048D01*
X125791044Y-107421057D01*
X125781079Y-107399987D01*
X125773227Y-107378043D01*
X125767563Y-107355434D01*
X125764144Y-107332379D01*
X125763000Y-107309100D01*
X125763000Y-106734100D01*
X125764144Y-106710821D01*
X125767563Y-106687766D01*
X125773227Y-106665157D01*
X125781079Y-106643213D01*
X125791044Y-106622143D01*
X125803026Y-106602152D01*
X125816910Y-106583432D01*
X125832562Y-106566162D01*
X125849832Y-106550510D01*
X125868552Y-106536626D01*
X125888543Y-106524644D01*
X125909613Y-106514679D01*
X125931557Y-106506827D01*
X125954166Y-106501163D01*
X125977221Y-106497744D01*
X126000500Y-106496600D01*
X126475500Y-106496600D01*
X126498779Y-106497744D01*
X126498779Y-106497744D01*
G37*
D13*
X126238000Y-107021600D03*
D12*
G36*
X126498779Y-104747744D02*
G01*
X126521834Y-104751163D01*
X126544443Y-104756827D01*
X126566387Y-104764679D01*
X126587457Y-104774644D01*
X126607448Y-104786626D01*
X126626168Y-104800510D01*
X126643438Y-104816162D01*
X126659090Y-104833432D01*
X126672974Y-104852152D01*
X126684956Y-104872143D01*
X126694921Y-104893213D01*
X126702773Y-104915157D01*
X126708437Y-104937766D01*
X126711856Y-104960821D01*
X126713000Y-104984100D01*
X126713000Y-105559100D01*
X126711856Y-105582379D01*
X126708437Y-105605434D01*
X126702773Y-105628043D01*
X126694921Y-105649987D01*
X126684956Y-105671057D01*
X126672974Y-105691048D01*
X126659090Y-105709768D01*
X126643438Y-105727038D01*
X126626168Y-105742690D01*
X126607448Y-105756574D01*
X126587457Y-105768556D01*
X126566387Y-105778521D01*
X126544443Y-105786373D01*
X126521834Y-105792037D01*
X126498779Y-105795456D01*
X126475500Y-105796600D01*
X126000500Y-105796600D01*
X125977221Y-105795456D01*
X125954166Y-105792037D01*
X125931557Y-105786373D01*
X125909613Y-105778521D01*
X125888543Y-105768556D01*
X125868552Y-105756574D01*
X125849832Y-105742690D01*
X125832562Y-105727038D01*
X125816910Y-105709768D01*
X125803026Y-105691048D01*
X125791044Y-105671057D01*
X125781079Y-105649987D01*
X125773227Y-105628043D01*
X125767563Y-105605434D01*
X125764144Y-105582379D01*
X125763000Y-105559100D01*
X125763000Y-104984100D01*
X125764144Y-104960821D01*
X125767563Y-104937766D01*
X125773227Y-104915157D01*
X125781079Y-104893213D01*
X125791044Y-104872143D01*
X125803026Y-104852152D01*
X125816910Y-104833432D01*
X125832562Y-104816162D01*
X125849832Y-104800510D01*
X125868552Y-104786626D01*
X125888543Y-104774644D01*
X125909613Y-104764679D01*
X125931557Y-104756827D01*
X125954166Y-104751163D01*
X125977221Y-104747744D01*
X126000500Y-104746600D01*
X126475500Y-104746600D01*
X126498779Y-104747744D01*
X126498779Y-104747744D01*
G37*
D13*
X126238000Y-105271600D03*
D12*
G36*
X126498779Y-99261344D02*
G01*
X126521834Y-99264763D01*
X126544443Y-99270427D01*
X126566387Y-99278279D01*
X126587457Y-99288244D01*
X126607448Y-99300226D01*
X126626168Y-99314110D01*
X126643438Y-99329762D01*
X126659090Y-99347032D01*
X126672974Y-99365752D01*
X126684956Y-99385743D01*
X126694921Y-99406813D01*
X126702773Y-99428757D01*
X126708437Y-99451366D01*
X126711856Y-99474421D01*
X126713000Y-99497700D01*
X126713000Y-100072700D01*
X126711856Y-100095979D01*
X126708437Y-100119034D01*
X126702773Y-100141643D01*
X126694921Y-100163587D01*
X126684956Y-100184657D01*
X126672974Y-100204648D01*
X126659090Y-100223368D01*
X126643438Y-100240638D01*
X126626168Y-100256290D01*
X126607448Y-100270174D01*
X126587457Y-100282156D01*
X126566387Y-100292121D01*
X126544443Y-100299973D01*
X126521834Y-100305637D01*
X126498779Y-100309056D01*
X126475500Y-100310200D01*
X126000500Y-100310200D01*
X125977221Y-100309056D01*
X125954166Y-100305637D01*
X125931557Y-100299973D01*
X125909613Y-100292121D01*
X125888543Y-100282156D01*
X125868552Y-100270174D01*
X125849832Y-100256290D01*
X125832562Y-100240638D01*
X125816910Y-100223368D01*
X125803026Y-100204648D01*
X125791044Y-100184657D01*
X125781079Y-100163587D01*
X125773227Y-100141643D01*
X125767563Y-100119034D01*
X125764144Y-100095979D01*
X125763000Y-100072700D01*
X125763000Y-99497700D01*
X125764144Y-99474421D01*
X125767563Y-99451366D01*
X125773227Y-99428757D01*
X125781079Y-99406813D01*
X125791044Y-99385743D01*
X125803026Y-99365752D01*
X125816910Y-99347032D01*
X125832562Y-99329762D01*
X125849832Y-99314110D01*
X125868552Y-99300226D01*
X125888543Y-99288244D01*
X125909613Y-99278279D01*
X125931557Y-99270427D01*
X125954166Y-99264763D01*
X125977221Y-99261344D01*
X126000500Y-99260200D01*
X126475500Y-99260200D01*
X126498779Y-99261344D01*
X126498779Y-99261344D01*
G37*
D13*
X126238000Y-99785200D03*
D12*
G36*
X126498779Y-101011344D02*
G01*
X126521834Y-101014763D01*
X126544443Y-101020427D01*
X126566387Y-101028279D01*
X126587457Y-101038244D01*
X126607448Y-101050226D01*
X126626168Y-101064110D01*
X126643438Y-101079762D01*
X126659090Y-101097032D01*
X126672974Y-101115752D01*
X126684956Y-101135743D01*
X126694921Y-101156813D01*
X126702773Y-101178757D01*
X126708437Y-101201366D01*
X126711856Y-101224421D01*
X126713000Y-101247700D01*
X126713000Y-101822700D01*
X126711856Y-101845979D01*
X126708437Y-101869034D01*
X126702773Y-101891643D01*
X126694921Y-101913587D01*
X126684956Y-101934657D01*
X126672974Y-101954648D01*
X126659090Y-101973368D01*
X126643438Y-101990638D01*
X126626168Y-102006290D01*
X126607448Y-102020174D01*
X126587457Y-102032156D01*
X126566387Y-102042121D01*
X126544443Y-102049973D01*
X126521834Y-102055637D01*
X126498779Y-102059056D01*
X126475500Y-102060200D01*
X126000500Y-102060200D01*
X125977221Y-102059056D01*
X125954166Y-102055637D01*
X125931557Y-102049973D01*
X125909613Y-102042121D01*
X125888543Y-102032156D01*
X125868552Y-102020174D01*
X125849832Y-102006290D01*
X125832562Y-101990638D01*
X125816910Y-101973368D01*
X125803026Y-101954648D01*
X125791044Y-101934657D01*
X125781079Y-101913587D01*
X125773227Y-101891643D01*
X125767563Y-101869034D01*
X125764144Y-101845979D01*
X125763000Y-101822700D01*
X125763000Y-101247700D01*
X125764144Y-101224421D01*
X125767563Y-101201366D01*
X125773227Y-101178757D01*
X125781079Y-101156813D01*
X125791044Y-101135743D01*
X125803026Y-101115752D01*
X125816910Y-101097032D01*
X125832562Y-101079762D01*
X125849832Y-101064110D01*
X125868552Y-101050226D01*
X125888543Y-101038244D01*
X125909613Y-101028279D01*
X125931557Y-101020427D01*
X125954166Y-101014763D01*
X125977221Y-101011344D01*
X126000500Y-101010200D01*
X126475500Y-101010200D01*
X126498779Y-101011344D01*
X126498779Y-101011344D01*
G37*
D13*
X126238000Y-101535200D03*
D12*
G36*
X138563779Y-106483744D02*
G01*
X138586834Y-106487163D01*
X138609443Y-106492827D01*
X138631387Y-106500679D01*
X138652457Y-106510644D01*
X138672448Y-106522626D01*
X138691168Y-106536510D01*
X138708438Y-106552162D01*
X138724090Y-106569432D01*
X138737974Y-106588152D01*
X138749956Y-106608143D01*
X138759921Y-106629213D01*
X138767773Y-106651157D01*
X138773437Y-106673766D01*
X138776856Y-106696821D01*
X138778000Y-106720100D01*
X138778000Y-107295100D01*
X138776856Y-107318379D01*
X138773437Y-107341434D01*
X138767773Y-107364043D01*
X138759921Y-107385987D01*
X138749956Y-107407057D01*
X138737974Y-107427048D01*
X138724090Y-107445768D01*
X138708438Y-107463038D01*
X138691168Y-107478690D01*
X138672448Y-107492574D01*
X138652457Y-107504556D01*
X138631387Y-107514521D01*
X138609443Y-107522373D01*
X138586834Y-107528037D01*
X138563779Y-107531456D01*
X138540500Y-107532600D01*
X138065500Y-107532600D01*
X138042221Y-107531456D01*
X138019166Y-107528037D01*
X137996557Y-107522373D01*
X137974613Y-107514521D01*
X137953543Y-107504556D01*
X137933552Y-107492574D01*
X137914832Y-107478690D01*
X137897562Y-107463038D01*
X137881910Y-107445768D01*
X137868026Y-107427048D01*
X137856044Y-107407057D01*
X137846079Y-107385987D01*
X137838227Y-107364043D01*
X137832563Y-107341434D01*
X137829144Y-107318379D01*
X137828000Y-107295100D01*
X137828000Y-106720100D01*
X137829144Y-106696821D01*
X137832563Y-106673766D01*
X137838227Y-106651157D01*
X137846079Y-106629213D01*
X137856044Y-106608143D01*
X137868026Y-106588152D01*
X137881910Y-106569432D01*
X137897562Y-106552162D01*
X137914832Y-106536510D01*
X137933552Y-106522626D01*
X137953543Y-106510644D01*
X137974613Y-106500679D01*
X137996557Y-106492827D01*
X138019166Y-106487163D01*
X138042221Y-106483744D01*
X138065500Y-106482600D01*
X138540500Y-106482600D01*
X138563779Y-106483744D01*
X138563779Y-106483744D01*
G37*
D13*
X138303000Y-107007600D03*
D12*
G36*
X138563779Y-104733744D02*
G01*
X138586834Y-104737163D01*
X138609443Y-104742827D01*
X138631387Y-104750679D01*
X138652457Y-104760644D01*
X138672448Y-104772626D01*
X138691168Y-104786510D01*
X138708438Y-104802162D01*
X138724090Y-104819432D01*
X138737974Y-104838152D01*
X138749956Y-104858143D01*
X138759921Y-104879213D01*
X138767773Y-104901157D01*
X138773437Y-104923766D01*
X138776856Y-104946821D01*
X138778000Y-104970100D01*
X138778000Y-105545100D01*
X138776856Y-105568379D01*
X138773437Y-105591434D01*
X138767773Y-105614043D01*
X138759921Y-105635987D01*
X138749956Y-105657057D01*
X138737974Y-105677048D01*
X138724090Y-105695768D01*
X138708438Y-105713038D01*
X138691168Y-105728690D01*
X138672448Y-105742574D01*
X138652457Y-105754556D01*
X138631387Y-105764521D01*
X138609443Y-105772373D01*
X138586834Y-105778037D01*
X138563779Y-105781456D01*
X138540500Y-105782600D01*
X138065500Y-105782600D01*
X138042221Y-105781456D01*
X138019166Y-105778037D01*
X137996557Y-105772373D01*
X137974613Y-105764521D01*
X137953543Y-105754556D01*
X137933552Y-105742574D01*
X137914832Y-105728690D01*
X137897562Y-105713038D01*
X137881910Y-105695768D01*
X137868026Y-105677048D01*
X137856044Y-105657057D01*
X137846079Y-105635987D01*
X137838227Y-105614043D01*
X137832563Y-105591434D01*
X137829144Y-105568379D01*
X137828000Y-105545100D01*
X137828000Y-104970100D01*
X137829144Y-104946821D01*
X137832563Y-104923766D01*
X137838227Y-104901157D01*
X137846079Y-104879213D01*
X137856044Y-104858143D01*
X137868026Y-104838152D01*
X137881910Y-104819432D01*
X137897562Y-104802162D01*
X137914832Y-104786510D01*
X137933552Y-104772626D01*
X137953543Y-104760644D01*
X137974613Y-104750679D01*
X137996557Y-104742827D01*
X138019166Y-104737163D01*
X138042221Y-104733744D01*
X138065500Y-104732600D01*
X138540500Y-104732600D01*
X138563779Y-104733744D01*
X138563779Y-104733744D01*
G37*
D13*
X138303000Y-105257600D03*
D12*
G36*
X144444379Y-77986744D02*
G01*
X144467434Y-77990163D01*
X144490043Y-77995827D01*
X144511987Y-78003679D01*
X144533057Y-78013644D01*
X144553048Y-78025626D01*
X144571768Y-78039510D01*
X144589038Y-78055162D01*
X144604690Y-78072432D01*
X144618574Y-78091152D01*
X144630556Y-78111143D01*
X144640521Y-78132213D01*
X144648373Y-78154157D01*
X144654037Y-78176766D01*
X144657456Y-78199821D01*
X144658600Y-78223100D01*
X144658600Y-78698100D01*
X144657456Y-78721379D01*
X144654037Y-78744434D01*
X144648373Y-78767043D01*
X144640521Y-78788987D01*
X144630556Y-78810057D01*
X144618574Y-78830048D01*
X144604690Y-78848768D01*
X144589038Y-78866038D01*
X144571768Y-78881690D01*
X144553048Y-78895574D01*
X144533057Y-78907556D01*
X144511987Y-78917521D01*
X144490043Y-78925373D01*
X144467434Y-78931037D01*
X144444379Y-78934456D01*
X144421100Y-78935600D01*
X143846100Y-78935600D01*
X143822821Y-78934456D01*
X143799766Y-78931037D01*
X143777157Y-78925373D01*
X143755213Y-78917521D01*
X143734143Y-78907556D01*
X143714152Y-78895574D01*
X143695432Y-78881690D01*
X143678162Y-78866038D01*
X143662510Y-78848768D01*
X143648626Y-78830048D01*
X143636644Y-78810057D01*
X143626679Y-78788987D01*
X143618827Y-78767043D01*
X143613163Y-78744434D01*
X143609744Y-78721379D01*
X143608600Y-78698100D01*
X143608600Y-78223100D01*
X143609744Y-78199821D01*
X143613163Y-78176766D01*
X143618827Y-78154157D01*
X143626679Y-78132213D01*
X143636644Y-78111143D01*
X143648626Y-78091152D01*
X143662510Y-78072432D01*
X143678162Y-78055162D01*
X143695432Y-78039510D01*
X143714152Y-78025626D01*
X143734143Y-78013644D01*
X143755213Y-78003679D01*
X143777157Y-77995827D01*
X143799766Y-77990163D01*
X143822821Y-77986744D01*
X143846100Y-77985600D01*
X144421100Y-77985600D01*
X144444379Y-77986744D01*
X144444379Y-77986744D01*
G37*
D13*
X144133600Y-78460600D03*
D12*
G36*
X146194379Y-77986744D02*
G01*
X146217434Y-77990163D01*
X146240043Y-77995827D01*
X146261987Y-78003679D01*
X146283057Y-78013644D01*
X146303048Y-78025626D01*
X146321768Y-78039510D01*
X146339038Y-78055162D01*
X146354690Y-78072432D01*
X146368574Y-78091152D01*
X146380556Y-78111143D01*
X146390521Y-78132213D01*
X146398373Y-78154157D01*
X146404037Y-78176766D01*
X146407456Y-78199821D01*
X146408600Y-78223100D01*
X146408600Y-78698100D01*
X146407456Y-78721379D01*
X146404037Y-78744434D01*
X146398373Y-78767043D01*
X146390521Y-78788987D01*
X146380556Y-78810057D01*
X146368574Y-78830048D01*
X146354690Y-78848768D01*
X146339038Y-78866038D01*
X146321768Y-78881690D01*
X146303048Y-78895574D01*
X146283057Y-78907556D01*
X146261987Y-78917521D01*
X146240043Y-78925373D01*
X146217434Y-78931037D01*
X146194379Y-78934456D01*
X146171100Y-78935600D01*
X145596100Y-78935600D01*
X145572821Y-78934456D01*
X145549766Y-78931037D01*
X145527157Y-78925373D01*
X145505213Y-78917521D01*
X145484143Y-78907556D01*
X145464152Y-78895574D01*
X145445432Y-78881690D01*
X145428162Y-78866038D01*
X145412510Y-78848768D01*
X145398626Y-78830048D01*
X145386644Y-78810057D01*
X145376679Y-78788987D01*
X145368827Y-78767043D01*
X145363163Y-78744434D01*
X145359744Y-78721379D01*
X145358600Y-78698100D01*
X145358600Y-78223100D01*
X145359744Y-78199821D01*
X145363163Y-78176766D01*
X145368827Y-78154157D01*
X145376679Y-78132213D01*
X145386644Y-78111143D01*
X145398626Y-78091152D01*
X145412510Y-78072432D01*
X145428162Y-78055162D01*
X145445432Y-78039510D01*
X145464152Y-78025626D01*
X145484143Y-78013644D01*
X145505213Y-78003679D01*
X145527157Y-77995827D01*
X145549766Y-77990163D01*
X145572821Y-77986744D01*
X145596100Y-77985600D01*
X146171100Y-77985600D01*
X146194379Y-77986744D01*
X146194379Y-77986744D01*
G37*
D13*
X145883600Y-78460600D03*
D12*
G36*
X154897779Y-111150644D02*
G01*
X154920834Y-111154063D01*
X154943443Y-111159727D01*
X154965387Y-111167579D01*
X154986457Y-111177544D01*
X155006448Y-111189526D01*
X155025168Y-111203410D01*
X155042438Y-111219062D01*
X155058090Y-111236332D01*
X155071974Y-111255052D01*
X155083956Y-111275043D01*
X155093921Y-111296113D01*
X155101773Y-111318057D01*
X155107437Y-111340666D01*
X155110856Y-111363721D01*
X155112000Y-111387000D01*
X155112000Y-111862000D01*
X155110856Y-111885279D01*
X155107437Y-111908334D01*
X155101773Y-111930943D01*
X155093921Y-111952887D01*
X155083956Y-111973957D01*
X155071974Y-111993948D01*
X155058090Y-112012668D01*
X155042438Y-112029938D01*
X155025168Y-112045590D01*
X155006448Y-112059474D01*
X154986457Y-112071456D01*
X154965387Y-112081421D01*
X154943443Y-112089273D01*
X154920834Y-112094937D01*
X154897779Y-112098356D01*
X154874500Y-112099500D01*
X154299500Y-112099500D01*
X154276221Y-112098356D01*
X154253166Y-112094937D01*
X154230557Y-112089273D01*
X154208613Y-112081421D01*
X154187543Y-112071456D01*
X154167552Y-112059474D01*
X154148832Y-112045590D01*
X154131562Y-112029938D01*
X154115910Y-112012668D01*
X154102026Y-111993948D01*
X154090044Y-111973957D01*
X154080079Y-111952887D01*
X154072227Y-111930943D01*
X154066563Y-111908334D01*
X154063144Y-111885279D01*
X154062000Y-111862000D01*
X154062000Y-111387000D01*
X154063144Y-111363721D01*
X154066563Y-111340666D01*
X154072227Y-111318057D01*
X154080079Y-111296113D01*
X154090044Y-111275043D01*
X154102026Y-111255052D01*
X154115910Y-111236332D01*
X154131562Y-111219062D01*
X154148832Y-111203410D01*
X154167552Y-111189526D01*
X154187543Y-111177544D01*
X154208613Y-111167579D01*
X154230557Y-111159727D01*
X154253166Y-111154063D01*
X154276221Y-111150644D01*
X154299500Y-111149500D01*
X154874500Y-111149500D01*
X154897779Y-111150644D01*
X154897779Y-111150644D01*
G37*
D13*
X154587000Y-111624500D03*
D12*
G36*
X156647779Y-111150644D02*
G01*
X156670834Y-111154063D01*
X156693443Y-111159727D01*
X156715387Y-111167579D01*
X156736457Y-111177544D01*
X156756448Y-111189526D01*
X156775168Y-111203410D01*
X156792438Y-111219062D01*
X156808090Y-111236332D01*
X156821974Y-111255052D01*
X156833956Y-111275043D01*
X156843921Y-111296113D01*
X156851773Y-111318057D01*
X156857437Y-111340666D01*
X156860856Y-111363721D01*
X156862000Y-111387000D01*
X156862000Y-111862000D01*
X156860856Y-111885279D01*
X156857437Y-111908334D01*
X156851773Y-111930943D01*
X156843921Y-111952887D01*
X156833956Y-111973957D01*
X156821974Y-111993948D01*
X156808090Y-112012668D01*
X156792438Y-112029938D01*
X156775168Y-112045590D01*
X156756448Y-112059474D01*
X156736457Y-112071456D01*
X156715387Y-112081421D01*
X156693443Y-112089273D01*
X156670834Y-112094937D01*
X156647779Y-112098356D01*
X156624500Y-112099500D01*
X156049500Y-112099500D01*
X156026221Y-112098356D01*
X156003166Y-112094937D01*
X155980557Y-112089273D01*
X155958613Y-112081421D01*
X155937543Y-112071456D01*
X155917552Y-112059474D01*
X155898832Y-112045590D01*
X155881562Y-112029938D01*
X155865910Y-112012668D01*
X155852026Y-111993948D01*
X155840044Y-111973957D01*
X155830079Y-111952887D01*
X155822227Y-111930943D01*
X155816563Y-111908334D01*
X155813144Y-111885279D01*
X155812000Y-111862000D01*
X155812000Y-111387000D01*
X155813144Y-111363721D01*
X155816563Y-111340666D01*
X155822227Y-111318057D01*
X155830079Y-111296113D01*
X155840044Y-111275043D01*
X155852026Y-111255052D01*
X155865910Y-111236332D01*
X155881562Y-111219062D01*
X155898832Y-111203410D01*
X155917552Y-111189526D01*
X155937543Y-111177544D01*
X155958613Y-111167579D01*
X155980557Y-111159727D01*
X156003166Y-111154063D01*
X156026221Y-111150644D01*
X156049500Y-111149500D01*
X156624500Y-111149500D01*
X156647779Y-111150644D01*
X156647779Y-111150644D01*
G37*
D13*
X156337000Y-111624500D03*
D12*
G36*
X122357779Y-74710144D02*
G01*
X122380834Y-74713563D01*
X122403443Y-74719227D01*
X122425387Y-74727079D01*
X122446457Y-74737044D01*
X122466448Y-74749026D01*
X122485168Y-74762910D01*
X122502438Y-74778562D01*
X122518090Y-74795832D01*
X122531974Y-74814552D01*
X122543956Y-74834543D01*
X122553921Y-74855613D01*
X122561773Y-74877557D01*
X122567437Y-74900166D01*
X122570856Y-74923221D01*
X122572000Y-74946500D01*
X122572000Y-75421500D01*
X122570856Y-75444779D01*
X122567437Y-75467834D01*
X122561773Y-75490443D01*
X122553921Y-75512387D01*
X122543956Y-75533457D01*
X122531974Y-75553448D01*
X122518090Y-75572168D01*
X122502438Y-75589438D01*
X122485168Y-75605090D01*
X122466448Y-75618974D01*
X122446457Y-75630956D01*
X122425387Y-75640921D01*
X122403443Y-75648773D01*
X122380834Y-75654437D01*
X122357779Y-75657856D01*
X122334500Y-75659000D01*
X121759500Y-75659000D01*
X121736221Y-75657856D01*
X121713166Y-75654437D01*
X121690557Y-75648773D01*
X121668613Y-75640921D01*
X121647543Y-75630956D01*
X121627552Y-75618974D01*
X121608832Y-75605090D01*
X121591562Y-75589438D01*
X121575910Y-75572168D01*
X121562026Y-75553448D01*
X121550044Y-75533457D01*
X121540079Y-75512387D01*
X121532227Y-75490443D01*
X121526563Y-75467834D01*
X121523144Y-75444779D01*
X121522000Y-75421500D01*
X121522000Y-74946500D01*
X121523144Y-74923221D01*
X121526563Y-74900166D01*
X121532227Y-74877557D01*
X121540079Y-74855613D01*
X121550044Y-74834543D01*
X121562026Y-74814552D01*
X121575910Y-74795832D01*
X121591562Y-74778562D01*
X121608832Y-74762910D01*
X121627552Y-74749026D01*
X121647543Y-74737044D01*
X121668613Y-74727079D01*
X121690557Y-74719227D01*
X121713166Y-74713563D01*
X121736221Y-74710144D01*
X121759500Y-74709000D01*
X122334500Y-74709000D01*
X122357779Y-74710144D01*
X122357779Y-74710144D01*
G37*
D13*
X122047000Y-75184000D03*
D12*
G36*
X120607779Y-74710144D02*
G01*
X120630834Y-74713563D01*
X120653443Y-74719227D01*
X120675387Y-74727079D01*
X120696457Y-74737044D01*
X120716448Y-74749026D01*
X120735168Y-74762910D01*
X120752438Y-74778562D01*
X120768090Y-74795832D01*
X120781974Y-74814552D01*
X120793956Y-74834543D01*
X120803921Y-74855613D01*
X120811773Y-74877557D01*
X120817437Y-74900166D01*
X120820856Y-74923221D01*
X120822000Y-74946500D01*
X120822000Y-75421500D01*
X120820856Y-75444779D01*
X120817437Y-75467834D01*
X120811773Y-75490443D01*
X120803921Y-75512387D01*
X120793956Y-75533457D01*
X120781974Y-75553448D01*
X120768090Y-75572168D01*
X120752438Y-75589438D01*
X120735168Y-75605090D01*
X120716448Y-75618974D01*
X120696457Y-75630956D01*
X120675387Y-75640921D01*
X120653443Y-75648773D01*
X120630834Y-75654437D01*
X120607779Y-75657856D01*
X120584500Y-75659000D01*
X120009500Y-75659000D01*
X119986221Y-75657856D01*
X119963166Y-75654437D01*
X119940557Y-75648773D01*
X119918613Y-75640921D01*
X119897543Y-75630956D01*
X119877552Y-75618974D01*
X119858832Y-75605090D01*
X119841562Y-75589438D01*
X119825910Y-75572168D01*
X119812026Y-75553448D01*
X119800044Y-75533457D01*
X119790079Y-75512387D01*
X119782227Y-75490443D01*
X119776563Y-75467834D01*
X119773144Y-75444779D01*
X119772000Y-75421500D01*
X119772000Y-74946500D01*
X119773144Y-74923221D01*
X119776563Y-74900166D01*
X119782227Y-74877557D01*
X119790079Y-74855613D01*
X119800044Y-74834543D01*
X119812026Y-74814552D01*
X119825910Y-74795832D01*
X119841562Y-74778562D01*
X119858832Y-74762910D01*
X119877552Y-74749026D01*
X119897543Y-74737044D01*
X119918613Y-74727079D01*
X119940557Y-74719227D01*
X119963166Y-74713563D01*
X119986221Y-74710144D01*
X120009500Y-74709000D01*
X120584500Y-74709000D01*
X120607779Y-74710144D01*
X120607779Y-74710144D01*
G37*
D13*
X120297000Y-75184000D03*
D12*
G36*
X122329779Y-71916144D02*
G01*
X122352834Y-71919563D01*
X122375443Y-71925227D01*
X122397387Y-71933079D01*
X122418457Y-71943044D01*
X122438448Y-71955026D01*
X122457168Y-71968910D01*
X122474438Y-71984562D01*
X122490090Y-72001832D01*
X122503974Y-72020552D01*
X122515956Y-72040543D01*
X122525921Y-72061613D01*
X122533773Y-72083557D01*
X122539437Y-72106166D01*
X122542856Y-72129221D01*
X122544000Y-72152500D01*
X122544000Y-72627500D01*
X122542856Y-72650779D01*
X122539437Y-72673834D01*
X122533773Y-72696443D01*
X122525921Y-72718387D01*
X122515956Y-72739457D01*
X122503974Y-72759448D01*
X122490090Y-72778168D01*
X122474438Y-72795438D01*
X122457168Y-72811090D01*
X122438448Y-72824974D01*
X122418457Y-72836956D01*
X122397387Y-72846921D01*
X122375443Y-72854773D01*
X122352834Y-72860437D01*
X122329779Y-72863856D01*
X122306500Y-72865000D01*
X121731500Y-72865000D01*
X121708221Y-72863856D01*
X121685166Y-72860437D01*
X121662557Y-72854773D01*
X121640613Y-72846921D01*
X121619543Y-72836956D01*
X121599552Y-72824974D01*
X121580832Y-72811090D01*
X121563562Y-72795438D01*
X121547910Y-72778168D01*
X121534026Y-72759448D01*
X121522044Y-72739457D01*
X121512079Y-72718387D01*
X121504227Y-72696443D01*
X121498563Y-72673834D01*
X121495144Y-72650779D01*
X121494000Y-72627500D01*
X121494000Y-72152500D01*
X121495144Y-72129221D01*
X121498563Y-72106166D01*
X121504227Y-72083557D01*
X121512079Y-72061613D01*
X121522044Y-72040543D01*
X121534026Y-72020552D01*
X121547910Y-72001832D01*
X121563562Y-71984562D01*
X121580832Y-71968910D01*
X121599552Y-71955026D01*
X121619543Y-71943044D01*
X121640613Y-71933079D01*
X121662557Y-71925227D01*
X121685166Y-71919563D01*
X121708221Y-71916144D01*
X121731500Y-71915000D01*
X122306500Y-71915000D01*
X122329779Y-71916144D01*
X122329779Y-71916144D01*
G37*
D13*
X122019000Y-72390000D03*
D12*
G36*
X120579779Y-71916144D02*
G01*
X120602834Y-71919563D01*
X120625443Y-71925227D01*
X120647387Y-71933079D01*
X120668457Y-71943044D01*
X120688448Y-71955026D01*
X120707168Y-71968910D01*
X120724438Y-71984562D01*
X120740090Y-72001832D01*
X120753974Y-72020552D01*
X120765956Y-72040543D01*
X120775921Y-72061613D01*
X120783773Y-72083557D01*
X120789437Y-72106166D01*
X120792856Y-72129221D01*
X120794000Y-72152500D01*
X120794000Y-72627500D01*
X120792856Y-72650779D01*
X120789437Y-72673834D01*
X120783773Y-72696443D01*
X120775921Y-72718387D01*
X120765956Y-72739457D01*
X120753974Y-72759448D01*
X120740090Y-72778168D01*
X120724438Y-72795438D01*
X120707168Y-72811090D01*
X120688448Y-72824974D01*
X120668457Y-72836956D01*
X120647387Y-72846921D01*
X120625443Y-72854773D01*
X120602834Y-72860437D01*
X120579779Y-72863856D01*
X120556500Y-72865000D01*
X119981500Y-72865000D01*
X119958221Y-72863856D01*
X119935166Y-72860437D01*
X119912557Y-72854773D01*
X119890613Y-72846921D01*
X119869543Y-72836956D01*
X119849552Y-72824974D01*
X119830832Y-72811090D01*
X119813562Y-72795438D01*
X119797910Y-72778168D01*
X119784026Y-72759448D01*
X119772044Y-72739457D01*
X119762079Y-72718387D01*
X119754227Y-72696443D01*
X119748563Y-72673834D01*
X119745144Y-72650779D01*
X119744000Y-72627500D01*
X119744000Y-72152500D01*
X119745144Y-72129221D01*
X119748563Y-72106166D01*
X119754227Y-72083557D01*
X119762079Y-72061613D01*
X119772044Y-72040543D01*
X119784026Y-72020552D01*
X119797910Y-72001832D01*
X119813562Y-71984562D01*
X119830832Y-71968910D01*
X119849552Y-71955026D01*
X119869543Y-71943044D01*
X119890613Y-71933079D01*
X119912557Y-71925227D01*
X119935166Y-71919563D01*
X119958221Y-71916144D01*
X119981500Y-71915000D01*
X120556500Y-71915000D01*
X120579779Y-71916144D01*
X120579779Y-71916144D01*
G37*
D13*
X120269000Y-72390000D03*
D12*
G36*
X155024779Y-103984004D02*
G01*
X155047834Y-103987423D01*
X155070443Y-103993087D01*
X155092387Y-104000939D01*
X155113457Y-104010904D01*
X155133448Y-104022886D01*
X155152168Y-104036770D01*
X155169438Y-104052422D01*
X155185090Y-104069692D01*
X155198974Y-104088412D01*
X155210956Y-104108403D01*
X155220921Y-104129473D01*
X155228773Y-104151417D01*
X155234437Y-104174026D01*
X155237856Y-104197081D01*
X155239000Y-104220360D01*
X155239000Y-104695360D01*
X155237856Y-104718639D01*
X155234437Y-104741694D01*
X155228773Y-104764303D01*
X155220921Y-104786247D01*
X155210956Y-104807317D01*
X155198974Y-104827308D01*
X155185090Y-104846028D01*
X155169438Y-104863298D01*
X155152168Y-104878950D01*
X155133448Y-104892834D01*
X155113457Y-104904816D01*
X155092387Y-104914781D01*
X155070443Y-104922633D01*
X155047834Y-104928297D01*
X155024779Y-104931716D01*
X155001500Y-104932860D01*
X154426500Y-104932860D01*
X154403221Y-104931716D01*
X154380166Y-104928297D01*
X154357557Y-104922633D01*
X154335613Y-104914781D01*
X154314543Y-104904816D01*
X154294552Y-104892834D01*
X154275832Y-104878950D01*
X154258562Y-104863298D01*
X154242910Y-104846028D01*
X154229026Y-104827308D01*
X154217044Y-104807317D01*
X154207079Y-104786247D01*
X154199227Y-104764303D01*
X154193563Y-104741694D01*
X154190144Y-104718639D01*
X154189000Y-104695360D01*
X154189000Y-104220360D01*
X154190144Y-104197081D01*
X154193563Y-104174026D01*
X154199227Y-104151417D01*
X154207079Y-104129473D01*
X154217044Y-104108403D01*
X154229026Y-104088412D01*
X154242910Y-104069692D01*
X154258562Y-104052422D01*
X154275832Y-104036770D01*
X154294552Y-104022886D01*
X154314543Y-104010904D01*
X154335613Y-104000939D01*
X154357557Y-103993087D01*
X154380166Y-103987423D01*
X154403221Y-103984004D01*
X154426500Y-103982860D01*
X155001500Y-103982860D01*
X155024779Y-103984004D01*
X155024779Y-103984004D01*
G37*
D13*
X154714000Y-104457860D03*
D12*
G36*
X156774779Y-103984004D02*
G01*
X156797834Y-103987423D01*
X156820443Y-103993087D01*
X156842387Y-104000939D01*
X156863457Y-104010904D01*
X156883448Y-104022886D01*
X156902168Y-104036770D01*
X156919438Y-104052422D01*
X156935090Y-104069692D01*
X156948974Y-104088412D01*
X156960956Y-104108403D01*
X156970921Y-104129473D01*
X156978773Y-104151417D01*
X156984437Y-104174026D01*
X156987856Y-104197081D01*
X156989000Y-104220360D01*
X156989000Y-104695360D01*
X156987856Y-104718639D01*
X156984437Y-104741694D01*
X156978773Y-104764303D01*
X156970921Y-104786247D01*
X156960956Y-104807317D01*
X156948974Y-104827308D01*
X156935090Y-104846028D01*
X156919438Y-104863298D01*
X156902168Y-104878950D01*
X156883448Y-104892834D01*
X156863457Y-104904816D01*
X156842387Y-104914781D01*
X156820443Y-104922633D01*
X156797834Y-104928297D01*
X156774779Y-104931716D01*
X156751500Y-104932860D01*
X156176500Y-104932860D01*
X156153221Y-104931716D01*
X156130166Y-104928297D01*
X156107557Y-104922633D01*
X156085613Y-104914781D01*
X156064543Y-104904816D01*
X156044552Y-104892834D01*
X156025832Y-104878950D01*
X156008562Y-104863298D01*
X155992910Y-104846028D01*
X155979026Y-104827308D01*
X155967044Y-104807317D01*
X155957079Y-104786247D01*
X155949227Y-104764303D01*
X155943563Y-104741694D01*
X155940144Y-104718639D01*
X155939000Y-104695360D01*
X155939000Y-104220360D01*
X155940144Y-104197081D01*
X155943563Y-104174026D01*
X155949227Y-104151417D01*
X155957079Y-104129473D01*
X155967044Y-104108403D01*
X155979026Y-104088412D01*
X155992910Y-104069692D01*
X156008562Y-104052422D01*
X156025832Y-104036770D01*
X156044552Y-104022886D01*
X156064543Y-104010904D01*
X156085613Y-104000939D01*
X156107557Y-103993087D01*
X156130166Y-103987423D01*
X156153221Y-103984004D01*
X156176500Y-103982860D01*
X156751500Y-103982860D01*
X156774779Y-103984004D01*
X156774779Y-103984004D01*
G37*
D13*
X156464000Y-104457860D03*
D12*
G36*
X154897779Y-121568061D02*
G01*
X154920834Y-121571480D01*
X154943443Y-121577144D01*
X154965387Y-121584996D01*
X154986457Y-121594961D01*
X155006448Y-121606943D01*
X155025168Y-121620827D01*
X155042438Y-121636479D01*
X155058090Y-121653749D01*
X155071974Y-121672469D01*
X155083956Y-121692460D01*
X155093921Y-121713530D01*
X155101773Y-121735474D01*
X155107437Y-121758083D01*
X155110856Y-121781138D01*
X155112000Y-121804417D01*
X155112000Y-122279417D01*
X155110856Y-122302696D01*
X155107437Y-122325751D01*
X155101773Y-122348360D01*
X155093921Y-122370304D01*
X155083956Y-122391374D01*
X155071974Y-122411365D01*
X155058090Y-122430085D01*
X155042438Y-122447355D01*
X155025168Y-122463007D01*
X155006448Y-122476891D01*
X154986457Y-122488873D01*
X154965387Y-122498838D01*
X154943443Y-122506690D01*
X154920834Y-122512354D01*
X154897779Y-122515773D01*
X154874500Y-122516917D01*
X154299500Y-122516917D01*
X154276221Y-122515773D01*
X154253166Y-122512354D01*
X154230557Y-122506690D01*
X154208613Y-122498838D01*
X154187543Y-122488873D01*
X154167552Y-122476891D01*
X154148832Y-122463007D01*
X154131562Y-122447355D01*
X154115910Y-122430085D01*
X154102026Y-122411365D01*
X154090044Y-122391374D01*
X154080079Y-122370304D01*
X154072227Y-122348360D01*
X154066563Y-122325751D01*
X154063144Y-122302696D01*
X154062000Y-122279417D01*
X154062000Y-121804417D01*
X154063144Y-121781138D01*
X154066563Y-121758083D01*
X154072227Y-121735474D01*
X154080079Y-121713530D01*
X154090044Y-121692460D01*
X154102026Y-121672469D01*
X154115910Y-121653749D01*
X154131562Y-121636479D01*
X154148832Y-121620827D01*
X154167552Y-121606943D01*
X154187543Y-121594961D01*
X154208613Y-121584996D01*
X154230557Y-121577144D01*
X154253166Y-121571480D01*
X154276221Y-121568061D01*
X154299500Y-121566917D01*
X154874500Y-121566917D01*
X154897779Y-121568061D01*
X154897779Y-121568061D01*
G37*
D13*
X154587000Y-122041917D03*
D12*
G36*
X156647779Y-121568061D02*
G01*
X156670834Y-121571480D01*
X156693443Y-121577144D01*
X156715387Y-121584996D01*
X156736457Y-121594961D01*
X156756448Y-121606943D01*
X156775168Y-121620827D01*
X156792438Y-121636479D01*
X156808090Y-121653749D01*
X156821974Y-121672469D01*
X156833956Y-121692460D01*
X156843921Y-121713530D01*
X156851773Y-121735474D01*
X156857437Y-121758083D01*
X156860856Y-121781138D01*
X156862000Y-121804417D01*
X156862000Y-122279417D01*
X156860856Y-122302696D01*
X156857437Y-122325751D01*
X156851773Y-122348360D01*
X156843921Y-122370304D01*
X156833956Y-122391374D01*
X156821974Y-122411365D01*
X156808090Y-122430085D01*
X156792438Y-122447355D01*
X156775168Y-122463007D01*
X156756448Y-122476891D01*
X156736457Y-122488873D01*
X156715387Y-122498838D01*
X156693443Y-122506690D01*
X156670834Y-122512354D01*
X156647779Y-122515773D01*
X156624500Y-122516917D01*
X156049500Y-122516917D01*
X156026221Y-122515773D01*
X156003166Y-122512354D01*
X155980557Y-122506690D01*
X155958613Y-122498838D01*
X155937543Y-122488873D01*
X155917552Y-122476891D01*
X155898832Y-122463007D01*
X155881562Y-122447355D01*
X155865910Y-122430085D01*
X155852026Y-122411365D01*
X155840044Y-122391374D01*
X155830079Y-122370304D01*
X155822227Y-122348360D01*
X155816563Y-122325751D01*
X155813144Y-122302696D01*
X155812000Y-122279417D01*
X155812000Y-121804417D01*
X155813144Y-121781138D01*
X155816563Y-121758083D01*
X155822227Y-121735474D01*
X155830079Y-121713530D01*
X155840044Y-121692460D01*
X155852026Y-121672469D01*
X155865910Y-121653749D01*
X155881562Y-121636479D01*
X155898832Y-121620827D01*
X155917552Y-121606943D01*
X155937543Y-121594961D01*
X155958613Y-121584996D01*
X155980557Y-121577144D01*
X156003166Y-121571480D01*
X156026221Y-121568061D01*
X156049500Y-121566917D01*
X156624500Y-121566917D01*
X156647779Y-121568061D01*
X156647779Y-121568061D01*
G37*
D13*
X156337000Y-122041917D03*
D12*
G36*
X154742779Y-124494144D02*
G01*
X154765834Y-124497563D01*
X154788443Y-124503227D01*
X154810387Y-124511079D01*
X154831457Y-124521044D01*
X154851448Y-124533026D01*
X154870168Y-124546910D01*
X154887438Y-124562562D01*
X154903090Y-124579832D01*
X154916974Y-124598552D01*
X154928956Y-124618543D01*
X154938921Y-124639613D01*
X154946773Y-124661557D01*
X154952437Y-124684166D01*
X154955856Y-124707221D01*
X154957000Y-124730500D01*
X154957000Y-125205500D01*
X154955856Y-125228779D01*
X154952437Y-125251834D01*
X154946773Y-125274443D01*
X154938921Y-125296387D01*
X154928956Y-125317457D01*
X154916974Y-125337448D01*
X154903090Y-125356168D01*
X154887438Y-125373438D01*
X154870168Y-125389090D01*
X154851448Y-125402974D01*
X154831457Y-125414956D01*
X154810387Y-125424921D01*
X154788443Y-125432773D01*
X154765834Y-125438437D01*
X154742779Y-125441856D01*
X154719500Y-125443000D01*
X154144500Y-125443000D01*
X154121221Y-125441856D01*
X154098166Y-125438437D01*
X154075557Y-125432773D01*
X154053613Y-125424921D01*
X154032543Y-125414956D01*
X154012552Y-125402974D01*
X153993832Y-125389090D01*
X153976562Y-125373438D01*
X153960910Y-125356168D01*
X153947026Y-125337448D01*
X153935044Y-125317457D01*
X153925079Y-125296387D01*
X153917227Y-125274443D01*
X153911563Y-125251834D01*
X153908144Y-125228779D01*
X153907000Y-125205500D01*
X153907000Y-124730500D01*
X153908144Y-124707221D01*
X153911563Y-124684166D01*
X153917227Y-124661557D01*
X153925079Y-124639613D01*
X153935044Y-124618543D01*
X153947026Y-124598552D01*
X153960910Y-124579832D01*
X153976562Y-124562562D01*
X153993832Y-124546910D01*
X154012552Y-124533026D01*
X154032543Y-124521044D01*
X154053613Y-124511079D01*
X154075557Y-124503227D01*
X154098166Y-124497563D01*
X154121221Y-124494144D01*
X154144500Y-124493000D01*
X154719500Y-124493000D01*
X154742779Y-124494144D01*
X154742779Y-124494144D01*
G37*
D13*
X154432000Y-124968000D03*
D12*
G36*
X156492779Y-124494144D02*
G01*
X156515834Y-124497563D01*
X156538443Y-124503227D01*
X156560387Y-124511079D01*
X156581457Y-124521044D01*
X156601448Y-124533026D01*
X156620168Y-124546910D01*
X156637438Y-124562562D01*
X156653090Y-124579832D01*
X156666974Y-124598552D01*
X156678956Y-124618543D01*
X156688921Y-124639613D01*
X156696773Y-124661557D01*
X156702437Y-124684166D01*
X156705856Y-124707221D01*
X156707000Y-124730500D01*
X156707000Y-125205500D01*
X156705856Y-125228779D01*
X156702437Y-125251834D01*
X156696773Y-125274443D01*
X156688921Y-125296387D01*
X156678956Y-125317457D01*
X156666974Y-125337448D01*
X156653090Y-125356168D01*
X156637438Y-125373438D01*
X156620168Y-125389090D01*
X156601448Y-125402974D01*
X156581457Y-125414956D01*
X156560387Y-125424921D01*
X156538443Y-125432773D01*
X156515834Y-125438437D01*
X156492779Y-125441856D01*
X156469500Y-125443000D01*
X155894500Y-125443000D01*
X155871221Y-125441856D01*
X155848166Y-125438437D01*
X155825557Y-125432773D01*
X155803613Y-125424921D01*
X155782543Y-125414956D01*
X155762552Y-125402974D01*
X155743832Y-125389090D01*
X155726562Y-125373438D01*
X155710910Y-125356168D01*
X155697026Y-125337448D01*
X155685044Y-125317457D01*
X155675079Y-125296387D01*
X155667227Y-125274443D01*
X155661563Y-125251834D01*
X155658144Y-125228779D01*
X155657000Y-125205500D01*
X155657000Y-124730500D01*
X155658144Y-124707221D01*
X155661563Y-124684166D01*
X155667227Y-124661557D01*
X155675079Y-124639613D01*
X155685044Y-124618543D01*
X155697026Y-124598552D01*
X155710910Y-124579832D01*
X155726562Y-124562562D01*
X155743832Y-124546910D01*
X155762552Y-124533026D01*
X155782543Y-124521044D01*
X155803613Y-124511079D01*
X155825557Y-124503227D01*
X155848166Y-124497563D01*
X155871221Y-124494144D01*
X155894500Y-124493000D01*
X156469500Y-124493000D01*
X156492779Y-124494144D01*
X156492779Y-124494144D01*
G37*
D13*
X156182000Y-124968000D03*
D12*
G36*
X146219779Y-69096744D02*
G01*
X146242834Y-69100163D01*
X146265443Y-69105827D01*
X146287387Y-69113679D01*
X146308457Y-69123644D01*
X146328448Y-69135626D01*
X146347168Y-69149510D01*
X146364438Y-69165162D01*
X146380090Y-69182432D01*
X146393974Y-69201152D01*
X146405956Y-69221143D01*
X146415921Y-69242213D01*
X146423773Y-69264157D01*
X146429437Y-69286766D01*
X146432856Y-69309821D01*
X146434000Y-69333100D01*
X146434000Y-69808100D01*
X146432856Y-69831379D01*
X146429437Y-69854434D01*
X146423773Y-69877043D01*
X146415921Y-69898987D01*
X146405956Y-69920057D01*
X146393974Y-69940048D01*
X146380090Y-69958768D01*
X146364438Y-69976038D01*
X146347168Y-69991690D01*
X146328448Y-70005574D01*
X146308457Y-70017556D01*
X146287387Y-70027521D01*
X146265443Y-70035373D01*
X146242834Y-70041037D01*
X146219779Y-70044456D01*
X146196500Y-70045600D01*
X145621500Y-70045600D01*
X145598221Y-70044456D01*
X145575166Y-70041037D01*
X145552557Y-70035373D01*
X145530613Y-70027521D01*
X145509543Y-70017556D01*
X145489552Y-70005574D01*
X145470832Y-69991690D01*
X145453562Y-69976038D01*
X145437910Y-69958768D01*
X145424026Y-69940048D01*
X145412044Y-69920057D01*
X145402079Y-69898987D01*
X145394227Y-69877043D01*
X145388563Y-69854434D01*
X145385144Y-69831379D01*
X145384000Y-69808100D01*
X145384000Y-69333100D01*
X145385144Y-69309821D01*
X145388563Y-69286766D01*
X145394227Y-69264157D01*
X145402079Y-69242213D01*
X145412044Y-69221143D01*
X145424026Y-69201152D01*
X145437910Y-69182432D01*
X145453562Y-69165162D01*
X145470832Y-69149510D01*
X145489552Y-69135626D01*
X145509543Y-69123644D01*
X145530613Y-69113679D01*
X145552557Y-69105827D01*
X145575166Y-69100163D01*
X145598221Y-69096744D01*
X145621500Y-69095600D01*
X146196500Y-69095600D01*
X146219779Y-69096744D01*
X146219779Y-69096744D01*
G37*
D13*
X145909000Y-69570600D03*
D12*
G36*
X144469779Y-69096744D02*
G01*
X144492834Y-69100163D01*
X144515443Y-69105827D01*
X144537387Y-69113679D01*
X144558457Y-69123644D01*
X144578448Y-69135626D01*
X144597168Y-69149510D01*
X144614438Y-69165162D01*
X144630090Y-69182432D01*
X144643974Y-69201152D01*
X144655956Y-69221143D01*
X144665921Y-69242213D01*
X144673773Y-69264157D01*
X144679437Y-69286766D01*
X144682856Y-69309821D01*
X144684000Y-69333100D01*
X144684000Y-69808100D01*
X144682856Y-69831379D01*
X144679437Y-69854434D01*
X144673773Y-69877043D01*
X144665921Y-69898987D01*
X144655956Y-69920057D01*
X144643974Y-69940048D01*
X144630090Y-69958768D01*
X144614438Y-69976038D01*
X144597168Y-69991690D01*
X144578448Y-70005574D01*
X144558457Y-70017556D01*
X144537387Y-70027521D01*
X144515443Y-70035373D01*
X144492834Y-70041037D01*
X144469779Y-70044456D01*
X144446500Y-70045600D01*
X143871500Y-70045600D01*
X143848221Y-70044456D01*
X143825166Y-70041037D01*
X143802557Y-70035373D01*
X143780613Y-70027521D01*
X143759543Y-70017556D01*
X143739552Y-70005574D01*
X143720832Y-69991690D01*
X143703562Y-69976038D01*
X143687910Y-69958768D01*
X143674026Y-69940048D01*
X143662044Y-69920057D01*
X143652079Y-69898987D01*
X143644227Y-69877043D01*
X143638563Y-69854434D01*
X143635144Y-69831379D01*
X143634000Y-69808100D01*
X143634000Y-69333100D01*
X143635144Y-69309821D01*
X143638563Y-69286766D01*
X143644227Y-69264157D01*
X143652079Y-69242213D01*
X143662044Y-69221143D01*
X143674026Y-69201152D01*
X143687910Y-69182432D01*
X143703562Y-69165162D01*
X143720832Y-69149510D01*
X143739552Y-69135626D01*
X143759543Y-69123644D01*
X143780613Y-69113679D01*
X143802557Y-69105827D01*
X143825166Y-69100163D01*
X143848221Y-69096744D01*
X143871500Y-69095600D01*
X144446500Y-69095600D01*
X144469779Y-69096744D01*
X144469779Y-69096744D01*
G37*
D13*
X144159000Y-69570600D03*
D12*
G36*
X144458379Y-75954744D02*
G01*
X144481434Y-75958163D01*
X144504043Y-75963827D01*
X144525987Y-75971679D01*
X144547057Y-75981644D01*
X144567048Y-75993626D01*
X144585768Y-76007510D01*
X144603038Y-76023162D01*
X144618690Y-76040432D01*
X144632574Y-76059152D01*
X144644556Y-76079143D01*
X144654521Y-76100213D01*
X144662373Y-76122157D01*
X144668037Y-76144766D01*
X144671456Y-76167821D01*
X144672600Y-76191100D01*
X144672600Y-76666100D01*
X144671456Y-76689379D01*
X144668037Y-76712434D01*
X144662373Y-76735043D01*
X144654521Y-76756987D01*
X144644556Y-76778057D01*
X144632574Y-76798048D01*
X144618690Y-76816768D01*
X144603038Y-76834038D01*
X144585768Y-76849690D01*
X144567048Y-76863574D01*
X144547057Y-76875556D01*
X144525987Y-76885521D01*
X144504043Y-76893373D01*
X144481434Y-76899037D01*
X144458379Y-76902456D01*
X144435100Y-76903600D01*
X143860100Y-76903600D01*
X143836821Y-76902456D01*
X143813766Y-76899037D01*
X143791157Y-76893373D01*
X143769213Y-76885521D01*
X143748143Y-76875556D01*
X143728152Y-76863574D01*
X143709432Y-76849690D01*
X143692162Y-76834038D01*
X143676510Y-76816768D01*
X143662626Y-76798048D01*
X143650644Y-76778057D01*
X143640679Y-76756987D01*
X143632827Y-76735043D01*
X143627163Y-76712434D01*
X143623744Y-76689379D01*
X143622600Y-76666100D01*
X143622600Y-76191100D01*
X143623744Y-76167821D01*
X143627163Y-76144766D01*
X143632827Y-76122157D01*
X143640679Y-76100213D01*
X143650644Y-76079143D01*
X143662626Y-76059152D01*
X143676510Y-76040432D01*
X143692162Y-76023162D01*
X143709432Y-76007510D01*
X143728152Y-75993626D01*
X143748143Y-75981644D01*
X143769213Y-75971679D01*
X143791157Y-75963827D01*
X143813766Y-75958163D01*
X143836821Y-75954744D01*
X143860100Y-75953600D01*
X144435100Y-75953600D01*
X144458379Y-75954744D01*
X144458379Y-75954744D01*
G37*
D13*
X144147600Y-76428600D03*
D12*
G36*
X146208379Y-75954744D02*
G01*
X146231434Y-75958163D01*
X146254043Y-75963827D01*
X146275987Y-75971679D01*
X146297057Y-75981644D01*
X146317048Y-75993626D01*
X146335768Y-76007510D01*
X146353038Y-76023162D01*
X146368690Y-76040432D01*
X146382574Y-76059152D01*
X146394556Y-76079143D01*
X146404521Y-76100213D01*
X146412373Y-76122157D01*
X146418037Y-76144766D01*
X146421456Y-76167821D01*
X146422600Y-76191100D01*
X146422600Y-76666100D01*
X146421456Y-76689379D01*
X146418037Y-76712434D01*
X146412373Y-76735043D01*
X146404521Y-76756987D01*
X146394556Y-76778057D01*
X146382574Y-76798048D01*
X146368690Y-76816768D01*
X146353038Y-76834038D01*
X146335768Y-76849690D01*
X146317048Y-76863574D01*
X146297057Y-76875556D01*
X146275987Y-76885521D01*
X146254043Y-76893373D01*
X146231434Y-76899037D01*
X146208379Y-76902456D01*
X146185100Y-76903600D01*
X145610100Y-76903600D01*
X145586821Y-76902456D01*
X145563766Y-76899037D01*
X145541157Y-76893373D01*
X145519213Y-76885521D01*
X145498143Y-76875556D01*
X145478152Y-76863574D01*
X145459432Y-76849690D01*
X145442162Y-76834038D01*
X145426510Y-76816768D01*
X145412626Y-76798048D01*
X145400644Y-76778057D01*
X145390679Y-76756987D01*
X145382827Y-76735043D01*
X145377163Y-76712434D01*
X145373744Y-76689379D01*
X145372600Y-76666100D01*
X145372600Y-76191100D01*
X145373744Y-76167821D01*
X145377163Y-76144766D01*
X145382827Y-76122157D01*
X145390679Y-76100213D01*
X145400644Y-76079143D01*
X145412626Y-76059152D01*
X145426510Y-76040432D01*
X145442162Y-76023162D01*
X145459432Y-76007510D01*
X145478152Y-75993626D01*
X145498143Y-75981644D01*
X145519213Y-75971679D01*
X145541157Y-75963827D01*
X145563766Y-75958163D01*
X145586821Y-75954744D01*
X145610100Y-75953600D01*
X146185100Y-75953600D01*
X146208379Y-75954744D01*
X146208379Y-75954744D01*
G37*
D13*
X145897600Y-76428600D03*
D12*
G36*
X162185779Y-65022144D02*
G01*
X162208834Y-65025563D01*
X162231443Y-65031227D01*
X162253387Y-65039079D01*
X162274457Y-65049044D01*
X162294448Y-65061026D01*
X162313168Y-65074910D01*
X162330438Y-65090562D01*
X162346090Y-65107832D01*
X162359974Y-65126552D01*
X162371956Y-65146543D01*
X162381921Y-65167613D01*
X162389773Y-65189557D01*
X162395437Y-65212166D01*
X162398856Y-65235221D01*
X162400000Y-65258500D01*
X162400000Y-65833500D01*
X162398856Y-65856779D01*
X162395437Y-65879834D01*
X162389773Y-65902443D01*
X162381921Y-65924387D01*
X162371956Y-65945457D01*
X162359974Y-65965448D01*
X162346090Y-65984168D01*
X162330438Y-66001438D01*
X162313168Y-66017090D01*
X162294448Y-66030974D01*
X162274457Y-66042956D01*
X162253387Y-66052921D01*
X162231443Y-66060773D01*
X162208834Y-66066437D01*
X162185779Y-66069856D01*
X162162500Y-66071000D01*
X161687500Y-66071000D01*
X161664221Y-66069856D01*
X161641166Y-66066437D01*
X161618557Y-66060773D01*
X161596613Y-66052921D01*
X161575543Y-66042956D01*
X161555552Y-66030974D01*
X161536832Y-66017090D01*
X161519562Y-66001438D01*
X161503910Y-65984168D01*
X161490026Y-65965448D01*
X161478044Y-65945457D01*
X161468079Y-65924387D01*
X161460227Y-65902443D01*
X161454563Y-65879834D01*
X161451144Y-65856779D01*
X161450000Y-65833500D01*
X161450000Y-65258500D01*
X161451144Y-65235221D01*
X161454563Y-65212166D01*
X161460227Y-65189557D01*
X161468079Y-65167613D01*
X161478044Y-65146543D01*
X161490026Y-65126552D01*
X161503910Y-65107832D01*
X161519562Y-65090562D01*
X161536832Y-65074910D01*
X161555552Y-65061026D01*
X161575543Y-65049044D01*
X161596613Y-65039079D01*
X161618557Y-65031227D01*
X161641166Y-65025563D01*
X161664221Y-65022144D01*
X161687500Y-65021000D01*
X162162500Y-65021000D01*
X162185779Y-65022144D01*
X162185779Y-65022144D01*
G37*
D13*
X161925000Y-65546000D03*
D12*
G36*
X162185779Y-66772144D02*
G01*
X162208834Y-66775563D01*
X162231443Y-66781227D01*
X162253387Y-66789079D01*
X162274457Y-66799044D01*
X162294448Y-66811026D01*
X162313168Y-66824910D01*
X162330438Y-66840562D01*
X162346090Y-66857832D01*
X162359974Y-66876552D01*
X162371956Y-66896543D01*
X162381921Y-66917613D01*
X162389773Y-66939557D01*
X162395437Y-66962166D01*
X162398856Y-66985221D01*
X162400000Y-67008500D01*
X162400000Y-67583500D01*
X162398856Y-67606779D01*
X162395437Y-67629834D01*
X162389773Y-67652443D01*
X162381921Y-67674387D01*
X162371956Y-67695457D01*
X162359974Y-67715448D01*
X162346090Y-67734168D01*
X162330438Y-67751438D01*
X162313168Y-67767090D01*
X162294448Y-67780974D01*
X162274457Y-67792956D01*
X162253387Y-67802921D01*
X162231443Y-67810773D01*
X162208834Y-67816437D01*
X162185779Y-67819856D01*
X162162500Y-67821000D01*
X161687500Y-67821000D01*
X161664221Y-67819856D01*
X161641166Y-67816437D01*
X161618557Y-67810773D01*
X161596613Y-67802921D01*
X161575543Y-67792956D01*
X161555552Y-67780974D01*
X161536832Y-67767090D01*
X161519562Y-67751438D01*
X161503910Y-67734168D01*
X161490026Y-67715448D01*
X161478044Y-67695457D01*
X161468079Y-67674387D01*
X161460227Y-67652443D01*
X161454563Y-67629834D01*
X161451144Y-67606779D01*
X161450000Y-67583500D01*
X161450000Y-67008500D01*
X161451144Y-66985221D01*
X161454563Y-66962166D01*
X161460227Y-66939557D01*
X161468079Y-66917613D01*
X161478044Y-66896543D01*
X161490026Y-66876552D01*
X161503910Y-66857832D01*
X161519562Y-66840562D01*
X161536832Y-66824910D01*
X161555552Y-66811026D01*
X161575543Y-66799044D01*
X161596613Y-66789079D01*
X161618557Y-66781227D01*
X161641166Y-66775563D01*
X161664221Y-66772144D01*
X161687500Y-66771000D01*
X162162500Y-66771000D01*
X162185779Y-66772144D01*
X162185779Y-66772144D01*
G37*
D13*
X161925000Y-67296000D03*
D12*
G36*
X171329779Y-70359532D02*
G01*
X171352834Y-70362951D01*
X171375443Y-70368615D01*
X171397387Y-70376467D01*
X171418457Y-70386432D01*
X171438448Y-70398414D01*
X171457168Y-70412298D01*
X171474438Y-70427950D01*
X171490090Y-70445220D01*
X171503974Y-70463940D01*
X171515956Y-70483931D01*
X171525921Y-70505001D01*
X171533773Y-70526945D01*
X171539437Y-70549554D01*
X171542856Y-70572609D01*
X171544000Y-70595888D01*
X171544000Y-71170888D01*
X171542856Y-71194167D01*
X171539437Y-71217222D01*
X171533773Y-71239831D01*
X171525921Y-71261775D01*
X171515956Y-71282845D01*
X171503974Y-71302836D01*
X171490090Y-71321556D01*
X171474438Y-71338826D01*
X171457168Y-71354478D01*
X171438448Y-71368362D01*
X171418457Y-71380344D01*
X171397387Y-71390309D01*
X171375443Y-71398161D01*
X171352834Y-71403825D01*
X171329779Y-71407244D01*
X171306500Y-71408388D01*
X170831500Y-71408388D01*
X170808221Y-71407244D01*
X170785166Y-71403825D01*
X170762557Y-71398161D01*
X170740613Y-71390309D01*
X170719543Y-71380344D01*
X170699552Y-71368362D01*
X170680832Y-71354478D01*
X170663562Y-71338826D01*
X170647910Y-71321556D01*
X170634026Y-71302836D01*
X170622044Y-71282845D01*
X170612079Y-71261775D01*
X170604227Y-71239831D01*
X170598563Y-71217222D01*
X170595144Y-71194167D01*
X170594000Y-71170888D01*
X170594000Y-70595888D01*
X170595144Y-70572609D01*
X170598563Y-70549554D01*
X170604227Y-70526945D01*
X170612079Y-70505001D01*
X170622044Y-70483931D01*
X170634026Y-70463940D01*
X170647910Y-70445220D01*
X170663562Y-70427950D01*
X170680832Y-70412298D01*
X170699552Y-70398414D01*
X170719543Y-70386432D01*
X170740613Y-70376467D01*
X170762557Y-70368615D01*
X170785166Y-70362951D01*
X170808221Y-70359532D01*
X170831500Y-70358388D01*
X171306500Y-70358388D01*
X171329779Y-70359532D01*
X171329779Y-70359532D01*
G37*
D13*
X171069000Y-70883388D03*
D12*
G36*
X171329779Y-72109532D02*
G01*
X171352834Y-72112951D01*
X171375443Y-72118615D01*
X171397387Y-72126467D01*
X171418457Y-72136432D01*
X171438448Y-72148414D01*
X171457168Y-72162298D01*
X171474438Y-72177950D01*
X171490090Y-72195220D01*
X171503974Y-72213940D01*
X171515956Y-72233931D01*
X171525921Y-72255001D01*
X171533773Y-72276945D01*
X171539437Y-72299554D01*
X171542856Y-72322609D01*
X171544000Y-72345888D01*
X171544000Y-72920888D01*
X171542856Y-72944167D01*
X171539437Y-72967222D01*
X171533773Y-72989831D01*
X171525921Y-73011775D01*
X171515956Y-73032845D01*
X171503974Y-73052836D01*
X171490090Y-73071556D01*
X171474438Y-73088826D01*
X171457168Y-73104478D01*
X171438448Y-73118362D01*
X171418457Y-73130344D01*
X171397387Y-73140309D01*
X171375443Y-73148161D01*
X171352834Y-73153825D01*
X171329779Y-73157244D01*
X171306500Y-73158388D01*
X170831500Y-73158388D01*
X170808221Y-73157244D01*
X170785166Y-73153825D01*
X170762557Y-73148161D01*
X170740613Y-73140309D01*
X170719543Y-73130344D01*
X170699552Y-73118362D01*
X170680832Y-73104478D01*
X170663562Y-73088826D01*
X170647910Y-73071556D01*
X170634026Y-73052836D01*
X170622044Y-73032845D01*
X170612079Y-73011775D01*
X170604227Y-72989831D01*
X170598563Y-72967222D01*
X170595144Y-72944167D01*
X170594000Y-72920888D01*
X170594000Y-72345888D01*
X170595144Y-72322609D01*
X170598563Y-72299554D01*
X170604227Y-72276945D01*
X170612079Y-72255001D01*
X170622044Y-72233931D01*
X170634026Y-72213940D01*
X170647910Y-72195220D01*
X170663562Y-72177950D01*
X170680832Y-72162298D01*
X170699552Y-72148414D01*
X170719543Y-72136432D01*
X170740613Y-72126467D01*
X170762557Y-72118615D01*
X170785166Y-72112951D01*
X170808221Y-72109532D01*
X170831500Y-72108388D01*
X171306500Y-72108388D01*
X171329779Y-72109532D01*
X171329779Y-72109532D01*
G37*
D13*
X171069000Y-72633388D03*
D12*
G36*
X169204385Y-72109532D02*
G01*
X169227440Y-72112951D01*
X169250049Y-72118615D01*
X169271993Y-72126467D01*
X169293063Y-72136432D01*
X169313054Y-72148414D01*
X169331774Y-72162298D01*
X169349044Y-72177950D01*
X169364696Y-72195220D01*
X169378580Y-72213940D01*
X169390562Y-72233931D01*
X169400527Y-72255001D01*
X169408379Y-72276945D01*
X169414043Y-72299554D01*
X169417462Y-72322609D01*
X169418606Y-72345888D01*
X169418606Y-72920888D01*
X169417462Y-72944167D01*
X169414043Y-72967222D01*
X169408379Y-72989831D01*
X169400527Y-73011775D01*
X169390562Y-73032845D01*
X169378580Y-73052836D01*
X169364696Y-73071556D01*
X169349044Y-73088826D01*
X169331774Y-73104478D01*
X169313054Y-73118362D01*
X169293063Y-73130344D01*
X169271993Y-73140309D01*
X169250049Y-73148161D01*
X169227440Y-73153825D01*
X169204385Y-73157244D01*
X169181106Y-73158388D01*
X168706106Y-73158388D01*
X168682827Y-73157244D01*
X168659772Y-73153825D01*
X168637163Y-73148161D01*
X168615219Y-73140309D01*
X168594149Y-73130344D01*
X168574158Y-73118362D01*
X168555438Y-73104478D01*
X168538168Y-73088826D01*
X168522516Y-73071556D01*
X168508632Y-73052836D01*
X168496650Y-73032845D01*
X168486685Y-73011775D01*
X168478833Y-72989831D01*
X168473169Y-72967222D01*
X168469750Y-72944167D01*
X168468606Y-72920888D01*
X168468606Y-72345888D01*
X168469750Y-72322609D01*
X168473169Y-72299554D01*
X168478833Y-72276945D01*
X168486685Y-72255001D01*
X168496650Y-72233931D01*
X168508632Y-72213940D01*
X168522516Y-72195220D01*
X168538168Y-72177950D01*
X168555438Y-72162298D01*
X168574158Y-72148414D01*
X168594149Y-72136432D01*
X168615219Y-72126467D01*
X168637163Y-72118615D01*
X168659772Y-72112951D01*
X168682827Y-72109532D01*
X168706106Y-72108388D01*
X169181106Y-72108388D01*
X169204385Y-72109532D01*
X169204385Y-72109532D01*
G37*
D13*
X168943606Y-72633388D03*
D12*
G36*
X169204385Y-70359532D02*
G01*
X169227440Y-70362951D01*
X169250049Y-70368615D01*
X169271993Y-70376467D01*
X169293063Y-70386432D01*
X169313054Y-70398414D01*
X169331774Y-70412298D01*
X169349044Y-70427950D01*
X169364696Y-70445220D01*
X169378580Y-70463940D01*
X169390562Y-70483931D01*
X169400527Y-70505001D01*
X169408379Y-70526945D01*
X169414043Y-70549554D01*
X169417462Y-70572609D01*
X169418606Y-70595888D01*
X169418606Y-71170888D01*
X169417462Y-71194167D01*
X169414043Y-71217222D01*
X169408379Y-71239831D01*
X169400527Y-71261775D01*
X169390562Y-71282845D01*
X169378580Y-71302836D01*
X169364696Y-71321556D01*
X169349044Y-71338826D01*
X169331774Y-71354478D01*
X169313054Y-71368362D01*
X169293063Y-71380344D01*
X169271993Y-71390309D01*
X169250049Y-71398161D01*
X169227440Y-71403825D01*
X169204385Y-71407244D01*
X169181106Y-71408388D01*
X168706106Y-71408388D01*
X168682827Y-71407244D01*
X168659772Y-71403825D01*
X168637163Y-71398161D01*
X168615219Y-71390309D01*
X168594149Y-71380344D01*
X168574158Y-71368362D01*
X168555438Y-71354478D01*
X168538168Y-71338826D01*
X168522516Y-71321556D01*
X168508632Y-71302836D01*
X168496650Y-71282845D01*
X168486685Y-71261775D01*
X168478833Y-71239831D01*
X168473169Y-71217222D01*
X168469750Y-71194167D01*
X168468606Y-71170888D01*
X168468606Y-70595888D01*
X168469750Y-70572609D01*
X168473169Y-70549554D01*
X168478833Y-70526945D01*
X168486685Y-70505001D01*
X168496650Y-70483931D01*
X168508632Y-70463940D01*
X168522516Y-70445220D01*
X168538168Y-70427950D01*
X168555438Y-70412298D01*
X168574158Y-70398414D01*
X168594149Y-70386432D01*
X168615219Y-70376467D01*
X168637163Y-70368615D01*
X168659772Y-70362951D01*
X168682827Y-70359532D01*
X168706106Y-70358388D01*
X169181106Y-70358388D01*
X169204385Y-70359532D01*
X169204385Y-70359532D01*
G37*
D13*
X168943606Y-70883388D03*
D12*
G36*
X143643779Y-96518144D02*
G01*
X143666834Y-96521563D01*
X143689443Y-96527227D01*
X143711387Y-96535079D01*
X143732457Y-96545044D01*
X143752448Y-96557026D01*
X143771168Y-96570910D01*
X143788438Y-96586562D01*
X143804090Y-96603832D01*
X143817974Y-96622552D01*
X143829956Y-96642543D01*
X143839921Y-96663613D01*
X143847773Y-96685557D01*
X143853437Y-96708166D01*
X143856856Y-96731221D01*
X143858000Y-96754500D01*
X143858000Y-97329500D01*
X143856856Y-97352779D01*
X143853437Y-97375834D01*
X143847773Y-97398443D01*
X143839921Y-97420387D01*
X143829956Y-97441457D01*
X143817974Y-97461448D01*
X143804090Y-97480168D01*
X143788438Y-97497438D01*
X143771168Y-97513090D01*
X143752448Y-97526974D01*
X143732457Y-97538956D01*
X143711387Y-97548921D01*
X143689443Y-97556773D01*
X143666834Y-97562437D01*
X143643779Y-97565856D01*
X143620500Y-97567000D01*
X143145500Y-97567000D01*
X143122221Y-97565856D01*
X143099166Y-97562437D01*
X143076557Y-97556773D01*
X143054613Y-97548921D01*
X143033543Y-97538956D01*
X143013552Y-97526974D01*
X142994832Y-97513090D01*
X142977562Y-97497438D01*
X142961910Y-97480168D01*
X142948026Y-97461448D01*
X142936044Y-97441457D01*
X142926079Y-97420387D01*
X142918227Y-97398443D01*
X142912563Y-97375834D01*
X142909144Y-97352779D01*
X142908000Y-97329500D01*
X142908000Y-96754500D01*
X142909144Y-96731221D01*
X142912563Y-96708166D01*
X142918227Y-96685557D01*
X142926079Y-96663613D01*
X142936044Y-96642543D01*
X142948026Y-96622552D01*
X142961910Y-96603832D01*
X142977562Y-96586562D01*
X142994832Y-96570910D01*
X143013552Y-96557026D01*
X143033543Y-96545044D01*
X143054613Y-96535079D01*
X143076557Y-96527227D01*
X143099166Y-96521563D01*
X143122221Y-96518144D01*
X143145500Y-96517000D01*
X143620500Y-96517000D01*
X143643779Y-96518144D01*
X143643779Y-96518144D01*
G37*
D13*
X143383000Y-97042000D03*
D12*
G36*
X143643779Y-98268144D02*
G01*
X143666834Y-98271563D01*
X143689443Y-98277227D01*
X143711387Y-98285079D01*
X143732457Y-98295044D01*
X143752448Y-98307026D01*
X143771168Y-98320910D01*
X143788438Y-98336562D01*
X143804090Y-98353832D01*
X143817974Y-98372552D01*
X143829956Y-98392543D01*
X143839921Y-98413613D01*
X143847773Y-98435557D01*
X143853437Y-98458166D01*
X143856856Y-98481221D01*
X143858000Y-98504500D01*
X143858000Y-99079500D01*
X143856856Y-99102779D01*
X143853437Y-99125834D01*
X143847773Y-99148443D01*
X143839921Y-99170387D01*
X143829956Y-99191457D01*
X143817974Y-99211448D01*
X143804090Y-99230168D01*
X143788438Y-99247438D01*
X143771168Y-99263090D01*
X143752448Y-99276974D01*
X143732457Y-99288956D01*
X143711387Y-99298921D01*
X143689443Y-99306773D01*
X143666834Y-99312437D01*
X143643779Y-99315856D01*
X143620500Y-99317000D01*
X143145500Y-99317000D01*
X143122221Y-99315856D01*
X143099166Y-99312437D01*
X143076557Y-99306773D01*
X143054613Y-99298921D01*
X143033543Y-99288956D01*
X143013552Y-99276974D01*
X142994832Y-99263090D01*
X142977562Y-99247438D01*
X142961910Y-99230168D01*
X142948026Y-99211448D01*
X142936044Y-99191457D01*
X142926079Y-99170387D01*
X142918227Y-99148443D01*
X142912563Y-99125834D01*
X142909144Y-99102779D01*
X142908000Y-99079500D01*
X142908000Y-98504500D01*
X142909144Y-98481221D01*
X142912563Y-98458166D01*
X142918227Y-98435557D01*
X142926079Y-98413613D01*
X142936044Y-98392543D01*
X142948026Y-98372552D01*
X142961910Y-98353832D01*
X142977562Y-98336562D01*
X142994832Y-98320910D01*
X143013552Y-98307026D01*
X143033543Y-98295044D01*
X143054613Y-98285079D01*
X143076557Y-98277227D01*
X143099166Y-98271563D01*
X143122221Y-98268144D01*
X143145500Y-98267000D01*
X143620500Y-98267000D01*
X143643779Y-98268144D01*
X143643779Y-98268144D01*
G37*
D13*
X143383000Y-98792000D03*
D12*
G36*
X146056779Y-96504144D02*
G01*
X146079834Y-96507563D01*
X146102443Y-96513227D01*
X146124387Y-96521079D01*
X146145457Y-96531044D01*
X146165448Y-96543026D01*
X146184168Y-96556910D01*
X146201438Y-96572562D01*
X146217090Y-96589832D01*
X146230974Y-96608552D01*
X146242956Y-96628543D01*
X146252921Y-96649613D01*
X146260773Y-96671557D01*
X146266437Y-96694166D01*
X146269856Y-96717221D01*
X146271000Y-96740500D01*
X146271000Y-97315500D01*
X146269856Y-97338779D01*
X146266437Y-97361834D01*
X146260773Y-97384443D01*
X146252921Y-97406387D01*
X146242956Y-97427457D01*
X146230974Y-97447448D01*
X146217090Y-97466168D01*
X146201438Y-97483438D01*
X146184168Y-97499090D01*
X146165448Y-97512974D01*
X146145457Y-97524956D01*
X146124387Y-97534921D01*
X146102443Y-97542773D01*
X146079834Y-97548437D01*
X146056779Y-97551856D01*
X146033500Y-97553000D01*
X145558500Y-97553000D01*
X145535221Y-97551856D01*
X145512166Y-97548437D01*
X145489557Y-97542773D01*
X145467613Y-97534921D01*
X145446543Y-97524956D01*
X145426552Y-97512974D01*
X145407832Y-97499090D01*
X145390562Y-97483438D01*
X145374910Y-97466168D01*
X145361026Y-97447448D01*
X145349044Y-97427457D01*
X145339079Y-97406387D01*
X145331227Y-97384443D01*
X145325563Y-97361834D01*
X145322144Y-97338779D01*
X145321000Y-97315500D01*
X145321000Y-96740500D01*
X145322144Y-96717221D01*
X145325563Y-96694166D01*
X145331227Y-96671557D01*
X145339079Y-96649613D01*
X145349044Y-96628543D01*
X145361026Y-96608552D01*
X145374910Y-96589832D01*
X145390562Y-96572562D01*
X145407832Y-96556910D01*
X145426552Y-96543026D01*
X145446543Y-96531044D01*
X145467613Y-96521079D01*
X145489557Y-96513227D01*
X145512166Y-96507563D01*
X145535221Y-96504144D01*
X145558500Y-96503000D01*
X146033500Y-96503000D01*
X146056779Y-96504144D01*
X146056779Y-96504144D01*
G37*
D13*
X145796000Y-97028000D03*
D12*
G36*
X146056779Y-98254144D02*
G01*
X146079834Y-98257563D01*
X146102443Y-98263227D01*
X146124387Y-98271079D01*
X146145457Y-98281044D01*
X146165448Y-98293026D01*
X146184168Y-98306910D01*
X146201438Y-98322562D01*
X146217090Y-98339832D01*
X146230974Y-98358552D01*
X146242956Y-98378543D01*
X146252921Y-98399613D01*
X146260773Y-98421557D01*
X146266437Y-98444166D01*
X146269856Y-98467221D01*
X146271000Y-98490500D01*
X146271000Y-99065500D01*
X146269856Y-99088779D01*
X146266437Y-99111834D01*
X146260773Y-99134443D01*
X146252921Y-99156387D01*
X146242956Y-99177457D01*
X146230974Y-99197448D01*
X146217090Y-99216168D01*
X146201438Y-99233438D01*
X146184168Y-99249090D01*
X146165448Y-99262974D01*
X146145457Y-99274956D01*
X146124387Y-99284921D01*
X146102443Y-99292773D01*
X146079834Y-99298437D01*
X146056779Y-99301856D01*
X146033500Y-99303000D01*
X145558500Y-99303000D01*
X145535221Y-99301856D01*
X145512166Y-99298437D01*
X145489557Y-99292773D01*
X145467613Y-99284921D01*
X145446543Y-99274956D01*
X145426552Y-99262974D01*
X145407832Y-99249090D01*
X145390562Y-99233438D01*
X145374910Y-99216168D01*
X145361026Y-99197448D01*
X145349044Y-99177457D01*
X145339079Y-99156387D01*
X145331227Y-99134443D01*
X145325563Y-99111834D01*
X145322144Y-99088779D01*
X145321000Y-99065500D01*
X145321000Y-98490500D01*
X145322144Y-98467221D01*
X145325563Y-98444166D01*
X145331227Y-98421557D01*
X145339079Y-98399613D01*
X145349044Y-98378543D01*
X145361026Y-98358552D01*
X145374910Y-98339832D01*
X145390562Y-98322562D01*
X145407832Y-98306910D01*
X145426552Y-98293026D01*
X145446543Y-98281044D01*
X145467613Y-98271079D01*
X145489557Y-98263227D01*
X145512166Y-98257563D01*
X145535221Y-98254144D01*
X145558500Y-98253000D01*
X146033500Y-98253000D01*
X146056779Y-98254144D01*
X146056779Y-98254144D01*
G37*
D13*
X145796000Y-98778000D03*
D12*
G36*
X153077779Y-111159144D02*
G01*
X153100834Y-111162563D01*
X153123443Y-111168227D01*
X153145387Y-111176079D01*
X153166457Y-111186044D01*
X153186448Y-111198026D01*
X153205168Y-111211910D01*
X153222438Y-111227562D01*
X153238090Y-111244832D01*
X153251974Y-111263552D01*
X153263956Y-111283543D01*
X153273921Y-111304613D01*
X153281773Y-111326557D01*
X153287437Y-111349166D01*
X153290856Y-111372221D01*
X153292000Y-111395500D01*
X153292000Y-111870500D01*
X153290856Y-111893779D01*
X153287437Y-111916834D01*
X153281773Y-111939443D01*
X153273921Y-111961387D01*
X153263956Y-111982457D01*
X153251974Y-112002448D01*
X153238090Y-112021168D01*
X153222438Y-112038438D01*
X153205168Y-112054090D01*
X153186448Y-112067974D01*
X153166457Y-112079956D01*
X153145387Y-112089921D01*
X153123443Y-112097773D01*
X153100834Y-112103437D01*
X153077779Y-112106856D01*
X153054500Y-112108000D01*
X152479500Y-112108000D01*
X152456221Y-112106856D01*
X152433166Y-112103437D01*
X152410557Y-112097773D01*
X152388613Y-112089921D01*
X152367543Y-112079956D01*
X152347552Y-112067974D01*
X152328832Y-112054090D01*
X152311562Y-112038438D01*
X152295910Y-112021168D01*
X152282026Y-112002448D01*
X152270044Y-111982457D01*
X152260079Y-111961387D01*
X152252227Y-111939443D01*
X152246563Y-111916834D01*
X152243144Y-111893779D01*
X152242000Y-111870500D01*
X152242000Y-111395500D01*
X152243144Y-111372221D01*
X152246563Y-111349166D01*
X152252227Y-111326557D01*
X152260079Y-111304613D01*
X152270044Y-111283543D01*
X152282026Y-111263552D01*
X152295910Y-111244832D01*
X152311562Y-111227562D01*
X152328832Y-111211910D01*
X152347552Y-111198026D01*
X152367543Y-111186044D01*
X152388613Y-111176079D01*
X152410557Y-111168227D01*
X152433166Y-111162563D01*
X152456221Y-111159144D01*
X152479500Y-111158000D01*
X153054500Y-111158000D01*
X153077779Y-111159144D01*
X153077779Y-111159144D01*
G37*
D13*
X152767000Y-111633000D03*
D12*
G36*
X151327779Y-111159144D02*
G01*
X151350834Y-111162563D01*
X151373443Y-111168227D01*
X151395387Y-111176079D01*
X151416457Y-111186044D01*
X151436448Y-111198026D01*
X151455168Y-111211910D01*
X151472438Y-111227562D01*
X151488090Y-111244832D01*
X151501974Y-111263552D01*
X151513956Y-111283543D01*
X151523921Y-111304613D01*
X151531773Y-111326557D01*
X151537437Y-111349166D01*
X151540856Y-111372221D01*
X151542000Y-111395500D01*
X151542000Y-111870500D01*
X151540856Y-111893779D01*
X151537437Y-111916834D01*
X151531773Y-111939443D01*
X151523921Y-111961387D01*
X151513956Y-111982457D01*
X151501974Y-112002448D01*
X151488090Y-112021168D01*
X151472438Y-112038438D01*
X151455168Y-112054090D01*
X151436448Y-112067974D01*
X151416457Y-112079956D01*
X151395387Y-112089921D01*
X151373443Y-112097773D01*
X151350834Y-112103437D01*
X151327779Y-112106856D01*
X151304500Y-112108000D01*
X150729500Y-112108000D01*
X150706221Y-112106856D01*
X150683166Y-112103437D01*
X150660557Y-112097773D01*
X150638613Y-112089921D01*
X150617543Y-112079956D01*
X150597552Y-112067974D01*
X150578832Y-112054090D01*
X150561562Y-112038438D01*
X150545910Y-112021168D01*
X150532026Y-112002448D01*
X150520044Y-111982457D01*
X150510079Y-111961387D01*
X150502227Y-111939443D01*
X150496563Y-111916834D01*
X150493144Y-111893779D01*
X150492000Y-111870500D01*
X150492000Y-111395500D01*
X150493144Y-111372221D01*
X150496563Y-111349166D01*
X150502227Y-111326557D01*
X150510079Y-111304613D01*
X150520044Y-111283543D01*
X150532026Y-111263552D01*
X150545910Y-111244832D01*
X150561562Y-111227562D01*
X150578832Y-111211910D01*
X150597552Y-111198026D01*
X150617543Y-111186044D01*
X150638613Y-111176079D01*
X150660557Y-111168227D01*
X150683166Y-111162563D01*
X150706221Y-111159144D01*
X150729500Y-111158000D01*
X151304500Y-111158000D01*
X151327779Y-111159144D01*
X151327779Y-111159144D01*
G37*
D13*
X151017000Y-111633000D03*
D12*
G36*
X152956279Y-118398144D02*
G01*
X152979334Y-118401563D01*
X153001943Y-118407227D01*
X153023887Y-118415079D01*
X153044957Y-118425044D01*
X153064948Y-118437026D01*
X153083668Y-118450910D01*
X153100938Y-118466562D01*
X153116590Y-118483832D01*
X153130474Y-118502552D01*
X153142456Y-118522543D01*
X153152421Y-118543613D01*
X153160273Y-118565557D01*
X153165937Y-118588166D01*
X153169356Y-118611221D01*
X153170500Y-118634500D01*
X153170500Y-119109500D01*
X153169356Y-119132779D01*
X153165937Y-119155834D01*
X153160273Y-119178443D01*
X153152421Y-119200387D01*
X153142456Y-119221457D01*
X153130474Y-119241448D01*
X153116590Y-119260168D01*
X153100938Y-119277438D01*
X153083668Y-119293090D01*
X153064948Y-119306974D01*
X153044957Y-119318956D01*
X153023887Y-119328921D01*
X153001943Y-119336773D01*
X152979334Y-119342437D01*
X152956279Y-119345856D01*
X152933000Y-119347000D01*
X152358000Y-119347000D01*
X152334721Y-119345856D01*
X152311666Y-119342437D01*
X152289057Y-119336773D01*
X152267113Y-119328921D01*
X152246043Y-119318956D01*
X152226052Y-119306974D01*
X152207332Y-119293090D01*
X152190062Y-119277438D01*
X152174410Y-119260168D01*
X152160526Y-119241448D01*
X152148544Y-119221457D01*
X152138579Y-119200387D01*
X152130727Y-119178443D01*
X152125063Y-119155834D01*
X152121644Y-119132779D01*
X152120500Y-119109500D01*
X152120500Y-118634500D01*
X152121644Y-118611221D01*
X152125063Y-118588166D01*
X152130727Y-118565557D01*
X152138579Y-118543613D01*
X152148544Y-118522543D01*
X152160526Y-118502552D01*
X152174410Y-118483832D01*
X152190062Y-118466562D01*
X152207332Y-118450910D01*
X152226052Y-118437026D01*
X152246043Y-118425044D01*
X152267113Y-118415079D01*
X152289057Y-118407227D01*
X152311666Y-118401563D01*
X152334721Y-118398144D01*
X152358000Y-118397000D01*
X152933000Y-118397000D01*
X152956279Y-118398144D01*
X152956279Y-118398144D01*
G37*
D13*
X152645500Y-118872000D03*
D12*
G36*
X151206279Y-118398144D02*
G01*
X151229334Y-118401563D01*
X151251943Y-118407227D01*
X151273887Y-118415079D01*
X151294957Y-118425044D01*
X151314948Y-118437026D01*
X151333668Y-118450910D01*
X151350938Y-118466562D01*
X151366590Y-118483832D01*
X151380474Y-118502552D01*
X151392456Y-118522543D01*
X151402421Y-118543613D01*
X151410273Y-118565557D01*
X151415937Y-118588166D01*
X151419356Y-118611221D01*
X151420500Y-118634500D01*
X151420500Y-119109500D01*
X151419356Y-119132779D01*
X151415937Y-119155834D01*
X151410273Y-119178443D01*
X151402421Y-119200387D01*
X151392456Y-119221457D01*
X151380474Y-119241448D01*
X151366590Y-119260168D01*
X151350938Y-119277438D01*
X151333668Y-119293090D01*
X151314948Y-119306974D01*
X151294957Y-119318956D01*
X151273887Y-119328921D01*
X151251943Y-119336773D01*
X151229334Y-119342437D01*
X151206279Y-119345856D01*
X151183000Y-119347000D01*
X150608000Y-119347000D01*
X150584721Y-119345856D01*
X150561666Y-119342437D01*
X150539057Y-119336773D01*
X150517113Y-119328921D01*
X150496043Y-119318956D01*
X150476052Y-119306974D01*
X150457332Y-119293090D01*
X150440062Y-119277438D01*
X150424410Y-119260168D01*
X150410526Y-119241448D01*
X150398544Y-119221457D01*
X150388579Y-119200387D01*
X150380727Y-119178443D01*
X150375063Y-119155834D01*
X150371644Y-119132779D01*
X150370500Y-119109500D01*
X150370500Y-118634500D01*
X150371644Y-118611221D01*
X150375063Y-118588166D01*
X150380727Y-118565557D01*
X150388579Y-118543613D01*
X150398544Y-118522543D01*
X150410526Y-118502552D01*
X150424410Y-118483832D01*
X150440062Y-118466562D01*
X150457332Y-118450910D01*
X150476052Y-118437026D01*
X150496043Y-118425044D01*
X150517113Y-118415079D01*
X150539057Y-118407227D01*
X150561666Y-118401563D01*
X150584721Y-118398144D01*
X150608000Y-118397000D01*
X151183000Y-118397000D01*
X151206279Y-118398144D01*
X151206279Y-118398144D01*
G37*
D13*
X150895500Y-118872000D03*
D12*
G36*
X124516779Y-74710144D02*
G01*
X124539834Y-74713563D01*
X124562443Y-74719227D01*
X124584387Y-74727079D01*
X124605457Y-74737044D01*
X124625448Y-74749026D01*
X124644168Y-74762910D01*
X124661438Y-74778562D01*
X124677090Y-74795832D01*
X124690974Y-74814552D01*
X124702956Y-74834543D01*
X124712921Y-74855613D01*
X124720773Y-74877557D01*
X124726437Y-74900166D01*
X124729856Y-74923221D01*
X124731000Y-74946500D01*
X124731000Y-75421500D01*
X124729856Y-75444779D01*
X124726437Y-75467834D01*
X124720773Y-75490443D01*
X124712921Y-75512387D01*
X124702956Y-75533457D01*
X124690974Y-75553448D01*
X124677090Y-75572168D01*
X124661438Y-75589438D01*
X124644168Y-75605090D01*
X124625448Y-75618974D01*
X124605457Y-75630956D01*
X124584387Y-75640921D01*
X124562443Y-75648773D01*
X124539834Y-75654437D01*
X124516779Y-75657856D01*
X124493500Y-75659000D01*
X123918500Y-75659000D01*
X123895221Y-75657856D01*
X123872166Y-75654437D01*
X123849557Y-75648773D01*
X123827613Y-75640921D01*
X123806543Y-75630956D01*
X123786552Y-75618974D01*
X123767832Y-75605090D01*
X123750562Y-75589438D01*
X123734910Y-75572168D01*
X123721026Y-75553448D01*
X123709044Y-75533457D01*
X123699079Y-75512387D01*
X123691227Y-75490443D01*
X123685563Y-75467834D01*
X123682144Y-75444779D01*
X123681000Y-75421500D01*
X123681000Y-74946500D01*
X123682144Y-74923221D01*
X123685563Y-74900166D01*
X123691227Y-74877557D01*
X123699079Y-74855613D01*
X123709044Y-74834543D01*
X123721026Y-74814552D01*
X123734910Y-74795832D01*
X123750562Y-74778562D01*
X123767832Y-74762910D01*
X123786552Y-74749026D01*
X123806543Y-74737044D01*
X123827613Y-74727079D01*
X123849557Y-74719227D01*
X123872166Y-74713563D01*
X123895221Y-74710144D01*
X123918500Y-74709000D01*
X124493500Y-74709000D01*
X124516779Y-74710144D01*
X124516779Y-74710144D01*
G37*
D13*
X124206000Y-75184000D03*
D12*
G36*
X126266779Y-74710144D02*
G01*
X126289834Y-74713563D01*
X126312443Y-74719227D01*
X126334387Y-74727079D01*
X126355457Y-74737044D01*
X126375448Y-74749026D01*
X126394168Y-74762910D01*
X126411438Y-74778562D01*
X126427090Y-74795832D01*
X126440974Y-74814552D01*
X126452956Y-74834543D01*
X126462921Y-74855613D01*
X126470773Y-74877557D01*
X126476437Y-74900166D01*
X126479856Y-74923221D01*
X126481000Y-74946500D01*
X126481000Y-75421500D01*
X126479856Y-75444779D01*
X126476437Y-75467834D01*
X126470773Y-75490443D01*
X126462921Y-75512387D01*
X126452956Y-75533457D01*
X126440974Y-75553448D01*
X126427090Y-75572168D01*
X126411438Y-75589438D01*
X126394168Y-75605090D01*
X126375448Y-75618974D01*
X126355457Y-75630956D01*
X126334387Y-75640921D01*
X126312443Y-75648773D01*
X126289834Y-75654437D01*
X126266779Y-75657856D01*
X126243500Y-75659000D01*
X125668500Y-75659000D01*
X125645221Y-75657856D01*
X125622166Y-75654437D01*
X125599557Y-75648773D01*
X125577613Y-75640921D01*
X125556543Y-75630956D01*
X125536552Y-75618974D01*
X125517832Y-75605090D01*
X125500562Y-75589438D01*
X125484910Y-75572168D01*
X125471026Y-75553448D01*
X125459044Y-75533457D01*
X125449079Y-75512387D01*
X125441227Y-75490443D01*
X125435563Y-75467834D01*
X125432144Y-75444779D01*
X125431000Y-75421500D01*
X125431000Y-74946500D01*
X125432144Y-74923221D01*
X125435563Y-74900166D01*
X125441227Y-74877557D01*
X125449079Y-74855613D01*
X125459044Y-74834543D01*
X125471026Y-74814552D01*
X125484910Y-74795832D01*
X125500562Y-74778562D01*
X125517832Y-74762910D01*
X125536552Y-74749026D01*
X125556543Y-74737044D01*
X125577613Y-74727079D01*
X125599557Y-74719227D01*
X125622166Y-74713563D01*
X125645221Y-74710144D01*
X125668500Y-74709000D01*
X126243500Y-74709000D01*
X126266779Y-74710144D01*
X126266779Y-74710144D01*
G37*
D13*
X125956000Y-75184000D03*
D12*
G36*
X124403779Y-71916144D02*
G01*
X124426834Y-71919563D01*
X124449443Y-71925227D01*
X124471387Y-71933079D01*
X124492457Y-71943044D01*
X124512448Y-71955026D01*
X124531168Y-71968910D01*
X124548438Y-71984562D01*
X124564090Y-72001832D01*
X124577974Y-72020552D01*
X124589956Y-72040543D01*
X124599921Y-72061613D01*
X124607773Y-72083557D01*
X124613437Y-72106166D01*
X124616856Y-72129221D01*
X124618000Y-72152500D01*
X124618000Y-72627500D01*
X124616856Y-72650779D01*
X124613437Y-72673834D01*
X124607773Y-72696443D01*
X124599921Y-72718387D01*
X124589956Y-72739457D01*
X124577974Y-72759448D01*
X124564090Y-72778168D01*
X124548438Y-72795438D01*
X124531168Y-72811090D01*
X124512448Y-72824974D01*
X124492457Y-72836956D01*
X124471387Y-72846921D01*
X124449443Y-72854773D01*
X124426834Y-72860437D01*
X124403779Y-72863856D01*
X124380500Y-72865000D01*
X123805500Y-72865000D01*
X123782221Y-72863856D01*
X123759166Y-72860437D01*
X123736557Y-72854773D01*
X123714613Y-72846921D01*
X123693543Y-72836956D01*
X123673552Y-72824974D01*
X123654832Y-72811090D01*
X123637562Y-72795438D01*
X123621910Y-72778168D01*
X123608026Y-72759448D01*
X123596044Y-72739457D01*
X123586079Y-72718387D01*
X123578227Y-72696443D01*
X123572563Y-72673834D01*
X123569144Y-72650779D01*
X123568000Y-72627500D01*
X123568000Y-72152500D01*
X123569144Y-72129221D01*
X123572563Y-72106166D01*
X123578227Y-72083557D01*
X123586079Y-72061613D01*
X123596044Y-72040543D01*
X123608026Y-72020552D01*
X123621910Y-72001832D01*
X123637562Y-71984562D01*
X123654832Y-71968910D01*
X123673552Y-71955026D01*
X123693543Y-71943044D01*
X123714613Y-71933079D01*
X123736557Y-71925227D01*
X123759166Y-71919563D01*
X123782221Y-71916144D01*
X123805500Y-71915000D01*
X124380500Y-71915000D01*
X124403779Y-71916144D01*
X124403779Y-71916144D01*
G37*
D13*
X124093000Y-72390000D03*
D12*
G36*
X126153779Y-71916144D02*
G01*
X126176834Y-71919563D01*
X126199443Y-71925227D01*
X126221387Y-71933079D01*
X126242457Y-71943044D01*
X126262448Y-71955026D01*
X126281168Y-71968910D01*
X126298438Y-71984562D01*
X126314090Y-72001832D01*
X126327974Y-72020552D01*
X126339956Y-72040543D01*
X126349921Y-72061613D01*
X126357773Y-72083557D01*
X126363437Y-72106166D01*
X126366856Y-72129221D01*
X126368000Y-72152500D01*
X126368000Y-72627500D01*
X126366856Y-72650779D01*
X126363437Y-72673834D01*
X126357773Y-72696443D01*
X126349921Y-72718387D01*
X126339956Y-72739457D01*
X126327974Y-72759448D01*
X126314090Y-72778168D01*
X126298438Y-72795438D01*
X126281168Y-72811090D01*
X126262448Y-72824974D01*
X126242457Y-72836956D01*
X126221387Y-72846921D01*
X126199443Y-72854773D01*
X126176834Y-72860437D01*
X126153779Y-72863856D01*
X126130500Y-72865000D01*
X125555500Y-72865000D01*
X125532221Y-72863856D01*
X125509166Y-72860437D01*
X125486557Y-72854773D01*
X125464613Y-72846921D01*
X125443543Y-72836956D01*
X125423552Y-72824974D01*
X125404832Y-72811090D01*
X125387562Y-72795438D01*
X125371910Y-72778168D01*
X125358026Y-72759448D01*
X125346044Y-72739457D01*
X125336079Y-72718387D01*
X125328227Y-72696443D01*
X125322563Y-72673834D01*
X125319144Y-72650779D01*
X125318000Y-72627500D01*
X125318000Y-72152500D01*
X125319144Y-72129221D01*
X125322563Y-72106166D01*
X125328227Y-72083557D01*
X125336079Y-72061613D01*
X125346044Y-72040543D01*
X125358026Y-72020552D01*
X125371910Y-72001832D01*
X125387562Y-71984562D01*
X125404832Y-71968910D01*
X125423552Y-71955026D01*
X125443543Y-71943044D01*
X125464613Y-71933079D01*
X125486557Y-71925227D01*
X125509166Y-71919563D01*
X125532221Y-71916144D01*
X125555500Y-71915000D01*
X126130500Y-71915000D01*
X126153779Y-71916144D01*
X126153779Y-71916144D01*
G37*
D13*
X125843000Y-72390000D03*
D12*
G36*
X152823779Y-104047144D02*
G01*
X152846834Y-104050563D01*
X152869443Y-104056227D01*
X152891387Y-104064079D01*
X152912457Y-104074044D01*
X152932448Y-104086026D01*
X152951168Y-104099910D01*
X152968438Y-104115562D01*
X152984090Y-104132832D01*
X152997974Y-104151552D01*
X153009956Y-104171543D01*
X153019921Y-104192613D01*
X153027773Y-104214557D01*
X153033437Y-104237166D01*
X153036856Y-104260221D01*
X153038000Y-104283500D01*
X153038000Y-104758500D01*
X153036856Y-104781779D01*
X153033437Y-104804834D01*
X153027773Y-104827443D01*
X153019921Y-104849387D01*
X153009956Y-104870457D01*
X152997974Y-104890448D01*
X152984090Y-104909168D01*
X152968438Y-104926438D01*
X152951168Y-104942090D01*
X152932448Y-104955974D01*
X152912457Y-104967956D01*
X152891387Y-104977921D01*
X152869443Y-104985773D01*
X152846834Y-104991437D01*
X152823779Y-104994856D01*
X152800500Y-104996000D01*
X152225500Y-104996000D01*
X152202221Y-104994856D01*
X152179166Y-104991437D01*
X152156557Y-104985773D01*
X152134613Y-104977921D01*
X152113543Y-104967956D01*
X152093552Y-104955974D01*
X152074832Y-104942090D01*
X152057562Y-104926438D01*
X152041910Y-104909168D01*
X152028026Y-104890448D01*
X152016044Y-104870457D01*
X152006079Y-104849387D01*
X151998227Y-104827443D01*
X151992563Y-104804834D01*
X151989144Y-104781779D01*
X151988000Y-104758500D01*
X151988000Y-104283500D01*
X151989144Y-104260221D01*
X151992563Y-104237166D01*
X151998227Y-104214557D01*
X152006079Y-104192613D01*
X152016044Y-104171543D01*
X152028026Y-104151552D01*
X152041910Y-104132832D01*
X152057562Y-104115562D01*
X152074832Y-104099910D01*
X152093552Y-104086026D01*
X152113543Y-104074044D01*
X152134613Y-104064079D01*
X152156557Y-104056227D01*
X152179166Y-104050563D01*
X152202221Y-104047144D01*
X152225500Y-104046000D01*
X152800500Y-104046000D01*
X152823779Y-104047144D01*
X152823779Y-104047144D01*
G37*
D13*
X152513000Y-104521000D03*
D12*
G36*
X151073779Y-104047144D02*
G01*
X151096834Y-104050563D01*
X151119443Y-104056227D01*
X151141387Y-104064079D01*
X151162457Y-104074044D01*
X151182448Y-104086026D01*
X151201168Y-104099910D01*
X151218438Y-104115562D01*
X151234090Y-104132832D01*
X151247974Y-104151552D01*
X151259956Y-104171543D01*
X151269921Y-104192613D01*
X151277773Y-104214557D01*
X151283437Y-104237166D01*
X151286856Y-104260221D01*
X151288000Y-104283500D01*
X151288000Y-104758500D01*
X151286856Y-104781779D01*
X151283437Y-104804834D01*
X151277773Y-104827443D01*
X151269921Y-104849387D01*
X151259956Y-104870457D01*
X151247974Y-104890448D01*
X151234090Y-104909168D01*
X151218438Y-104926438D01*
X151201168Y-104942090D01*
X151182448Y-104955974D01*
X151162457Y-104967956D01*
X151141387Y-104977921D01*
X151119443Y-104985773D01*
X151096834Y-104991437D01*
X151073779Y-104994856D01*
X151050500Y-104996000D01*
X150475500Y-104996000D01*
X150452221Y-104994856D01*
X150429166Y-104991437D01*
X150406557Y-104985773D01*
X150384613Y-104977921D01*
X150363543Y-104967956D01*
X150343552Y-104955974D01*
X150324832Y-104942090D01*
X150307562Y-104926438D01*
X150291910Y-104909168D01*
X150278026Y-104890448D01*
X150266044Y-104870457D01*
X150256079Y-104849387D01*
X150248227Y-104827443D01*
X150242563Y-104804834D01*
X150239144Y-104781779D01*
X150238000Y-104758500D01*
X150238000Y-104283500D01*
X150239144Y-104260221D01*
X150242563Y-104237166D01*
X150248227Y-104214557D01*
X150256079Y-104192613D01*
X150266044Y-104171543D01*
X150278026Y-104151552D01*
X150291910Y-104132832D01*
X150307562Y-104115562D01*
X150324832Y-104099910D01*
X150343552Y-104086026D01*
X150363543Y-104074044D01*
X150384613Y-104064079D01*
X150406557Y-104056227D01*
X150429166Y-104050563D01*
X150452221Y-104047144D01*
X150475500Y-104046000D01*
X151050500Y-104046000D01*
X151073779Y-104047144D01*
X151073779Y-104047144D01*
G37*
D13*
X150763000Y-104521000D03*
D12*
G36*
X154488779Y-96554144D02*
G01*
X154511834Y-96557563D01*
X154534443Y-96563227D01*
X154556387Y-96571079D01*
X154577457Y-96581044D01*
X154597448Y-96593026D01*
X154616168Y-96606910D01*
X154633438Y-96622562D01*
X154649090Y-96639832D01*
X154662974Y-96658552D01*
X154674956Y-96678543D01*
X154684921Y-96699613D01*
X154692773Y-96721557D01*
X154698437Y-96744166D01*
X154701856Y-96767221D01*
X154703000Y-96790500D01*
X154703000Y-97265500D01*
X154701856Y-97288779D01*
X154698437Y-97311834D01*
X154692773Y-97334443D01*
X154684921Y-97356387D01*
X154674956Y-97377457D01*
X154662974Y-97397448D01*
X154649090Y-97416168D01*
X154633438Y-97433438D01*
X154616168Y-97449090D01*
X154597448Y-97462974D01*
X154577457Y-97474956D01*
X154556387Y-97484921D01*
X154534443Y-97492773D01*
X154511834Y-97498437D01*
X154488779Y-97501856D01*
X154465500Y-97503000D01*
X153890500Y-97503000D01*
X153867221Y-97501856D01*
X153844166Y-97498437D01*
X153821557Y-97492773D01*
X153799613Y-97484921D01*
X153778543Y-97474956D01*
X153758552Y-97462974D01*
X153739832Y-97449090D01*
X153722562Y-97433438D01*
X153706910Y-97416168D01*
X153693026Y-97397448D01*
X153681044Y-97377457D01*
X153671079Y-97356387D01*
X153663227Y-97334443D01*
X153657563Y-97311834D01*
X153654144Y-97288779D01*
X153653000Y-97265500D01*
X153653000Y-96790500D01*
X153654144Y-96767221D01*
X153657563Y-96744166D01*
X153663227Y-96721557D01*
X153671079Y-96699613D01*
X153681044Y-96678543D01*
X153693026Y-96658552D01*
X153706910Y-96639832D01*
X153722562Y-96622562D01*
X153739832Y-96606910D01*
X153758552Y-96593026D01*
X153778543Y-96581044D01*
X153799613Y-96571079D01*
X153821557Y-96563227D01*
X153844166Y-96557563D01*
X153867221Y-96554144D01*
X153890500Y-96553000D01*
X154465500Y-96553000D01*
X154488779Y-96554144D01*
X154488779Y-96554144D01*
G37*
D13*
X154178000Y-97028000D03*
D12*
G36*
X156238779Y-96554144D02*
G01*
X156261834Y-96557563D01*
X156284443Y-96563227D01*
X156306387Y-96571079D01*
X156327457Y-96581044D01*
X156347448Y-96593026D01*
X156366168Y-96606910D01*
X156383438Y-96622562D01*
X156399090Y-96639832D01*
X156412974Y-96658552D01*
X156424956Y-96678543D01*
X156434921Y-96699613D01*
X156442773Y-96721557D01*
X156448437Y-96744166D01*
X156451856Y-96767221D01*
X156453000Y-96790500D01*
X156453000Y-97265500D01*
X156451856Y-97288779D01*
X156448437Y-97311834D01*
X156442773Y-97334443D01*
X156434921Y-97356387D01*
X156424956Y-97377457D01*
X156412974Y-97397448D01*
X156399090Y-97416168D01*
X156383438Y-97433438D01*
X156366168Y-97449090D01*
X156347448Y-97462974D01*
X156327457Y-97474956D01*
X156306387Y-97484921D01*
X156284443Y-97492773D01*
X156261834Y-97498437D01*
X156238779Y-97501856D01*
X156215500Y-97503000D01*
X155640500Y-97503000D01*
X155617221Y-97501856D01*
X155594166Y-97498437D01*
X155571557Y-97492773D01*
X155549613Y-97484921D01*
X155528543Y-97474956D01*
X155508552Y-97462974D01*
X155489832Y-97449090D01*
X155472562Y-97433438D01*
X155456910Y-97416168D01*
X155443026Y-97397448D01*
X155431044Y-97377457D01*
X155421079Y-97356387D01*
X155413227Y-97334443D01*
X155407563Y-97311834D01*
X155404144Y-97288779D01*
X155403000Y-97265500D01*
X155403000Y-96790500D01*
X155404144Y-96767221D01*
X155407563Y-96744166D01*
X155413227Y-96721557D01*
X155421079Y-96699613D01*
X155431044Y-96678543D01*
X155443026Y-96658552D01*
X155456910Y-96639832D01*
X155472562Y-96622562D01*
X155489832Y-96606910D01*
X155508552Y-96593026D01*
X155528543Y-96581044D01*
X155549613Y-96571079D01*
X155571557Y-96563227D01*
X155594166Y-96557563D01*
X155617221Y-96554144D01*
X155640500Y-96553000D01*
X156215500Y-96553000D01*
X156238779Y-96554144D01*
X156238779Y-96554144D01*
G37*
D13*
X155928000Y-97028000D03*
D12*
G36*
X161318779Y-96554144D02*
G01*
X161341834Y-96557563D01*
X161364443Y-96563227D01*
X161386387Y-96571079D01*
X161407457Y-96581044D01*
X161427448Y-96593026D01*
X161446168Y-96606910D01*
X161463438Y-96622562D01*
X161479090Y-96639832D01*
X161492974Y-96658552D01*
X161504956Y-96678543D01*
X161514921Y-96699613D01*
X161522773Y-96721557D01*
X161528437Y-96744166D01*
X161531856Y-96767221D01*
X161533000Y-96790500D01*
X161533000Y-97265500D01*
X161531856Y-97288779D01*
X161528437Y-97311834D01*
X161522773Y-97334443D01*
X161514921Y-97356387D01*
X161504956Y-97377457D01*
X161492974Y-97397448D01*
X161479090Y-97416168D01*
X161463438Y-97433438D01*
X161446168Y-97449090D01*
X161427448Y-97462974D01*
X161407457Y-97474956D01*
X161386387Y-97484921D01*
X161364443Y-97492773D01*
X161341834Y-97498437D01*
X161318779Y-97501856D01*
X161295500Y-97503000D01*
X160720500Y-97503000D01*
X160697221Y-97501856D01*
X160674166Y-97498437D01*
X160651557Y-97492773D01*
X160629613Y-97484921D01*
X160608543Y-97474956D01*
X160588552Y-97462974D01*
X160569832Y-97449090D01*
X160552562Y-97433438D01*
X160536910Y-97416168D01*
X160523026Y-97397448D01*
X160511044Y-97377457D01*
X160501079Y-97356387D01*
X160493227Y-97334443D01*
X160487563Y-97311834D01*
X160484144Y-97288779D01*
X160483000Y-97265500D01*
X160483000Y-96790500D01*
X160484144Y-96767221D01*
X160487563Y-96744166D01*
X160493227Y-96721557D01*
X160501079Y-96699613D01*
X160511044Y-96678543D01*
X160523026Y-96658552D01*
X160536910Y-96639832D01*
X160552562Y-96622562D01*
X160569832Y-96606910D01*
X160588552Y-96593026D01*
X160608543Y-96581044D01*
X160629613Y-96571079D01*
X160651557Y-96563227D01*
X160674166Y-96557563D01*
X160697221Y-96554144D01*
X160720500Y-96553000D01*
X161295500Y-96553000D01*
X161318779Y-96554144D01*
X161318779Y-96554144D01*
G37*
D13*
X161008000Y-97028000D03*
D12*
G36*
X159568779Y-96554144D02*
G01*
X159591834Y-96557563D01*
X159614443Y-96563227D01*
X159636387Y-96571079D01*
X159657457Y-96581044D01*
X159677448Y-96593026D01*
X159696168Y-96606910D01*
X159713438Y-96622562D01*
X159729090Y-96639832D01*
X159742974Y-96658552D01*
X159754956Y-96678543D01*
X159764921Y-96699613D01*
X159772773Y-96721557D01*
X159778437Y-96744166D01*
X159781856Y-96767221D01*
X159783000Y-96790500D01*
X159783000Y-97265500D01*
X159781856Y-97288779D01*
X159778437Y-97311834D01*
X159772773Y-97334443D01*
X159764921Y-97356387D01*
X159754956Y-97377457D01*
X159742974Y-97397448D01*
X159729090Y-97416168D01*
X159713438Y-97433438D01*
X159696168Y-97449090D01*
X159677448Y-97462974D01*
X159657457Y-97474956D01*
X159636387Y-97484921D01*
X159614443Y-97492773D01*
X159591834Y-97498437D01*
X159568779Y-97501856D01*
X159545500Y-97503000D01*
X158970500Y-97503000D01*
X158947221Y-97501856D01*
X158924166Y-97498437D01*
X158901557Y-97492773D01*
X158879613Y-97484921D01*
X158858543Y-97474956D01*
X158838552Y-97462974D01*
X158819832Y-97449090D01*
X158802562Y-97433438D01*
X158786910Y-97416168D01*
X158773026Y-97397448D01*
X158761044Y-97377457D01*
X158751079Y-97356387D01*
X158743227Y-97334443D01*
X158737563Y-97311834D01*
X158734144Y-97288779D01*
X158733000Y-97265500D01*
X158733000Y-96790500D01*
X158734144Y-96767221D01*
X158737563Y-96744166D01*
X158743227Y-96721557D01*
X158751079Y-96699613D01*
X158761044Y-96678543D01*
X158773026Y-96658552D01*
X158786910Y-96639832D01*
X158802562Y-96622562D01*
X158819832Y-96606910D01*
X158838552Y-96593026D01*
X158858543Y-96581044D01*
X158879613Y-96571079D01*
X158901557Y-96563227D01*
X158924166Y-96557563D01*
X158947221Y-96554144D01*
X158970500Y-96553000D01*
X159545500Y-96553000D01*
X159568779Y-96554144D01*
X159568779Y-96554144D01*
G37*
D13*
X159258000Y-97028000D03*
D12*
G36*
X165650779Y-96427144D02*
G01*
X165673834Y-96430563D01*
X165696443Y-96436227D01*
X165718387Y-96444079D01*
X165739457Y-96454044D01*
X165759448Y-96466026D01*
X165778168Y-96479910D01*
X165795438Y-96495562D01*
X165811090Y-96512832D01*
X165824974Y-96531552D01*
X165836956Y-96551543D01*
X165846921Y-96572613D01*
X165854773Y-96594557D01*
X165860437Y-96617166D01*
X165863856Y-96640221D01*
X165865000Y-96663500D01*
X165865000Y-97138500D01*
X165863856Y-97161779D01*
X165860437Y-97184834D01*
X165854773Y-97207443D01*
X165846921Y-97229387D01*
X165836956Y-97250457D01*
X165824974Y-97270448D01*
X165811090Y-97289168D01*
X165795438Y-97306438D01*
X165778168Y-97322090D01*
X165759448Y-97335974D01*
X165739457Y-97347956D01*
X165718387Y-97357921D01*
X165696443Y-97365773D01*
X165673834Y-97371437D01*
X165650779Y-97374856D01*
X165627500Y-97376000D01*
X165052500Y-97376000D01*
X165029221Y-97374856D01*
X165006166Y-97371437D01*
X164983557Y-97365773D01*
X164961613Y-97357921D01*
X164940543Y-97347956D01*
X164920552Y-97335974D01*
X164901832Y-97322090D01*
X164884562Y-97306438D01*
X164868910Y-97289168D01*
X164855026Y-97270448D01*
X164843044Y-97250457D01*
X164833079Y-97229387D01*
X164825227Y-97207443D01*
X164819563Y-97184834D01*
X164816144Y-97161779D01*
X164815000Y-97138500D01*
X164815000Y-96663500D01*
X164816144Y-96640221D01*
X164819563Y-96617166D01*
X164825227Y-96594557D01*
X164833079Y-96572613D01*
X164843044Y-96551543D01*
X164855026Y-96531552D01*
X164868910Y-96512832D01*
X164884562Y-96495562D01*
X164901832Y-96479910D01*
X164920552Y-96466026D01*
X164940543Y-96454044D01*
X164961613Y-96444079D01*
X164983557Y-96436227D01*
X165006166Y-96430563D01*
X165029221Y-96427144D01*
X165052500Y-96426000D01*
X165627500Y-96426000D01*
X165650779Y-96427144D01*
X165650779Y-96427144D01*
G37*
D13*
X165340000Y-96901000D03*
D12*
G36*
X163900779Y-96427144D02*
G01*
X163923834Y-96430563D01*
X163946443Y-96436227D01*
X163968387Y-96444079D01*
X163989457Y-96454044D01*
X164009448Y-96466026D01*
X164028168Y-96479910D01*
X164045438Y-96495562D01*
X164061090Y-96512832D01*
X164074974Y-96531552D01*
X164086956Y-96551543D01*
X164096921Y-96572613D01*
X164104773Y-96594557D01*
X164110437Y-96617166D01*
X164113856Y-96640221D01*
X164115000Y-96663500D01*
X164115000Y-97138500D01*
X164113856Y-97161779D01*
X164110437Y-97184834D01*
X164104773Y-97207443D01*
X164096921Y-97229387D01*
X164086956Y-97250457D01*
X164074974Y-97270448D01*
X164061090Y-97289168D01*
X164045438Y-97306438D01*
X164028168Y-97322090D01*
X164009448Y-97335974D01*
X163989457Y-97347956D01*
X163968387Y-97357921D01*
X163946443Y-97365773D01*
X163923834Y-97371437D01*
X163900779Y-97374856D01*
X163877500Y-97376000D01*
X163302500Y-97376000D01*
X163279221Y-97374856D01*
X163256166Y-97371437D01*
X163233557Y-97365773D01*
X163211613Y-97357921D01*
X163190543Y-97347956D01*
X163170552Y-97335974D01*
X163151832Y-97322090D01*
X163134562Y-97306438D01*
X163118910Y-97289168D01*
X163105026Y-97270448D01*
X163093044Y-97250457D01*
X163083079Y-97229387D01*
X163075227Y-97207443D01*
X163069563Y-97184834D01*
X163066144Y-97161779D01*
X163065000Y-97138500D01*
X163065000Y-96663500D01*
X163066144Y-96640221D01*
X163069563Y-96617166D01*
X163075227Y-96594557D01*
X163083079Y-96572613D01*
X163093044Y-96551543D01*
X163105026Y-96531552D01*
X163118910Y-96512832D01*
X163134562Y-96495562D01*
X163151832Y-96479910D01*
X163170552Y-96466026D01*
X163190543Y-96454044D01*
X163211613Y-96444079D01*
X163233557Y-96436227D01*
X163256166Y-96430563D01*
X163279221Y-96427144D01*
X163302500Y-96426000D01*
X163877500Y-96426000D01*
X163900779Y-96427144D01*
X163900779Y-96427144D01*
G37*
D13*
X163590000Y-96901000D03*
D12*
G36*
X151073779Y-107349144D02*
G01*
X151096834Y-107352563D01*
X151119443Y-107358227D01*
X151141387Y-107366079D01*
X151162457Y-107376044D01*
X151182448Y-107388026D01*
X151201168Y-107401910D01*
X151218438Y-107417562D01*
X151234090Y-107434832D01*
X151247974Y-107453552D01*
X151259956Y-107473543D01*
X151269921Y-107494613D01*
X151277773Y-107516557D01*
X151283437Y-107539166D01*
X151286856Y-107562221D01*
X151288000Y-107585500D01*
X151288000Y-108060500D01*
X151286856Y-108083779D01*
X151283437Y-108106834D01*
X151277773Y-108129443D01*
X151269921Y-108151387D01*
X151259956Y-108172457D01*
X151247974Y-108192448D01*
X151234090Y-108211168D01*
X151218438Y-108228438D01*
X151201168Y-108244090D01*
X151182448Y-108257974D01*
X151162457Y-108269956D01*
X151141387Y-108279921D01*
X151119443Y-108287773D01*
X151096834Y-108293437D01*
X151073779Y-108296856D01*
X151050500Y-108298000D01*
X150475500Y-108298000D01*
X150452221Y-108296856D01*
X150429166Y-108293437D01*
X150406557Y-108287773D01*
X150384613Y-108279921D01*
X150363543Y-108269956D01*
X150343552Y-108257974D01*
X150324832Y-108244090D01*
X150307562Y-108228438D01*
X150291910Y-108211168D01*
X150278026Y-108192448D01*
X150266044Y-108172457D01*
X150256079Y-108151387D01*
X150248227Y-108129443D01*
X150242563Y-108106834D01*
X150239144Y-108083779D01*
X150238000Y-108060500D01*
X150238000Y-107585500D01*
X150239144Y-107562221D01*
X150242563Y-107539166D01*
X150248227Y-107516557D01*
X150256079Y-107494613D01*
X150266044Y-107473543D01*
X150278026Y-107453552D01*
X150291910Y-107434832D01*
X150307562Y-107417562D01*
X150324832Y-107401910D01*
X150343552Y-107388026D01*
X150363543Y-107376044D01*
X150384613Y-107366079D01*
X150406557Y-107358227D01*
X150429166Y-107352563D01*
X150452221Y-107349144D01*
X150475500Y-107348000D01*
X151050500Y-107348000D01*
X151073779Y-107349144D01*
X151073779Y-107349144D01*
G37*
D13*
X150763000Y-107823000D03*
D12*
G36*
X152823779Y-107349144D02*
G01*
X152846834Y-107352563D01*
X152869443Y-107358227D01*
X152891387Y-107366079D01*
X152912457Y-107376044D01*
X152932448Y-107388026D01*
X152951168Y-107401910D01*
X152968438Y-107417562D01*
X152984090Y-107434832D01*
X152997974Y-107453552D01*
X153009956Y-107473543D01*
X153019921Y-107494613D01*
X153027773Y-107516557D01*
X153033437Y-107539166D01*
X153036856Y-107562221D01*
X153038000Y-107585500D01*
X153038000Y-108060500D01*
X153036856Y-108083779D01*
X153033437Y-108106834D01*
X153027773Y-108129443D01*
X153019921Y-108151387D01*
X153009956Y-108172457D01*
X152997974Y-108192448D01*
X152984090Y-108211168D01*
X152968438Y-108228438D01*
X152951168Y-108244090D01*
X152932448Y-108257974D01*
X152912457Y-108269956D01*
X152891387Y-108279921D01*
X152869443Y-108287773D01*
X152846834Y-108293437D01*
X152823779Y-108296856D01*
X152800500Y-108298000D01*
X152225500Y-108298000D01*
X152202221Y-108296856D01*
X152179166Y-108293437D01*
X152156557Y-108287773D01*
X152134613Y-108279921D01*
X152113543Y-108269956D01*
X152093552Y-108257974D01*
X152074832Y-108244090D01*
X152057562Y-108228438D01*
X152041910Y-108211168D01*
X152028026Y-108192448D01*
X152016044Y-108172457D01*
X152006079Y-108151387D01*
X151998227Y-108129443D01*
X151992563Y-108106834D01*
X151989144Y-108083779D01*
X151988000Y-108060500D01*
X151988000Y-107585500D01*
X151989144Y-107562221D01*
X151992563Y-107539166D01*
X151998227Y-107516557D01*
X152006079Y-107494613D01*
X152016044Y-107473543D01*
X152028026Y-107453552D01*
X152041910Y-107434832D01*
X152057562Y-107417562D01*
X152074832Y-107401910D01*
X152093552Y-107388026D01*
X152113543Y-107376044D01*
X152134613Y-107366079D01*
X152156557Y-107358227D01*
X152179166Y-107352563D01*
X152202221Y-107349144D01*
X152225500Y-107348000D01*
X152800500Y-107348000D01*
X152823779Y-107349144D01*
X152823779Y-107349144D01*
G37*
D13*
X152513000Y-107823000D03*
D12*
G36*
X152950779Y-121573144D02*
G01*
X152973834Y-121576563D01*
X152996443Y-121582227D01*
X153018387Y-121590079D01*
X153039457Y-121600044D01*
X153059448Y-121612026D01*
X153078168Y-121625910D01*
X153095438Y-121641562D01*
X153111090Y-121658832D01*
X153124974Y-121677552D01*
X153136956Y-121697543D01*
X153146921Y-121718613D01*
X153154773Y-121740557D01*
X153160437Y-121763166D01*
X153163856Y-121786221D01*
X153165000Y-121809500D01*
X153165000Y-122284500D01*
X153163856Y-122307779D01*
X153160437Y-122330834D01*
X153154773Y-122353443D01*
X153146921Y-122375387D01*
X153136956Y-122396457D01*
X153124974Y-122416448D01*
X153111090Y-122435168D01*
X153095438Y-122452438D01*
X153078168Y-122468090D01*
X153059448Y-122481974D01*
X153039457Y-122493956D01*
X153018387Y-122503921D01*
X152996443Y-122511773D01*
X152973834Y-122517437D01*
X152950779Y-122520856D01*
X152927500Y-122522000D01*
X152352500Y-122522000D01*
X152329221Y-122520856D01*
X152306166Y-122517437D01*
X152283557Y-122511773D01*
X152261613Y-122503921D01*
X152240543Y-122493956D01*
X152220552Y-122481974D01*
X152201832Y-122468090D01*
X152184562Y-122452438D01*
X152168910Y-122435168D01*
X152155026Y-122416448D01*
X152143044Y-122396457D01*
X152133079Y-122375387D01*
X152125227Y-122353443D01*
X152119563Y-122330834D01*
X152116144Y-122307779D01*
X152115000Y-122284500D01*
X152115000Y-121809500D01*
X152116144Y-121786221D01*
X152119563Y-121763166D01*
X152125227Y-121740557D01*
X152133079Y-121718613D01*
X152143044Y-121697543D01*
X152155026Y-121677552D01*
X152168910Y-121658832D01*
X152184562Y-121641562D01*
X152201832Y-121625910D01*
X152220552Y-121612026D01*
X152240543Y-121600044D01*
X152261613Y-121590079D01*
X152283557Y-121582227D01*
X152306166Y-121576563D01*
X152329221Y-121573144D01*
X152352500Y-121572000D01*
X152927500Y-121572000D01*
X152950779Y-121573144D01*
X152950779Y-121573144D01*
G37*
D13*
X152640000Y-122047000D03*
D12*
G36*
X151200779Y-121573144D02*
G01*
X151223834Y-121576563D01*
X151246443Y-121582227D01*
X151268387Y-121590079D01*
X151289457Y-121600044D01*
X151309448Y-121612026D01*
X151328168Y-121625910D01*
X151345438Y-121641562D01*
X151361090Y-121658832D01*
X151374974Y-121677552D01*
X151386956Y-121697543D01*
X151396921Y-121718613D01*
X151404773Y-121740557D01*
X151410437Y-121763166D01*
X151413856Y-121786221D01*
X151415000Y-121809500D01*
X151415000Y-122284500D01*
X151413856Y-122307779D01*
X151410437Y-122330834D01*
X151404773Y-122353443D01*
X151396921Y-122375387D01*
X151386956Y-122396457D01*
X151374974Y-122416448D01*
X151361090Y-122435168D01*
X151345438Y-122452438D01*
X151328168Y-122468090D01*
X151309448Y-122481974D01*
X151289457Y-122493956D01*
X151268387Y-122503921D01*
X151246443Y-122511773D01*
X151223834Y-122517437D01*
X151200779Y-122520856D01*
X151177500Y-122522000D01*
X150602500Y-122522000D01*
X150579221Y-122520856D01*
X150556166Y-122517437D01*
X150533557Y-122511773D01*
X150511613Y-122503921D01*
X150490543Y-122493956D01*
X150470552Y-122481974D01*
X150451832Y-122468090D01*
X150434562Y-122452438D01*
X150418910Y-122435168D01*
X150405026Y-122416448D01*
X150393044Y-122396457D01*
X150383079Y-122375387D01*
X150375227Y-122353443D01*
X150369563Y-122330834D01*
X150366144Y-122307779D01*
X150365000Y-122284500D01*
X150365000Y-121809500D01*
X150366144Y-121786221D01*
X150369563Y-121763166D01*
X150375227Y-121740557D01*
X150383079Y-121718613D01*
X150393044Y-121697543D01*
X150405026Y-121677552D01*
X150418910Y-121658832D01*
X150434562Y-121641562D01*
X150451832Y-121625910D01*
X150470552Y-121612026D01*
X150490543Y-121600044D01*
X150511613Y-121590079D01*
X150533557Y-121582227D01*
X150556166Y-121576563D01*
X150579221Y-121573144D01*
X150602500Y-121572000D01*
X151177500Y-121572000D01*
X151200779Y-121573144D01*
X151200779Y-121573144D01*
G37*
D13*
X150890000Y-122047000D03*
D12*
G36*
X151059779Y-124494144D02*
G01*
X151082834Y-124497563D01*
X151105443Y-124503227D01*
X151127387Y-124511079D01*
X151148457Y-124521044D01*
X151168448Y-124533026D01*
X151187168Y-124546910D01*
X151204438Y-124562562D01*
X151220090Y-124579832D01*
X151233974Y-124598552D01*
X151245956Y-124618543D01*
X151255921Y-124639613D01*
X151263773Y-124661557D01*
X151269437Y-124684166D01*
X151272856Y-124707221D01*
X151274000Y-124730500D01*
X151274000Y-125205500D01*
X151272856Y-125228779D01*
X151269437Y-125251834D01*
X151263773Y-125274443D01*
X151255921Y-125296387D01*
X151245956Y-125317457D01*
X151233974Y-125337448D01*
X151220090Y-125356168D01*
X151204438Y-125373438D01*
X151187168Y-125389090D01*
X151168448Y-125402974D01*
X151148457Y-125414956D01*
X151127387Y-125424921D01*
X151105443Y-125432773D01*
X151082834Y-125438437D01*
X151059779Y-125441856D01*
X151036500Y-125443000D01*
X150461500Y-125443000D01*
X150438221Y-125441856D01*
X150415166Y-125438437D01*
X150392557Y-125432773D01*
X150370613Y-125424921D01*
X150349543Y-125414956D01*
X150329552Y-125402974D01*
X150310832Y-125389090D01*
X150293562Y-125373438D01*
X150277910Y-125356168D01*
X150264026Y-125337448D01*
X150252044Y-125317457D01*
X150242079Y-125296387D01*
X150234227Y-125274443D01*
X150228563Y-125251834D01*
X150225144Y-125228779D01*
X150224000Y-125205500D01*
X150224000Y-124730500D01*
X150225144Y-124707221D01*
X150228563Y-124684166D01*
X150234227Y-124661557D01*
X150242079Y-124639613D01*
X150252044Y-124618543D01*
X150264026Y-124598552D01*
X150277910Y-124579832D01*
X150293562Y-124562562D01*
X150310832Y-124546910D01*
X150329552Y-124533026D01*
X150349543Y-124521044D01*
X150370613Y-124511079D01*
X150392557Y-124503227D01*
X150415166Y-124497563D01*
X150438221Y-124494144D01*
X150461500Y-124493000D01*
X151036500Y-124493000D01*
X151059779Y-124494144D01*
X151059779Y-124494144D01*
G37*
D13*
X150749000Y-124968000D03*
D12*
G36*
X152809779Y-124494144D02*
G01*
X152832834Y-124497563D01*
X152855443Y-124503227D01*
X152877387Y-124511079D01*
X152898457Y-124521044D01*
X152918448Y-124533026D01*
X152937168Y-124546910D01*
X152954438Y-124562562D01*
X152970090Y-124579832D01*
X152983974Y-124598552D01*
X152995956Y-124618543D01*
X153005921Y-124639613D01*
X153013773Y-124661557D01*
X153019437Y-124684166D01*
X153022856Y-124707221D01*
X153024000Y-124730500D01*
X153024000Y-125205500D01*
X153022856Y-125228779D01*
X153019437Y-125251834D01*
X153013773Y-125274443D01*
X153005921Y-125296387D01*
X152995956Y-125317457D01*
X152983974Y-125337448D01*
X152970090Y-125356168D01*
X152954438Y-125373438D01*
X152937168Y-125389090D01*
X152918448Y-125402974D01*
X152898457Y-125414956D01*
X152877387Y-125424921D01*
X152855443Y-125432773D01*
X152832834Y-125438437D01*
X152809779Y-125441856D01*
X152786500Y-125443000D01*
X152211500Y-125443000D01*
X152188221Y-125441856D01*
X152165166Y-125438437D01*
X152142557Y-125432773D01*
X152120613Y-125424921D01*
X152099543Y-125414956D01*
X152079552Y-125402974D01*
X152060832Y-125389090D01*
X152043562Y-125373438D01*
X152027910Y-125356168D01*
X152014026Y-125337448D01*
X152002044Y-125317457D01*
X151992079Y-125296387D01*
X151984227Y-125274443D01*
X151978563Y-125251834D01*
X151975144Y-125228779D01*
X151974000Y-125205500D01*
X151974000Y-124730500D01*
X151975144Y-124707221D01*
X151978563Y-124684166D01*
X151984227Y-124661557D01*
X151992079Y-124639613D01*
X152002044Y-124618543D01*
X152014026Y-124598552D01*
X152027910Y-124579832D01*
X152043562Y-124562562D01*
X152060832Y-124546910D01*
X152079552Y-124533026D01*
X152099543Y-124521044D01*
X152120613Y-124511079D01*
X152142557Y-124503227D01*
X152165166Y-124497563D01*
X152188221Y-124494144D01*
X152211500Y-124493000D01*
X152786500Y-124493000D01*
X152809779Y-124494144D01*
X152809779Y-124494144D01*
G37*
D13*
X152499000Y-124968000D03*
D12*
G36*
X156506779Y-114334144D02*
G01*
X156529834Y-114337563D01*
X156552443Y-114343227D01*
X156574387Y-114351079D01*
X156595457Y-114361044D01*
X156615448Y-114373026D01*
X156634168Y-114386910D01*
X156651438Y-114402562D01*
X156667090Y-114419832D01*
X156680974Y-114438552D01*
X156692956Y-114458543D01*
X156702921Y-114479613D01*
X156710773Y-114501557D01*
X156716437Y-114524166D01*
X156719856Y-114547221D01*
X156721000Y-114570500D01*
X156721000Y-115045500D01*
X156719856Y-115068779D01*
X156716437Y-115091834D01*
X156710773Y-115114443D01*
X156702921Y-115136387D01*
X156692956Y-115157457D01*
X156680974Y-115177448D01*
X156667090Y-115196168D01*
X156651438Y-115213438D01*
X156634168Y-115229090D01*
X156615448Y-115242974D01*
X156595457Y-115254956D01*
X156574387Y-115264921D01*
X156552443Y-115272773D01*
X156529834Y-115278437D01*
X156506779Y-115281856D01*
X156483500Y-115283000D01*
X155908500Y-115283000D01*
X155885221Y-115281856D01*
X155862166Y-115278437D01*
X155839557Y-115272773D01*
X155817613Y-115264921D01*
X155796543Y-115254956D01*
X155776552Y-115242974D01*
X155757832Y-115229090D01*
X155740562Y-115213438D01*
X155724910Y-115196168D01*
X155711026Y-115177448D01*
X155699044Y-115157457D01*
X155689079Y-115136387D01*
X155681227Y-115114443D01*
X155675563Y-115091834D01*
X155672144Y-115068779D01*
X155671000Y-115045500D01*
X155671000Y-114570500D01*
X155672144Y-114547221D01*
X155675563Y-114524166D01*
X155681227Y-114501557D01*
X155689079Y-114479613D01*
X155699044Y-114458543D01*
X155711026Y-114438552D01*
X155724910Y-114419832D01*
X155740562Y-114402562D01*
X155757832Y-114386910D01*
X155776552Y-114373026D01*
X155796543Y-114361044D01*
X155817613Y-114351079D01*
X155839557Y-114343227D01*
X155862166Y-114337563D01*
X155885221Y-114334144D01*
X155908500Y-114333000D01*
X156483500Y-114333000D01*
X156506779Y-114334144D01*
X156506779Y-114334144D01*
G37*
D13*
X156196000Y-114808000D03*
D12*
G36*
X154756779Y-114334144D02*
G01*
X154779834Y-114337563D01*
X154802443Y-114343227D01*
X154824387Y-114351079D01*
X154845457Y-114361044D01*
X154865448Y-114373026D01*
X154884168Y-114386910D01*
X154901438Y-114402562D01*
X154917090Y-114419832D01*
X154930974Y-114438552D01*
X154942956Y-114458543D01*
X154952921Y-114479613D01*
X154960773Y-114501557D01*
X154966437Y-114524166D01*
X154969856Y-114547221D01*
X154971000Y-114570500D01*
X154971000Y-115045500D01*
X154969856Y-115068779D01*
X154966437Y-115091834D01*
X154960773Y-115114443D01*
X154952921Y-115136387D01*
X154942956Y-115157457D01*
X154930974Y-115177448D01*
X154917090Y-115196168D01*
X154901438Y-115213438D01*
X154884168Y-115229090D01*
X154865448Y-115242974D01*
X154845457Y-115254956D01*
X154824387Y-115264921D01*
X154802443Y-115272773D01*
X154779834Y-115278437D01*
X154756779Y-115281856D01*
X154733500Y-115283000D01*
X154158500Y-115283000D01*
X154135221Y-115281856D01*
X154112166Y-115278437D01*
X154089557Y-115272773D01*
X154067613Y-115264921D01*
X154046543Y-115254956D01*
X154026552Y-115242974D01*
X154007832Y-115229090D01*
X153990562Y-115213438D01*
X153974910Y-115196168D01*
X153961026Y-115177448D01*
X153949044Y-115157457D01*
X153939079Y-115136387D01*
X153931227Y-115114443D01*
X153925563Y-115091834D01*
X153922144Y-115068779D01*
X153921000Y-115045500D01*
X153921000Y-114570500D01*
X153922144Y-114547221D01*
X153925563Y-114524166D01*
X153931227Y-114501557D01*
X153939079Y-114479613D01*
X153949044Y-114458543D01*
X153961026Y-114438552D01*
X153974910Y-114419832D01*
X153990562Y-114402562D01*
X154007832Y-114386910D01*
X154026552Y-114373026D01*
X154046543Y-114361044D01*
X154067613Y-114351079D01*
X154089557Y-114343227D01*
X154112166Y-114337563D01*
X154135221Y-114334144D01*
X154158500Y-114333000D01*
X154733500Y-114333000D01*
X154756779Y-114334144D01*
X154756779Y-114334144D01*
G37*
D13*
X154446000Y-114808000D03*
D12*
G36*
X154897779Y-118398144D02*
G01*
X154920834Y-118401563D01*
X154943443Y-118407227D01*
X154965387Y-118415079D01*
X154986457Y-118425044D01*
X155006448Y-118437026D01*
X155025168Y-118450910D01*
X155042438Y-118466562D01*
X155058090Y-118483832D01*
X155071974Y-118502552D01*
X155083956Y-118522543D01*
X155093921Y-118543613D01*
X155101773Y-118565557D01*
X155107437Y-118588166D01*
X155110856Y-118611221D01*
X155112000Y-118634500D01*
X155112000Y-119109500D01*
X155110856Y-119132779D01*
X155107437Y-119155834D01*
X155101773Y-119178443D01*
X155093921Y-119200387D01*
X155083956Y-119221457D01*
X155071974Y-119241448D01*
X155058090Y-119260168D01*
X155042438Y-119277438D01*
X155025168Y-119293090D01*
X155006448Y-119306974D01*
X154986457Y-119318956D01*
X154965387Y-119328921D01*
X154943443Y-119336773D01*
X154920834Y-119342437D01*
X154897779Y-119345856D01*
X154874500Y-119347000D01*
X154299500Y-119347000D01*
X154276221Y-119345856D01*
X154253166Y-119342437D01*
X154230557Y-119336773D01*
X154208613Y-119328921D01*
X154187543Y-119318956D01*
X154167552Y-119306974D01*
X154148832Y-119293090D01*
X154131562Y-119277438D01*
X154115910Y-119260168D01*
X154102026Y-119241448D01*
X154090044Y-119221457D01*
X154080079Y-119200387D01*
X154072227Y-119178443D01*
X154066563Y-119155834D01*
X154063144Y-119132779D01*
X154062000Y-119109500D01*
X154062000Y-118634500D01*
X154063144Y-118611221D01*
X154066563Y-118588166D01*
X154072227Y-118565557D01*
X154080079Y-118543613D01*
X154090044Y-118522543D01*
X154102026Y-118502552D01*
X154115910Y-118483832D01*
X154131562Y-118466562D01*
X154148832Y-118450910D01*
X154167552Y-118437026D01*
X154187543Y-118425044D01*
X154208613Y-118415079D01*
X154230557Y-118407227D01*
X154253166Y-118401563D01*
X154276221Y-118398144D01*
X154299500Y-118397000D01*
X154874500Y-118397000D01*
X154897779Y-118398144D01*
X154897779Y-118398144D01*
G37*
D13*
X154587000Y-118872000D03*
D12*
G36*
X156647779Y-118398144D02*
G01*
X156670834Y-118401563D01*
X156693443Y-118407227D01*
X156715387Y-118415079D01*
X156736457Y-118425044D01*
X156756448Y-118437026D01*
X156775168Y-118450910D01*
X156792438Y-118466562D01*
X156808090Y-118483832D01*
X156821974Y-118502552D01*
X156833956Y-118522543D01*
X156843921Y-118543613D01*
X156851773Y-118565557D01*
X156857437Y-118588166D01*
X156860856Y-118611221D01*
X156862000Y-118634500D01*
X156862000Y-119109500D01*
X156860856Y-119132779D01*
X156857437Y-119155834D01*
X156851773Y-119178443D01*
X156843921Y-119200387D01*
X156833956Y-119221457D01*
X156821974Y-119241448D01*
X156808090Y-119260168D01*
X156792438Y-119277438D01*
X156775168Y-119293090D01*
X156756448Y-119306974D01*
X156736457Y-119318956D01*
X156715387Y-119328921D01*
X156693443Y-119336773D01*
X156670834Y-119342437D01*
X156647779Y-119345856D01*
X156624500Y-119347000D01*
X156049500Y-119347000D01*
X156026221Y-119345856D01*
X156003166Y-119342437D01*
X155980557Y-119336773D01*
X155958613Y-119328921D01*
X155937543Y-119318956D01*
X155917552Y-119306974D01*
X155898832Y-119293090D01*
X155881562Y-119277438D01*
X155865910Y-119260168D01*
X155852026Y-119241448D01*
X155840044Y-119221457D01*
X155830079Y-119200387D01*
X155822227Y-119178443D01*
X155816563Y-119155834D01*
X155813144Y-119132779D01*
X155812000Y-119109500D01*
X155812000Y-118634500D01*
X155813144Y-118611221D01*
X155816563Y-118588166D01*
X155822227Y-118565557D01*
X155830079Y-118543613D01*
X155840044Y-118522543D01*
X155852026Y-118502552D01*
X155865910Y-118483832D01*
X155881562Y-118466562D01*
X155898832Y-118450910D01*
X155917552Y-118437026D01*
X155937543Y-118425044D01*
X155958613Y-118415079D01*
X155980557Y-118407227D01*
X156003166Y-118401563D01*
X156026221Y-118398144D01*
X156049500Y-118397000D01*
X156624500Y-118397000D01*
X156647779Y-118398144D01*
X156647779Y-118398144D01*
G37*
D13*
X156337000Y-118872000D03*
D17*
X121412000Y-113252000D03*
X123312000Y-113252000D03*
X122362000Y-111252000D03*
X172212000Y-99965000D03*
X173162000Y-101965000D03*
X171262000Y-101965000D03*
D12*
G36*
X123472779Y-114842144D02*
G01*
X123495834Y-114845563D01*
X123518443Y-114851227D01*
X123540387Y-114859079D01*
X123561457Y-114869044D01*
X123581448Y-114881026D01*
X123600168Y-114894910D01*
X123617438Y-114910562D01*
X123633090Y-114927832D01*
X123646974Y-114946552D01*
X123658956Y-114966543D01*
X123668921Y-114987613D01*
X123676773Y-115009557D01*
X123682437Y-115032166D01*
X123685856Y-115055221D01*
X123687000Y-115078500D01*
X123687000Y-115553500D01*
X123685856Y-115576779D01*
X123682437Y-115599834D01*
X123676773Y-115622443D01*
X123668921Y-115644387D01*
X123658956Y-115665457D01*
X123646974Y-115685448D01*
X123633090Y-115704168D01*
X123617438Y-115721438D01*
X123600168Y-115737090D01*
X123581448Y-115750974D01*
X123561457Y-115762956D01*
X123540387Y-115772921D01*
X123518443Y-115780773D01*
X123495834Y-115786437D01*
X123472779Y-115789856D01*
X123449500Y-115791000D01*
X122874500Y-115791000D01*
X122851221Y-115789856D01*
X122828166Y-115786437D01*
X122805557Y-115780773D01*
X122783613Y-115772921D01*
X122762543Y-115762956D01*
X122742552Y-115750974D01*
X122723832Y-115737090D01*
X122706562Y-115721438D01*
X122690910Y-115704168D01*
X122677026Y-115685448D01*
X122665044Y-115665457D01*
X122655079Y-115644387D01*
X122647227Y-115622443D01*
X122641563Y-115599834D01*
X122638144Y-115576779D01*
X122637000Y-115553500D01*
X122637000Y-115078500D01*
X122638144Y-115055221D01*
X122641563Y-115032166D01*
X122647227Y-115009557D01*
X122655079Y-114987613D01*
X122665044Y-114966543D01*
X122677026Y-114946552D01*
X122690910Y-114927832D01*
X122706562Y-114910562D01*
X122723832Y-114894910D01*
X122742552Y-114881026D01*
X122762543Y-114869044D01*
X122783613Y-114859079D01*
X122805557Y-114851227D01*
X122828166Y-114845563D01*
X122851221Y-114842144D01*
X122874500Y-114841000D01*
X123449500Y-114841000D01*
X123472779Y-114842144D01*
X123472779Y-114842144D01*
G37*
D13*
X123162000Y-115316000D03*
D12*
G36*
X121722779Y-114842144D02*
G01*
X121745834Y-114845563D01*
X121768443Y-114851227D01*
X121790387Y-114859079D01*
X121811457Y-114869044D01*
X121831448Y-114881026D01*
X121850168Y-114894910D01*
X121867438Y-114910562D01*
X121883090Y-114927832D01*
X121896974Y-114946552D01*
X121908956Y-114966543D01*
X121918921Y-114987613D01*
X121926773Y-115009557D01*
X121932437Y-115032166D01*
X121935856Y-115055221D01*
X121937000Y-115078500D01*
X121937000Y-115553500D01*
X121935856Y-115576779D01*
X121932437Y-115599834D01*
X121926773Y-115622443D01*
X121918921Y-115644387D01*
X121908956Y-115665457D01*
X121896974Y-115685448D01*
X121883090Y-115704168D01*
X121867438Y-115721438D01*
X121850168Y-115737090D01*
X121831448Y-115750974D01*
X121811457Y-115762956D01*
X121790387Y-115772921D01*
X121768443Y-115780773D01*
X121745834Y-115786437D01*
X121722779Y-115789856D01*
X121699500Y-115791000D01*
X121124500Y-115791000D01*
X121101221Y-115789856D01*
X121078166Y-115786437D01*
X121055557Y-115780773D01*
X121033613Y-115772921D01*
X121012543Y-115762956D01*
X120992552Y-115750974D01*
X120973832Y-115737090D01*
X120956562Y-115721438D01*
X120940910Y-115704168D01*
X120927026Y-115685448D01*
X120915044Y-115665457D01*
X120905079Y-115644387D01*
X120897227Y-115622443D01*
X120891563Y-115599834D01*
X120888144Y-115576779D01*
X120887000Y-115553500D01*
X120887000Y-115078500D01*
X120888144Y-115055221D01*
X120891563Y-115032166D01*
X120897227Y-115009557D01*
X120905079Y-114987613D01*
X120915044Y-114966543D01*
X120927026Y-114946552D01*
X120940910Y-114927832D01*
X120956562Y-114910562D01*
X120973832Y-114894910D01*
X120992552Y-114881026D01*
X121012543Y-114869044D01*
X121033613Y-114859079D01*
X121055557Y-114851227D01*
X121078166Y-114845563D01*
X121101221Y-114842144D01*
X121124500Y-114841000D01*
X121699500Y-114841000D01*
X121722779Y-114842144D01*
X121722779Y-114842144D01*
G37*
D13*
X121412000Y-115316000D03*
D12*
G36*
X173310179Y-103158144D02*
G01*
X173333234Y-103161563D01*
X173355843Y-103167227D01*
X173377787Y-103175079D01*
X173398857Y-103185044D01*
X173418848Y-103197026D01*
X173437568Y-103210910D01*
X173454838Y-103226562D01*
X173470490Y-103243832D01*
X173484374Y-103262552D01*
X173496356Y-103282543D01*
X173506321Y-103303613D01*
X173514173Y-103325557D01*
X173519837Y-103348166D01*
X173523256Y-103371221D01*
X173524400Y-103394500D01*
X173524400Y-103869500D01*
X173523256Y-103892779D01*
X173519837Y-103915834D01*
X173514173Y-103938443D01*
X173506321Y-103960387D01*
X173496356Y-103981457D01*
X173484374Y-104001448D01*
X173470490Y-104020168D01*
X173454838Y-104037438D01*
X173437568Y-104053090D01*
X173418848Y-104066974D01*
X173398857Y-104078956D01*
X173377787Y-104088921D01*
X173355843Y-104096773D01*
X173333234Y-104102437D01*
X173310179Y-104105856D01*
X173286900Y-104107000D01*
X172711900Y-104107000D01*
X172688621Y-104105856D01*
X172665566Y-104102437D01*
X172642957Y-104096773D01*
X172621013Y-104088921D01*
X172599943Y-104078956D01*
X172579952Y-104066974D01*
X172561232Y-104053090D01*
X172543962Y-104037438D01*
X172528310Y-104020168D01*
X172514426Y-104001448D01*
X172502444Y-103981457D01*
X172492479Y-103960387D01*
X172484627Y-103938443D01*
X172478963Y-103915834D01*
X172475544Y-103892779D01*
X172474400Y-103869500D01*
X172474400Y-103394500D01*
X172475544Y-103371221D01*
X172478963Y-103348166D01*
X172484627Y-103325557D01*
X172492479Y-103303613D01*
X172502444Y-103282543D01*
X172514426Y-103262552D01*
X172528310Y-103243832D01*
X172543962Y-103226562D01*
X172561232Y-103210910D01*
X172579952Y-103197026D01*
X172599943Y-103185044D01*
X172621013Y-103175079D01*
X172642957Y-103167227D01*
X172665566Y-103161563D01*
X172688621Y-103158144D01*
X172711900Y-103157000D01*
X173286900Y-103157000D01*
X173310179Y-103158144D01*
X173310179Y-103158144D01*
G37*
D13*
X172999400Y-103632000D03*
D12*
G36*
X171560179Y-103158144D02*
G01*
X171583234Y-103161563D01*
X171605843Y-103167227D01*
X171627787Y-103175079D01*
X171648857Y-103185044D01*
X171668848Y-103197026D01*
X171687568Y-103210910D01*
X171704838Y-103226562D01*
X171720490Y-103243832D01*
X171734374Y-103262552D01*
X171746356Y-103282543D01*
X171756321Y-103303613D01*
X171764173Y-103325557D01*
X171769837Y-103348166D01*
X171773256Y-103371221D01*
X171774400Y-103394500D01*
X171774400Y-103869500D01*
X171773256Y-103892779D01*
X171769837Y-103915834D01*
X171764173Y-103938443D01*
X171756321Y-103960387D01*
X171746356Y-103981457D01*
X171734374Y-104001448D01*
X171720490Y-104020168D01*
X171704838Y-104037438D01*
X171687568Y-104053090D01*
X171668848Y-104066974D01*
X171648857Y-104078956D01*
X171627787Y-104088921D01*
X171605843Y-104096773D01*
X171583234Y-104102437D01*
X171560179Y-104105856D01*
X171536900Y-104107000D01*
X170961900Y-104107000D01*
X170938621Y-104105856D01*
X170915566Y-104102437D01*
X170892957Y-104096773D01*
X170871013Y-104088921D01*
X170849943Y-104078956D01*
X170829952Y-104066974D01*
X170811232Y-104053090D01*
X170793962Y-104037438D01*
X170778310Y-104020168D01*
X170764426Y-104001448D01*
X170752444Y-103981457D01*
X170742479Y-103960387D01*
X170734627Y-103938443D01*
X170728963Y-103915834D01*
X170725544Y-103892779D01*
X170724400Y-103869500D01*
X170724400Y-103394500D01*
X170725544Y-103371221D01*
X170728963Y-103348166D01*
X170734627Y-103325557D01*
X170742479Y-103303613D01*
X170752444Y-103282543D01*
X170764426Y-103262552D01*
X170778310Y-103243832D01*
X170793962Y-103226562D01*
X170811232Y-103210910D01*
X170829952Y-103197026D01*
X170849943Y-103185044D01*
X170871013Y-103175079D01*
X170892957Y-103167227D01*
X170915566Y-103161563D01*
X170938621Y-103158144D01*
X170961900Y-103157000D01*
X171536900Y-103157000D01*
X171560179Y-103158144D01*
X171560179Y-103158144D01*
G37*
D13*
X171249400Y-103632000D03*
D12*
G36*
X119640779Y-111236144D02*
G01*
X119663834Y-111239563D01*
X119686443Y-111245227D01*
X119708387Y-111253079D01*
X119729457Y-111263044D01*
X119749448Y-111275026D01*
X119768168Y-111288910D01*
X119785438Y-111304562D01*
X119801090Y-111321832D01*
X119814974Y-111340552D01*
X119826956Y-111360543D01*
X119836921Y-111381613D01*
X119844773Y-111403557D01*
X119850437Y-111426166D01*
X119853856Y-111449221D01*
X119855000Y-111472500D01*
X119855000Y-112047500D01*
X119853856Y-112070779D01*
X119850437Y-112093834D01*
X119844773Y-112116443D01*
X119836921Y-112138387D01*
X119826956Y-112159457D01*
X119814974Y-112179448D01*
X119801090Y-112198168D01*
X119785438Y-112215438D01*
X119768168Y-112231090D01*
X119749448Y-112244974D01*
X119729457Y-112256956D01*
X119708387Y-112266921D01*
X119686443Y-112274773D01*
X119663834Y-112280437D01*
X119640779Y-112283856D01*
X119617500Y-112285000D01*
X119142500Y-112285000D01*
X119119221Y-112283856D01*
X119096166Y-112280437D01*
X119073557Y-112274773D01*
X119051613Y-112266921D01*
X119030543Y-112256956D01*
X119010552Y-112244974D01*
X118991832Y-112231090D01*
X118974562Y-112215438D01*
X118958910Y-112198168D01*
X118945026Y-112179448D01*
X118933044Y-112159457D01*
X118923079Y-112138387D01*
X118915227Y-112116443D01*
X118909563Y-112093834D01*
X118906144Y-112070779D01*
X118905000Y-112047500D01*
X118905000Y-111472500D01*
X118906144Y-111449221D01*
X118909563Y-111426166D01*
X118915227Y-111403557D01*
X118923079Y-111381613D01*
X118933044Y-111360543D01*
X118945026Y-111340552D01*
X118958910Y-111321832D01*
X118974562Y-111304562D01*
X118991832Y-111288910D01*
X119010552Y-111275026D01*
X119030543Y-111263044D01*
X119051613Y-111253079D01*
X119073557Y-111245227D01*
X119096166Y-111239563D01*
X119119221Y-111236144D01*
X119142500Y-111235000D01*
X119617500Y-111235000D01*
X119640779Y-111236144D01*
X119640779Y-111236144D01*
G37*
D13*
X119380000Y-111760000D03*
D12*
G36*
X119640779Y-112986144D02*
G01*
X119663834Y-112989563D01*
X119686443Y-112995227D01*
X119708387Y-113003079D01*
X119729457Y-113013044D01*
X119749448Y-113025026D01*
X119768168Y-113038910D01*
X119785438Y-113054562D01*
X119801090Y-113071832D01*
X119814974Y-113090552D01*
X119826956Y-113110543D01*
X119836921Y-113131613D01*
X119844773Y-113153557D01*
X119850437Y-113176166D01*
X119853856Y-113199221D01*
X119855000Y-113222500D01*
X119855000Y-113797500D01*
X119853856Y-113820779D01*
X119850437Y-113843834D01*
X119844773Y-113866443D01*
X119836921Y-113888387D01*
X119826956Y-113909457D01*
X119814974Y-113929448D01*
X119801090Y-113948168D01*
X119785438Y-113965438D01*
X119768168Y-113981090D01*
X119749448Y-113994974D01*
X119729457Y-114006956D01*
X119708387Y-114016921D01*
X119686443Y-114024773D01*
X119663834Y-114030437D01*
X119640779Y-114033856D01*
X119617500Y-114035000D01*
X119142500Y-114035000D01*
X119119221Y-114033856D01*
X119096166Y-114030437D01*
X119073557Y-114024773D01*
X119051613Y-114016921D01*
X119030543Y-114006956D01*
X119010552Y-113994974D01*
X118991832Y-113981090D01*
X118974562Y-113965438D01*
X118958910Y-113948168D01*
X118945026Y-113929448D01*
X118933044Y-113909457D01*
X118923079Y-113888387D01*
X118915227Y-113866443D01*
X118909563Y-113843834D01*
X118906144Y-113820779D01*
X118905000Y-113797500D01*
X118905000Y-113222500D01*
X118906144Y-113199221D01*
X118909563Y-113176166D01*
X118915227Y-113153557D01*
X118923079Y-113131613D01*
X118933044Y-113110543D01*
X118945026Y-113090552D01*
X118958910Y-113071832D01*
X118974562Y-113054562D01*
X118991832Y-113038910D01*
X119010552Y-113025026D01*
X119030543Y-113013044D01*
X119051613Y-113003079D01*
X119073557Y-112995227D01*
X119096166Y-112989563D01*
X119119221Y-112986144D01*
X119142500Y-112985000D01*
X119617500Y-112985000D01*
X119640779Y-112986144D01*
X119640779Y-112986144D01*
G37*
D13*
X119380000Y-113510000D03*
D12*
G36*
X173397779Y-97570144D02*
G01*
X173420834Y-97573563D01*
X173443443Y-97579227D01*
X173465387Y-97587079D01*
X173486457Y-97597044D01*
X173506448Y-97609026D01*
X173525168Y-97622910D01*
X173542438Y-97638562D01*
X173558090Y-97655832D01*
X173571974Y-97674552D01*
X173583956Y-97694543D01*
X173593921Y-97715613D01*
X173601773Y-97737557D01*
X173607437Y-97760166D01*
X173610856Y-97783221D01*
X173612000Y-97806500D01*
X173612000Y-98281500D01*
X173610856Y-98304779D01*
X173607437Y-98327834D01*
X173601773Y-98350443D01*
X173593921Y-98372387D01*
X173583956Y-98393457D01*
X173571974Y-98413448D01*
X173558090Y-98432168D01*
X173542438Y-98449438D01*
X173525168Y-98465090D01*
X173506448Y-98478974D01*
X173486457Y-98490956D01*
X173465387Y-98500921D01*
X173443443Y-98508773D01*
X173420834Y-98514437D01*
X173397779Y-98517856D01*
X173374500Y-98519000D01*
X172799500Y-98519000D01*
X172776221Y-98517856D01*
X172753166Y-98514437D01*
X172730557Y-98508773D01*
X172708613Y-98500921D01*
X172687543Y-98490956D01*
X172667552Y-98478974D01*
X172648832Y-98465090D01*
X172631562Y-98449438D01*
X172615910Y-98432168D01*
X172602026Y-98413448D01*
X172590044Y-98393457D01*
X172580079Y-98372387D01*
X172572227Y-98350443D01*
X172566563Y-98327834D01*
X172563144Y-98304779D01*
X172562000Y-98281500D01*
X172562000Y-97806500D01*
X172563144Y-97783221D01*
X172566563Y-97760166D01*
X172572227Y-97737557D01*
X172580079Y-97715613D01*
X172590044Y-97694543D01*
X172602026Y-97674552D01*
X172615910Y-97655832D01*
X172631562Y-97638562D01*
X172648832Y-97622910D01*
X172667552Y-97609026D01*
X172687543Y-97597044D01*
X172708613Y-97587079D01*
X172730557Y-97579227D01*
X172753166Y-97573563D01*
X172776221Y-97570144D01*
X172799500Y-97569000D01*
X173374500Y-97569000D01*
X173397779Y-97570144D01*
X173397779Y-97570144D01*
G37*
D13*
X173087000Y-98044000D03*
D12*
G36*
X171647779Y-97570144D02*
G01*
X171670834Y-97573563D01*
X171693443Y-97579227D01*
X171715387Y-97587079D01*
X171736457Y-97597044D01*
X171756448Y-97609026D01*
X171775168Y-97622910D01*
X171792438Y-97638562D01*
X171808090Y-97655832D01*
X171821974Y-97674552D01*
X171833956Y-97694543D01*
X171843921Y-97715613D01*
X171851773Y-97737557D01*
X171857437Y-97760166D01*
X171860856Y-97783221D01*
X171862000Y-97806500D01*
X171862000Y-98281500D01*
X171860856Y-98304779D01*
X171857437Y-98327834D01*
X171851773Y-98350443D01*
X171843921Y-98372387D01*
X171833956Y-98393457D01*
X171821974Y-98413448D01*
X171808090Y-98432168D01*
X171792438Y-98449438D01*
X171775168Y-98465090D01*
X171756448Y-98478974D01*
X171736457Y-98490956D01*
X171715387Y-98500921D01*
X171693443Y-98508773D01*
X171670834Y-98514437D01*
X171647779Y-98517856D01*
X171624500Y-98519000D01*
X171049500Y-98519000D01*
X171026221Y-98517856D01*
X171003166Y-98514437D01*
X170980557Y-98508773D01*
X170958613Y-98500921D01*
X170937543Y-98490956D01*
X170917552Y-98478974D01*
X170898832Y-98465090D01*
X170881562Y-98449438D01*
X170865910Y-98432168D01*
X170852026Y-98413448D01*
X170840044Y-98393457D01*
X170830079Y-98372387D01*
X170822227Y-98350443D01*
X170816563Y-98327834D01*
X170813144Y-98304779D01*
X170812000Y-98281500D01*
X170812000Y-97806500D01*
X170813144Y-97783221D01*
X170816563Y-97760166D01*
X170822227Y-97737557D01*
X170830079Y-97715613D01*
X170840044Y-97694543D01*
X170852026Y-97674552D01*
X170865910Y-97655832D01*
X170881562Y-97638562D01*
X170898832Y-97622910D01*
X170917552Y-97609026D01*
X170937543Y-97597044D01*
X170958613Y-97587079D01*
X170980557Y-97579227D01*
X171003166Y-97573563D01*
X171026221Y-97570144D01*
X171049500Y-97569000D01*
X171624500Y-97569000D01*
X171647779Y-97570144D01*
X171647779Y-97570144D01*
G37*
D13*
X171337000Y-98044000D03*
D12*
G36*
X125736779Y-116542144D02*
G01*
X125759834Y-116545563D01*
X125782443Y-116551227D01*
X125804387Y-116559079D01*
X125825457Y-116569044D01*
X125845448Y-116581026D01*
X125864168Y-116594910D01*
X125881438Y-116610562D01*
X125897090Y-116627832D01*
X125910974Y-116646552D01*
X125922956Y-116666543D01*
X125932921Y-116687613D01*
X125940773Y-116709557D01*
X125946437Y-116732166D01*
X125949856Y-116755221D01*
X125951000Y-116778500D01*
X125951000Y-117353500D01*
X125949856Y-117376779D01*
X125946437Y-117399834D01*
X125940773Y-117422443D01*
X125932921Y-117444387D01*
X125922956Y-117465457D01*
X125910974Y-117485448D01*
X125897090Y-117504168D01*
X125881438Y-117521438D01*
X125864168Y-117537090D01*
X125845448Y-117550974D01*
X125825457Y-117562956D01*
X125804387Y-117572921D01*
X125782443Y-117580773D01*
X125759834Y-117586437D01*
X125736779Y-117589856D01*
X125713500Y-117591000D01*
X125238500Y-117591000D01*
X125215221Y-117589856D01*
X125192166Y-117586437D01*
X125169557Y-117580773D01*
X125147613Y-117572921D01*
X125126543Y-117562956D01*
X125106552Y-117550974D01*
X125087832Y-117537090D01*
X125070562Y-117521438D01*
X125054910Y-117504168D01*
X125041026Y-117485448D01*
X125029044Y-117465457D01*
X125019079Y-117444387D01*
X125011227Y-117422443D01*
X125005563Y-117399834D01*
X125002144Y-117376779D01*
X125001000Y-117353500D01*
X125001000Y-116778500D01*
X125002144Y-116755221D01*
X125005563Y-116732166D01*
X125011227Y-116709557D01*
X125019079Y-116687613D01*
X125029044Y-116666543D01*
X125041026Y-116646552D01*
X125054910Y-116627832D01*
X125070562Y-116610562D01*
X125087832Y-116594910D01*
X125106552Y-116581026D01*
X125126543Y-116569044D01*
X125147613Y-116559079D01*
X125169557Y-116551227D01*
X125192166Y-116545563D01*
X125215221Y-116542144D01*
X125238500Y-116541000D01*
X125713500Y-116541000D01*
X125736779Y-116542144D01*
X125736779Y-116542144D01*
G37*
D13*
X125476000Y-117066000D03*
D12*
G36*
X125736779Y-114792144D02*
G01*
X125759834Y-114795563D01*
X125782443Y-114801227D01*
X125804387Y-114809079D01*
X125825457Y-114819044D01*
X125845448Y-114831026D01*
X125864168Y-114844910D01*
X125881438Y-114860562D01*
X125897090Y-114877832D01*
X125910974Y-114896552D01*
X125922956Y-114916543D01*
X125932921Y-114937613D01*
X125940773Y-114959557D01*
X125946437Y-114982166D01*
X125949856Y-115005221D01*
X125951000Y-115028500D01*
X125951000Y-115603500D01*
X125949856Y-115626779D01*
X125946437Y-115649834D01*
X125940773Y-115672443D01*
X125932921Y-115694387D01*
X125922956Y-115715457D01*
X125910974Y-115735448D01*
X125897090Y-115754168D01*
X125881438Y-115771438D01*
X125864168Y-115787090D01*
X125845448Y-115800974D01*
X125825457Y-115812956D01*
X125804387Y-115822921D01*
X125782443Y-115830773D01*
X125759834Y-115836437D01*
X125736779Y-115839856D01*
X125713500Y-115841000D01*
X125238500Y-115841000D01*
X125215221Y-115839856D01*
X125192166Y-115836437D01*
X125169557Y-115830773D01*
X125147613Y-115822921D01*
X125126543Y-115812956D01*
X125106552Y-115800974D01*
X125087832Y-115787090D01*
X125070562Y-115771438D01*
X125054910Y-115754168D01*
X125041026Y-115735448D01*
X125029044Y-115715457D01*
X125019079Y-115694387D01*
X125011227Y-115672443D01*
X125005563Y-115649834D01*
X125002144Y-115626779D01*
X125001000Y-115603500D01*
X125001000Y-115028500D01*
X125002144Y-115005221D01*
X125005563Y-114982166D01*
X125011227Y-114959557D01*
X125019079Y-114937613D01*
X125029044Y-114916543D01*
X125041026Y-114896552D01*
X125054910Y-114877832D01*
X125070562Y-114860562D01*
X125087832Y-114844910D01*
X125106552Y-114831026D01*
X125126543Y-114819044D01*
X125147613Y-114809079D01*
X125169557Y-114801227D01*
X125192166Y-114795563D01*
X125215221Y-114792144D01*
X125238500Y-114791000D01*
X125713500Y-114791000D01*
X125736779Y-114792144D01*
X125736779Y-114792144D01*
G37*
D13*
X125476000Y-115316000D03*
D12*
G36*
X169587779Y-96427144D02*
G01*
X169610834Y-96430563D01*
X169633443Y-96436227D01*
X169655387Y-96444079D01*
X169676457Y-96454044D01*
X169696448Y-96466026D01*
X169715168Y-96479910D01*
X169732438Y-96495562D01*
X169748090Y-96512832D01*
X169761974Y-96531552D01*
X169773956Y-96551543D01*
X169783921Y-96572613D01*
X169791773Y-96594557D01*
X169797437Y-96617166D01*
X169800856Y-96640221D01*
X169802000Y-96663500D01*
X169802000Y-97138500D01*
X169800856Y-97161779D01*
X169797437Y-97184834D01*
X169791773Y-97207443D01*
X169783921Y-97229387D01*
X169773956Y-97250457D01*
X169761974Y-97270448D01*
X169748090Y-97289168D01*
X169732438Y-97306438D01*
X169715168Y-97322090D01*
X169696448Y-97335974D01*
X169676457Y-97347956D01*
X169655387Y-97357921D01*
X169633443Y-97365773D01*
X169610834Y-97371437D01*
X169587779Y-97374856D01*
X169564500Y-97376000D01*
X168989500Y-97376000D01*
X168966221Y-97374856D01*
X168943166Y-97371437D01*
X168920557Y-97365773D01*
X168898613Y-97357921D01*
X168877543Y-97347956D01*
X168857552Y-97335974D01*
X168838832Y-97322090D01*
X168821562Y-97306438D01*
X168805910Y-97289168D01*
X168792026Y-97270448D01*
X168780044Y-97250457D01*
X168770079Y-97229387D01*
X168762227Y-97207443D01*
X168756563Y-97184834D01*
X168753144Y-97161779D01*
X168752000Y-97138500D01*
X168752000Y-96663500D01*
X168753144Y-96640221D01*
X168756563Y-96617166D01*
X168762227Y-96594557D01*
X168770079Y-96572613D01*
X168780044Y-96551543D01*
X168792026Y-96531552D01*
X168805910Y-96512832D01*
X168821562Y-96495562D01*
X168838832Y-96479910D01*
X168857552Y-96466026D01*
X168877543Y-96454044D01*
X168898613Y-96444079D01*
X168920557Y-96436227D01*
X168943166Y-96430563D01*
X168966221Y-96427144D01*
X168989500Y-96426000D01*
X169564500Y-96426000D01*
X169587779Y-96427144D01*
X169587779Y-96427144D01*
G37*
D13*
X169277000Y-96901000D03*
D12*
G36*
X167837779Y-96427144D02*
G01*
X167860834Y-96430563D01*
X167883443Y-96436227D01*
X167905387Y-96444079D01*
X167926457Y-96454044D01*
X167946448Y-96466026D01*
X167965168Y-96479910D01*
X167982438Y-96495562D01*
X167998090Y-96512832D01*
X168011974Y-96531552D01*
X168023956Y-96551543D01*
X168033921Y-96572613D01*
X168041773Y-96594557D01*
X168047437Y-96617166D01*
X168050856Y-96640221D01*
X168052000Y-96663500D01*
X168052000Y-97138500D01*
X168050856Y-97161779D01*
X168047437Y-97184834D01*
X168041773Y-97207443D01*
X168033921Y-97229387D01*
X168023956Y-97250457D01*
X168011974Y-97270448D01*
X167998090Y-97289168D01*
X167982438Y-97306438D01*
X167965168Y-97322090D01*
X167946448Y-97335974D01*
X167926457Y-97347956D01*
X167905387Y-97357921D01*
X167883443Y-97365773D01*
X167860834Y-97371437D01*
X167837779Y-97374856D01*
X167814500Y-97376000D01*
X167239500Y-97376000D01*
X167216221Y-97374856D01*
X167193166Y-97371437D01*
X167170557Y-97365773D01*
X167148613Y-97357921D01*
X167127543Y-97347956D01*
X167107552Y-97335974D01*
X167088832Y-97322090D01*
X167071562Y-97306438D01*
X167055910Y-97289168D01*
X167042026Y-97270448D01*
X167030044Y-97250457D01*
X167020079Y-97229387D01*
X167012227Y-97207443D01*
X167006563Y-97184834D01*
X167003144Y-97161779D01*
X167002000Y-97138500D01*
X167002000Y-96663500D01*
X167003144Y-96640221D01*
X167006563Y-96617166D01*
X167012227Y-96594557D01*
X167020079Y-96572613D01*
X167030044Y-96551543D01*
X167042026Y-96531552D01*
X167055910Y-96512832D01*
X167071562Y-96495562D01*
X167088832Y-96479910D01*
X167107552Y-96466026D01*
X167127543Y-96454044D01*
X167148613Y-96444079D01*
X167170557Y-96436227D01*
X167193166Y-96430563D01*
X167216221Y-96427144D01*
X167239500Y-96426000D01*
X167814500Y-96426000D01*
X167837779Y-96427144D01*
X167837779Y-96427144D01*
G37*
D13*
X167527000Y-96901000D03*
D18*
X125476000Y-111091000D03*
X125476000Y-113191000D03*
M02*
