G04 #@! TF.GenerationSoftware,KiCad,Pcbnew,(5.1.2)-1*
G04 #@! TF.CreationDate,2019-08-02T20:14:08-05:00*
G04 #@! TF.ProjectId,NavBoard_Hardware,4e617642-6f61-4726-945f-486172647761,rev?*
G04 #@! TF.SameCoordinates,Original*
G04 #@! TF.FileFunction,Legend,Top*
G04 #@! TF.FilePolarity,Positive*
%FSLAX46Y46*%
G04 Gerber Fmt 4.6, Leading zero omitted, Abs format (unit mm)*
G04 Created by KiCad (PCBNEW (5.1.2)-1) date 2019-08-02 20:14:08*
%MOMM*%
%LPD*%
G04 APERTURE LIST*
%ADD10C,0.300000*%
%ADD11C,0.200000*%
%ADD12C,0.248000*%
%ADD13C,0.184500*%
%ADD14C,0.010000*%
%ADD15C,0.150000*%
%ADD16C,0.120000*%
%ADD17C,0.050000*%
G04 APERTURE END LIST*
D10*
X139610285Y-145030000D02*
X140324571Y-145030000D01*
X139467428Y-145458571D02*
X139967428Y-143958571D01*
X140467428Y-145458571D01*
X140967428Y-145458571D02*
X140967428Y-144458571D01*
X140967428Y-144744285D02*
X141038857Y-144601428D01*
X141110285Y-144530000D01*
X141253142Y-144458571D01*
X141396000Y-144458571D01*
X142467428Y-145387142D02*
X142324571Y-145458571D01*
X142038857Y-145458571D01*
X141896000Y-145387142D01*
X141824571Y-145244285D01*
X141824571Y-144672857D01*
X141896000Y-144530000D01*
X142038857Y-144458571D01*
X142324571Y-144458571D01*
X142467428Y-144530000D01*
X142538857Y-144672857D01*
X142538857Y-144815714D01*
X141824571Y-144958571D01*
X144181714Y-144458571D02*
X144538857Y-145458571D01*
X144896000Y-144458571D02*
X144538857Y-145458571D01*
X144396000Y-145815714D01*
X144324571Y-145887142D01*
X144181714Y-145958571D01*
X145681714Y-145458571D02*
X145538857Y-145387142D01*
X145467428Y-145315714D01*
X145396000Y-145172857D01*
X145396000Y-144744285D01*
X145467428Y-144601428D01*
X145538857Y-144530000D01*
X145681714Y-144458571D01*
X145896000Y-144458571D01*
X146038857Y-144530000D01*
X146110285Y-144601428D01*
X146181714Y-144744285D01*
X146181714Y-145172857D01*
X146110285Y-145315714D01*
X146038857Y-145387142D01*
X145896000Y-145458571D01*
X145681714Y-145458571D01*
X147467428Y-144458571D02*
X147467428Y-145458571D01*
X146824571Y-144458571D02*
X146824571Y-145244285D01*
X146896000Y-145387142D01*
X147038857Y-145458571D01*
X147253142Y-145458571D01*
X147396000Y-145387142D01*
X147467428Y-145315714D01*
X149324571Y-145458571D02*
X149324571Y-144458571D01*
X149324571Y-144744285D02*
X149396000Y-144601428D01*
X149467428Y-144530000D01*
X149610285Y-144458571D01*
X149753142Y-144458571D01*
X150824571Y-145387142D02*
X150681714Y-145458571D01*
X150396000Y-145458571D01*
X150253142Y-145387142D01*
X150181714Y-145244285D01*
X150181714Y-144672857D01*
X150253142Y-144530000D01*
X150396000Y-144458571D01*
X150681714Y-144458571D01*
X150824571Y-144530000D01*
X150896000Y-144672857D01*
X150896000Y-144815714D01*
X150181714Y-144958571D01*
X152181714Y-145458571D02*
X152181714Y-144672857D01*
X152110285Y-144530000D01*
X151967428Y-144458571D01*
X151681714Y-144458571D01*
X151538857Y-144530000D01*
X152181714Y-145387142D02*
X152038857Y-145458571D01*
X151681714Y-145458571D01*
X151538857Y-145387142D01*
X151467428Y-145244285D01*
X151467428Y-145101428D01*
X151538857Y-144958571D01*
X151681714Y-144887142D01*
X152038857Y-144887142D01*
X152181714Y-144815714D01*
X153538857Y-145458571D02*
X153538857Y-143958571D01*
X153538857Y-145387142D02*
X153396000Y-145458571D01*
X153110285Y-145458571D01*
X152967428Y-145387142D01*
X152896000Y-145315714D01*
X152824571Y-145172857D01*
X152824571Y-144744285D01*
X152896000Y-144601428D01*
X152967428Y-144530000D01*
X153110285Y-144458571D01*
X153396000Y-144458571D01*
X153538857Y-144530000D01*
X154110285Y-144458571D02*
X154467428Y-145458571D01*
X154824571Y-144458571D02*
X154467428Y-145458571D01*
X154324571Y-145815714D01*
X154253142Y-145887142D01*
X154110285Y-145958571D01*
X156324571Y-144458571D02*
X156896000Y-144458571D01*
X156538857Y-143958571D02*
X156538857Y-145244285D01*
X156610285Y-145387142D01*
X156753142Y-145458571D01*
X156896000Y-145458571D01*
X157610285Y-145458571D02*
X157467428Y-145387142D01*
X157396000Y-145315714D01*
X157324571Y-145172857D01*
X157324571Y-144744285D01*
X157396000Y-144601428D01*
X157467428Y-144530000D01*
X157610285Y-144458571D01*
X157824571Y-144458571D01*
X157967428Y-144530000D01*
X158038857Y-144601428D01*
X158110285Y-144744285D01*
X158110285Y-145172857D01*
X158038857Y-145315714D01*
X157967428Y-145387142D01*
X157824571Y-145458571D01*
X157610285Y-145458571D01*
X159896000Y-144458571D02*
X159896000Y-145744285D01*
X159824571Y-145887142D01*
X159681714Y-145958571D01*
X159610285Y-145958571D01*
X159896000Y-143958571D02*
X159824571Y-144030000D01*
X159896000Y-144101428D01*
X159967428Y-144030000D01*
X159896000Y-143958571D01*
X159896000Y-144101428D01*
X160824571Y-145458571D02*
X160681714Y-145387142D01*
X160610285Y-145315714D01*
X160538857Y-145172857D01*
X160538857Y-144744285D01*
X160610285Y-144601428D01*
X160681714Y-144530000D01*
X160824571Y-144458571D01*
X161038857Y-144458571D01*
X161181714Y-144530000D01*
X161253142Y-144601428D01*
X161324571Y-144744285D01*
X161324571Y-145172857D01*
X161253142Y-145315714D01*
X161181714Y-145387142D01*
X161038857Y-145458571D01*
X160824571Y-145458571D01*
X161967428Y-145458571D02*
X161967428Y-144458571D01*
X161967428Y-143958571D02*
X161896000Y-144030000D01*
X161967428Y-144101428D01*
X162038857Y-144030000D01*
X161967428Y-143958571D01*
X161967428Y-144101428D01*
X162681714Y-144458571D02*
X162681714Y-145458571D01*
X162681714Y-144601428D02*
X162753142Y-144530000D01*
X162896000Y-144458571D01*
X163110285Y-144458571D01*
X163253142Y-144530000D01*
X163324571Y-144672857D01*
X163324571Y-145458571D01*
X164253142Y-145315714D02*
X164324571Y-145387142D01*
X164253142Y-145458571D01*
X164181714Y-145387142D01*
X164253142Y-145315714D01*
X164253142Y-145458571D01*
X163967428Y-144030000D02*
X164110285Y-143958571D01*
X164467428Y-143958571D01*
X164610285Y-144030000D01*
X164681714Y-144172857D01*
X164681714Y-144315714D01*
X164610285Y-144458571D01*
X164538857Y-144530000D01*
X164396000Y-144601428D01*
X164324571Y-144672857D01*
X164253142Y-144815714D01*
X164253142Y-144887142D01*
X133828571Y-141902571D02*
X133828571Y-140402571D01*
X134185714Y-140402571D01*
X134400000Y-140474000D01*
X134542857Y-140616857D01*
X134614285Y-140759714D01*
X134685714Y-141045428D01*
X134685714Y-141259714D01*
X134614285Y-141545428D01*
X134542857Y-141688285D01*
X134400000Y-141831142D01*
X134185714Y-141902571D01*
X133828571Y-141902571D01*
X135900000Y-141831142D02*
X135757142Y-141902571D01*
X135471428Y-141902571D01*
X135328571Y-141831142D01*
X135257142Y-141688285D01*
X135257142Y-141116857D01*
X135328571Y-140974000D01*
X135471428Y-140902571D01*
X135757142Y-140902571D01*
X135900000Y-140974000D01*
X135971428Y-141116857D01*
X135971428Y-141259714D01*
X135257142Y-141402571D01*
X136542857Y-141831142D02*
X136685714Y-141902571D01*
X136971428Y-141902571D01*
X137114285Y-141831142D01*
X137185714Y-141688285D01*
X137185714Y-141616857D01*
X137114285Y-141474000D01*
X136971428Y-141402571D01*
X136757142Y-141402571D01*
X136614285Y-141331142D01*
X136542857Y-141188285D01*
X136542857Y-141116857D01*
X136614285Y-140974000D01*
X136757142Y-140902571D01*
X136971428Y-140902571D01*
X137114285Y-140974000D01*
X137828571Y-141902571D02*
X137828571Y-140902571D01*
X137828571Y-140402571D02*
X137757142Y-140474000D01*
X137828571Y-140545428D01*
X137900000Y-140474000D01*
X137828571Y-140402571D01*
X137828571Y-140545428D01*
X138542857Y-140902571D02*
X138542857Y-141902571D01*
X138542857Y-141045428D02*
X138614285Y-140974000D01*
X138757142Y-140902571D01*
X138971428Y-140902571D01*
X139114285Y-140974000D01*
X139185714Y-141116857D01*
X139185714Y-141902571D01*
X140542857Y-140902571D02*
X140542857Y-142116857D01*
X140471428Y-142259714D01*
X140400000Y-142331142D01*
X140257142Y-142402571D01*
X140042857Y-142402571D01*
X139900000Y-142331142D01*
X140542857Y-141831142D02*
X140400000Y-141902571D01*
X140114285Y-141902571D01*
X139971428Y-141831142D01*
X139900000Y-141759714D01*
X139828571Y-141616857D01*
X139828571Y-141188285D01*
X139900000Y-141045428D01*
X139971428Y-140974000D01*
X140114285Y-140902571D01*
X140400000Y-140902571D01*
X140542857Y-140974000D01*
X141257142Y-141902571D02*
X141257142Y-140902571D01*
X141257142Y-140402571D02*
X141185714Y-140474000D01*
X141257142Y-140545428D01*
X141328571Y-140474000D01*
X141257142Y-140402571D01*
X141257142Y-140545428D01*
X141971428Y-140902571D02*
X141971428Y-141902571D01*
X141971428Y-141045428D02*
X142042857Y-140974000D01*
X142185714Y-140902571D01*
X142400000Y-140902571D01*
X142542857Y-140974000D01*
X142614285Y-141116857D01*
X142614285Y-141902571D01*
X143971428Y-140902571D02*
X143971428Y-142116857D01*
X143900000Y-142259714D01*
X143828571Y-142331142D01*
X143685714Y-142402571D01*
X143471428Y-142402571D01*
X143328571Y-142331142D01*
X143971428Y-141831142D02*
X143828571Y-141902571D01*
X143542857Y-141902571D01*
X143400000Y-141831142D01*
X143328571Y-141759714D01*
X143257142Y-141616857D01*
X143257142Y-141188285D01*
X143328571Y-141045428D01*
X143400000Y-140974000D01*
X143542857Y-140902571D01*
X143828571Y-140902571D01*
X143971428Y-140974000D01*
X145614285Y-140902571D02*
X146185714Y-140902571D01*
X145828571Y-140402571D02*
X145828571Y-141688285D01*
X145900000Y-141831142D01*
X146042857Y-141902571D01*
X146185714Y-141902571D01*
X146685714Y-141902571D02*
X146685714Y-140402571D01*
X147328571Y-141902571D02*
X147328571Y-141116857D01*
X147257142Y-140974000D01*
X147114285Y-140902571D01*
X146900000Y-140902571D01*
X146757142Y-140974000D01*
X146685714Y-141045428D01*
X148614285Y-141831142D02*
X148471428Y-141902571D01*
X148185714Y-141902571D01*
X148042857Y-141831142D01*
X147971428Y-141688285D01*
X147971428Y-141116857D01*
X148042857Y-140974000D01*
X148185714Y-140902571D01*
X148471428Y-140902571D01*
X148614285Y-140974000D01*
X148685714Y-141116857D01*
X148685714Y-141259714D01*
X147971428Y-141402571D01*
X150257142Y-140902571D02*
X150828571Y-140902571D01*
X150471428Y-141902571D02*
X150471428Y-140616857D01*
X150542857Y-140474000D01*
X150685714Y-140402571D01*
X150828571Y-140402571D01*
X151971428Y-140902571D02*
X151971428Y-141902571D01*
X151328571Y-140902571D02*
X151328571Y-141688285D01*
X151400000Y-141831142D01*
X151542857Y-141902571D01*
X151757142Y-141902571D01*
X151900000Y-141831142D01*
X151971428Y-141759714D01*
X152471428Y-140902571D02*
X153042857Y-140902571D01*
X152685714Y-140402571D02*
X152685714Y-141688285D01*
X152757142Y-141831142D01*
X152900000Y-141902571D01*
X153042857Y-141902571D01*
X154185714Y-140902571D02*
X154185714Y-141902571D01*
X153542857Y-140902571D02*
X153542857Y-141688285D01*
X153614285Y-141831142D01*
X153757142Y-141902571D01*
X153971428Y-141902571D01*
X154114285Y-141831142D01*
X154185714Y-141759714D01*
X154900000Y-141902571D02*
X154900000Y-140902571D01*
X154900000Y-141188285D02*
X154971428Y-141045428D01*
X155042857Y-140974000D01*
X155185714Y-140902571D01*
X155328571Y-140902571D01*
X156400000Y-141831142D02*
X156257142Y-141902571D01*
X155971428Y-141902571D01*
X155828571Y-141831142D01*
X155757142Y-141688285D01*
X155757142Y-141116857D01*
X155828571Y-140974000D01*
X155971428Y-140902571D01*
X156257142Y-140902571D01*
X156400000Y-140974000D01*
X156471428Y-141116857D01*
X156471428Y-141259714D01*
X155757142Y-141402571D01*
X158185714Y-141831142D02*
X158328571Y-141902571D01*
X158614285Y-141902571D01*
X158757142Y-141831142D01*
X158828571Y-141688285D01*
X158828571Y-141616857D01*
X158757142Y-141474000D01*
X158614285Y-141402571D01*
X158400000Y-141402571D01*
X158257142Y-141331142D01*
X158185714Y-141188285D01*
X158185714Y-141116857D01*
X158257142Y-140974000D01*
X158400000Y-140902571D01*
X158614285Y-140902571D01*
X158757142Y-140974000D01*
X159471428Y-141902571D02*
X159471428Y-140902571D01*
X159471428Y-140402571D02*
X159400000Y-140474000D01*
X159471428Y-140545428D01*
X159542857Y-140474000D01*
X159471428Y-140402571D01*
X159471428Y-140545428D01*
X160185714Y-140902571D02*
X160185714Y-141902571D01*
X160185714Y-141045428D02*
X160257142Y-140974000D01*
X160400000Y-140902571D01*
X160614285Y-140902571D01*
X160757142Y-140974000D01*
X160828571Y-141116857D01*
X160828571Y-141902571D01*
X162185714Y-141831142D02*
X162042857Y-141902571D01*
X161757142Y-141902571D01*
X161614285Y-141831142D01*
X161542857Y-141759714D01*
X161471428Y-141616857D01*
X161471428Y-141188285D01*
X161542857Y-141045428D01*
X161614285Y-140974000D01*
X161757142Y-140902571D01*
X162042857Y-140902571D01*
X162185714Y-140974000D01*
X163400000Y-141831142D02*
X163257142Y-141902571D01*
X162971428Y-141902571D01*
X162828571Y-141831142D01*
X162757142Y-141688285D01*
X162757142Y-141116857D01*
X162828571Y-140974000D01*
X162971428Y-140902571D01*
X163257142Y-140902571D01*
X163400000Y-140974000D01*
X163471428Y-141116857D01*
X163471428Y-141259714D01*
X162757142Y-141402571D01*
X165185714Y-140545428D02*
X165257142Y-140474000D01*
X165400000Y-140402571D01*
X165757142Y-140402571D01*
X165900000Y-140474000D01*
X165971428Y-140545428D01*
X166042857Y-140688285D01*
X166042857Y-140831142D01*
X165971428Y-141045428D01*
X165114285Y-141902571D01*
X166042857Y-141902571D01*
X166971428Y-140402571D02*
X167114285Y-140402571D01*
X167257142Y-140474000D01*
X167328571Y-140545428D01*
X167400000Y-140688285D01*
X167471428Y-140974000D01*
X167471428Y-141331142D01*
X167400000Y-141616857D01*
X167328571Y-141759714D01*
X167257142Y-141831142D01*
X167114285Y-141902571D01*
X166971428Y-141902571D01*
X166828571Y-141831142D01*
X166757142Y-141759714D01*
X166685714Y-141616857D01*
X166614285Y-141331142D01*
X166614285Y-140974000D01*
X166685714Y-140688285D01*
X166757142Y-140545428D01*
X166828571Y-140474000D01*
X166971428Y-140402571D01*
X168900000Y-141902571D02*
X168042857Y-141902571D01*
X168471428Y-141902571D02*
X168471428Y-140402571D01*
X168328571Y-140616857D01*
X168185714Y-140759714D01*
X168042857Y-140831142D01*
X169471428Y-140545428D02*
X169542857Y-140474000D01*
X169685714Y-140402571D01*
X170042857Y-140402571D01*
X170185714Y-140474000D01*
X170257142Y-140545428D01*
X170328571Y-140688285D01*
X170328571Y-140831142D01*
X170257142Y-141045428D01*
X169400000Y-141902571D01*
X170328571Y-141902571D01*
X170971428Y-141759714D02*
X171042857Y-141831142D01*
X170971428Y-141902571D01*
X170900000Y-141831142D01*
X170971428Y-141759714D01*
X170971428Y-141902571D01*
X170971428Y-141331142D02*
X170900000Y-140474000D01*
X170971428Y-140402571D01*
X171042857Y-140474000D01*
X170971428Y-141331142D01*
X170971428Y-140402571D01*
X135200571Y-148880285D02*
X135128000Y-148952857D01*
X134910285Y-149025428D01*
X134765142Y-149025428D01*
X134547428Y-148952857D01*
X134402285Y-148807714D01*
X134329714Y-148662571D01*
X134257142Y-148372285D01*
X134257142Y-148154571D01*
X134329714Y-147864285D01*
X134402285Y-147719142D01*
X134547428Y-147574000D01*
X134765142Y-147501428D01*
X134910285Y-147501428D01*
X135128000Y-147574000D01*
X135200571Y-147646571D01*
X136071428Y-149025428D02*
X135926285Y-148952857D01*
X135853714Y-148880285D01*
X135781142Y-148735142D01*
X135781142Y-148299714D01*
X135853714Y-148154571D01*
X135926285Y-148082000D01*
X136071428Y-148009428D01*
X136289142Y-148009428D01*
X136434285Y-148082000D01*
X136506857Y-148154571D01*
X136579428Y-148299714D01*
X136579428Y-148735142D01*
X136506857Y-148880285D01*
X136434285Y-148952857D01*
X136289142Y-149025428D01*
X136071428Y-149025428D01*
X137232571Y-148009428D02*
X137232571Y-149025428D01*
X137232571Y-148154571D02*
X137305142Y-148082000D01*
X137450285Y-148009428D01*
X137668000Y-148009428D01*
X137813142Y-148082000D01*
X137885714Y-148227142D01*
X137885714Y-149025428D01*
X138393714Y-148009428D02*
X138974285Y-148009428D01*
X138611428Y-147501428D02*
X138611428Y-148807714D01*
X138684000Y-148952857D01*
X138829142Y-149025428D01*
X138974285Y-149025428D01*
X140135428Y-149025428D02*
X140135428Y-148227142D01*
X140062857Y-148082000D01*
X139917714Y-148009428D01*
X139627428Y-148009428D01*
X139482285Y-148082000D01*
X140135428Y-148952857D02*
X139990285Y-149025428D01*
X139627428Y-149025428D01*
X139482285Y-148952857D01*
X139409714Y-148807714D01*
X139409714Y-148662571D01*
X139482285Y-148517428D01*
X139627428Y-148444857D01*
X139990285Y-148444857D01*
X140135428Y-148372285D01*
X141514285Y-148952857D02*
X141369142Y-149025428D01*
X141078857Y-149025428D01*
X140933714Y-148952857D01*
X140861142Y-148880285D01*
X140788571Y-148735142D01*
X140788571Y-148299714D01*
X140861142Y-148154571D01*
X140933714Y-148082000D01*
X141078857Y-148009428D01*
X141369142Y-148009428D01*
X141514285Y-148082000D01*
X141949714Y-148009428D02*
X142530285Y-148009428D01*
X142167428Y-147501428D02*
X142167428Y-148807714D01*
X142240000Y-148952857D01*
X142385142Y-149025428D01*
X142530285Y-149025428D01*
X144199428Y-149025428D02*
X144199428Y-147501428D01*
X144707428Y-148590000D01*
X145215428Y-147501428D01*
X145215428Y-149025428D01*
X146594285Y-149025428D02*
X146594285Y-148227142D01*
X146521714Y-148082000D01*
X146376571Y-148009428D01*
X146086285Y-148009428D01*
X145941142Y-148082000D01*
X146594285Y-148952857D02*
X146449142Y-149025428D01*
X146086285Y-149025428D01*
X145941142Y-148952857D01*
X145868571Y-148807714D01*
X145868571Y-148662571D01*
X145941142Y-148517428D01*
X146086285Y-148444857D01*
X146449142Y-148444857D01*
X146594285Y-148372285D01*
X147320000Y-149025428D02*
X147320000Y-148009428D01*
X147320000Y-148299714D02*
X147392571Y-148154571D01*
X147465142Y-148082000D01*
X147610285Y-148009428D01*
X147755428Y-148009428D01*
X148190857Y-148952857D02*
X148336000Y-149025428D01*
X148626285Y-149025428D01*
X148771428Y-148952857D01*
X148844000Y-148807714D01*
X148844000Y-148735142D01*
X148771428Y-148590000D01*
X148626285Y-148517428D01*
X148408571Y-148517428D01*
X148263428Y-148444857D01*
X148190857Y-148299714D01*
X148190857Y-148227142D01*
X148263428Y-148082000D01*
X148408571Y-148009428D01*
X148626285Y-148009428D01*
X148771428Y-148082000D01*
X149497142Y-149025428D02*
X149497142Y-148009428D01*
X149497142Y-148299714D02*
X149569714Y-148154571D01*
X149642285Y-148082000D01*
X149787428Y-148009428D01*
X149932571Y-148009428D01*
X150658285Y-149025428D02*
X150513142Y-148952857D01*
X150440571Y-148880285D01*
X150368000Y-148735142D01*
X150368000Y-148299714D01*
X150440571Y-148154571D01*
X150513142Y-148082000D01*
X150658285Y-148009428D01*
X150876000Y-148009428D01*
X151021142Y-148082000D01*
X151093714Y-148154571D01*
X151166285Y-148299714D01*
X151166285Y-148735142D01*
X151093714Y-148880285D01*
X151021142Y-148952857D01*
X150876000Y-149025428D01*
X150658285Y-149025428D01*
X151674285Y-148009428D02*
X152037142Y-149025428D01*
X152400000Y-148009428D01*
X153561142Y-148952857D02*
X153416000Y-149025428D01*
X153125714Y-149025428D01*
X152980571Y-148952857D01*
X152908000Y-148807714D01*
X152908000Y-148227142D01*
X152980571Y-148082000D01*
X153125714Y-148009428D01*
X153416000Y-148009428D01*
X153561142Y-148082000D01*
X153633714Y-148227142D01*
X153633714Y-148372285D01*
X152908000Y-148517428D01*
X154286857Y-149025428D02*
X154286857Y-148009428D01*
X154286857Y-148299714D02*
X154359428Y-148154571D01*
X154432000Y-148082000D01*
X154577142Y-148009428D01*
X154722285Y-148009428D01*
X156173714Y-148299714D02*
X156101142Y-148227142D01*
X155956000Y-148154571D01*
X155810857Y-148154571D01*
X155665714Y-148227142D01*
X155593142Y-148299714D01*
X155520571Y-148444857D01*
X155520571Y-148590000D01*
X155593142Y-148735142D01*
X155665714Y-148807714D01*
X155810857Y-148880285D01*
X155956000Y-148880285D01*
X156101142Y-148807714D01*
X156173714Y-148735142D01*
X156173714Y-148154571D02*
X156173714Y-148735142D01*
X156246285Y-148807714D01*
X156318857Y-148807714D01*
X156464000Y-148735142D01*
X156536571Y-148590000D01*
X156536571Y-148227142D01*
X156391428Y-148009428D01*
X156173714Y-147864285D01*
X155883428Y-147791714D01*
X155593142Y-147864285D01*
X155375428Y-148009428D01*
X155230285Y-148227142D01*
X155157714Y-148517428D01*
X155230285Y-148807714D01*
X155375428Y-149025428D01*
X155593142Y-149170571D01*
X155883428Y-149243142D01*
X156173714Y-149170571D01*
X156391428Y-149025428D01*
X157189714Y-149025428D02*
X157189714Y-148009428D01*
X157189714Y-148154571D02*
X157262285Y-148082000D01*
X157407428Y-148009428D01*
X157625142Y-148009428D01*
X157770285Y-148082000D01*
X157842857Y-148227142D01*
X157842857Y-149025428D01*
X157842857Y-148227142D02*
X157915428Y-148082000D01*
X158060571Y-148009428D01*
X158278285Y-148009428D01*
X158423428Y-148082000D01*
X158496000Y-148227142D01*
X158496000Y-149025428D01*
X159149142Y-148952857D02*
X159294285Y-149025428D01*
X159584571Y-149025428D01*
X159729714Y-148952857D01*
X159802285Y-148807714D01*
X159802285Y-148735142D01*
X159729714Y-148590000D01*
X159584571Y-148517428D01*
X159366857Y-148517428D01*
X159221714Y-148444857D01*
X159149142Y-148299714D01*
X159149142Y-148227142D01*
X159221714Y-148082000D01*
X159366857Y-148009428D01*
X159584571Y-148009428D01*
X159729714Y-148082000D01*
X160237714Y-148009428D02*
X160818285Y-148009428D01*
X160455428Y-147501428D02*
X160455428Y-148807714D01*
X160528000Y-148952857D01*
X160673142Y-149025428D01*
X160818285Y-149025428D01*
X161326285Y-148880285D02*
X161398857Y-148952857D01*
X161326285Y-149025428D01*
X161253714Y-148952857D01*
X161326285Y-148880285D01*
X161326285Y-149025428D01*
X162632571Y-148952857D02*
X162487428Y-149025428D01*
X162197142Y-149025428D01*
X162052000Y-148952857D01*
X161979428Y-148807714D01*
X161979428Y-148227142D01*
X162052000Y-148082000D01*
X162197142Y-148009428D01*
X162487428Y-148009428D01*
X162632571Y-148082000D01*
X162705142Y-148227142D01*
X162705142Y-148372285D01*
X161979428Y-148517428D01*
X164011428Y-149025428D02*
X164011428Y-147501428D01*
X164011428Y-148952857D02*
X163866285Y-149025428D01*
X163576000Y-149025428D01*
X163430857Y-148952857D01*
X163358285Y-148880285D01*
X163285714Y-148735142D01*
X163285714Y-148299714D01*
X163358285Y-148154571D01*
X163430857Y-148082000D01*
X163576000Y-148009428D01*
X163866285Y-148009428D01*
X164011428Y-148082000D01*
X165390285Y-148009428D02*
X165390285Y-149025428D01*
X164737142Y-148009428D02*
X164737142Y-148807714D01*
X164809714Y-148952857D01*
X164954857Y-149025428D01*
X165172571Y-149025428D01*
X165317714Y-148952857D01*
X165390285Y-148880285D01*
X133273142Y-135801571D02*
X133273142Y-134301571D01*
X133987428Y-134801571D02*
X133987428Y-135801571D01*
X133987428Y-134944428D02*
X134058857Y-134873000D01*
X134201714Y-134801571D01*
X134416000Y-134801571D01*
X134558857Y-134873000D01*
X134630285Y-135015857D01*
X134630285Y-135801571D01*
X137130285Y-135801571D02*
X137130285Y-135015857D01*
X137058857Y-134873000D01*
X136916000Y-134801571D01*
X136630285Y-134801571D01*
X136487428Y-134873000D01*
X137130285Y-135730142D02*
X136987428Y-135801571D01*
X136630285Y-135801571D01*
X136487428Y-135730142D01*
X136416000Y-135587285D01*
X136416000Y-135444428D01*
X136487428Y-135301571D01*
X136630285Y-135230142D01*
X136987428Y-135230142D01*
X137130285Y-135158714D01*
X139630285Y-134801571D02*
X139630285Y-135801571D01*
X138987428Y-134801571D02*
X138987428Y-135587285D01*
X139058857Y-135730142D01*
X139201714Y-135801571D01*
X139416000Y-135801571D01*
X139558857Y-135730142D01*
X139630285Y-135658714D01*
X140344571Y-134801571D02*
X140344571Y-135801571D01*
X140344571Y-134944428D02*
X140416000Y-134873000D01*
X140558857Y-134801571D01*
X140773142Y-134801571D01*
X140916000Y-134873000D01*
X140987428Y-135015857D01*
X140987428Y-135801571D01*
X141701714Y-135801571D02*
X141701714Y-134801571D01*
X141701714Y-134301571D02*
X141630285Y-134373000D01*
X141701714Y-134444428D01*
X141773142Y-134373000D01*
X141701714Y-134301571D01*
X141701714Y-134444428D01*
X142273142Y-134801571D02*
X142630285Y-135801571D01*
X142987428Y-134801571D01*
X144130285Y-135730142D02*
X143987428Y-135801571D01*
X143701714Y-135801571D01*
X143558857Y-135730142D01*
X143487428Y-135587285D01*
X143487428Y-135015857D01*
X143558857Y-134873000D01*
X143701714Y-134801571D01*
X143987428Y-134801571D01*
X144130285Y-134873000D01*
X144201714Y-135015857D01*
X144201714Y-135158714D01*
X143487428Y-135301571D01*
X144844571Y-135801571D02*
X144844571Y-134801571D01*
X144844571Y-135087285D02*
X144916000Y-134944428D01*
X144987428Y-134873000D01*
X145130285Y-134801571D01*
X145273142Y-134801571D01*
X145701714Y-135730142D02*
X145844571Y-135801571D01*
X146130285Y-135801571D01*
X146273142Y-135730142D01*
X146344571Y-135587285D01*
X146344571Y-135515857D01*
X146273142Y-135373000D01*
X146130285Y-135301571D01*
X145916000Y-135301571D01*
X145773142Y-135230142D01*
X145701714Y-135087285D01*
X145701714Y-135015857D01*
X145773142Y-134873000D01*
X145916000Y-134801571D01*
X146130285Y-134801571D01*
X146273142Y-134873000D01*
X147558857Y-135730142D02*
X147416000Y-135801571D01*
X147130285Y-135801571D01*
X146987428Y-135730142D01*
X146916000Y-135587285D01*
X146916000Y-135015857D01*
X146987428Y-134873000D01*
X147130285Y-134801571D01*
X147416000Y-134801571D01*
X147558857Y-134873000D01*
X147630285Y-135015857D01*
X147630285Y-135158714D01*
X146916000Y-135301571D01*
X149630285Y-135801571D02*
X149487428Y-135730142D01*
X149416000Y-135658714D01*
X149344571Y-135515857D01*
X149344571Y-135087285D01*
X149416000Y-134944428D01*
X149487428Y-134873000D01*
X149630285Y-134801571D01*
X149844571Y-134801571D01*
X149987428Y-134873000D01*
X150058857Y-134944428D01*
X150130285Y-135087285D01*
X150130285Y-135515857D01*
X150058857Y-135658714D01*
X149987428Y-135730142D01*
X149844571Y-135801571D01*
X149630285Y-135801571D01*
X150558857Y-134801571D02*
X151130285Y-134801571D01*
X150773142Y-135801571D02*
X150773142Y-134515857D01*
X150844571Y-134373000D01*
X150987428Y-134301571D01*
X151130285Y-134301571D01*
X152773142Y-134801571D02*
X152773142Y-136301571D01*
X152773142Y-134873000D02*
X152916000Y-134801571D01*
X153201714Y-134801571D01*
X153344571Y-134873000D01*
X153416000Y-134944428D01*
X153487428Y-135087285D01*
X153487428Y-135515857D01*
X153416000Y-135658714D01*
X153344571Y-135730142D01*
X153201714Y-135801571D01*
X152916000Y-135801571D01*
X152773142Y-135730142D01*
X154344571Y-135801571D02*
X154201714Y-135730142D01*
X154130285Y-135658714D01*
X154058857Y-135515857D01*
X154058857Y-135087285D01*
X154130285Y-134944428D01*
X154201714Y-134873000D01*
X154344571Y-134801571D01*
X154558857Y-134801571D01*
X154701714Y-134873000D01*
X154773142Y-134944428D01*
X154844571Y-135087285D01*
X154844571Y-135515857D01*
X154773142Y-135658714D01*
X154701714Y-135730142D01*
X154558857Y-135801571D01*
X154344571Y-135801571D01*
X155416000Y-135730142D02*
X155558857Y-135801571D01*
X155844571Y-135801571D01*
X155987428Y-135730142D01*
X156058857Y-135587285D01*
X156058857Y-135515857D01*
X155987428Y-135373000D01*
X155844571Y-135301571D01*
X155630285Y-135301571D01*
X155487428Y-135230142D01*
X155416000Y-135087285D01*
X155416000Y-135015857D01*
X155487428Y-134873000D01*
X155630285Y-134801571D01*
X155844571Y-134801571D01*
X155987428Y-134873000D01*
X156630285Y-135730142D02*
X156773142Y-135801571D01*
X157058857Y-135801571D01*
X157201714Y-135730142D01*
X157273142Y-135587285D01*
X157273142Y-135515857D01*
X157201714Y-135373000D01*
X157058857Y-135301571D01*
X156844571Y-135301571D01*
X156701714Y-135230142D01*
X156630285Y-135087285D01*
X156630285Y-135015857D01*
X156701714Y-134873000D01*
X156844571Y-134801571D01*
X157058857Y-134801571D01*
X157201714Y-134873000D01*
X157916000Y-135801571D02*
X157916000Y-134801571D01*
X157916000Y-134301571D02*
X157844571Y-134373000D01*
X157916000Y-134444428D01*
X157987428Y-134373000D01*
X157916000Y-134301571D01*
X157916000Y-134444428D01*
X158630285Y-135801571D02*
X158630285Y-134301571D01*
X158630285Y-134873000D02*
X158773142Y-134801571D01*
X159058857Y-134801571D01*
X159201714Y-134873000D01*
X159273142Y-134944428D01*
X159344571Y-135087285D01*
X159344571Y-135515857D01*
X159273142Y-135658714D01*
X159201714Y-135730142D01*
X159058857Y-135801571D01*
X158773142Y-135801571D01*
X158630285Y-135730142D01*
X159987428Y-135801571D02*
X159987428Y-134801571D01*
X159987428Y-134301571D02*
X159916000Y-134373000D01*
X159987428Y-134444428D01*
X160058857Y-134373000D01*
X159987428Y-134301571D01*
X159987428Y-134444428D01*
X160916000Y-135801571D02*
X160773142Y-135730142D01*
X160701714Y-135587285D01*
X160701714Y-134301571D01*
X161487428Y-135801571D02*
X161487428Y-134801571D01*
X161487428Y-134301571D02*
X161416000Y-134373000D01*
X161487428Y-134444428D01*
X161558857Y-134373000D01*
X161487428Y-134301571D01*
X161487428Y-134444428D01*
X161987428Y-134801571D02*
X162558857Y-134801571D01*
X162201714Y-134301571D02*
X162201714Y-135587285D01*
X162273142Y-135730142D01*
X162416000Y-135801571D01*
X162558857Y-135801571D01*
X163630285Y-135730142D02*
X163487428Y-135801571D01*
X163201714Y-135801571D01*
X163058857Y-135730142D01*
X162987428Y-135587285D01*
X162987428Y-135015857D01*
X163058857Y-134873000D01*
X163201714Y-134801571D01*
X163487428Y-134801571D01*
X163630285Y-134873000D01*
X163701714Y-135015857D01*
X163701714Y-135158714D01*
X162987428Y-135301571D01*
X164273142Y-135730142D02*
X164416000Y-135801571D01*
X164701714Y-135801571D01*
X164844571Y-135730142D01*
X164916000Y-135587285D01*
X164916000Y-135515857D01*
X164844571Y-135373000D01*
X164701714Y-135301571D01*
X164487428Y-135301571D01*
X164344571Y-135230142D01*
X164273142Y-135087285D01*
X164273142Y-135015857D01*
X164344571Y-134873000D01*
X164487428Y-134801571D01*
X164701714Y-134801571D01*
X164844571Y-134873000D01*
X166558857Y-134801571D02*
X166844571Y-135801571D01*
X167130285Y-135087285D01*
X167416000Y-135801571D01*
X167701714Y-134801571D01*
X168844571Y-135730142D02*
X168701714Y-135801571D01*
X168416000Y-135801571D01*
X168273142Y-135730142D01*
X168201714Y-135587285D01*
X168201714Y-135015857D01*
X168273142Y-134873000D01*
X168416000Y-134801571D01*
X168701714Y-134801571D01*
X168844571Y-134873000D01*
X168916000Y-135015857D01*
X168916000Y-135158714D01*
X168201714Y-135301571D01*
X171344571Y-135801571D02*
X171344571Y-135015857D01*
X171273142Y-134873000D01*
X171130285Y-134801571D01*
X170844571Y-134801571D01*
X170701714Y-134873000D01*
X171344571Y-135730142D02*
X171201714Y-135801571D01*
X170844571Y-135801571D01*
X170701714Y-135730142D01*
X170630285Y-135587285D01*
X170630285Y-135444428D01*
X170701714Y-135301571D01*
X170844571Y-135230142D01*
X171201714Y-135230142D01*
X171344571Y-135158714D01*
X172058857Y-135801571D02*
X172058857Y-134801571D01*
X172058857Y-135087285D02*
X172130285Y-134944428D01*
X172201714Y-134873000D01*
X172344571Y-134801571D01*
X172487428Y-134801571D01*
X173558857Y-135730142D02*
X173416000Y-135801571D01*
X173130285Y-135801571D01*
X172987428Y-135730142D01*
X172916000Y-135587285D01*
X172916000Y-135015857D01*
X172987428Y-134873000D01*
X173130285Y-134801571D01*
X173416000Y-134801571D01*
X173558857Y-134873000D01*
X173630285Y-135015857D01*
X173630285Y-135158714D01*
X172916000Y-135301571D01*
X134058857Y-138351571D02*
X134058857Y-136851571D01*
X134058857Y-137423000D02*
X134201714Y-137351571D01*
X134487428Y-137351571D01*
X134630285Y-137423000D01*
X134701714Y-137494428D01*
X134773142Y-137637285D01*
X134773142Y-138065857D01*
X134701714Y-138208714D01*
X134630285Y-138280142D01*
X134487428Y-138351571D01*
X134201714Y-138351571D01*
X134058857Y-138280142D01*
X135416000Y-138351571D02*
X135416000Y-137351571D01*
X135416000Y-137637285D02*
X135487428Y-137494428D01*
X135558857Y-137423000D01*
X135701714Y-137351571D01*
X135844571Y-137351571D01*
X136344571Y-138351571D02*
X136344571Y-137351571D01*
X136344571Y-136851571D02*
X136273142Y-136923000D01*
X136344571Y-136994428D01*
X136416000Y-136923000D01*
X136344571Y-136851571D01*
X136344571Y-136994428D01*
X137058857Y-137351571D02*
X137058857Y-138351571D01*
X137058857Y-137494428D02*
X137130285Y-137423000D01*
X137273142Y-137351571D01*
X137487428Y-137351571D01*
X137630285Y-137423000D01*
X137701714Y-137565857D01*
X137701714Y-138351571D01*
X139058857Y-137351571D02*
X139058857Y-138565857D01*
X138987428Y-138708714D01*
X138916000Y-138780142D01*
X138773142Y-138851571D01*
X138558857Y-138851571D01*
X138416000Y-138780142D01*
X139058857Y-138280142D02*
X138916000Y-138351571D01*
X138630285Y-138351571D01*
X138487428Y-138280142D01*
X138416000Y-138208714D01*
X138344571Y-138065857D01*
X138344571Y-137637285D01*
X138416000Y-137494428D01*
X138487428Y-137423000D01*
X138630285Y-137351571D01*
X138916000Y-137351571D01*
X139058857Y-137423000D01*
X139773142Y-138351571D02*
X139773142Y-137351571D01*
X139773142Y-136851571D02*
X139701714Y-136923000D01*
X139773142Y-136994428D01*
X139844571Y-136923000D01*
X139773142Y-136851571D01*
X139773142Y-136994428D01*
X140487428Y-137351571D02*
X140487428Y-138351571D01*
X140487428Y-137494428D02*
X140558857Y-137423000D01*
X140701714Y-137351571D01*
X140916000Y-137351571D01*
X141058857Y-137423000D01*
X141130285Y-137565857D01*
X141130285Y-138351571D01*
X142487428Y-137351571D02*
X142487428Y-138565857D01*
X142416000Y-138708714D01*
X142344571Y-138780142D01*
X142201714Y-138851571D01*
X141987428Y-138851571D01*
X141844571Y-138780142D01*
X142487428Y-138280142D02*
X142344571Y-138351571D01*
X142058857Y-138351571D01*
X141916000Y-138280142D01*
X141844571Y-138208714D01*
X141773142Y-138065857D01*
X141773142Y-137637285D01*
X141844571Y-137494428D01*
X141916000Y-137423000D01*
X142058857Y-137351571D01*
X142344571Y-137351571D01*
X142487428Y-137423000D01*
X144130285Y-137351571D02*
X144701714Y-137351571D01*
X144344571Y-136851571D02*
X144344571Y-138137285D01*
X144416000Y-138280142D01*
X144558857Y-138351571D01*
X144701714Y-138351571D01*
X145201714Y-138351571D02*
X145201714Y-136851571D01*
X145844571Y-138351571D02*
X145844571Y-137565857D01*
X145773142Y-137423000D01*
X145630285Y-137351571D01*
X145416000Y-137351571D01*
X145273142Y-137423000D01*
X145201714Y-137494428D01*
X147130285Y-138280142D02*
X146987428Y-138351571D01*
X146701714Y-138351571D01*
X146558857Y-138280142D01*
X146487428Y-138137285D01*
X146487428Y-137565857D01*
X146558857Y-137423000D01*
X146701714Y-137351571D01*
X146987428Y-137351571D01*
X147130285Y-137423000D01*
X147201714Y-137565857D01*
X147201714Y-137708714D01*
X146487428Y-137851571D01*
X148773142Y-137351571D02*
X149344571Y-137351571D01*
X148987428Y-138351571D02*
X148987428Y-137065857D01*
X149058857Y-136923000D01*
X149201714Y-136851571D01*
X149344571Y-136851571D01*
X150487428Y-137351571D02*
X150487428Y-138351571D01*
X149844571Y-137351571D02*
X149844571Y-138137285D01*
X149916000Y-138280142D01*
X150058857Y-138351571D01*
X150273142Y-138351571D01*
X150416000Y-138280142D01*
X150487428Y-138208714D01*
X150987428Y-137351571D02*
X151558857Y-137351571D01*
X151201714Y-136851571D02*
X151201714Y-138137285D01*
X151273142Y-138280142D01*
X151416000Y-138351571D01*
X151558857Y-138351571D01*
X152701714Y-137351571D02*
X152701714Y-138351571D01*
X152058857Y-137351571D02*
X152058857Y-138137285D01*
X152130285Y-138280142D01*
X152273142Y-138351571D01*
X152487428Y-138351571D01*
X152630285Y-138280142D01*
X152701714Y-138208714D01*
X153416000Y-138351571D02*
X153416000Y-137351571D01*
X153416000Y-137637285D02*
X153487428Y-137494428D01*
X153558857Y-137423000D01*
X153701714Y-137351571D01*
X153844571Y-137351571D01*
X154916000Y-138280142D02*
X154773142Y-138351571D01*
X154487428Y-138351571D01*
X154344571Y-138280142D01*
X154273142Y-138137285D01*
X154273142Y-137565857D01*
X154344571Y-137423000D01*
X154487428Y-137351571D01*
X154773142Y-137351571D01*
X154916000Y-137423000D01*
X154987428Y-137565857D01*
X154987428Y-137708714D01*
X154273142Y-137851571D01*
X157416000Y-138351571D02*
X157416000Y-136851571D01*
X157416000Y-138280142D02*
X157273142Y-138351571D01*
X156987428Y-138351571D01*
X156844571Y-138280142D01*
X156773142Y-138208714D01*
X156701714Y-138065857D01*
X156701714Y-137637285D01*
X156773142Y-137494428D01*
X156844571Y-137423000D01*
X156987428Y-137351571D01*
X157273142Y-137351571D01*
X157416000Y-137423000D01*
X158344571Y-138351571D02*
X158201714Y-138280142D01*
X158130285Y-138208714D01*
X158058857Y-138065857D01*
X158058857Y-137637285D01*
X158130285Y-137494428D01*
X158201714Y-137423000D01*
X158344571Y-137351571D01*
X158558857Y-137351571D01*
X158701714Y-137423000D01*
X158773142Y-137494428D01*
X158844571Y-137637285D01*
X158844571Y-138065857D01*
X158773142Y-138208714D01*
X158701714Y-138280142D01*
X158558857Y-138351571D01*
X158344571Y-138351571D01*
X159344571Y-137351571D02*
X159630285Y-138351571D01*
X159916000Y-137637285D01*
X160201714Y-138351571D01*
X160487428Y-137351571D01*
X161058857Y-137351571D02*
X161058857Y-138351571D01*
X161058857Y-137494428D02*
X161130285Y-137423000D01*
X161273142Y-137351571D01*
X161487428Y-137351571D01*
X161630285Y-137423000D01*
X161701714Y-137565857D01*
X161701714Y-138351571D01*
X163344571Y-137351571D02*
X163916000Y-137351571D01*
X163558857Y-136851571D02*
X163558857Y-138137285D01*
X163630285Y-138280142D01*
X163773142Y-138351571D01*
X163916000Y-138351571D01*
X164630285Y-138351571D02*
X164487428Y-138280142D01*
X164416000Y-138208714D01*
X164344571Y-138065857D01*
X164344571Y-137637285D01*
X164416000Y-137494428D01*
X164487428Y-137423000D01*
X164630285Y-137351571D01*
X164844571Y-137351571D01*
X164987428Y-137423000D01*
X165058857Y-137494428D01*
X165130285Y-137637285D01*
X165130285Y-138065857D01*
X165058857Y-138208714D01*
X164987428Y-138280142D01*
X164844571Y-138351571D01*
X164630285Y-138351571D01*
X166916000Y-137565857D02*
X167416000Y-137565857D01*
X167630285Y-138351571D02*
X166916000Y-138351571D01*
X166916000Y-136851571D01*
X167630285Y-136851571D01*
X168916000Y-138351571D02*
X168916000Y-137565857D01*
X168844571Y-137423000D01*
X168701714Y-137351571D01*
X168416000Y-137351571D01*
X168273142Y-137423000D01*
X168916000Y-138280142D02*
X168773142Y-138351571D01*
X168416000Y-138351571D01*
X168273142Y-138280142D01*
X168201714Y-138137285D01*
X168201714Y-137994428D01*
X168273142Y-137851571D01*
X168416000Y-137780142D01*
X168773142Y-137780142D01*
X168916000Y-137708714D01*
X169630285Y-138351571D02*
X169630285Y-137351571D01*
X169630285Y-137637285D02*
X169701714Y-137494428D01*
X169773142Y-137423000D01*
X169916000Y-137351571D01*
X170058857Y-137351571D01*
X170344571Y-137351571D02*
X170916000Y-137351571D01*
X170558857Y-136851571D02*
X170558857Y-138137285D01*
X170630285Y-138280142D01*
X170773142Y-138351571D01*
X170916000Y-138351571D01*
X171416000Y-138351571D02*
X171416000Y-136851571D01*
X172058857Y-138351571D02*
X172058857Y-137565857D01*
X171987428Y-137423000D01*
X171844571Y-137351571D01*
X171630285Y-137351571D01*
X171487428Y-137423000D01*
X171416000Y-137494428D01*
X172773142Y-138208714D02*
X172844571Y-138280142D01*
X172773142Y-138351571D01*
X172701714Y-138280142D01*
X172773142Y-138208714D01*
X172773142Y-138351571D01*
X172773142Y-137780142D02*
X172701714Y-136923000D01*
X172773142Y-136851571D01*
X172844571Y-136923000D01*
X172773142Y-137780142D01*
X172773142Y-136851571D01*
X138537142Y-116157000D02*
X138537142Y-115014142D01*
X139108571Y-115585571D02*
X137965714Y-115585571D01*
X137608571Y-114442714D02*
X137608571Y-113514142D01*
X138180000Y-114014142D01*
X138180000Y-113799857D01*
X138251428Y-113657000D01*
X138322857Y-113585571D01*
X138465714Y-113514142D01*
X138822857Y-113514142D01*
X138965714Y-113585571D01*
X139037142Y-113657000D01*
X139108571Y-113799857D01*
X139108571Y-114228428D01*
X139037142Y-114371285D01*
X138965714Y-114442714D01*
X138965714Y-112871285D02*
X139037142Y-112799857D01*
X139108571Y-112871285D01*
X139037142Y-112942714D01*
X138965714Y-112871285D01*
X139108571Y-112871285D01*
X137608571Y-112299857D02*
X137608571Y-111371285D01*
X138180000Y-111871285D01*
X138180000Y-111657000D01*
X138251428Y-111514142D01*
X138322857Y-111442714D01*
X138465714Y-111371285D01*
X138822857Y-111371285D01*
X138965714Y-111442714D01*
X139037142Y-111514142D01*
X139108571Y-111657000D01*
X139108571Y-112085571D01*
X139037142Y-112228428D01*
X138965714Y-112299857D01*
X137608571Y-110942714D02*
X139108571Y-110442714D01*
X137608571Y-109942714D01*
X144049857Y-80233057D02*
X143549857Y-80233057D01*
X143549857Y-81018771D02*
X143549857Y-79518771D01*
X144264142Y-79518771D01*
X144835571Y-81018771D02*
X144835571Y-79518771D01*
X145407000Y-79518771D02*
X146407000Y-81018771D01*
X146407000Y-79518771D02*
X145407000Y-81018771D01*
D11*
X143896500Y-109474000D02*
X143896500Y-102235000D01*
X143896500Y-126238000D02*
X143896500Y-109474000D01*
D10*
X142964371Y-123772228D02*
X141464371Y-123772228D01*
X141464371Y-123415085D01*
X141535800Y-123200800D01*
X141678657Y-123057942D01*
X141821514Y-122986514D01*
X142107228Y-122915085D01*
X142321514Y-122915085D01*
X142607228Y-122986514D01*
X142750085Y-123057942D01*
X142892942Y-123200800D01*
X142964371Y-123415085D01*
X142964371Y-123772228D01*
X142892942Y-121700800D02*
X142964371Y-121843657D01*
X142964371Y-122129371D01*
X142892942Y-122272228D01*
X142750085Y-122343657D01*
X142178657Y-122343657D01*
X142035800Y-122272228D01*
X141964371Y-122129371D01*
X141964371Y-121843657D01*
X142035800Y-121700800D01*
X142178657Y-121629371D01*
X142321514Y-121629371D01*
X142464371Y-122343657D01*
X142964371Y-120986514D02*
X141464371Y-120986514D01*
X142035800Y-120986514D02*
X141964371Y-120843657D01*
X141964371Y-120557942D01*
X142035800Y-120415085D01*
X142107228Y-120343657D01*
X142250085Y-120272228D01*
X142678657Y-120272228D01*
X142821514Y-120343657D01*
X142892942Y-120415085D01*
X142964371Y-120557942D01*
X142964371Y-120843657D01*
X142892942Y-120986514D01*
X141964371Y-118986514D02*
X142964371Y-118986514D01*
X141964371Y-119629371D02*
X142750085Y-119629371D01*
X142892942Y-119557942D01*
X142964371Y-119415085D01*
X142964371Y-119200800D01*
X142892942Y-119057942D01*
X142821514Y-118986514D01*
X141964371Y-117629371D02*
X143178657Y-117629371D01*
X143321514Y-117700800D01*
X143392942Y-117772228D01*
X143464371Y-117915085D01*
X143464371Y-118129371D01*
X143392942Y-118272228D01*
X142892942Y-117629371D02*
X142964371Y-117772228D01*
X142964371Y-118057942D01*
X142892942Y-118200800D01*
X142821514Y-118272228D01*
X142678657Y-118343657D01*
X142250085Y-118343657D01*
X142107228Y-118272228D01*
X142035800Y-118200800D01*
X141964371Y-118057942D01*
X141964371Y-117772228D01*
X142035800Y-117629371D01*
D11*
X152907751Y-70459600D02*
G75*
G03X152907751Y-70459600I-1295151J0D01*
G01*
X147548600Y-68935600D02*
X149834600Y-68935600D01*
D10*
X142018400Y-107091028D02*
X141946971Y-107233885D01*
X141946971Y-107448171D01*
X142018400Y-107662457D01*
X142161257Y-107805314D01*
X142304114Y-107876742D01*
X142589828Y-107948171D01*
X142804114Y-107948171D01*
X143089828Y-107876742D01*
X143232685Y-107805314D01*
X143375542Y-107662457D01*
X143446971Y-107448171D01*
X143446971Y-107305314D01*
X143375542Y-107091028D01*
X143304114Y-107019600D01*
X142804114Y-107019600D01*
X142804114Y-107305314D01*
X143446971Y-106376742D02*
X141946971Y-106376742D01*
X141946971Y-105805314D01*
X142018400Y-105662457D01*
X142089828Y-105591028D01*
X142232685Y-105519600D01*
X142446971Y-105519600D01*
X142589828Y-105591028D01*
X142661257Y-105662457D01*
X142732685Y-105805314D01*
X142732685Y-106376742D01*
X143375542Y-104948171D02*
X143446971Y-104733885D01*
X143446971Y-104376742D01*
X143375542Y-104233885D01*
X143304114Y-104162457D01*
X143161257Y-104091028D01*
X143018400Y-104091028D01*
X142875542Y-104162457D01*
X142804114Y-104233885D01*
X142732685Y-104376742D01*
X142661257Y-104662457D01*
X142589828Y-104805314D01*
X142518400Y-104876742D01*
X142375542Y-104948171D01*
X142232685Y-104948171D01*
X142089828Y-104876742D01*
X142018400Y-104805314D01*
X141946971Y-104662457D01*
X141946971Y-104305314D01*
X142018400Y-104091028D01*
D11*
X157358500Y-109474000D02*
X157358500Y-102235000D01*
X157358500Y-102235000D02*
X156850500Y-102235000D01*
X143896500Y-102235000D02*
X156850500Y-102235000D01*
D10*
X126319742Y-96568971D02*
X126319742Y-95426114D01*
X126891171Y-95997542D02*
X125748314Y-95997542D01*
X125391171Y-93997542D02*
X125391171Y-94711828D01*
X126105457Y-94783257D01*
X126034028Y-94711828D01*
X125962600Y-94568971D01*
X125962600Y-94211828D01*
X126034028Y-94068971D01*
X126105457Y-93997542D01*
X126248314Y-93926114D01*
X126605457Y-93926114D01*
X126748314Y-93997542D01*
X126819742Y-94068971D01*
X126891171Y-94211828D01*
X126891171Y-94568971D01*
X126819742Y-94711828D01*
X126748314Y-94783257D01*
X125391171Y-93497542D02*
X126891171Y-92997542D01*
X125391171Y-92497542D01*
X123327866Y-67399400D02*
X123268533Y-67458733D01*
X123090533Y-67518066D01*
X122971866Y-67518066D01*
X122793866Y-67458733D01*
X122675200Y-67340066D01*
X122615866Y-67221400D01*
X122556533Y-66984066D01*
X122556533Y-66806066D01*
X122615866Y-66568733D01*
X122675200Y-66450066D01*
X122793866Y-66331400D01*
X122971866Y-66272066D01*
X123090533Y-66272066D01*
X123268533Y-66331400D01*
X123327866Y-66390733D01*
X124573866Y-67518066D02*
X124158533Y-66924733D01*
X123861866Y-67518066D02*
X123861866Y-66272066D01*
X124336533Y-66272066D01*
X124455200Y-66331400D01*
X124514533Y-66390733D01*
X124573866Y-66509400D01*
X124573866Y-66687400D01*
X124514533Y-66806066D01*
X124455200Y-66865400D01*
X124336533Y-66924733D01*
X123861866Y-66924733D01*
X126709866Y-67518066D02*
X125997866Y-67518066D01*
X126353866Y-67518066D02*
X126353866Y-66272066D01*
X126235200Y-66450066D01*
X126116533Y-66568733D01*
X125997866Y-66628066D01*
X127184533Y-66390733D02*
X127243866Y-66331400D01*
X127362533Y-66272066D01*
X127659200Y-66272066D01*
X127777866Y-66331400D01*
X127837200Y-66390733D01*
X127896533Y-66509400D01*
X127896533Y-66628066D01*
X127837200Y-66806066D01*
X127125200Y-67518066D01*
X127896533Y-67518066D01*
X128371200Y-66390733D02*
X128430533Y-66331400D01*
X128549200Y-66272066D01*
X128845866Y-66272066D01*
X128964533Y-66331400D01*
X129023866Y-66390733D01*
X129083200Y-66509400D01*
X129083200Y-66628066D01*
X129023866Y-66806066D01*
X128311866Y-67518066D01*
X129083200Y-67518066D01*
X129854533Y-66272066D02*
X129973200Y-66272066D01*
X130091866Y-66331400D01*
X130151200Y-66390733D01*
X130210533Y-66509400D01*
X130269866Y-66746733D01*
X130269866Y-67043400D01*
X130210533Y-67280733D01*
X130151200Y-67399400D01*
X130091866Y-67458733D01*
X129973200Y-67518066D01*
X129854533Y-67518066D01*
X129735866Y-67458733D01*
X129676533Y-67399400D01*
X129617200Y-67280733D01*
X129557866Y-67043400D01*
X129557866Y-66746733D01*
X129617200Y-66509400D01*
X129676533Y-66390733D01*
X129735866Y-66331400D01*
X129854533Y-66272066D01*
D12*
X147154666Y-108144761D02*
X146824000Y-107672380D01*
X146587809Y-108144761D02*
X146587809Y-107152761D01*
X146965714Y-107152761D01*
X147060190Y-107200000D01*
X147107428Y-107247238D01*
X147154666Y-107341714D01*
X147154666Y-107483428D01*
X147107428Y-107577904D01*
X147060190Y-107625142D01*
X146965714Y-107672380D01*
X146587809Y-107672380D01*
X147485333Y-107152761D02*
X148146666Y-108144761D01*
X148146666Y-107152761D02*
X147485333Y-108144761D01*
X146564190Y-103850761D02*
X147131047Y-103850761D01*
X146847619Y-104842761D02*
X146847619Y-103850761D01*
X147367238Y-103850761D02*
X148028571Y-104842761D01*
X148028571Y-103850761D02*
X147367238Y-104842761D01*
X143580071Y-114839428D02*
X142080071Y-114839428D01*
X142080071Y-114268000D01*
X142151500Y-114125142D01*
X142222928Y-114053714D01*
X142365785Y-113982285D01*
X142580071Y-113982285D01*
X142722928Y-114053714D01*
X142794357Y-114125142D01*
X142865785Y-114268000D01*
X142865785Y-114839428D01*
X142080071Y-113482285D02*
X143580071Y-113125142D01*
X142508642Y-112839428D01*
X143580071Y-112553714D01*
X142080071Y-112196571D01*
X143580071Y-110768000D02*
X142865785Y-111268000D01*
X143580071Y-111625142D02*
X142080071Y-111625142D01*
X142080071Y-111053714D01*
X142151500Y-110910857D01*
X142222928Y-110839428D01*
X142365785Y-110768000D01*
X142580071Y-110768000D01*
X142722928Y-110839428D01*
X142794357Y-110910857D01*
X142865785Y-111053714D01*
X142865785Y-111625142D01*
D11*
X157358500Y-109474000D02*
X156850500Y-109474000D01*
X157358500Y-116332000D02*
X157358500Y-109474000D01*
X143896500Y-109474000D02*
X157104500Y-109474000D01*
X143896500Y-126238000D02*
X157358500Y-126238000D01*
X157358500Y-116332000D02*
X143896500Y-116332000D01*
X157358500Y-126238000D02*
X157358500Y-116332000D01*
D12*
X144110214Y-125623523D02*
X144251928Y-125670761D01*
X144488119Y-125670761D01*
X144582595Y-125623523D01*
X144629833Y-125576285D01*
X144677071Y-125481809D01*
X144677071Y-125387333D01*
X144629833Y-125292857D01*
X144582595Y-125245619D01*
X144488119Y-125198380D01*
X144299166Y-125151142D01*
X144204690Y-125103904D01*
X144157452Y-125056666D01*
X144110214Y-124962190D01*
X144110214Y-124867714D01*
X144157452Y-124773238D01*
X144204690Y-124726000D01*
X144299166Y-124678761D01*
X144535357Y-124678761D01*
X144677071Y-124726000D01*
X145007738Y-124678761D02*
X145243928Y-125670761D01*
X145432880Y-124962190D01*
X145621833Y-125670761D01*
X145858023Y-124678761D01*
X147322404Y-125151142D02*
X146991738Y-125151142D01*
X146991738Y-125670761D02*
X146991738Y-124678761D01*
X147464119Y-124678761D01*
X147983738Y-125670761D02*
X147889261Y-125623523D01*
X147842023Y-125529047D01*
X147842023Y-124678761D01*
X148786785Y-125009428D02*
X148786785Y-125812476D01*
X148739547Y-125906952D01*
X148692309Y-125954190D01*
X148597833Y-126001428D01*
X148456119Y-126001428D01*
X148361642Y-125954190D01*
X148786785Y-125623523D02*
X148692309Y-125670761D01*
X148503357Y-125670761D01*
X148408880Y-125623523D01*
X148361642Y-125576285D01*
X148314404Y-125481809D01*
X148314404Y-125198380D01*
X148361642Y-125103904D01*
X148408880Y-125056666D01*
X148503357Y-125009428D01*
X148692309Y-125009428D01*
X148786785Y-125056666D01*
X149211928Y-124773238D02*
X149259166Y-124726000D01*
X149353642Y-124678761D01*
X149589833Y-124678761D01*
X149684309Y-124726000D01*
X149731547Y-124773238D01*
X149778785Y-124867714D01*
X149778785Y-124962190D01*
X149731547Y-125103904D01*
X149164690Y-125670761D01*
X149778785Y-125670761D01*
X144110214Y-122575523D02*
X144251928Y-122622761D01*
X144488119Y-122622761D01*
X144582595Y-122575523D01*
X144629833Y-122528285D01*
X144677071Y-122433809D01*
X144677071Y-122339333D01*
X144629833Y-122244857D01*
X144582595Y-122197619D01*
X144488119Y-122150380D01*
X144299166Y-122103142D01*
X144204690Y-122055904D01*
X144157452Y-122008666D01*
X144110214Y-121914190D01*
X144110214Y-121819714D01*
X144157452Y-121725238D01*
X144204690Y-121678000D01*
X144299166Y-121630761D01*
X144535357Y-121630761D01*
X144677071Y-121678000D01*
X145007738Y-121630761D02*
X145243928Y-122622761D01*
X145432880Y-121914190D01*
X145621833Y-122622761D01*
X145858023Y-121630761D01*
X147322404Y-122103142D02*
X146991738Y-122103142D01*
X146991738Y-122622761D02*
X146991738Y-121630761D01*
X147464119Y-121630761D01*
X147983738Y-122622761D02*
X147889261Y-122575523D01*
X147842023Y-122481047D01*
X147842023Y-121630761D01*
X148786785Y-121961428D02*
X148786785Y-122764476D01*
X148739547Y-122858952D01*
X148692309Y-122906190D01*
X148597833Y-122953428D01*
X148456119Y-122953428D01*
X148361642Y-122906190D01*
X148786785Y-122575523D02*
X148692309Y-122622761D01*
X148503357Y-122622761D01*
X148408880Y-122575523D01*
X148361642Y-122528285D01*
X148314404Y-122433809D01*
X148314404Y-122150380D01*
X148361642Y-122055904D01*
X148408880Y-122008666D01*
X148503357Y-121961428D01*
X148692309Y-121961428D01*
X148786785Y-122008666D01*
X149778785Y-122622761D02*
X149211928Y-122622761D01*
X149495357Y-122622761D02*
X149495357Y-121630761D01*
X149400880Y-121772476D01*
X149306404Y-121866952D01*
X149211928Y-121914190D01*
X144145452Y-119273523D02*
X144287166Y-119320761D01*
X144523357Y-119320761D01*
X144617833Y-119273523D01*
X144665071Y-119226285D01*
X144712309Y-119131809D01*
X144712309Y-119037333D01*
X144665071Y-118942857D01*
X144617833Y-118895619D01*
X144523357Y-118848380D01*
X144334404Y-118801142D01*
X144239928Y-118753904D01*
X144192690Y-118706666D01*
X144145452Y-118612190D01*
X144145452Y-118517714D01*
X144192690Y-118423238D01*
X144239928Y-118376000D01*
X144334404Y-118328761D01*
X144570595Y-118328761D01*
X144712309Y-118376000D01*
X145042976Y-118328761D02*
X145279166Y-119320761D01*
X145468119Y-118612190D01*
X145657071Y-119320761D01*
X145893261Y-118328761D01*
X147026976Y-118801142D02*
X147357642Y-118801142D01*
X147499357Y-119320761D02*
X147026976Y-119320761D01*
X147026976Y-118328761D01*
X147499357Y-118328761D01*
X147924500Y-119320761D02*
X147924500Y-118659428D01*
X147924500Y-118848380D02*
X147971738Y-118753904D01*
X148018976Y-118706666D01*
X148113452Y-118659428D01*
X148207928Y-118659428D01*
X148538595Y-119320761D02*
X148538595Y-118659428D01*
X148538595Y-118848380D02*
X148585833Y-118753904D01*
X148633071Y-118706666D01*
X148727547Y-118659428D01*
X148822023Y-118659428D01*
X144653071Y-115132857D02*
X145408880Y-115132857D01*
X145030976Y-115510761D02*
X145030976Y-114754952D01*
X146353642Y-114518761D02*
X145881261Y-114518761D01*
X145834023Y-114991142D01*
X145881261Y-114943904D01*
X145975738Y-114896666D01*
X146211928Y-114896666D01*
X146306404Y-114943904D01*
X146353642Y-114991142D01*
X146400880Y-115085619D01*
X146400880Y-115321809D01*
X146353642Y-115416285D01*
X146306404Y-115463523D01*
X146211928Y-115510761D01*
X145975738Y-115510761D01*
X145881261Y-115463523D01*
X145834023Y-115416285D01*
X146684309Y-114518761D02*
X147014976Y-115510761D01*
X147345642Y-114518761D01*
X144688690Y-111830857D02*
X145444500Y-111830857D01*
X145066595Y-112208761D02*
X145066595Y-111452952D01*
X145822404Y-111216761D02*
X146436500Y-111216761D01*
X146105833Y-111594666D01*
X146247547Y-111594666D01*
X146342023Y-111641904D01*
X146389261Y-111689142D01*
X146436500Y-111783619D01*
X146436500Y-112019809D01*
X146389261Y-112114285D01*
X146342023Y-112161523D01*
X146247547Y-112208761D01*
X145964119Y-112208761D01*
X145869642Y-112161523D01*
X145822404Y-112114285D01*
X146719928Y-111216761D02*
X147050595Y-112208761D01*
X147381261Y-111216761D01*
X147617452Y-111216761D02*
X148231547Y-111216761D01*
X147900880Y-111594666D01*
X148042595Y-111594666D01*
X148137071Y-111641904D01*
X148184309Y-111689142D01*
X148231547Y-111783619D01*
X148231547Y-112019809D01*
X148184309Y-112114285D01*
X148137071Y-112161523D01*
X148042595Y-112208761D01*
X147759166Y-112208761D01*
X147664690Y-112161523D01*
X147617452Y-112114285D01*
X122424295Y-69426733D02*
X122896676Y-69426733D01*
X122329819Y-69710161D02*
X122660485Y-68718161D01*
X122991152Y-69710161D01*
X123746961Y-69048828D02*
X123746961Y-69710161D01*
X123321819Y-69048828D02*
X123321819Y-69568447D01*
X123369057Y-69662923D01*
X123463533Y-69710161D01*
X123605247Y-69710161D01*
X123699723Y-69662923D01*
X123746961Y-69615685D01*
X124077628Y-69048828D02*
X124455533Y-69048828D01*
X124219342Y-68718161D02*
X124219342Y-69568447D01*
X124266580Y-69662923D01*
X124361057Y-69710161D01*
X124455533Y-69710161D01*
X124927914Y-69710161D02*
X124833438Y-69662923D01*
X124786200Y-69615685D01*
X124738961Y-69521209D01*
X124738961Y-69237780D01*
X124786200Y-69143304D01*
X124833438Y-69096066D01*
X124927914Y-69048828D01*
X125069628Y-69048828D01*
X125164104Y-69096066D01*
X125211342Y-69143304D01*
X125258580Y-69237780D01*
X125258580Y-69521209D01*
X125211342Y-69615685D01*
X125164104Y-69662923D01*
X125069628Y-69710161D01*
X124927914Y-69710161D01*
X125683723Y-69048828D02*
X125683723Y-69710161D01*
X125683723Y-69143304D02*
X125730961Y-69096066D01*
X125825438Y-69048828D01*
X125967152Y-69048828D01*
X126061628Y-69096066D01*
X126108866Y-69190542D01*
X126108866Y-69710161D01*
X126722961Y-69710161D02*
X126628485Y-69662923D01*
X126581247Y-69615685D01*
X126534009Y-69521209D01*
X126534009Y-69237780D01*
X126581247Y-69143304D01*
X126628485Y-69096066D01*
X126722961Y-69048828D01*
X126864676Y-69048828D01*
X126959152Y-69096066D01*
X127006390Y-69143304D01*
X127053628Y-69237780D01*
X127053628Y-69521209D01*
X127006390Y-69615685D01*
X126959152Y-69662923D01*
X126864676Y-69710161D01*
X126722961Y-69710161D01*
X127478771Y-69710161D02*
X127478771Y-69048828D01*
X127478771Y-69143304D02*
X127526009Y-69096066D01*
X127620485Y-69048828D01*
X127762200Y-69048828D01*
X127856676Y-69096066D01*
X127903914Y-69190542D01*
X127903914Y-69710161D01*
X127903914Y-69190542D02*
X127951152Y-69096066D01*
X128045628Y-69048828D01*
X128187342Y-69048828D01*
X128281819Y-69096066D01*
X128329057Y-69190542D01*
X128329057Y-69710161D01*
X128706961Y-69048828D02*
X128943152Y-69710161D01*
X129179342Y-69048828D02*
X128943152Y-69710161D01*
X128848676Y-69946352D01*
X128801438Y-69993590D01*
X128706961Y-70040828D01*
D11*
X131267200Y-76454000D02*
X119329200Y-76454000D01*
X131267200Y-70231000D02*
X131267200Y-76479400D01*
X127457200Y-70231000D02*
X131267200Y-70231000D01*
D13*
X126968142Y-72850857D02*
X126968142Y-72112857D01*
X127319571Y-72850857D02*
X127319571Y-72112857D01*
X127565571Y-72640000D01*
X127811571Y-72112857D01*
X127811571Y-72850857D01*
X128163000Y-72112857D02*
X128163000Y-72710285D01*
X128198142Y-72780571D01*
X128233285Y-72815714D01*
X128303571Y-72850857D01*
X128444142Y-72850857D01*
X128514428Y-72815714D01*
X128549571Y-72780571D01*
X128584714Y-72710285D01*
X128584714Y-72112857D01*
X129920142Y-72850857D02*
X129674142Y-72499428D01*
X129498428Y-72850857D02*
X129498428Y-72112857D01*
X129779571Y-72112857D01*
X129849857Y-72148000D01*
X129885000Y-72183142D01*
X129920142Y-72253428D01*
X129920142Y-72358857D01*
X129885000Y-72429142D01*
X129849857Y-72464285D01*
X129779571Y-72499428D01*
X129498428Y-72499428D01*
X130166142Y-72112857D02*
X130658142Y-72850857D01*
X130658142Y-72112857D02*
X130166142Y-72850857D01*
D12*
X127380914Y-75759761D02*
X126908533Y-75759761D01*
X126908533Y-74767761D01*
X127711580Y-75759761D02*
X127711580Y-74767761D01*
X128183961Y-75759761D02*
X128183961Y-74767761D01*
X128420152Y-74767761D01*
X128561866Y-74815000D01*
X128656342Y-74909476D01*
X128703580Y-75003952D01*
X128750819Y-75192904D01*
X128750819Y-75334619D01*
X128703580Y-75523571D01*
X128656342Y-75618047D01*
X128561866Y-75712523D01*
X128420152Y-75759761D01*
X128183961Y-75759761D01*
X129128723Y-75476333D02*
X129601104Y-75476333D01*
X129034247Y-75759761D02*
X129364914Y-74767761D01*
X129695580Y-75759761D01*
X130593104Y-75759761D02*
X130262438Y-75287380D01*
X130026247Y-75759761D02*
X130026247Y-74767761D01*
X130404152Y-74767761D01*
X130498628Y-74815000D01*
X130545866Y-74862238D01*
X130593104Y-74956714D01*
X130593104Y-75098428D01*
X130545866Y-75192904D01*
X130498628Y-75240142D01*
X130404152Y-75287380D01*
X130026247Y-75287380D01*
D11*
X119329200Y-70231000D02*
X127457200Y-70231000D01*
X119329200Y-70485000D02*
X119329200Y-70231000D01*
X119329200Y-76454000D02*
X119329200Y-70485000D01*
D14*
G36*
X137455896Y-128419364D02*
G01*
X137587117Y-128438290D01*
X137693956Y-128469351D01*
X137710253Y-128476407D01*
X137775655Y-128506715D01*
X137715513Y-128496541D01*
X137506196Y-128473066D01*
X137310137Y-128474629D01*
X137136244Y-128501134D01*
X137129063Y-128502916D01*
X136926424Y-128569555D01*
X136715259Y-128669412D01*
X136494850Y-128803073D01*
X136264476Y-128971123D01*
X136023416Y-129174149D01*
X135770951Y-129412738D01*
X135506360Y-129687476D01*
X135228922Y-129998949D01*
X135090674Y-130162039D01*
X134962595Y-130316726D01*
X134840234Y-130467569D01*
X134721674Y-130617339D01*
X134604997Y-130768810D01*
X134488286Y-130924751D01*
X134369623Y-131087936D01*
X134247092Y-131261136D01*
X134118773Y-131447123D01*
X133982751Y-131648669D01*
X133837107Y-131868545D01*
X133679924Y-132109524D01*
X133509284Y-132374377D01*
X133323270Y-132665876D01*
X133119965Y-132986793D01*
X132949114Y-133257783D01*
X132559504Y-133886057D01*
X132184770Y-134508898D01*
X131830937Y-135116254D01*
X131741886Y-135272542D01*
X131661409Y-135413746D01*
X131568172Y-135576150D01*
X131469853Y-135746458D01*
X131374127Y-135911373D01*
X131290135Y-136055103D01*
X131206477Y-136198510D01*
X131114709Y-136357325D01*
X131021914Y-136519192D01*
X130935173Y-136671754D01*
X130861570Y-136802655D01*
X130859215Y-136806879D01*
X130795738Y-136920571D01*
X130735519Y-137028068D01*
X130682564Y-137122244D01*
X130640882Y-137195974D01*
X130614476Y-137242135D01*
X130613645Y-137243564D01*
X130563215Y-137330135D01*
X130485388Y-137123280D01*
X130444568Y-137020977D01*
X130393818Y-136903482D01*
X130335684Y-136775792D01*
X130272713Y-136642899D01*
X130207450Y-136509801D01*
X130142441Y-136381490D01*
X130080233Y-136262962D01*
X130023371Y-136159212D01*
X129974402Y-136075235D01*
X129935871Y-136016025D01*
X129910324Y-135986577D01*
X129904774Y-135984223D01*
X129891304Y-136000984D01*
X129862388Y-136047461D01*
X129821363Y-136117947D01*
X129771563Y-136206734D01*
X129726112Y-136289945D01*
X129652723Y-136425318D01*
X129574028Y-136569554D01*
X129492422Y-136718346D01*
X129410303Y-136867386D01*
X129330068Y-137012364D01*
X129254113Y-137148974D01*
X129184834Y-137272907D01*
X129124629Y-137379855D01*
X129075894Y-137465510D01*
X129041026Y-137525564D01*
X129022421Y-137555708D01*
X129020709Y-137557940D01*
X129019319Y-137549140D01*
X129029975Y-137509615D01*
X129050652Y-137446184D01*
X129071332Y-137387538D01*
X129121554Y-137249544D01*
X129177380Y-137097317D01*
X129237214Y-136935107D01*
X129299461Y-136767163D01*
X129362526Y-136597736D01*
X129424812Y-136431076D01*
X129484723Y-136271433D01*
X129540665Y-136123057D01*
X129591041Y-135990198D01*
X129634256Y-135877105D01*
X129668713Y-135788030D01*
X129692819Y-135727222D01*
X129704976Y-135698931D01*
X129705836Y-135697546D01*
X129722745Y-135705386D01*
X129754460Y-135740479D01*
X129794907Y-135795849D01*
X129806178Y-135812819D01*
X129847994Y-135874621D01*
X129882076Y-135920624D01*
X129902325Y-135942712D01*
X129904410Y-135943555D01*
X129917103Y-135926489D01*
X129945639Y-135879000D01*
X129987163Y-135806134D01*
X130038823Y-135712939D01*
X130097766Y-135604459D01*
X130127588Y-135548851D01*
X130197820Y-135418087D01*
X130281905Y-135262714D01*
X130374172Y-135093138D01*
X130468949Y-134919770D01*
X130560564Y-134753017D01*
X130616173Y-134652305D01*
X130696896Y-134506217D01*
X130791719Y-134334200D01*
X130895546Y-134145526D01*
X131003279Y-133949465D01*
X131109823Y-133755289D01*
X131210080Y-133572269D01*
X131245032Y-133508375D01*
X131407475Y-133213646D01*
X131567033Y-132928741D01*
X131721976Y-132656559D01*
X131870576Y-132399999D01*
X132011105Y-132161962D01*
X132141834Y-131945346D01*
X132261035Y-131753052D01*
X132366980Y-131587979D01*
X132457941Y-131453026D01*
X132526645Y-131358303D01*
X132622883Y-131242260D01*
X132708714Y-131158827D01*
X132782716Y-131108797D01*
X132843466Y-131092966D01*
X132889542Y-131112126D01*
X132910953Y-131143730D01*
X132930799Y-131197281D01*
X132934215Y-131228765D01*
X132922920Y-131232969D01*
X132898636Y-131204682D01*
X132893512Y-131196550D01*
X132854827Y-131149563D01*
X132818886Y-131136430D01*
X132818410Y-131136515D01*
X132780734Y-131160564D01*
X132728554Y-131220614D01*
X132662504Y-131315541D01*
X132583218Y-131444221D01*
X132491330Y-131605527D01*
X132387474Y-131798335D01*
X132272283Y-132021521D01*
X132146393Y-132273958D01*
X132010436Y-132554522D01*
X131961916Y-132656362D01*
X131914132Y-132758182D01*
X131855809Y-132884305D01*
X131788415Y-133031431D01*
X131713418Y-133196261D01*
X131632284Y-133375496D01*
X131546481Y-133565836D01*
X131457478Y-133763981D01*
X131366740Y-133966634D01*
X131275736Y-134170493D01*
X131185934Y-134372261D01*
X131098800Y-134568637D01*
X131015803Y-134756322D01*
X130938409Y-134932018D01*
X130868086Y-135092424D01*
X130806302Y-135234241D01*
X130754525Y-135354170D01*
X130714221Y-135448911D01*
X130686858Y-135515166D01*
X130673904Y-135549635D01*
X130673144Y-135553879D01*
X130685418Y-135539534D01*
X130716847Y-135496307D01*
X130764324Y-135428660D01*
X130824739Y-135341057D01*
X130894983Y-135237958D01*
X130949530Y-135157187D01*
X131040460Y-135022900D01*
X131148112Y-134865331D01*
X131269739Y-134688405D01*
X131402593Y-134496050D01*
X131543927Y-134292190D01*
X131690992Y-134080751D01*
X131841040Y-133865659D01*
X131991325Y-133650841D01*
X132139097Y-133440221D01*
X132281609Y-133237725D01*
X132416114Y-133047281D01*
X132539863Y-132872812D01*
X132650109Y-132718246D01*
X132744104Y-132587508D01*
X132819100Y-132484523D01*
X132840257Y-132455888D01*
X133206212Y-131969274D01*
X133555207Y-131517839D01*
X133888000Y-131100794D01*
X134205345Y-130717350D01*
X134508002Y-130366718D01*
X134796725Y-130048110D01*
X135072272Y-129760736D01*
X135335399Y-129503807D01*
X135586863Y-129276534D01*
X135827422Y-129078128D01*
X136057830Y-128907801D01*
X136278846Y-128764762D01*
X136491226Y-128648224D01*
X136492624Y-128647529D01*
X136650935Y-128571975D01*
X136785676Y-128515257D01*
X136906715Y-128474091D01*
X137023922Y-128445193D01*
X137147167Y-128425279D01*
X137168341Y-128422679D01*
X137312301Y-128413764D01*
X137455896Y-128419364D01*
X137455896Y-128419364D01*
G37*
X137455896Y-128419364D02*
X137587117Y-128438290D01*
X137693956Y-128469351D01*
X137710253Y-128476407D01*
X137775655Y-128506715D01*
X137715513Y-128496541D01*
X137506196Y-128473066D01*
X137310137Y-128474629D01*
X137136244Y-128501134D01*
X137129063Y-128502916D01*
X136926424Y-128569555D01*
X136715259Y-128669412D01*
X136494850Y-128803073D01*
X136264476Y-128971123D01*
X136023416Y-129174149D01*
X135770951Y-129412738D01*
X135506360Y-129687476D01*
X135228922Y-129998949D01*
X135090674Y-130162039D01*
X134962595Y-130316726D01*
X134840234Y-130467569D01*
X134721674Y-130617339D01*
X134604997Y-130768810D01*
X134488286Y-130924751D01*
X134369623Y-131087936D01*
X134247092Y-131261136D01*
X134118773Y-131447123D01*
X133982751Y-131648669D01*
X133837107Y-131868545D01*
X133679924Y-132109524D01*
X133509284Y-132374377D01*
X133323270Y-132665876D01*
X133119965Y-132986793D01*
X132949114Y-133257783D01*
X132559504Y-133886057D01*
X132184770Y-134508898D01*
X131830937Y-135116254D01*
X131741886Y-135272542D01*
X131661409Y-135413746D01*
X131568172Y-135576150D01*
X131469853Y-135746458D01*
X131374127Y-135911373D01*
X131290135Y-136055103D01*
X131206477Y-136198510D01*
X131114709Y-136357325D01*
X131021914Y-136519192D01*
X130935173Y-136671754D01*
X130861570Y-136802655D01*
X130859215Y-136806879D01*
X130795738Y-136920571D01*
X130735519Y-137028068D01*
X130682564Y-137122244D01*
X130640882Y-137195974D01*
X130614476Y-137242135D01*
X130613645Y-137243564D01*
X130563215Y-137330135D01*
X130485388Y-137123280D01*
X130444568Y-137020977D01*
X130393818Y-136903482D01*
X130335684Y-136775792D01*
X130272713Y-136642899D01*
X130207450Y-136509801D01*
X130142441Y-136381490D01*
X130080233Y-136262962D01*
X130023371Y-136159212D01*
X129974402Y-136075235D01*
X129935871Y-136016025D01*
X129910324Y-135986577D01*
X129904774Y-135984223D01*
X129891304Y-136000984D01*
X129862388Y-136047461D01*
X129821363Y-136117947D01*
X129771563Y-136206734D01*
X129726112Y-136289945D01*
X129652723Y-136425318D01*
X129574028Y-136569554D01*
X129492422Y-136718346D01*
X129410303Y-136867386D01*
X129330068Y-137012364D01*
X129254113Y-137148974D01*
X129184834Y-137272907D01*
X129124629Y-137379855D01*
X129075894Y-137465510D01*
X129041026Y-137525564D01*
X129022421Y-137555708D01*
X129020709Y-137557940D01*
X129019319Y-137549140D01*
X129029975Y-137509615D01*
X129050652Y-137446184D01*
X129071332Y-137387538D01*
X129121554Y-137249544D01*
X129177380Y-137097317D01*
X129237214Y-136935107D01*
X129299461Y-136767163D01*
X129362526Y-136597736D01*
X129424812Y-136431076D01*
X129484723Y-136271433D01*
X129540665Y-136123057D01*
X129591041Y-135990198D01*
X129634256Y-135877105D01*
X129668713Y-135788030D01*
X129692819Y-135727222D01*
X129704976Y-135698931D01*
X129705836Y-135697546D01*
X129722745Y-135705386D01*
X129754460Y-135740479D01*
X129794907Y-135795849D01*
X129806178Y-135812819D01*
X129847994Y-135874621D01*
X129882076Y-135920624D01*
X129902325Y-135942712D01*
X129904410Y-135943555D01*
X129917103Y-135926489D01*
X129945639Y-135879000D01*
X129987163Y-135806134D01*
X130038823Y-135712939D01*
X130097766Y-135604459D01*
X130127588Y-135548851D01*
X130197820Y-135418087D01*
X130281905Y-135262714D01*
X130374172Y-135093138D01*
X130468949Y-134919770D01*
X130560564Y-134753017D01*
X130616173Y-134652305D01*
X130696896Y-134506217D01*
X130791719Y-134334200D01*
X130895546Y-134145526D01*
X131003279Y-133949465D01*
X131109823Y-133755289D01*
X131210080Y-133572269D01*
X131245032Y-133508375D01*
X131407475Y-133213646D01*
X131567033Y-132928741D01*
X131721976Y-132656559D01*
X131870576Y-132399999D01*
X132011105Y-132161962D01*
X132141834Y-131945346D01*
X132261035Y-131753052D01*
X132366980Y-131587979D01*
X132457941Y-131453026D01*
X132526645Y-131358303D01*
X132622883Y-131242260D01*
X132708714Y-131158827D01*
X132782716Y-131108797D01*
X132843466Y-131092966D01*
X132889542Y-131112126D01*
X132910953Y-131143730D01*
X132930799Y-131197281D01*
X132934215Y-131228765D01*
X132922920Y-131232969D01*
X132898636Y-131204682D01*
X132893512Y-131196550D01*
X132854827Y-131149563D01*
X132818886Y-131136430D01*
X132818410Y-131136515D01*
X132780734Y-131160564D01*
X132728554Y-131220614D01*
X132662504Y-131315541D01*
X132583218Y-131444221D01*
X132491330Y-131605527D01*
X132387474Y-131798335D01*
X132272283Y-132021521D01*
X132146393Y-132273958D01*
X132010436Y-132554522D01*
X131961916Y-132656362D01*
X131914132Y-132758182D01*
X131855809Y-132884305D01*
X131788415Y-133031431D01*
X131713418Y-133196261D01*
X131632284Y-133375496D01*
X131546481Y-133565836D01*
X131457478Y-133763981D01*
X131366740Y-133966634D01*
X131275736Y-134170493D01*
X131185934Y-134372261D01*
X131098800Y-134568637D01*
X131015803Y-134756322D01*
X130938409Y-134932018D01*
X130868086Y-135092424D01*
X130806302Y-135234241D01*
X130754525Y-135354170D01*
X130714221Y-135448911D01*
X130686858Y-135515166D01*
X130673904Y-135549635D01*
X130673144Y-135553879D01*
X130685418Y-135539534D01*
X130716847Y-135496307D01*
X130764324Y-135428660D01*
X130824739Y-135341057D01*
X130894983Y-135237958D01*
X130949530Y-135157187D01*
X131040460Y-135022900D01*
X131148112Y-134865331D01*
X131269739Y-134688405D01*
X131402593Y-134496050D01*
X131543927Y-134292190D01*
X131690992Y-134080751D01*
X131841040Y-133865659D01*
X131991325Y-133650841D01*
X132139097Y-133440221D01*
X132281609Y-133237725D01*
X132416114Y-133047281D01*
X132539863Y-132872812D01*
X132650109Y-132718246D01*
X132744104Y-132587508D01*
X132819100Y-132484523D01*
X132840257Y-132455888D01*
X133206212Y-131969274D01*
X133555207Y-131517839D01*
X133888000Y-131100794D01*
X134205345Y-130717350D01*
X134508002Y-130366718D01*
X134796725Y-130048110D01*
X135072272Y-129760736D01*
X135335399Y-129503807D01*
X135586863Y-129276534D01*
X135827422Y-129078128D01*
X136057830Y-128907801D01*
X136278846Y-128764762D01*
X136491226Y-128648224D01*
X136492624Y-128647529D01*
X136650935Y-128571975D01*
X136785676Y-128515257D01*
X136906715Y-128474091D01*
X137023922Y-128445193D01*
X137147167Y-128425279D01*
X137168341Y-128422679D01*
X137312301Y-128413764D01*
X137455896Y-128419364D01*
G36*
X129004937Y-137598035D02*
G01*
X128994913Y-137608059D01*
X128984889Y-137598035D01*
X128994913Y-137588012D01*
X129004937Y-137598035D01*
X129004937Y-137598035D01*
G37*
X129004937Y-137598035D02*
X128994913Y-137608059D01*
X128984889Y-137598035D01*
X128994913Y-137588012D01*
X129004937Y-137598035D01*
G36*
X130885770Y-132888811D02*
G01*
X130875272Y-132912974D01*
X130841131Y-132964375D01*
X130821543Y-132992109D01*
X130784901Y-133046196D01*
X130749000Y-133105563D01*
X130711587Y-133174959D01*
X130670408Y-133259130D01*
X130623212Y-133362823D01*
X130567745Y-133490788D01*
X130501755Y-133647770D01*
X130443006Y-133789824D01*
X130393041Y-133912483D01*
X130331417Y-134065788D01*
X130260806Y-134242941D01*
X130183880Y-134437142D01*
X130103310Y-134641592D01*
X130021768Y-134849491D01*
X129941926Y-135054041D01*
X129866455Y-135248441D01*
X129798027Y-135425893D01*
X129739313Y-135579596D01*
X129727631Y-135610434D01*
X129705990Y-135667663D01*
X129593544Y-135513688D01*
X129543827Y-135449314D01*
X129501845Y-135401788D01*
X129473408Y-135377335D01*
X129465319Y-135376269D01*
X129454100Y-135396736D01*
X129426984Y-135450287D01*
X129385460Y-135533877D01*
X129331017Y-135644461D01*
X129265146Y-135778994D01*
X129189335Y-135934431D01*
X129105075Y-136107729D01*
X129013855Y-136295841D01*
X128917164Y-136495723D01*
X128878578Y-136575620D01*
X128656428Y-137035554D01*
X128450286Y-137461769D01*
X128258935Y-137856756D01*
X128081157Y-138223002D01*
X127915736Y-138562995D01*
X127761455Y-138879225D01*
X127617096Y-139174179D01*
X127481443Y-139450347D01*
X127353278Y-139710216D01*
X127231385Y-139956275D01*
X127114545Y-140191013D01*
X127001543Y-140416917D01*
X126937219Y-140544997D01*
X126850040Y-140719365D01*
X126775596Y-140869261D01*
X126711241Y-140998126D01*
X126654326Y-141109404D01*
X126602204Y-141206534D01*
X126552228Y-141292960D01*
X126501750Y-141372124D01*
X126448122Y-141447466D01*
X126388696Y-141522429D01*
X126320826Y-141600454D01*
X126241863Y-141684984D01*
X126149160Y-141779461D01*
X126040070Y-141887325D01*
X125911944Y-142012020D01*
X125762136Y-142156987D01*
X125587997Y-142325667D01*
X125506673Y-142404697D01*
X125359988Y-142548227D01*
X125216479Y-142690150D01*
X125079892Y-142826661D01*
X124953971Y-142953953D01*
X124842461Y-143068220D01*
X124749105Y-143165656D01*
X124677649Y-143242453D01*
X124636055Y-143289703D01*
X124522934Y-143422710D01*
X124385761Y-143579984D01*
X124228550Y-143757156D01*
X124055311Y-143949856D01*
X123870057Y-144153716D01*
X123676800Y-144364364D01*
X123479551Y-144577433D01*
X123282322Y-144788552D01*
X123089125Y-144993353D01*
X122903973Y-145187465D01*
X122730876Y-145366519D01*
X122702552Y-145395540D01*
X122606757Y-145493821D01*
X122521222Y-145582109D01*
X122449647Y-145656543D01*
X122395726Y-145713264D01*
X122363157Y-145748413D01*
X122354980Y-145758433D01*
X122379621Y-145767212D01*
X122435450Y-145783274D01*
X122514650Y-145804626D01*
X122609401Y-145829276D01*
X122711886Y-145855229D01*
X122814287Y-145880494D01*
X122908785Y-145903077D01*
X122987561Y-145920986D01*
X123017996Y-145927439D01*
X123146747Y-145951716D01*
X123240316Y-145964502D01*
X123301862Y-145966031D01*
X123334546Y-145956538D01*
X123339386Y-145951274D01*
X123358539Y-145932377D01*
X123401878Y-145894821D01*
X123462128Y-145844805D01*
X123505960Y-145809314D01*
X123662316Y-145683885D01*
X123345896Y-145982325D01*
X123413893Y-145994494D01*
X123534416Y-146011926D01*
X123678871Y-146026047D01*
X123841785Y-146036897D01*
X124017684Y-146044515D01*
X124201096Y-146048942D01*
X124386545Y-146050218D01*
X124568560Y-146048383D01*
X124741667Y-146043477D01*
X124900392Y-146035540D01*
X125039262Y-146024611D01*
X125152803Y-146010733D01*
X125235542Y-145993943D01*
X125271392Y-145980897D01*
X125294315Y-145957244D01*
X125334888Y-145902275D01*
X125390948Y-145819531D01*
X125460333Y-145712553D01*
X125540882Y-145584885D01*
X125630433Y-145440066D01*
X125726822Y-145281640D01*
X125827890Y-145113147D01*
X125931473Y-144938130D01*
X126035411Y-144760130D01*
X126137540Y-144582689D01*
X126235699Y-144409349D01*
X126288954Y-144313899D01*
X126373462Y-144164109D01*
X126464224Y-144007722D01*
X126555949Y-143853549D01*
X126643345Y-143710399D01*
X126721122Y-143587083D01*
X126770572Y-143512005D01*
X126844557Y-143399036D01*
X126930479Y-143261784D01*
X127021574Y-143111431D01*
X127111078Y-142959162D01*
X127192227Y-142816158D01*
X127200346Y-142801485D01*
X127299975Y-142625471D01*
X127397947Y-142462793D01*
X127501307Y-142302514D01*
X127617105Y-142133700D01*
X127749422Y-141949473D01*
X128032767Y-141553587D01*
X128300519Y-141162454D01*
X128558903Y-140766427D01*
X128814144Y-140355860D01*
X129072466Y-139921105D01*
X129192503Y-139713031D01*
X129264532Y-139589258D01*
X129330078Y-139482420D01*
X129395047Y-139384144D01*
X129465349Y-139286058D01*
X129546891Y-139179791D01*
X129645581Y-139056972D01*
X129715957Y-138971279D01*
X129813085Y-138853462D01*
X129909697Y-138735944D01*
X130000315Y-138625412D01*
X130079460Y-138528553D01*
X130141655Y-138452057D01*
X130167544Y-138419977D01*
X130229849Y-138343224D01*
X130308735Y-138247251D01*
X130394829Y-138143400D01*
X130478760Y-138043013D01*
X130492636Y-138026517D01*
X130560974Y-137943771D01*
X130618960Y-137870515D01*
X130662066Y-137812716D01*
X130685761Y-137776336D01*
X130688914Y-137768063D01*
X130683566Y-137737958D01*
X130669804Y-137683247D01*
X130651052Y-137615712D01*
X130630735Y-137547138D01*
X130612277Y-137489308D01*
X130599102Y-137454006D01*
X130596176Y-137448930D01*
X130578672Y-137457048D01*
X130541056Y-137486839D01*
X130494407Y-137529120D01*
X130448142Y-137570811D01*
X130426484Y-137584625D01*
X130430683Y-137569787D01*
X130431788Y-137567964D01*
X130459816Y-137519229D01*
X130494297Y-137455222D01*
X130507901Y-137428915D01*
X130535259Y-137377491D01*
X130552037Y-137357523D01*
X130565248Y-137364436D01*
X130576757Y-137383994D01*
X130587547Y-137400396D01*
X130601173Y-137406017D01*
X130622790Y-137397635D01*
X130657551Y-137372025D01*
X130710609Y-137325968D01*
X130787117Y-137256240D01*
X130799980Y-137244417D01*
X131026882Y-137037548D01*
X131229024Y-136857130D01*
X131409391Y-136700674D01*
X131570970Y-136565687D01*
X131716748Y-136449680D01*
X131849710Y-136350162D01*
X131972844Y-136264641D01*
X131981969Y-136258588D01*
X132145173Y-136157532D01*
X132284826Y-136085596D01*
X132400235Y-136043026D01*
X132490704Y-136030069D01*
X132555538Y-136046970D01*
X132563342Y-136052350D01*
X132584743Y-136071095D01*
X132580759Y-136080250D01*
X132545583Y-136083382D01*
X132512137Y-136083822D01*
X132422762Y-136097078D01*
X132334084Y-136139497D01*
X132330136Y-136141981D01*
X132259919Y-136191593D01*
X132168976Y-136263331D01*
X132064696Y-136350736D01*
X131954467Y-136447348D01*
X131845678Y-136546707D01*
X131745719Y-136642355D01*
X131671235Y-136717999D01*
X131609375Y-136783938D01*
X131531012Y-136868476D01*
X131440258Y-136967082D01*
X131341228Y-137075224D01*
X131238035Y-137188369D01*
X131134792Y-137301985D01*
X131035612Y-137411542D01*
X130944610Y-137512507D01*
X130865898Y-137600347D01*
X130803591Y-137670532D01*
X130761801Y-137718530D01*
X130748092Y-137735039D01*
X130703907Y-137791212D01*
X130758129Y-138035429D01*
X130802670Y-138247550D01*
X130837303Y-138441681D01*
X130863339Y-138629155D01*
X130882088Y-138821305D01*
X130894860Y-139029466D01*
X130902967Y-139264971D01*
X130903652Y-139293984D01*
X130906164Y-139619895D01*
X130897428Y-139917401D01*
X130876404Y-140196867D01*
X130842053Y-140468661D01*
X130793336Y-140743150D01*
X130729875Y-141027974D01*
X130591104Y-141516644D01*
X130415670Y-141990823D01*
X130204984Y-142448586D01*
X129960459Y-142888005D01*
X129683507Y-143307154D01*
X129375539Y-143704108D01*
X129037967Y-144076941D01*
X128672203Y-144423726D01*
X128279659Y-144742537D01*
X127861747Y-145031448D01*
X127739845Y-145107046D01*
X127323805Y-145338005D01*
X126888599Y-145540039D01*
X126440896Y-145710636D01*
X125987364Y-145847282D01*
X125534672Y-145947467D01*
X125486626Y-145955912D01*
X125381241Y-145977362D01*
X125313244Y-145999486D01*
X125280447Y-146022416D01*
X125262261Y-146048349D01*
X125224797Y-146102366D01*
X125171481Y-146179504D01*
X125105742Y-146274800D01*
X125031005Y-146383293D01*
X124972037Y-146468990D01*
X124752034Y-146781328D01*
X124545073Y-147059115D01*
X124348898Y-147304862D01*
X124161250Y-147521079D01*
X123979873Y-147710275D01*
X123802510Y-147874962D01*
X123626902Y-148017649D01*
X123494372Y-148112152D01*
X123377567Y-148183470D01*
X123243100Y-148254152D01*
X123103727Y-148318296D01*
X122972202Y-148369996D01*
X122869422Y-148401416D01*
X122705019Y-148430605D01*
X122527119Y-148443585D01*
X122353198Y-148439757D01*
X122225057Y-148423514D01*
X121987488Y-148358122D01*
X121759800Y-148253947D01*
X121542301Y-148111139D01*
X121467012Y-148050686D01*
X121408899Y-148005432D01*
X121361595Y-147981942D01*
X121307813Y-147973373D01*
X121269589Y-147972542D01*
X121000930Y-147956796D01*
X120728328Y-147911325D01*
X120663496Y-147893729D01*
X122145048Y-147893729D01*
X122172802Y-147911137D01*
X122198859Y-147919275D01*
X122236883Y-147923649D01*
X122302650Y-147925793D01*
X122383857Y-147925388D01*
X122409356Y-147924723D01*
X122526299Y-147916279D01*
X122622794Y-147896855D01*
X122705632Y-147867881D01*
X122841144Y-147806008D01*
X122962417Y-147735152D01*
X123080264Y-147647888D01*
X123205496Y-147536788D01*
X123249893Y-147494013D01*
X123315412Y-147428744D01*
X123364110Y-147377955D01*
X123392380Y-147345608D01*
X123396614Y-147335667D01*
X123391677Y-147338261D01*
X123184469Y-147466954D01*
X123005431Y-147569580D01*
X122853035Y-147647013D01*
X122845741Y-147650399D01*
X122738157Y-147696511D01*
X122614942Y-147743635D01*
X122487241Y-147788021D01*
X122366201Y-147825923D01*
X122262966Y-147853591D01*
X122208633Y-147864647D01*
X122157065Y-147877821D01*
X122145048Y-147893729D01*
X120663496Y-147893729D01*
X120461016Y-147838775D01*
X120208231Y-147741794D01*
X119979210Y-147623030D01*
X119919524Y-147585527D01*
X119850491Y-147545361D01*
X119782635Y-147514141D01*
X119743058Y-147501648D01*
X119690859Y-147486140D01*
X119617493Y-147458128D01*
X119537551Y-147423247D01*
X119525891Y-147417769D01*
X119365521Y-147319773D01*
X119365261Y-147319529D01*
X121317527Y-147319529D01*
X121324177Y-147335423D01*
X121342916Y-147356913D01*
X121347338Y-147361621D01*
X121372418Y-147386352D01*
X121397343Y-147401643D01*
X121429865Y-147407725D01*
X121477736Y-147404835D01*
X121548710Y-147393204D01*
X121650538Y-147373069D01*
X121660386Y-147371070D01*
X121742309Y-147352803D01*
X121836165Y-147329304D01*
X121934696Y-147302720D01*
X122030647Y-147275195D01*
X122116762Y-147248877D01*
X122185786Y-147225911D01*
X122230463Y-147208443D01*
X122243537Y-147198619D01*
X122243521Y-147198604D01*
X122221838Y-147198521D01*
X122170302Y-147204607D01*
X122098468Y-147215648D01*
X122067871Y-147220886D01*
X121980412Y-147234192D01*
X121867664Y-147248382D01*
X121744348Y-147261733D01*
X121628203Y-147272285D01*
X121504727Y-147282362D01*
X121416566Y-147290648D01*
X121359076Y-147298619D01*
X121327612Y-147307754D01*
X121317527Y-147319529D01*
X119365261Y-147319529D01*
X119226468Y-147189286D01*
X119110073Y-147028581D01*
X119017680Y-146839931D01*
X118950629Y-146625610D01*
X118910263Y-146387891D01*
X118908632Y-146372057D01*
X118894526Y-146285851D01*
X118869752Y-146183630D01*
X118839426Y-146086236D01*
X118836470Y-146078067D01*
X118758000Y-145836547D01*
X118747904Y-145797404D01*
X119138562Y-145797404D01*
X119147307Y-145940796D01*
X119156168Y-146028117D01*
X119174212Y-146099708D01*
X119207208Y-146174613D01*
X119232338Y-146221459D01*
X119402926Y-146497385D01*
X119588140Y-146737078D01*
X119789254Y-146942115D01*
X119873366Y-147013911D01*
X119993650Y-147111355D01*
X120123958Y-147098929D01*
X120191835Y-147091428D01*
X120241916Y-147083965D01*
X120262619Y-147078457D01*
X120266914Y-147073060D01*
X120263087Y-147065942D01*
X120244837Y-147052642D01*
X120205861Y-147028696D01*
X120139857Y-146989643D01*
X120123958Y-146980275D01*
X119904854Y-146832640D01*
X119708115Y-146660005D01*
X119530540Y-146458798D01*
X119368925Y-146225448D01*
X119238208Y-145992328D01*
X119138562Y-145797404D01*
X118747904Y-145797404D01*
X118686684Y-145560068D01*
X118623486Y-145253288D01*
X118569370Y-144920862D01*
X118527142Y-144584539D01*
X118517931Y-144479573D01*
X118510203Y-144351861D01*
X118504000Y-144207484D01*
X118499364Y-144052526D01*
X118496339Y-143893066D01*
X118494967Y-143735188D01*
X118495290Y-143584973D01*
X118497352Y-143448503D01*
X118501194Y-143331861D01*
X118506859Y-143241127D01*
X118514390Y-143182385D01*
X118517245Y-143171200D01*
X118528295Y-143140873D01*
X118534434Y-143139337D01*
X118537389Y-143170642D01*
X118538608Y-143221319D01*
X118545116Y-143380594D01*
X118559144Y-143569738D01*
X118579506Y-143779477D01*
X118605017Y-144000543D01*
X118634490Y-144223662D01*
X118666741Y-144439566D01*
X118700584Y-144638981D01*
X118734834Y-144812639D01*
X118751416Y-144885564D01*
X118782047Y-145007659D01*
X118814512Y-145128077D01*
X118846957Y-145240857D01*
X118877530Y-145340041D01*
X118904374Y-145419668D01*
X118925636Y-145473781D01*
X118939461Y-145496418D01*
X118941500Y-145496485D01*
X118959915Y-145464033D01*
X118969120Y-145400283D01*
X118969129Y-145312958D01*
X118959958Y-145209780D01*
X118941621Y-145098470D01*
X118940730Y-145094117D01*
X118911690Y-144944699D01*
X118888093Y-144801685D01*
X118869380Y-144658269D01*
X118854993Y-144507645D01*
X118844373Y-144343006D01*
X118836962Y-144157546D01*
X118832202Y-143944458D01*
X118829871Y-143742550D01*
X118826747Y-143352131D01*
X118942145Y-143352131D01*
X118944070Y-143430029D01*
X118948047Y-143527022D01*
X118953727Y-143636151D01*
X118960760Y-143750457D01*
X118968798Y-143862978D01*
X118977493Y-143966757D01*
X118983014Y-144023213D01*
X118994150Y-144117311D01*
X119008947Y-144225212D01*
X119026088Y-144339044D01*
X119044256Y-144450937D01*
X119062136Y-144553018D01*
X119078411Y-144637418D01*
X119091765Y-144696264D01*
X119099483Y-144719695D01*
X119110307Y-144711553D01*
X119130162Y-144671399D01*
X119156334Y-144605557D01*
X119186110Y-144520351D01*
X119189773Y-144509198D01*
X119234874Y-144374700D01*
X119275207Y-144261757D01*
X119309245Y-144174209D01*
X119335463Y-144115897D01*
X119352335Y-144090661D01*
X119356061Y-144090622D01*
X119355387Y-144112329D01*
X119347402Y-144165427D01*
X119333428Y-144242154D01*
X119314790Y-144334747D01*
X119312911Y-144343678D01*
X119287314Y-144470071D01*
X119260052Y-144613090D01*
X119235088Y-144751576D01*
X119222246Y-144827468D01*
X119183218Y-145066690D01*
X119244137Y-145241597D01*
X119295112Y-145375721D01*
X119358146Y-145522799D01*
X119427929Y-145671783D01*
X119499154Y-145811626D01*
X119566511Y-145931284D01*
X119604115Y-145990655D01*
X119699713Y-146117266D01*
X119815724Y-146247695D01*
X119939993Y-146369321D01*
X120060364Y-146469523D01*
X120077042Y-146481717D01*
X120137717Y-146521615D01*
X120212434Y-146565573D01*
X120293188Y-146609542D01*
X120371972Y-146649474D01*
X120440780Y-146681320D01*
X120491605Y-146701032D01*
X120516442Y-146704559D01*
X120516929Y-146704170D01*
X120513238Y-146683328D01*
X120495903Y-146635744D01*
X120468450Y-146570908D01*
X120462351Y-146557355D01*
X120403164Y-146421149D01*
X120336583Y-146258110D01*
X120266968Y-146079739D01*
X120198677Y-145897537D01*
X120136068Y-145723005D01*
X120083500Y-145567645D01*
X120064179Y-145506717D01*
X120030770Y-145395045D01*
X119994724Y-145268832D01*
X119957663Y-145134378D01*
X119921208Y-144997986D01*
X119886983Y-144865956D01*
X119856609Y-144744589D01*
X119831709Y-144640186D01*
X119813904Y-144559049D01*
X119804817Y-144507479D01*
X119803992Y-144496052D01*
X119811301Y-144503733D01*
X119831690Y-144544710D01*
X119863436Y-144615018D01*
X119904814Y-144710692D01*
X119954102Y-144827766D01*
X120009575Y-144962274D01*
X120051566Y-145065675D01*
X120139604Y-145282039D01*
X120217009Y-145467799D01*
X120287050Y-145629959D01*
X120352999Y-145775521D01*
X120418124Y-145911490D01*
X120485695Y-146044868D01*
X120558983Y-146182660D01*
X120641256Y-146331868D01*
X120650145Y-146347761D01*
X120730104Y-146489527D01*
X120793883Y-146599685D01*
X120844131Y-146682020D01*
X120883500Y-146740322D01*
X120914642Y-146778377D01*
X120940206Y-146799974D01*
X120962844Y-146808900D01*
X120973527Y-146809795D01*
X121009861Y-146799117D01*
X121069729Y-146770295D01*
X121143801Y-146728151D01*
X121199477Y-146693062D01*
X121281195Y-146636836D01*
X121382398Y-146563341D01*
X121491782Y-146480988D01*
X121598041Y-146398188D01*
X121627677Y-146374472D01*
X121646894Y-146358730D01*
X122810304Y-146358730D01*
X122820327Y-146368753D01*
X122830351Y-146358730D01*
X122820327Y-146348706D01*
X122810304Y-146358730D01*
X121646894Y-146358730D01*
X121667585Y-146341781D01*
X122850398Y-146341781D01*
X122865723Y-146337984D01*
X122911530Y-146308612D01*
X122987571Y-146253841D01*
X123093594Y-146173849D01*
X123147362Y-146132497D01*
X123214875Y-146078869D01*
X123267401Y-146034310D01*
X123298772Y-146004239D01*
X123304634Y-145994365D01*
X123286977Y-146002860D01*
X123244990Y-146031193D01*
X123185589Y-146074078D01*
X123115688Y-146126224D01*
X123042202Y-146182344D01*
X122972045Y-146237149D01*
X122912132Y-146285350D01*
X122869379Y-146321659D01*
X122850699Y-146340787D01*
X122850398Y-146341781D01*
X121667585Y-146341781D01*
X121713964Y-146303790D01*
X121808702Y-146224280D01*
X121907300Y-146140008D01*
X122005167Y-146055038D01*
X122097714Y-145973435D01*
X122180350Y-145899265D01*
X122248485Y-145836591D01*
X122297528Y-145789480D01*
X122322889Y-145761996D01*
X122325182Y-145756799D01*
X122305128Y-145748011D01*
X122254871Y-145728371D01*
X122181883Y-145700742D01*
X122093636Y-145667988D01*
X122089126Y-145666330D01*
X121622200Y-145474180D01*
X121171464Y-145247678D01*
X120739627Y-144988823D01*
X120329395Y-144699616D01*
X119943476Y-144382059D01*
X119584578Y-144038152D01*
X119255407Y-143669895D01*
X119072359Y-143436828D01*
X119021736Y-143370388D01*
X118979985Y-143318130D01*
X118952798Y-143287043D01*
X118945843Y-143281461D01*
X118942619Y-143300288D01*
X118942145Y-143352131D01*
X118826747Y-143352131D01*
X118824656Y-143091011D01*
X118690617Y-142870490D01*
X118445957Y-142429715D01*
X118237070Y-141971201D01*
X118063882Y-141494725D01*
X117926317Y-141000065D01*
X117824301Y-140486996D01*
X117775936Y-140134026D01*
X117766590Y-140022382D01*
X117759659Y-139879877D01*
X117755145Y-139715673D01*
X117753047Y-139538932D01*
X117753364Y-139358815D01*
X117756098Y-139184483D01*
X117761248Y-139025098D01*
X117768814Y-138889821D01*
X117775936Y-138810900D01*
X117854602Y-138284419D01*
X117969343Y-137775422D01*
X118120197Y-137283817D01*
X118307200Y-136809514D01*
X118530390Y-136352421D01*
X118789805Y-135912448D01*
X119085482Y-135489503D01*
X119199759Y-135342708D01*
X119301818Y-135221120D01*
X119426137Y-135082438D01*
X119564284Y-134935369D01*
X119707829Y-134788621D01*
X119848341Y-134650901D01*
X119977388Y-134530916D01*
X120033745Y-134481355D01*
X120436938Y-134161304D01*
X120860869Y-133875264D01*
X121304016Y-133623899D01*
X121764860Y-133407872D01*
X122241878Y-133227844D01*
X122733550Y-133084478D01*
X123238356Y-132978438D01*
X123602174Y-132926372D01*
X123751365Y-132912873D01*
X123929200Y-132902902D01*
X124125272Y-132896540D01*
X124329175Y-132893868D01*
X124530503Y-132894965D01*
X124718849Y-132899912D01*
X124883807Y-132908790D01*
X124965394Y-132915846D01*
X125484562Y-132988541D01*
X125987592Y-133097891D01*
X126474912Y-133244072D01*
X126946949Y-133427261D01*
X127404129Y-133647634D01*
X127846881Y-133905368D01*
X128275632Y-134200639D01*
X128503753Y-134377585D01*
X128591259Y-134451693D01*
X128695633Y-134545609D01*
X128810793Y-134653332D01*
X128930654Y-134768860D01*
X129049133Y-134886192D01*
X129160148Y-134999326D01*
X129257614Y-135102261D01*
X129335448Y-135188996D01*
X129375813Y-135237909D01*
X129418226Y-135290745D01*
X129450840Y-135328157D01*
X129466026Y-135341681D01*
X129477114Y-135324592D01*
X129503941Y-135275833D01*
X129544322Y-135199596D01*
X129596069Y-135100075D01*
X129656997Y-134981465D01*
X129724919Y-134847958D01*
X129771318Y-134756100D01*
X129915183Y-134473442D01*
X130053542Y-134207393D01*
X130185196Y-133960027D01*
X130308946Y-133733419D01*
X130423594Y-133529643D01*
X130527941Y-133350774D01*
X130620787Y-133198887D01*
X130700935Y-133076055D01*
X130767186Y-132984354D01*
X130818340Y-132925859D01*
X130838472Y-132909320D01*
X130873284Y-132888666D01*
X130885770Y-132888811D01*
X130885770Y-132888811D01*
G37*
X130885770Y-132888811D02*
X130875272Y-132912974D01*
X130841131Y-132964375D01*
X130821543Y-132992109D01*
X130784901Y-133046196D01*
X130749000Y-133105563D01*
X130711587Y-133174959D01*
X130670408Y-133259130D01*
X130623212Y-133362823D01*
X130567745Y-133490788D01*
X130501755Y-133647770D01*
X130443006Y-133789824D01*
X130393041Y-133912483D01*
X130331417Y-134065788D01*
X130260806Y-134242941D01*
X130183880Y-134437142D01*
X130103310Y-134641592D01*
X130021768Y-134849491D01*
X129941926Y-135054041D01*
X129866455Y-135248441D01*
X129798027Y-135425893D01*
X129739313Y-135579596D01*
X129727631Y-135610434D01*
X129705990Y-135667663D01*
X129593544Y-135513688D01*
X129543827Y-135449314D01*
X129501845Y-135401788D01*
X129473408Y-135377335D01*
X129465319Y-135376269D01*
X129454100Y-135396736D01*
X129426984Y-135450287D01*
X129385460Y-135533877D01*
X129331017Y-135644461D01*
X129265146Y-135778994D01*
X129189335Y-135934431D01*
X129105075Y-136107729D01*
X129013855Y-136295841D01*
X128917164Y-136495723D01*
X128878578Y-136575620D01*
X128656428Y-137035554D01*
X128450286Y-137461769D01*
X128258935Y-137856756D01*
X128081157Y-138223002D01*
X127915736Y-138562995D01*
X127761455Y-138879225D01*
X127617096Y-139174179D01*
X127481443Y-139450347D01*
X127353278Y-139710216D01*
X127231385Y-139956275D01*
X127114545Y-140191013D01*
X127001543Y-140416917D01*
X126937219Y-140544997D01*
X126850040Y-140719365D01*
X126775596Y-140869261D01*
X126711241Y-140998126D01*
X126654326Y-141109404D01*
X126602204Y-141206534D01*
X126552228Y-141292960D01*
X126501750Y-141372124D01*
X126448122Y-141447466D01*
X126388696Y-141522429D01*
X126320826Y-141600454D01*
X126241863Y-141684984D01*
X126149160Y-141779461D01*
X126040070Y-141887325D01*
X125911944Y-142012020D01*
X125762136Y-142156987D01*
X125587997Y-142325667D01*
X125506673Y-142404697D01*
X125359988Y-142548227D01*
X125216479Y-142690150D01*
X125079892Y-142826661D01*
X124953971Y-142953953D01*
X124842461Y-143068220D01*
X124749105Y-143165656D01*
X124677649Y-143242453D01*
X124636055Y-143289703D01*
X124522934Y-143422710D01*
X124385761Y-143579984D01*
X124228550Y-143757156D01*
X124055311Y-143949856D01*
X123870057Y-144153716D01*
X123676800Y-144364364D01*
X123479551Y-144577433D01*
X123282322Y-144788552D01*
X123089125Y-144993353D01*
X122903973Y-145187465D01*
X122730876Y-145366519D01*
X122702552Y-145395540D01*
X122606757Y-145493821D01*
X122521222Y-145582109D01*
X122449647Y-145656543D01*
X122395726Y-145713264D01*
X122363157Y-145748413D01*
X122354980Y-145758433D01*
X122379621Y-145767212D01*
X122435450Y-145783274D01*
X122514650Y-145804626D01*
X122609401Y-145829276D01*
X122711886Y-145855229D01*
X122814287Y-145880494D01*
X122908785Y-145903077D01*
X122987561Y-145920986D01*
X123017996Y-145927439D01*
X123146747Y-145951716D01*
X123240316Y-145964502D01*
X123301862Y-145966031D01*
X123334546Y-145956538D01*
X123339386Y-145951274D01*
X123358539Y-145932377D01*
X123401878Y-145894821D01*
X123462128Y-145844805D01*
X123505960Y-145809314D01*
X123662316Y-145683885D01*
X123345896Y-145982325D01*
X123413893Y-145994494D01*
X123534416Y-146011926D01*
X123678871Y-146026047D01*
X123841785Y-146036897D01*
X124017684Y-146044515D01*
X124201096Y-146048942D01*
X124386545Y-146050218D01*
X124568560Y-146048383D01*
X124741667Y-146043477D01*
X124900392Y-146035540D01*
X125039262Y-146024611D01*
X125152803Y-146010733D01*
X125235542Y-145993943D01*
X125271392Y-145980897D01*
X125294315Y-145957244D01*
X125334888Y-145902275D01*
X125390948Y-145819531D01*
X125460333Y-145712553D01*
X125540882Y-145584885D01*
X125630433Y-145440066D01*
X125726822Y-145281640D01*
X125827890Y-145113147D01*
X125931473Y-144938130D01*
X126035411Y-144760130D01*
X126137540Y-144582689D01*
X126235699Y-144409349D01*
X126288954Y-144313899D01*
X126373462Y-144164109D01*
X126464224Y-144007722D01*
X126555949Y-143853549D01*
X126643345Y-143710399D01*
X126721122Y-143587083D01*
X126770572Y-143512005D01*
X126844557Y-143399036D01*
X126930479Y-143261784D01*
X127021574Y-143111431D01*
X127111078Y-142959162D01*
X127192227Y-142816158D01*
X127200346Y-142801485D01*
X127299975Y-142625471D01*
X127397947Y-142462793D01*
X127501307Y-142302514D01*
X127617105Y-142133700D01*
X127749422Y-141949473D01*
X128032767Y-141553587D01*
X128300519Y-141162454D01*
X128558903Y-140766427D01*
X128814144Y-140355860D01*
X129072466Y-139921105D01*
X129192503Y-139713031D01*
X129264532Y-139589258D01*
X129330078Y-139482420D01*
X129395047Y-139384144D01*
X129465349Y-139286058D01*
X129546891Y-139179791D01*
X129645581Y-139056972D01*
X129715957Y-138971279D01*
X129813085Y-138853462D01*
X129909697Y-138735944D01*
X130000315Y-138625412D01*
X130079460Y-138528553D01*
X130141655Y-138452057D01*
X130167544Y-138419977D01*
X130229849Y-138343224D01*
X130308735Y-138247251D01*
X130394829Y-138143400D01*
X130478760Y-138043013D01*
X130492636Y-138026517D01*
X130560974Y-137943771D01*
X130618960Y-137870515D01*
X130662066Y-137812716D01*
X130685761Y-137776336D01*
X130688914Y-137768063D01*
X130683566Y-137737958D01*
X130669804Y-137683247D01*
X130651052Y-137615712D01*
X130630735Y-137547138D01*
X130612277Y-137489308D01*
X130599102Y-137454006D01*
X130596176Y-137448930D01*
X130578672Y-137457048D01*
X130541056Y-137486839D01*
X130494407Y-137529120D01*
X130448142Y-137570811D01*
X130426484Y-137584625D01*
X130430683Y-137569787D01*
X130431788Y-137567964D01*
X130459816Y-137519229D01*
X130494297Y-137455222D01*
X130507901Y-137428915D01*
X130535259Y-137377491D01*
X130552037Y-137357523D01*
X130565248Y-137364436D01*
X130576757Y-137383994D01*
X130587547Y-137400396D01*
X130601173Y-137406017D01*
X130622790Y-137397635D01*
X130657551Y-137372025D01*
X130710609Y-137325968D01*
X130787117Y-137256240D01*
X130799980Y-137244417D01*
X131026882Y-137037548D01*
X131229024Y-136857130D01*
X131409391Y-136700674D01*
X131570970Y-136565687D01*
X131716748Y-136449680D01*
X131849710Y-136350162D01*
X131972844Y-136264641D01*
X131981969Y-136258588D01*
X132145173Y-136157532D01*
X132284826Y-136085596D01*
X132400235Y-136043026D01*
X132490704Y-136030069D01*
X132555538Y-136046970D01*
X132563342Y-136052350D01*
X132584743Y-136071095D01*
X132580759Y-136080250D01*
X132545583Y-136083382D01*
X132512137Y-136083822D01*
X132422762Y-136097078D01*
X132334084Y-136139497D01*
X132330136Y-136141981D01*
X132259919Y-136191593D01*
X132168976Y-136263331D01*
X132064696Y-136350736D01*
X131954467Y-136447348D01*
X131845678Y-136546707D01*
X131745719Y-136642355D01*
X131671235Y-136717999D01*
X131609375Y-136783938D01*
X131531012Y-136868476D01*
X131440258Y-136967082D01*
X131341228Y-137075224D01*
X131238035Y-137188369D01*
X131134792Y-137301985D01*
X131035612Y-137411542D01*
X130944610Y-137512507D01*
X130865898Y-137600347D01*
X130803591Y-137670532D01*
X130761801Y-137718530D01*
X130748092Y-137735039D01*
X130703907Y-137791212D01*
X130758129Y-138035429D01*
X130802670Y-138247550D01*
X130837303Y-138441681D01*
X130863339Y-138629155D01*
X130882088Y-138821305D01*
X130894860Y-139029466D01*
X130902967Y-139264971D01*
X130903652Y-139293984D01*
X130906164Y-139619895D01*
X130897428Y-139917401D01*
X130876404Y-140196867D01*
X130842053Y-140468661D01*
X130793336Y-140743150D01*
X130729875Y-141027974D01*
X130591104Y-141516644D01*
X130415670Y-141990823D01*
X130204984Y-142448586D01*
X129960459Y-142888005D01*
X129683507Y-143307154D01*
X129375539Y-143704108D01*
X129037967Y-144076941D01*
X128672203Y-144423726D01*
X128279659Y-144742537D01*
X127861747Y-145031448D01*
X127739845Y-145107046D01*
X127323805Y-145338005D01*
X126888599Y-145540039D01*
X126440896Y-145710636D01*
X125987364Y-145847282D01*
X125534672Y-145947467D01*
X125486626Y-145955912D01*
X125381241Y-145977362D01*
X125313244Y-145999486D01*
X125280447Y-146022416D01*
X125262261Y-146048349D01*
X125224797Y-146102366D01*
X125171481Y-146179504D01*
X125105742Y-146274800D01*
X125031005Y-146383293D01*
X124972037Y-146468990D01*
X124752034Y-146781328D01*
X124545073Y-147059115D01*
X124348898Y-147304862D01*
X124161250Y-147521079D01*
X123979873Y-147710275D01*
X123802510Y-147874962D01*
X123626902Y-148017649D01*
X123494372Y-148112152D01*
X123377567Y-148183470D01*
X123243100Y-148254152D01*
X123103727Y-148318296D01*
X122972202Y-148369996D01*
X122869422Y-148401416D01*
X122705019Y-148430605D01*
X122527119Y-148443585D01*
X122353198Y-148439757D01*
X122225057Y-148423514D01*
X121987488Y-148358122D01*
X121759800Y-148253947D01*
X121542301Y-148111139D01*
X121467012Y-148050686D01*
X121408899Y-148005432D01*
X121361595Y-147981942D01*
X121307813Y-147973373D01*
X121269589Y-147972542D01*
X121000930Y-147956796D01*
X120728328Y-147911325D01*
X120663496Y-147893729D01*
X122145048Y-147893729D01*
X122172802Y-147911137D01*
X122198859Y-147919275D01*
X122236883Y-147923649D01*
X122302650Y-147925793D01*
X122383857Y-147925388D01*
X122409356Y-147924723D01*
X122526299Y-147916279D01*
X122622794Y-147896855D01*
X122705632Y-147867881D01*
X122841144Y-147806008D01*
X122962417Y-147735152D01*
X123080264Y-147647888D01*
X123205496Y-147536788D01*
X123249893Y-147494013D01*
X123315412Y-147428744D01*
X123364110Y-147377955D01*
X123392380Y-147345608D01*
X123396614Y-147335667D01*
X123391677Y-147338261D01*
X123184469Y-147466954D01*
X123005431Y-147569580D01*
X122853035Y-147647013D01*
X122845741Y-147650399D01*
X122738157Y-147696511D01*
X122614942Y-147743635D01*
X122487241Y-147788021D01*
X122366201Y-147825923D01*
X122262966Y-147853591D01*
X122208633Y-147864647D01*
X122157065Y-147877821D01*
X122145048Y-147893729D01*
X120663496Y-147893729D01*
X120461016Y-147838775D01*
X120208231Y-147741794D01*
X119979210Y-147623030D01*
X119919524Y-147585527D01*
X119850491Y-147545361D01*
X119782635Y-147514141D01*
X119743058Y-147501648D01*
X119690859Y-147486140D01*
X119617493Y-147458128D01*
X119537551Y-147423247D01*
X119525891Y-147417769D01*
X119365521Y-147319773D01*
X119365261Y-147319529D01*
X121317527Y-147319529D01*
X121324177Y-147335423D01*
X121342916Y-147356913D01*
X121347338Y-147361621D01*
X121372418Y-147386352D01*
X121397343Y-147401643D01*
X121429865Y-147407725D01*
X121477736Y-147404835D01*
X121548710Y-147393204D01*
X121650538Y-147373069D01*
X121660386Y-147371070D01*
X121742309Y-147352803D01*
X121836165Y-147329304D01*
X121934696Y-147302720D01*
X122030647Y-147275195D01*
X122116762Y-147248877D01*
X122185786Y-147225911D01*
X122230463Y-147208443D01*
X122243537Y-147198619D01*
X122243521Y-147198604D01*
X122221838Y-147198521D01*
X122170302Y-147204607D01*
X122098468Y-147215648D01*
X122067871Y-147220886D01*
X121980412Y-147234192D01*
X121867664Y-147248382D01*
X121744348Y-147261733D01*
X121628203Y-147272285D01*
X121504727Y-147282362D01*
X121416566Y-147290648D01*
X121359076Y-147298619D01*
X121327612Y-147307754D01*
X121317527Y-147319529D01*
X119365261Y-147319529D01*
X119226468Y-147189286D01*
X119110073Y-147028581D01*
X119017680Y-146839931D01*
X118950629Y-146625610D01*
X118910263Y-146387891D01*
X118908632Y-146372057D01*
X118894526Y-146285851D01*
X118869752Y-146183630D01*
X118839426Y-146086236D01*
X118836470Y-146078067D01*
X118758000Y-145836547D01*
X118747904Y-145797404D01*
X119138562Y-145797404D01*
X119147307Y-145940796D01*
X119156168Y-146028117D01*
X119174212Y-146099708D01*
X119207208Y-146174613D01*
X119232338Y-146221459D01*
X119402926Y-146497385D01*
X119588140Y-146737078D01*
X119789254Y-146942115D01*
X119873366Y-147013911D01*
X119993650Y-147111355D01*
X120123958Y-147098929D01*
X120191835Y-147091428D01*
X120241916Y-147083965D01*
X120262619Y-147078457D01*
X120266914Y-147073060D01*
X120263087Y-147065942D01*
X120244837Y-147052642D01*
X120205861Y-147028696D01*
X120139857Y-146989643D01*
X120123958Y-146980275D01*
X119904854Y-146832640D01*
X119708115Y-146660005D01*
X119530540Y-146458798D01*
X119368925Y-146225448D01*
X119238208Y-145992328D01*
X119138562Y-145797404D01*
X118747904Y-145797404D01*
X118686684Y-145560068D01*
X118623486Y-145253288D01*
X118569370Y-144920862D01*
X118527142Y-144584539D01*
X118517931Y-144479573D01*
X118510203Y-144351861D01*
X118504000Y-144207484D01*
X118499364Y-144052526D01*
X118496339Y-143893066D01*
X118494967Y-143735188D01*
X118495290Y-143584973D01*
X118497352Y-143448503D01*
X118501194Y-143331861D01*
X118506859Y-143241127D01*
X118514390Y-143182385D01*
X118517245Y-143171200D01*
X118528295Y-143140873D01*
X118534434Y-143139337D01*
X118537389Y-143170642D01*
X118538608Y-143221319D01*
X118545116Y-143380594D01*
X118559144Y-143569738D01*
X118579506Y-143779477D01*
X118605017Y-144000543D01*
X118634490Y-144223662D01*
X118666741Y-144439566D01*
X118700584Y-144638981D01*
X118734834Y-144812639D01*
X118751416Y-144885564D01*
X118782047Y-145007659D01*
X118814512Y-145128077D01*
X118846957Y-145240857D01*
X118877530Y-145340041D01*
X118904374Y-145419668D01*
X118925636Y-145473781D01*
X118939461Y-145496418D01*
X118941500Y-145496485D01*
X118959915Y-145464033D01*
X118969120Y-145400283D01*
X118969129Y-145312958D01*
X118959958Y-145209780D01*
X118941621Y-145098470D01*
X118940730Y-145094117D01*
X118911690Y-144944699D01*
X118888093Y-144801685D01*
X118869380Y-144658269D01*
X118854993Y-144507645D01*
X118844373Y-144343006D01*
X118836962Y-144157546D01*
X118832202Y-143944458D01*
X118829871Y-143742550D01*
X118826747Y-143352131D01*
X118942145Y-143352131D01*
X118944070Y-143430029D01*
X118948047Y-143527022D01*
X118953727Y-143636151D01*
X118960760Y-143750457D01*
X118968798Y-143862978D01*
X118977493Y-143966757D01*
X118983014Y-144023213D01*
X118994150Y-144117311D01*
X119008947Y-144225212D01*
X119026088Y-144339044D01*
X119044256Y-144450937D01*
X119062136Y-144553018D01*
X119078411Y-144637418D01*
X119091765Y-144696264D01*
X119099483Y-144719695D01*
X119110307Y-144711553D01*
X119130162Y-144671399D01*
X119156334Y-144605557D01*
X119186110Y-144520351D01*
X119189773Y-144509198D01*
X119234874Y-144374700D01*
X119275207Y-144261757D01*
X119309245Y-144174209D01*
X119335463Y-144115897D01*
X119352335Y-144090661D01*
X119356061Y-144090622D01*
X119355387Y-144112329D01*
X119347402Y-144165427D01*
X119333428Y-144242154D01*
X119314790Y-144334747D01*
X119312911Y-144343678D01*
X119287314Y-144470071D01*
X119260052Y-144613090D01*
X119235088Y-144751576D01*
X119222246Y-144827468D01*
X119183218Y-145066690D01*
X119244137Y-145241597D01*
X119295112Y-145375721D01*
X119358146Y-145522799D01*
X119427929Y-145671783D01*
X119499154Y-145811626D01*
X119566511Y-145931284D01*
X119604115Y-145990655D01*
X119699713Y-146117266D01*
X119815724Y-146247695D01*
X119939993Y-146369321D01*
X120060364Y-146469523D01*
X120077042Y-146481717D01*
X120137717Y-146521615D01*
X120212434Y-146565573D01*
X120293188Y-146609542D01*
X120371972Y-146649474D01*
X120440780Y-146681320D01*
X120491605Y-146701032D01*
X120516442Y-146704559D01*
X120516929Y-146704170D01*
X120513238Y-146683328D01*
X120495903Y-146635744D01*
X120468450Y-146570908D01*
X120462351Y-146557355D01*
X120403164Y-146421149D01*
X120336583Y-146258110D01*
X120266968Y-146079739D01*
X120198677Y-145897537D01*
X120136068Y-145723005D01*
X120083500Y-145567645D01*
X120064179Y-145506717D01*
X120030770Y-145395045D01*
X119994724Y-145268832D01*
X119957663Y-145134378D01*
X119921208Y-144997986D01*
X119886983Y-144865956D01*
X119856609Y-144744589D01*
X119831709Y-144640186D01*
X119813904Y-144559049D01*
X119804817Y-144507479D01*
X119803992Y-144496052D01*
X119811301Y-144503733D01*
X119831690Y-144544710D01*
X119863436Y-144615018D01*
X119904814Y-144710692D01*
X119954102Y-144827766D01*
X120009575Y-144962274D01*
X120051566Y-145065675D01*
X120139604Y-145282039D01*
X120217009Y-145467799D01*
X120287050Y-145629959D01*
X120352999Y-145775521D01*
X120418124Y-145911490D01*
X120485695Y-146044868D01*
X120558983Y-146182660D01*
X120641256Y-146331868D01*
X120650145Y-146347761D01*
X120730104Y-146489527D01*
X120793883Y-146599685D01*
X120844131Y-146682020D01*
X120883500Y-146740322D01*
X120914642Y-146778377D01*
X120940206Y-146799974D01*
X120962844Y-146808900D01*
X120973527Y-146809795D01*
X121009861Y-146799117D01*
X121069729Y-146770295D01*
X121143801Y-146728151D01*
X121199477Y-146693062D01*
X121281195Y-146636836D01*
X121382398Y-146563341D01*
X121491782Y-146480988D01*
X121598041Y-146398188D01*
X121627677Y-146374472D01*
X121646894Y-146358730D01*
X122810304Y-146358730D01*
X122820327Y-146368753D01*
X122830351Y-146358730D01*
X122820327Y-146348706D01*
X122810304Y-146358730D01*
X121646894Y-146358730D01*
X121667585Y-146341781D01*
X122850398Y-146341781D01*
X122865723Y-146337984D01*
X122911530Y-146308612D01*
X122987571Y-146253841D01*
X123093594Y-146173849D01*
X123147362Y-146132497D01*
X123214875Y-146078869D01*
X123267401Y-146034310D01*
X123298772Y-146004239D01*
X123304634Y-145994365D01*
X123286977Y-146002860D01*
X123244990Y-146031193D01*
X123185589Y-146074078D01*
X123115688Y-146126224D01*
X123042202Y-146182344D01*
X122972045Y-146237149D01*
X122912132Y-146285350D01*
X122869379Y-146321659D01*
X122850699Y-146340787D01*
X122850398Y-146341781D01*
X121667585Y-146341781D01*
X121713964Y-146303790D01*
X121808702Y-146224280D01*
X121907300Y-146140008D01*
X122005167Y-146055038D01*
X122097714Y-145973435D01*
X122180350Y-145899265D01*
X122248485Y-145836591D01*
X122297528Y-145789480D01*
X122322889Y-145761996D01*
X122325182Y-145756799D01*
X122305128Y-145748011D01*
X122254871Y-145728371D01*
X122181883Y-145700742D01*
X122093636Y-145667988D01*
X122089126Y-145666330D01*
X121622200Y-145474180D01*
X121171464Y-145247678D01*
X120739627Y-144988823D01*
X120329395Y-144699616D01*
X119943476Y-144382059D01*
X119584578Y-144038152D01*
X119255407Y-143669895D01*
X119072359Y-143436828D01*
X119021736Y-143370388D01*
X118979985Y-143318130D01*
X118952798Y-143287043D01*
X118945843Y-143281461D01*
X118942619Y-143300288D01*
X118942145Y-143352131D01*
X118826747Y-143352131D01*
X118824656Y-143091011D01*
X118690617Y-142870490D01*
X118445957Y-142429715D01*
X118237070Y-141971201D01*
X118063882Y-141494725D01*
X117926317Y-141000065D01*
X117824301Y-140486996D01*
X117775936Y-140134026D01*
X117766590Y-140022382D01*
X117759659Y-139879877D01*
X117755145Y-139715673D01*
X117753047Y-139538932D01*
X117753364Y-139358815D01*
X117756098Y-139184483D01*
X117761248Y-139025098D01*
X117768814Y-138889821D01*
X117775936Y-138810900D01*
X117854602Y-138284419D01*
X117969343Y-137775422D01*
X118120197Y-137283817D01*
X118307200Y-136809514D01*
X118530390Y-136352421D01*
X118789805Y-135912448D01*
X119085482Y-135489503D01*
X119199759Y-135342708D01*
X119301818Y-135221120D01*
X119426137Y-135082438D01*
X119564284Y-134935369D01*
X119707829Y-134788621D01*
X119848341Y-134650901D01*
X119977388Y-134530916D01*
X120033745Y-134481355D01*
X120436938Y-134161304D01*
X120860869Y-133875264D01*
X121304016Y-133623899D01*
X121764860Y-133407872D01*
X122241878Y-133227844D01*
X122733550Y-133084478D01*
X123238356Y-132978438D01*
X123602174Y-132926372D01*
X123751365Y-132912873D01*
X123929200Y-132902902D01*
X124125272Y-132896540D01*
X124329175Y-132893868D01*
X124530503Y-132894965D01*
X124718849Y-132899912D01*
X124883807Y-132908790D01*
X124965394Y-132915846D01*
X125484562Y-132988541D01*
X125987592Y-133097891D01*
X126474912Y-133244072D01*
X126946949Y-133427261D01*
X127404129Y-133647634D01*
X127846881Y-133905368D01*
X128275632Y-134200639D01*
X128503753Y-134377585D01*
X128591259Y-134451693D01*
X128695633Y-134545609D01*
X128810793Y-134653332D01*
X128930654Y-134768860D01*
X129049133Y-134886192D01*
X129160148Y-134999326D01*
X129257614Y-135102261D01*
X129335448Y-135188996D01*
X129375813Y-135237909D01*
X129418226Y-135290745D01*
X129450840Y-135328157D01*
X129466026Y-135341681D01*
X129477114Y-135324592D01*
X129503941Y-135275833D01*
X129544322Y-135199596D01*
X129596069Y-135100075D01*
X129656997Y-134981465D01*
X129724919Y-134847958D01*
X129771318Y-134756100D01*
X129915183Y-134473442D01*
X130053542Y-134207393D01*
X130185196Y-133960027D01*
X130308946Y-133733419D01*
X130423594Y-133529643D01*
X130527941Y-133350774D01*
X130620787Y-133198887D01*
X130700935Y-133076055D01*
X130767186Y-132984354D01*
X130818340Y-132925859D01*
X130838472Y-132909320D01*
X130873284Y-132888666D01*
X130885770Y-132888811D01*
D15*
X147723800Y-52349400D02*
X161693800Y-52349400D01*
X152168800Y-57937400D02*
X157248800Y-57937400D01*
X155978800Y-57937400D02*
X155978800Y-60477400D01*
X155978800Y-60477400D02*
X153438800Y-60477400D01*
X157248800Y-52349400D02*
X157248800Y-57937400D01*
X161693800Y-64287400D02*
X161693800Y-52349400D01*
X159788800Y-66827400D02*
X149628800Y-66827400D01*
X152168800Y-52349400D02*
X152168800Y-52857400D01*
X147723800Y-64287400D02*
X147723800Y-52349400D01*
X149628800Y-64287400D02*
X147723800Y-64287400D01*
X152168800Y-56667400D02*
X152168800Y-57937400D01*
X152168800Y-56667400D02*
X152168800Y-52857400D01*
X153438800Y-57937400D02*
X153438800Y-60477400D01*
X149628800Y-64287400D02*
X161693800Y-64287400D01*
X159788800Y-64287400D02*
X159788800Y-66827400D01*
X149628800Y-66827400D02*
X149628800Y-64287400D01*
X148691600Y-84447600D02*
X148691600Y-68447600D01*
X148691600Y-68447600D02*
X164691600Y-68447600D01*
X148691600Y-84447600D02*
X164691600Y-84447600D01*
X164693600Y-84447600D02*
X164693600Y-68447600D01*
D16*
X139386000Y-89881200D02*
G75*
G02X139386000Y-91881200I0J-1000000D01*
G01*
X139386000Y-91881200D02*
X139386000Y-93531200D01*
X139386000Y-93531200D02*
X175066000Y-93531200D01*
X175066000Y-93531200D02*
X175066000Y-88231200D01*
X175066000Y-88231200D02*
X139386000Y-88231200D01*
X139386000Y-88231200D02*
X139386000Y-89881200D01*
X122458267Y-116838000D02*
X122115733Y-116838000D01*
X122458267Y-117858000D02*
X122115733Y-117858000D01*
D15*
X127152400Y-120497600D02*
X127152400Y-103987600D01*
X137312400Y-103987600D02*
X137312400Y-120497600D01*
X127152400Y-103987600D02*
X137312400Y-103987600D01*
X127152400Y-120497600D02*
X137312400Y-120497600D01*
X129692400Y-107797600D02*
X134772400Y-107797600D01*
X127152400Y-110337600D02*
X129692400Y-107797600D01*
X127152400Y-115417600D02*
X127152400Y-110337600D01*
X129692400Y-117957600D02*
X127152400Y-115417600D01*
X134772400Y-117957600D02*
X129692400Y-117957600D01*
X137312400Y-115417600D02*
X134772400Y-117957600D01*
X137312400Y-110337600D02*
X137312400Y-115417600D01*
X134772400Y-107797600D02*
X137312400Y-110337600D01*
D16*
X166855000Y-104887000D02*
G75*
G03X166855000Y-99837000I0J2525000D01*
G01*
X160605000Y-104887000D02*
G75*
G02X160605000Y-99837000I0J2525000D01*
G01*
X160605000Y-104887000D02*
X166855000Y-104887000D01*
X160605000Y-99837000D02*
X166855000Y-99837000D01*
D15*
X119888000Y-53086000D02*
X119888000Y-64262000D01*
X132588000Y-53086000D02*
X132588000Y-64262000D01*
X132588000Y-64262000D02*
X131064000Y-65786000D01*
X119888000Y-64262000D02*
X121412000Y-65786000D01*
X121412000Y-65786000D02*
X131064000Y-65786000D01*
D17*
X112979200Y-92710000D02*
X113233200Y-85598000D01*
X112471200Y-92710000D02*
X112725200Y-85598000D01*
X111963200Y-92710000D02*
X112217200Y-85598000D01*
X111455200Y-92710000D02*
X111709200Y-85598000D01*
X110947200Y-92710000D02*
X111201200Y-85598000D01*
X110439200Y-92710000D02*
X110693200Y-85598000D01*
X109931200Y-92710000D02*
X110185200Y-85598000D01*
X109423200Y-92710000D02*
X109677200Y-85598000D01*
D15*
X123083200Y-85654000D02*
X116083200Y-85654000D01*
X116083200Y-85654000D02*
X116083200Y-92654000D01*
X116083200Y-92654000D02*
X123083200Y-92654000D01*
X123083200Y-92654000D02*
X123083200Y-85654000D01*
X123083200Y-92654000D02*
X107883200Y-92654000D01*
X123083200Y-85654000D02*
X107883200Y-85654000D01*
X107883200Y-85654000D02*
X107883200Y-92654000D01*
D17*
X108915200Y-92710000D02*
X109169200Y-85598000D01*
D15*
X106070400Y-94996000D02*
X118364000Y-94996000D01*
X93751400Y-94996000D02*
X101498400Y-94996000D01*
X101498400Y-110744000D02*
X93751400Y-110744000D01*
X106070400Y-110744000D02*
X118364000Y-110744000D01*
X104927400Y-102870000D02*
G75*
G03X104927400Y-102870000I-1143000J0D01*
G01*
X103784400Y-100584000D02*
X103784400Y-97307400D01*
X106070400Y-102870000D02*
X118364000Y-102870000D01*
X103784400Y-105156000D02*
X103784400Y-108458000D01*
X106070400Y-102870000D02*
X104927400Y-102870000D01*
X103784400Y-100584000D02*
X103784400Y-101727000D01*
X93751400Y-102844600D02*
X102641400Y-102844600D01*
X103784400Y-105156000D02*
X103784400Y-104013000D01*
X103784400Y-96139000D02*
X103784400Y-97307400D01*
X106045000Y-94996000D02*
X104952800Y-94996000D01*
X101473000Y-110744000D02*
X102641400Y-110744000D01*
X103784400Y-108432600D02*
X103784400Y-109601000D01*
X106095800Y-110744000D02*
X104902000Y-110744000D01*
X102641400Y-94996000D02*
G75*
G03X103784400Y-96139000I1143000J0D01*
G01*
X103784400Y-96139000D02*
G75*
G03X104927400Y-94996000I0J1143000D01*
G01*
X102641400Y-94996000D02*
X101422200Y-94996000D01*
X118364000Y-94996000D02*
X118364000Y-110744000D01*
X93726000Y-94996000D02*
X93726000Y-110744000D01*
X103784400Y-109626400D02*
G75*
G03X102666800Y-110744000I0J-1117600D01*
G01*
X104902000Y-110744000D02*
G75*
G03X103784400Y-109626400I-1117600J0D01*
G01*
D16*
X138736800Y-100628267D02*
X138736800Y-100285733D01*
X137716800Y-100628267D02*
X137716800Y-100285733D01*
X151325733Y-115318000D02*
X151668267Y-115318000D01*
X151325733Y-114298000D02*
X151668267Y-114298000D01*
X157249000Y-107088000D02*
X154789000Y-107088000D01*
X157249000Y-108558000D02*
X157249000Y-107088000D01*
X154789000Y-108558000D02*
X157249000Y-108558000D01*
X144309560Y-72847017D02*
X144309560Y-72504483D01*
X143289560Y-72847017D02*
X143289560Y-72504483D01*
X146341560Y-72847017D02*
X146341560Y-72504483D01*
X145321560Y-72847017D02*
X145321560Y-72504483D01*
X118676267Y-65022000D02*
X118333733Y-65022000D01*
X118676267Y-66042000D02*
X118333733Y-66042000D01*
X125728000Y-105975333D02*
X125728000Y-106317867D01*
X126748000Y-105975333D02*
X126748000Y-106317867D01*
X126748000Y-100831467D02*
X126748000Y-100488933D01*
X125728000Y-100831467D02*
X125728000Y-100488933D01*
X137793000Y-105961333D02*
X137793000Y-106303867D01*
X138813000Y-105961333D02*
X138813000Y-106303867D01*
D15*
X163830000Y-66802000D02*
X163830000Y-64262000D01*
X173990000Y-64262000D02*
X173990000Y-66802000D01*
X163830000Y-64262000D02*
X175895000Y-64262000D01*
X167640000Y-57912000D02*
X167640000Y-60452000D01*
X166370000Y-56642000D02*
X166370000Y-52832000D01*
X166370000Y-56642000D02*
X166370000Y-57912000D01*
X163830000Y-64262000D02*
X161925000Y-64262000D01*
X161925000Y-64262000D02*
X161925000Y-52324000D01*
X166370000Y-52324000D02*
X166370000Y-52832000D01*
X173990000Y-66802000D02*
X163830000Y-66802000D01*
X175895000Y-64262000D02*
X175895000Y-52324000D01*
X171450000Y-52324000D02*
X171450000Y-57912000D01*
X170180000Y-60452000D02*
X167640000Y-60452000D01*
X170180000Y-57912000D02*
X170180000Y-60452000D01*
X166370000Y-57912000D02*
X171450000Y-57912000D01*
X161925000Y-52324000D02*
X175895000Y-52324000D01*
D16*
X146668600Y-77725600D02*
X144208600Y-77725600D01*
X146668600Y-79195600D02*
X146668600Y-77725600D01*
X144208600Y-79195600D02*
X146668600Y-79195600D01*
X157122000Y-110889500D02*
X154662000Y-110889500D01*
X157122000Y-112359500D02*
X157122000Y-110889500D01*
X154662000Y-112359500D02*
X157122000Y-112359500D01*
X119512000Y-75919000D02*
X121972000Y-75919000D01*
X119512000Y-74449000D02*
X119512000Y-75919000D01*
X121972000Y-74449000D02*
X119512000Y-74449000D01*
X119484000Y-73125000D02*
X121944000Y-73125000D01*
X119484000Y-71655000D02*
X119484000Y-73125000D01*
X121944000Y-71655000D02*
X119484000Y-71655000D01*
X157249000Y-103722860D02*
X154789000Y-103722860D01*
X157249000Y-105192860D02*
X157249000Y-103722860D01*
X154789000Y-105192860D02*
X157249000Y-105192860D01*
X157122000Y-121306917D02*
X154662000Y-121306917D01*
X157122000Y-122776917D02*
X157122000Y-121306917D01*
X154662000Y-122776917D02*
X157122000Y-122776917D01*
X156967000Y-124233000D02*
X154507000Y-124233000D01*
X156967000Y-125703000D02*
X156967000Y-124233000D01*
X154507000Y-125703000D02*
X156967000Y-125703000D01*
X144862733Y-70080600D02*
X145205267Y-70080600D01*
X144862733Y-69060600D02*
X145205267Y-69060600D01*
X145193867Y-75918600D02*
X144851333Y-75918600D01*
X145193867Y-76938600D02*
X144851333Y-76938600D01*
X162435000Y-66592267D02*
X162435000Y-66249733D01*
X161415000Y-66592267D02*
X161415000Y-66249733D01*
X171579000Y-71929655D02*
X171579000Y-71587121D01*
X170559000Y-71929655D02*
X170559000Y-71587121D01*
X168433606Y-71587121D02*
X168433606Y-71929655D01*
X169453606Y-71587121D02*
X169453606Y-71929655D01*
X143893000Y-98088267D02*
X143893000Y-97745733D01*
X142873000Y-98088267D02*
X142873000Y-97745733D01*
X146306000Y-98074267D02*
X146306000Y-97731733D01*
X145286000Y-98074267D02*
X145286000Y-97731733D01*
X151720733Y-112143000D02*
X152063267Y-112143000D01*
X151720733Y-111123000D02*
X152063267Y-111123000D01*
X151599233Y-119382000D02*
X151941767Y-119382000D01*
X151599233Y-118362000D02*
X151941767Y-118362000D01*
X125252267Y-74674000D02*
X124909733Y-74674000D01*
X125252267Y-75694000D02*
X124909733Y-75694000D01*
X125139267Y-71880000D02*
X124796733Y-71880000D01*
X125139267Y-72900000D02*
X124796733Y-72900000D01*
X151466733Y-105031000D02*
X151809267Y-105031000D01*
X151466733Y-104011000D02*
X151809267Y-104011000D01*
D15*
X137360978Y-86172169D02*
X137360978Y-102682169D01*
X127200978Y-102682169D02*
X127200978Y-86172169D01*
X137360978Y-102682169D02*
X127200978Y-102682169D01*
X137360978Y-86172169D02*
X127200978Y-86172169D01*
X134820978Y-98872169D02*
X129740978Y-98872169D01*
X137360978Y-96332169D02*
X134820978Y-98872169D01*
X137360978Y-91252169D02*
X137360978Y-96332169D01*
X134820978Y-88712169D02*
X137360978Y-91252169D01*
X129740978Y-88712169D02*
X134820978Y-88712169D01*
X127200978Y-91252169D02*
X129740978Y-88712169D01*
X127200978Y-96332169D02*
X127200978Y-91252169D01*
X129740978Y-98872169D02*
X127200978Y-96332169D01*
D16*
X174528241Y-82900600D02*
X174528241Y-82270600D01*
X174843241Y-82585600D02*
X174213241Y-82585600D01*
X168102000Y-81148600D02*
X168102000Y-80344600D01*
X168142000Y-81379600D02*
X168142000Y-80113600D01*
X168182000Y-81548600D02*
X168182000Y-79944600D01*
X168222000Y-81686600D02*
X168222000Y-79806600D01*
X168262000Y-81805600D02*
X168262000Y-79687600D01*
X168302000Y-81911600D02*
X168302000Y-79581600D01*
X168342000Y-82008600D02*
X168342000Y-79484600D01*
X168382000Y-82096600D02*
X168382000Y-79396600D01*
X168422000Y-82178600D02*
X168422000Y-79314600D01*
X168462000Y-82255600D02*
X168462000Y-79237600D01*
X168502000Y-82327600D02*
X168502000Y-79165600D01*
X168542000Y-82396600D02*
X168542000Y-79096600D01*
X168582000Y-82460600D02*
X168582000Y-79032600D01*
X168622000Y-82522600D02*
X168622000Y-78970600D01*
X168662000Y-82580600D02*
X168662000Y-78912600D01*
X168702000Y-82636600D02*
X168702000Y-78856600D01*
X168742000Y-82690600D02*
X168742000Y-78802600D01*
X168782000Y-82741600D02*
X168782000Y-78751600D01*
X168822000Y-82790600D02*
X168822000Y-78702600D01*
X168862000Y-82838600D02*
X168862000Y-78654600D01*
X168902000Y-82883600D02*
X168902000Y-78609600D01*
X168942000Y-82928600D02*
X168942000Y-78564600D01*
X168982000Y-82970600D02*
X168982000Y-78522600D01*
X169022000Y-83011600D02*
X169022000Y-78481600D01*
X169062000Y-79706600D02*
X169062000Y-78441600D01*
X169062000Y-83051600D02*
X169062000Y-81786600D01*
X169102000Y-79706600D02*
X169102000Y-78403600D01*
X169102000Y-83089600D02*
X169102000Y-81786600D01*
X169142000Y-79706600D02*
X169142000Y-78366600D01*
X169142000Y-83126600D02*
X169142000Y-81786600D01*
X169182000Y-79706600D02*
X169182000Y-78330600D01*
X169182000Y-83162600D02*
X169182000Y-81786600D01*
X169222000Y-79706600D02*
X169222000Y-78296600D01*
X169222000Y-83196600D02*
X169222000Y-81786600D01*
X169262000Y-79706600D02*
X169262000Y-78262600D01*
X169262000Y-83230600D02*
X169262000Y-81786600D01*
X169302000Y-79706600D02*
X169302000Y-78230600D01*
X169302000Y-83262600D02*
X169302000Y-81786600D01*
X169342000Y-79706600D02*
X169342000Y-78198600D01*
X169342000Y-83294600D02*
X169342000Y-81786600D01*
X169382000Y-79706600D02*
X169382000Y-78168600D01*
X169382000Y-83324600D02*
X169382000Y-81786600D01*
X169422000Y-79706600D02*
X169422000Y-78139600D01*
X169422000Y-83353600D02*
X169422000Y-81786600D01*
X169462000Y-79706600D02*
X169462000Y-78110600D01*
X169462000Y-83382600D02*
X169462000Y-81786600D01*
X169502000Y-79706600D02*
X169502000Y-78082600D01*
X169502000Y-83410600D02*
X169502000Y-81786600D01*
X169542000Y-79706600D02*
X169542000Y-78056600D01*
X169542000Y-83436600D02*
X169542000Y-81786600D01*
X169582000Y-79706600D02*
X169582000Y-78030600D01*
X169582000Y-83462600D02*
X169582000Y-81786600D01*
X169622000Y-79706600D02*
X169622000Y-78004600D01*
X169622000Y-83488600D02*
X169622000Y-81786600D01*
X169662000Y-79706600D02*
X169662000Y-77980600D01*
X169662000Y-83512600D02*
X169662000Y-81786600D01*
X169702000Y-79706600D02*
X169702000Y-77956600D01*
X169702000Y-83536600D02*
X169702000Y-81786600D01*
X169742000Y-79706600D02*
X169742000Y-77934600D01*
X169742000Y-83558600D02*
X169742000Y-81786600D01*
X169782000Y-79706600D02*
X169782000Y-77912600D01*
X169782000Y-83580600D02*
X169782000Y-81786600D01*
X169822000Y-79706600D02*
X169822000Y-77890600D01*
X169822000Y-83602600D02*
X169822000Y-81786600D01*
X169862000Y-79706600D02*
X169862000Y-77870600D01*
X169862000Y-83622600D02*
X169862000Y-81786600D01*
X169902000Y-79706600D02*
X169902000Y-77850600D01*
X169902000Y-83642600D02*
X169902000Y-81786600D01*
X169942000Y-79706600D02*
X169942000Y-77830600D01*
X169942000Y-83662600D02*
X169942000Y-81786600D01*
X169982000Y-79706600D02*
X169982000Y-77812600D01*
X169982000Y-83680600D02*
X169982000Y-81786600D01*
X170022000Y-79706600D02*
X170022000Y-77794600D01*
X170022000Y-83698600D02*
X170022000Y-81786600D01*
X170062000Y-79706600D02*
X170062000Y-77776600D01*
X170062000Y-83716600D02*
X170062000Y-81786600D01*
X170102000Y-79706600D02*
X170102000Y-77760600D01*
X170102000Y-83732600D02*
X170102000Y-81786600D01*
X170142000Y-79706600D02*
X170142000Y-77744600D01*
X170142000Y-83748600D02*
X170142000Y-81786600D01*
X170182000Y-79706600D02*
X170182000Y-77728600D01*
X170182000Y-83764600D02*
X170182000Y-81786600D01*
X170222000Y-79706600D02*
X170222000Y-77713600D01*
X170222000Y-83779600D02*
X170222000Y-81786600D01*
X170262000Y-79706600D02*
X170262000Y-77699600D01*
X170262000Y-83793600D02*
X170262000Y-81786600D01*
X170302000Y-79706600D02*
X170302000Y-77685600D01*
X170302000Y-83807600D02*
X170302000Y-81786600D01*
X170342000Y-79706600D02*
X170342000Y-77672600D01*
X170342000Y-83820600D02*
X170342000Y-81786600D01*
X170382000Y-79706600D02*
X170382000Y-77660600D01*
X170382000Y-83832600D02*
X170382000Y-81786600D01*
X170422000Y-79706600D02*
X170422000Y-77648600D01*
X170422000Y-83844600D02*
X170422000Y-81786600D01*
X170462000Y-79706600D02*
X170462000Y-77636600D01*
X170462000Y-83856600D02*
X170462000Y-81786600D01*
X170502000Y-79706600D02*
X170502000Y-77625600D01*
X170502000Y-83867600D02*
X170502000Y-81786600D01*
X170542000Y-79706600D02*
X170542000Y-77615600D01*
X170542000Y-83877600D02*
X170542000Y-81786600D01*
X170582000Y-79706600D02*
X170582000Y-77605600D01*
X170582000Y-83887600D02*
X170582000Y-81786600D01*
X170622000Y-79706600D02*
X170622000Y-77596600D01*
X170622000Y-83896600D02*
X170622000Y-81786600D01*
X170663000Y-79706600D02*
X170663000Y-77587600D01*
X170663000Y-83905600D02*
X170663000Y-81786600D01*
X170703000Y-79706600D02*
X170703000Y-77579600D01*
X170703000Y-83913600D02*
X170703000Y-81786600D01*
X170743000Y-79706600D02*
X170743000Y-77571600D01*
X170743000Y-83921600D02*
X170743000Y-81786600D01*
X170783000Y-79706600D02*
X170783000Y-77564600D01*
X170783000Y-83928600D02*
X170783000Y-81786600D01*
X170823000Y-79706600D02*
X170823000Y-77557600D01*
X170823000Y-83935600D02*
X170823000Y-81786600D01*
X170863000Y-79706600D02*
X170863000Y-77551600D01*
X170863000Y-83941600D02*
X170863000Y-81786600D01*
X170903000Y-79706600D02*
X170903000Y-77545600D01*
X170903000Y-83947600D02*
X170903000Y-81786600D01*
X170943000Y-79706600D02*
X170943000Y-77540600D01*
X170943000Y-83952600D02*
X170943000Y-81786600D01*
X170983000Y-79706600D02*
X170983000Y-77535600D01*
X170983000Y-83957600D02*
X170983000Y-81786600D01*
X171023000Y-79706600D02*
X171023000Y-77531600D01*
X171023000Y-83961600D02*
X171023000Y-81786600D01*
X171063000Y-79706600D02*
X171063000Y-77528600D01*
X171063000Y-83964600D02*
X171063000Y-81786600D01*
X171103000Y-79706600D02*
X171103000Y-77524600D01*
X171103000Y-83968600D02*
X171103000Y-81786600D01*
X171143000Y-83970600D02*
X171143000Y-77522600D01*
X171183000Y-83973600D02*
X171183000Y-77519600D01*
X171223000Y-83974600D02*
X171223000Y-77518600D01*
X171263000Y-83976600D02*
X171263000Y-77516600D01*
X171303000Y-83976600D02*
X171303000Y-77516600D01*
X171343000Y-83976600D02*
X171343000Y-77516600D01*
X174613000Y-80746600D02*
G75*
G03X174613000Y-80746600I-3270000J0D01*
G01*
X154881733Y-96518000D02*
X155224267Y-96518000D01*
X154881733Y-97538000D02*
X155224267Y-97538000D01*
X160304267Y-97538000D02*
X159961733Y-97538000D01*
X160304267Y-96518000D02*
X159961733Y-96518000D01*
X164293733Y-97411000D02*
X164636267Y-97411000D01*
X164293733Y-96391000D02*
X164636267Y-96391000D01*
X151466733Y-107313000D02*
X151809267Y-107313000D01*
X151466733Y-108333000D02*
X151809267Y-108333000D01*
X151593733Y-122557000D02*
X151936267Y-122557000D01*
X151593733Y-121537000D02*
X151936267Y-121537000D01*
X151452733Y-124458000D02*
X151795267Y-124458000D01*
X151452733Y-125478000D02*
X151795267Y-125478000D01*
X154521000Y-115543000D02*
X156981000Y-115543000D01*
X156981000Y-115543000D02*
X156981000Y-114073000D01*
X156981000Y-114073000D02*
X154521000Y-114073000D01*
X157122000Y-118137000D02*
X154662000Y-118137000D01*
X157122000Y-119607000D02*
X157122000Y-118137000D01*
X154662000Y-119607000D02*
X157122000Y-119607000D01*
X123942000Y-111492000D02*
X123012000Y-111492000D01*
X120782000Y-111492000D02*
X121712000Y-111492000D01*
X120782000Y-111492000D02*
X120782000Y-113652000D01*
X123942000Y-111492000D02*
X123942000Y-112952000D01*
X173792000Y-100205000D02*
X173792000Y-101665000D01*
X170632000Y-100205000D02*
X170632000Y-102365000D01*
X170632000Y-100205000D02*
X171562000Y-100205000D01*
X173792000Y-100205000D02*
X172862000Y-100205000D01*
X122115733Y-115826000D02*
X122458267Y-115826000D01*
X122115733Y-114806000D02*
X122458267Y-114806000D01*
X171953133Y-104142000D02*
X172295667Y-104142000D01*
X171953133Y-103122000D02*
X172295667Y-103122000D01*
X119890000Y-112806267D02*
X119890000Y-112463733D01*
X118870000Y-112806267D02*
X118870000Y-112463733D01*
X172383267Y-98554000D02*
X172040733Y-98554000D01*
X172383267Y-97534000D02*
X172040733Y-97534000D01*
X124966000Y-116362267D02*
X124966000Y-116019733D01*
X125986000Y-116362267D02*
X125986000Y-116019733D01*
X168573267Y-97411000D02*
X168230733Y-97411000D01*
X168573267Y-96391000D02*
X168230733Y-96391000D01*
X126326000Y-110641000D02*
X124626000Y-110641000D01*
X124626000Y-110641000D02*
X124626000Y-113191000D01*
X126326000Y-110641000D02*
X126326000Y-113191000D01*
D15*
X142875000Y-57912000D02*
X140335000Y-57912000D01*
X147320000Y-52324000D02*
X135890000Y-52324000D01*
X147320000Y-64262000D02*
X137795000Y-64262000D01*
X145415000Y-66802000D02*
X137795000Y-66802000D01*
X142875000Y-52324000D02*
X142875000Y-57912000D01*
X147320000Y-64262000D02*
X147320000Y-52324000D01*
X140335000Y-52324000D02*
X140335000Y-52832000D01*
X135890000Y-64262000D02*
X135890000Y-52324000D01*
X137795000Y-64262000D02*
X135890000Y-64262000D01*
X140335000Y-56642000D02*
X140335000Y-57912000D01*
X140335000Y-56642000D02*
X140335000Y-52832000D01*
X145415000Y-64262000D02*
X145415000Y-66802000D01*
X137795000Y-66802000D02*
X137795000Y-64262000D01*
X164185695Y-84643980D02*
X164185695Y-85453504D01*
X164233314Y-85548742D01*
X164280933Y-85596361D01*
X164376171Y-85643980D01*
X164566647Y-85643980D01*
X164661885Y-85596361D01*
X164709504Y-85548742D01*
X164757123Y-85453504D01*
X164757123Y-84643980D01*
X165709504Y-84643980D02*
X165233314Y-84643980D01*
X165185695Y-85120171D01*
X165233314Y-85072552D01*
X165328552Y-85024933D01*
X165566647Y-85024933D01*
X165661885Y-85072552D01*
X165709504Y-85120171D01*
X165757123Y-85215409D01*
X165757123Y-85453504D01*
X165709504Y-85548742D01*
X165661885Y-85596361D01*
X165566647Y-85643980D01*
X165328552Y-85643980D01*
X165233314Y-85596361D01*
X165185695Y-85548742D01*
X143902180Y-91084304D02*
X144711704Y-91084304D01*
X144806942Y-91036685D01*
X144854561Y-90989066D01*
X144902180Y-90893828D01*
X144902180Y-90703352D01*
X144854561Y-90608114D01*
X144806942Y-90560495D01*
X144711704Y-90512876D01*
X143902180Y-90512876D01*
X143997419Y-90084304D02*
X143949800Y-90036685D01*
X143902180Y-89941447D01*
X143902180Y-89703352D01*
X143949800Y-89608114D01*
X143997419Y-89560495D01*
X144092657Y-89512876D01*
X144187895Y-89512876D01*
X144330752Y-89560495D01*
X144902180Y-90131923D01*
X144902180Y-89512876D01*
X118469142Y-117673380D02*
X118135809Y-117197190D01*
X117897714Y-117673380D02*
X117897714Y-116673380D01*
X118278666Y-116673380D01*
X118373904Y-116721000D01*
X118421523Y-116768619D01*
X118469142Y-116863857D01*
X118469142Y-117006714D01*
X118421523Y-117101952D01*
X118373904Y-117149571D01*
X118278666Y-117197190D01*
X117897714Y-117197190D01*
X118850095Y-116768619D02*
X118897714Y-116721000D01*
X118992952Y-116673380D01*
X119231047Y-116673380D01*
X119326285Y-116721000D01*
X119373904Y-116768619D01*
X119421523Y-116863857D01*
X119421523Y-116959095D01*
X119373904Y-117101952D01*
X118802476Y-117673380D01*
X119421523Y-117673380D01*
X119802476Y-116768619D02*
X119850095Y-116721000D01*
X119945333Y-116673380D01*
X120183428Y-116673380D01*
X120278666Y-116721000D01*
X120326285Y-116768619D01*
X120373904Y-116863857D01*
X120373904Y-116959095D01*
X120326285Y-117101952D01*
X119754857Y-117673380D01*
X120373904Y-117673380D01*
X131068866Y-111694980D02*
X131259342Y-111694980D01*
X131354580Y-111742600D01*
X131449819Y-111837838D01*
X131497438Y-112028314D01*
X131497438Y-112361647D01*
X131449819Y-112552123D01*
X131354580Y-112647361D01*
X131259342Y-112694980D01*
X131068866Y-112694980D01*
X130973628Y-112647361D01*
X130878390Y-112552123D01*
X130830771Y-112361647D01*
X130830771Y-112028314D01*
X130878390Y-111837838D01*
X130973628Y-111742600D01*
X131068866Y-111694980D01*
X131926009Y-112694980D02*
X131926009Y-111694980D01*
X132497438Y-112694980D02*
X132068866Y-112123552D01*
X132497438Y-111694980D02*
X131926009Y-112266409D01*
X132926009Y-112694980D02*
X132926009Y-111694980D01*
X163253809Y-98813190D02*
X163253809Y-99289380D01*
X162920476Y-98289380D02*
X163253809Y-98813190D01*
X163587142Y-98289380D01*
X164444285Y-99289380D02*
X163872857Y-99289380D01*
X164158571Y-99289380D02*
X164158571Y-98289380D01*
X164063333Y-98432238D01*
X163968095Y-98527476D01*
X163872857Y-98575095D01*
X121108885Y-51769971D02*
X121251742Y-51817590D01*
X121299361Y-51865209D01*
X121346980Y-51960447D01*
X121346980Y-52103304D01*
X121299361Y-52198542D01*
X121251742Y-52246161D01*
X121156504Y-52293780D01*
X120775552Y-52293780D01*
X120775552Y-51293780D01*
X121108885Y-51293780D01*
X121204123Y-51341400D01*
X121251742Y-51389019D01*
X121299361Y-51484257D01*
X121299361Y-51579495D01*
X121251742Y-51674733D01*
X121204123Y-51722352D01*
X121108885Y-51769971D01*
X120775552Y-51769971D01*
X121632695Y-51293780D02*
X122204123Y-51293780D01*
X121918409Y-52293780D02*
X121918409Y-51293780D01*
X123061266Y-52293780D02*
X122489838Y-52293780D01*
X122775552Y-52293780D02*
X122775552Y-51293780D01*
X122680314Y-51436638D01*
X122585076Y-51531876D01*
X122489838Y-51579495D01*
X117395666Y-84059780D02*
X117395666Y-84774066D01*
X117348047Y-84916923D01*
X117252809Y-85012161D01*
X117109952Y-85059780D01*
X117014714Y-85059780D01*
X118395666Y-85059780D02*
X117824238Y-85059780D01*
X118109952Y-85059780D02*
X118109952Y-84059780D01*
X118014714Y-84202638D01*
X117919476Y-84297876D01*
X117824238Y-84345495D01*
X140158742Y-101303057D02*
X140206361Y-101350676D01*
X140253980Y-101493533D01*
X140253980Y-101588771D01*
X140206361Y-101731628D01*
X140111123Y-101826866D01*
X140015885Y-101874485D01*
X139825409Y-101922104D01*
X139682552Y-101922104D01*
X139492076Y-101874485D01*
X139396838Y-101826866D01*
X139301600Y-101731628D01*
X139253980Y-101588771D01*
X139253980Y-101493533D01*
X139301600Y-101350676D01*
X139349219Y-101303057D01*
X140253980Y-100350676D02*
X140253980Y-100922104D01*
X140253980Y-100636390D02*
X139253980Y-100636390D01*
X139396838Y-100731628D01*
X139492076Y-100826866D01*
X139539695Y-100922104D01*
X139253980Y-99731628D02*
X139253980Y-99636390D01*
X139301600Y-99541152D01*
X139349219Y-99493533D01*
X139444457Y-99445914D01*
X139634933Y-99398295D01*
X139873028Y-99398295D01*
X140063504Y-99445914D01*
X140158742Y-99493533D01*
X140206361Y-99541152D01*
X140253980Y-99636390D01*
X140253980Y-99731628D01*
X140206361Y-99826866D01*
X140158742Y-99874485D01*
X140063504Y-99922104D01*
X139873028Y-99969723D01*
X139634933Y-99969723D01*
X139444457Y-99922104D01*
X139349219Y-99874485D01*
X139301600Y-99826866D01*
X139253980Y-99731628D01*
X151344333Y-113990380D02*
X151011000Y-113514190D01*
X150772904Y-113990380D02*
X150772904Y-112990380D01*
X151153857Y-112990380D01*
X151249095Y-113038000D01*
X151296714Y-113085619D01*
X151344333Y-113180857D01*
X151344333Y-113323714D01*
X151296714Y-113418952D01*
X151249095Y-113466571D01*
X151153857Y-113514190D01*
X150772904Y-113514190D01*
X151915761Y-113418952D02*
X151820523Y-113371333D01*
X151772904Y-113323714D01*
X151725285Y-113228476D01*
X151725285Y-113180857D01*
X151772904Y-113085619D01*
X151820523Y-113038000D01*
X151915761Y-112990380D01*
X152106238Y-112990380D01*
X152201476Y-113038000D01*
X152249095Y-113085619D01*
X152296714Y-113180857D01*
X152296714Y-113228476D01*
X152249095Y-113323714D01*
X152201476Y-113371333D01*
X152106238Y-113418952D01*
X151915761Y-113418952D01*
X151820523Y-113466571D01*
X151772904Y-113514190D01*
X151725285Y-113609428D01*
X151725285Y-113799904D01*
X151772904Y-113895142D01*
X151820523Y-113942761D01*
X151915761Y-113990380D01*
X152106238Y-113990380D01*
X152201476Y-113942761D01*
X152249095Y-113895142D01*
X152296714Y-113799904D01*
X152296714Y-113609428D01*
X152249095Y-113514190D01*
X152201476Y-113466571D01*
X152106238Y-113418952D01*
X154938504Y-106802180D02*
X154938504Y-105802180D01*
X155176600Y-105802180D01*
X155319457Y-105849800D01*
X155414695Y-105945038D01*
X155462314Y-106040276D01*
X155509933Y-106230752D01*
X155509933Y-106373609D01*
X155462314Y-106564085D01*
X155414695Y-106659323D01*
X155319457Y-106754561D01*
X155176600Y-106802180D01*
X154938504Y-106802180D01*
X156081361Y-106230752D02*
X155986123Y-106183133D01*
X155938504Y-106135514D01*
X155890885Y-106040276D01*
X155890885Y-105992657D01*
X155938504Y-105897419D01*
X155986123Y-105849800D01*
X156081361Y-105802180D01*
X156271838Y-105802180D01*
X156367076Y-105849800D01*
X156414695Y-105897419D01*
X156462314Y-105992657D01*
X156462314Y-106040276D01*
X156414695Y-106135514D01*
X156367076Y-106183133D01*
X156271838Y-106230752D01*
X156081361Y-106230752D01*
X155986123Y-106278371D01*
X155938504Y-106325990D01*
X155890885Y-106421228D01*
X155890885Y-106611704D01*
X155938504Y-106706942D01*
X155986123Y-106754561D01*
X156081361Y-106802180D01*
X156271838Y-106802180D01*
X156367076Y-106754561D01*
X156414695Y-106706942D01*
X156462314Y-106611704D01*
X156462314Y-106421228D01*
X156414695Y-106325990D01*
X156367076Y-106278371D01*
X156271838Y-106230752D01*
X143632893Y-75541142D02*
X143585274Y-75588761D01*
X143442417Y-75636380D01*
X143347179Y-75636380D01*
X143204321Y-75588761D01*
X143109083Y-75493523D01*
X143061464Y-75398285D01*
X143013845Y-75207809D01*
X143013845Y-75064952D01*
X143061464Y-74874476D01*
X143109083Y-74779238D01*
X143204321Y-74684000D01*
X143347179Y-74636380D01*
X143442417Y-74636380D01*
X143585274Y-74684000D01*
X143632893Y-74731619D01*
X143966226Y-74636380D02*
X144585274Y-74636380D01*
X144251940Y-75017333D01*
X144394798Y-75017333D01*
X144490036Y-75064952D01*
X144537655Y-75112571D01*
X144585274Y-75207809D01*
X144585274Y-75445904D01*
X144537655Y-75541142D01*
X144490036Y-75588761D01*
X144394798Y-75636380D01*
X144109083Y-75636380D01*
X144013845Y-75588761D01*
X143966226Y-75541142D01*
X145629333Y-75541142D02*
X145581714Y-75588761D01*
X145438857Y-75636380D01*
X145343619Y-75636380D01*
X145200761Y-75588761D01*
X145105523Y-75493523D01*
X145057904Y-75398285D01*
X145010285Y-75207809D01*
X145010285Y-75064952D01*
X145057904Y-74874476D01*
X145105523Y-74779238D01*
X145200761Y-74684000D01*
X145343619Y-74636380D01*
X145438857Y-74636380D01*
X145581714Y-74684000D01*
X145629333Y-74731619D01*
X146486476Y-74969714D02*
X146486476Y-75636380D01*
X146248380Y-74588761D02*
X146010285Y-75303047D01*
X146629333Y-75303047D01*
X118338333Y-64492142D02*
X118290714Y-64539761D01*
X118147857Y-64587380D01*
X118052619Y-64587380D01*
X117909761Y-64539761D01*
X117814523Y-64444523D01*
X117766904Y-64349285D01*
X117719285Y-64158809D01*
X117719285Y-64015952D01*
X117766904Y-63825476D01*
X117814523Y-63730238D01*
X117909761Y-63635000D01*
X118052619Y-63587380D01*
X118147857Y-63587380D01*
X118290714Y-63635000D01*
X118338333Y-63682619D01*
X119243095Y-63587380D02*
X118766904Y-63587380D01*
X118719285Y-64063571D01*
X118766904Y-64015952D01*
X118862142Y-63968333D01*
X119100238Y-63968333D01*
X119195476Y-64015952D01*
X119243095Y-64063571D01*
X119290714Y-64158809D01*
X119290714Y-64396904D01*
X119243095Y-64492142D01*
X119195476Y-64539761D01*
X119100238Y-64587380D01*
X118862142Y-64587380D01*
X118766904Y-64539761D01*
X118719285Y-64492142D01*
X125198142Y-106313266D02*
X125245761Y-106360885D01*
X125293380Y-106503742D01*
X125293380Y-106598980D01*
X125245761Y-106741838D01*
X125150523Y-106837076D01*
X125055285Y-106884695D01*
X124864809Y-106932314D01*
X124721952Y-106932314D01*
X124531476Y-106884695D01*
X124436238Y-106837076D01*
X124341000Y-106741838D01*
X124293380Y-106598980D01*
X124293380Y-106503742D01*
X124341000Y-106360885D01*
X124388619Y-106313266D01*
X124721952Y-105741838D02*
X124674333Y-105837076D01*
X124626714Y-105884695D01*
X124531476Y-105932314D01*
X124483857Y-105932314D01*
X124388619Y-105884695D01*
X124341000Y-105837076D01*
X124293380Y-105741838D01*
X124293380Y-105551361D01*
X124341000Y-105456123D01*
X124388619Y-105408504D01*
X124483857Y-105360885D01*
X124531476Y-105360885D01*
X124626714Y-105408504D01*
X124674333Y-105456123D01*
X124721952Y-105551361D01*
X124721952Y-105741838D01*
X124769571Y-105837076D01*
X124817190Y-105884695D01*
X124912428Y-105932314D01*
X125102904Y-105932314D01*
X125198142Y-105884695D01*
X125245761Y-105837076D01*
X125293380Y-105741838D01*
X125293380Y-105551361D01*
X125245761Y-105456123D01*
X125198142Y-105408504D01*
X125102904Y-105360885D01*
X124912428Y-105360885D01*
X124817190Y-105408504D01*
X124769571Y-105456123D01*
X124721952Y-105551361D01*
X125198142Y-100953866D02*
X125245761Y-101001485D01*
X125293380Y-101144342D01*
X125293380Y-101239580D01*
X125245761Y-101382438D01*
X125150523Y-101477676D01*
X125055285Y-101525295D01*
X124864809Y-101572914D01*
X124721952Y-101572914D01*
X124531476Y-101525295D01*
X124436238Y-101477676D01*
X124341000Y-101382438D01*
X124293380Y-101239580D01*
X124293380Y-101144342D01*
X124341000Y-101001485D01*
X124388619Y-100953866D01*
X125293380Y-100477676D02*
X125293380Y-100287200D01*
X125245761Y-100191961D01*
X125198142Y-100144342D01*
X125055285Y-100049104D01*
X124864809Y-100001485D01*
X124483857Y-100001485D01*
X124388619Y-100049104D01*
X124341000Y-100096723D01*
X124293380Y-100191961D01*
X124293380Y-100382438D01*
X124341000Y-100477676D01*
X124388619Y-100525295D01*
X124483857Y-100572914D01*
X124721952Y-100572914D01*
X124817190Y-100525295D01*
X124864809Y-100477676D01*
X124912428Y-100382438D01*
X124912428Y-100191961D01*
X124864809Y-100096723D01*
X124817190Y-100049104D01*
X124721952Y-100001485D01*
X140209542Y-106687857D02*
X140257161Y-106735476D01*
X140304780Y-106878333D01*
X140304780Y-106973571D01*
X140257161Y-107116428D01*
X140161923Y-107211666D01*
X140066685Y-107259285D01*
X139876209Y-107306904D01*
X139733352Y-107306904D01*
X139542876Y-107259285D01*
X139447638Y-107211666D01*
X139352400Y-107116428D01*
X139304780Y-106973571D01*
X139304780Y-106878333D01*
X139352400Y-106735476D01*
X139400019Y-106687857D01*
X140304780Y-105735476D02*
X140304780Y-106306904D01*
X140304780Y-106021190D02*
X139304780Y-106021190D01*
X139447638Y-106116428D01*
X139542876Y-106211666D01*
X139590495Y-106306904D01*
X140304780Y-104783095D02*
X140304780Y-105354523D01*
X140304780Y-105068809D02*
X139304780Y-105068809D01*
X139447638Y-105164047D01*
X139542876Y-105259285D01*
X139590495Y-105354523D01*
X141781304Y-78785980D02*
X141781304Y-77785980D01*
X142019400Y-77785980D01*
X142162257Y-77833600D01*
X142257495Y-77928838D01*
X142305114Y-78024076D01*
X142352733Y-78214552D01*
X142352733Y-78357409D01*
X142305114Y-78547885D01*
X142257495Y-78643123D01*
X142162257Y-78738361D01*
X142019400Y-78785980D01*
X141781304Y-78785980D01*
X143305114Y-78785980D02*
X142733685Y-78785980D01*
X143019400Y-78785980D02*
X143019400Y-77785980D01*
X142924161Y-77928838D01*
X142828923Y-78024076D01*
X142733685Y-78071695D01*
X154723904Y-110561380D02*
X154723904Y-109561380D01*
X154962000Y-109561380D01*
X155104857Y-109609000D01*
X155200095Y-109704238D01*
X155247714Y-109799476D01*
X155295333Y-109989952D01*
X155295333Y-110132809D01*
X155247714Y-110323285D01*
X155200095Y-110418523D01*
X155104857Y-110513761D01*
X154962000Y-110561380D01*
X154723904Y-110561380D01*
X155676285Y-109656619D02*
X155723904Y-109609000D01*
X155819142Y-109561380D01*
X156057238Y-109561380D01*
X156152476Y-109609000D01*
X156200095Y-109656619D01*
X156247714Y-109751857D01*
X156247714Y-109847095D01*
X156200095Y-109989952D01*
X155628666Y-110561380D01*
X156247714Y-110561380D01*
X120496104Y-74315580D02*
X120496104Y-73315580D01*
X120734200Y-73315580D01*
X120877057Y-73363200D01*
X120972295Y-73458438D01*
X121019914Y-73553676D01*
X121067533Y-73744152D01*
X121067533Y-73887009D01*
X121019914Y-74077485D01*
X120972295Y-74172723D01*
X120877057Y-74267961D01*
X120734200Y-74315580D01*
X120496104Y-74315580D01*
X121972295Y-73315580D02*
X121496104Y-73315580D01*
X121448485Y-73791771D01*
X121496104Y-73744152D01*
X121591342Y-73696533D01*
X121829438Y-73696533D01*
X121924676Y-73744152D01*
X121972295Y-73791771D01*
X122019914Y-73887009D01*
X122019914Y-74125104D01*
X121972295Y-74220342D01*
X121924676Y-74267961D01*
X121829438Y-74315580D01*
X121591342Y-74315580D01*
X121496104Y-74267961D01*
X121448485Y-74220342D01*
X120343704Y-71521580D02*
X120343704Y-70521580D01*
X120581800Y-70521580D01*
X120724657Y-70569200D01*
X120819895Y-70664438D01*
X120867514Y-70759676D01*
X120915133Y-70950152D01*
X120915133Y-71093009D01*
X120867514Y-71283485D01*
X120819895Y-71378723D01*
X120724657Y-71473961D01*
X120581800Y-71521580D01*
X120343704Y-71521580D01*
X121772276Y-70521580D02*
X121581800Y-70521580D01*
X121486561Y-70569200D01*
X121438942Y-70616819D01*
X121343704Y-70759676D01*
X121296085Y-70950152D01*
X121296085Y-71331104D01*
X121343704Y-71426342D01*
X121391323Y-71473961D01*
X121486561Y-71521580D01*
X121677038Y-71521580D01*
X121772276Y-71473961D01*
X121819895Y-71426342D01*
X121867514Y-71331104D01*
X121867514Y-71093009D01*
X121819895Y-70997771D01*
X121772276Y-70950152D01*
X121677038Y-70902533D01*
X121486561Y-70902533D01*
X121391323Y-70950152D01*
X121343704Y-70997771D01*
X121296085Y-71093009D01*
X154811504Y-103576380D02*
X154811504Y-102576380D01*
X155049600Y-102576380D01*
X155192457Y-102624000D01*
X155287695Y-102719238D01*
X155335314Y-102814476D01*
X155382933Y-103004952D01*
X155382933Y-103147809D01*
X155335314Y-103338285D01*
X155287695Y-103433523D01*
X155192457Y-103528761D01*
X155049600Y-103576380D01*
X154811504Y-103576380D01*
X155716266Y-102576380D02*
X156382933Y-102576380D01*
X155954361Y-103576380D01*
X154786104Y-121000780D02*
X154786104Y-120000780D01*
X155024200Y-120000780D01*
X155167057Y-120048400D01*
X155262295Y-120143638D01*
X155309914Y-120238876D01*
X155357533Y-120429352D01*
X155357533Y-120572209D01*
X155309914Y-120762685D01*
X155262295Y-120857923D01*
X155167057Y-120953161D01*
X155024200Y-121000780D01*
X154786104Y-121000780D01*
X155833723Y-121000780D02*
X156024200Y-121000780D01*
X156119438Y-120953161D01*
X156167057Y-120905542D01*
X156262295Y-120762685D01*
X156309914Y-120572209D01*
X156309914Y-120191257D01*
X156262295Y-120096019D01*
X156214676Y-120048400D01*
X156119438Y-120000780D01*
X155928961Y-120000780D01*
X155833723Y-120048400D01*
X155786104Y-120096019D01*
X155738485Y-120191257D01*
X155738485Y-120429352D01*
X155786104Y-120524590D01*
X155833723Y-120572209D01*
X155928961Y-120619828D01*
X156119438Y-120619828D01*
X156214676Y-120572209D01*
X156262295Y-120524590D01*
X156309914Y-120429352D01*
X154106714Y-124061987D02*
X154106714Y-123061987D01*
X154344809Y-123061987D01*
X154487666Y-123109607D01*
X154582904Y-123204845D01*
X154630523Y-123300083D01*
X154678142Y-123490559D01*
X154678142Y-123633416D01*
X154630523Y-123823892D01*
X154582904Y-123919130D01*
X154487666Y-124014368D01*
X154344809Y-124061987D01*
X154106714Y-124061987D01*
X155630523Y-124061987D02*
X155059095Y-124061987D01*
X155344809Y-124061987D02*
X155344809Y-123061987D01*
X155249571Y-123204845D01*
X155154333Y-123300083D01*
X155059095Y-123347702D01*
X156249571Y-123061987D02*
X156344809Y-123061987D01*
X156440047Y-123109607D01*
X156487666Y-123157226D01*
X156535285Y-123252464D01*
X156582904Y-123442940D01*
X156582904Y-123681035D01*
X156535285Y-123871511D01*
X156487666Y-123966749D01*
X156440047Y-124014368D01*
X156344809Y-124061987D01*
X156249571Y-124061987D01*
X156154333Y-124014368D01*
X156106714Y-123966749D01*
X156059095Y-123871511D01*
X156011476Y-123681035D01*
X156011476Y-123442940D01*
X156059095Y-123252464D01*
X156106714Y-123157226D01*
X156154333Y-123109607D01*
X156249571Y-123061987D01*
X142073333Y-70022980D02*
X141597142Y-70022980D01*
X141597142Y-69022980D01*
X142930476Y-70022980D02*
X142359047Y-70022980D01*
X142644761Y-70022980D02*
X142644761Y-69022980D01*
X142549523Y-69165838D01*
X142454285Y-69261076D01*
X142359047Y-69308695D01*
X142352733Y-76880980D02*
X142019400Y-76404790D01*
X141781304Y-76880980D02*
X141781304Y-75880980D01*
X142162257Y-75880980D01*
X142257495Y-75928600D01*
X142305114Y-75976219D01*
X142352733Y-76071457D01*
X142352733Y-76214314D01*
X142305114Y-76309552D01*
X142257495Y-76357171D01*
X142162257Y-76404790D01*
X141781304Y-76404790D01*
X143305114Y-76880980D02*
X142733685Y-76880980D01*
X143019400Y-76880980D02*
X143019400Y-75880980D01*
X142924161Y-76023838D01*
X142828923Y-76119076D01*
X142733685Y-76166695D01*
X160947380Y-66587666D02*
X160471190Y-66921000D01*
X160947380Y-67159095D02*
X159947380Y-67159095D01*
X159947380Y-66778142D01*
X159995000Y-66682904D01*
X160042619Y-66635285D01*
X160137857Y-66587666D01*
X160280714Y-66587666D01*
X160375952Y-66635285D01*
X160423571Y-66682904D01*
X160471190Y-66778142D01*
X160471190Y-67159095D01*
X160042619Y-66206714D02*
X159995000Y-66159095D01*
X159947380Y-66063857D01*
X159947380Y-65825761D01*
X159995000Y-65730523D01*
X160042619Y-65682904D01*
X160137857Y-65635285D01*
X160233095Y-65635285D01*
X160375952Y-65682904D01*
X160947380Y-66254333D01*
X160947380Y-65635285D01*
X171614774Y-74588666D02*
X171138584Y-74922000D01*
X171614774Y-75160095D02*
X170614774Y-75160095D01*
X170614774Y-74779142D01*
X170662394Y-74683904D01*
X170710013Y-74636285D01*
X170805251Y-74588666D01*
X170948108Y-74588666D01*
X171043346Y-74636285D01*
X171090965Y-74683904D01*
X171138584Y-74779142D01*
X171138584Y-75160095D01*
X170614774Y-74255333D02*
X170614774Y-73636285D01*
X170995727Y-73969619D01*
X170995727Y-73826761D01*
X171043346Y-73731523D01*
X171090965Y-73683904D01*
X171186203Y-73636285D01*
X171424298Y-73636285D01*
X171519536Y-73683904D01*
X171567155Y-73731523D01*
X171614774Y-73826761D01*
X171614774Y-74112476D01*
X171567155Y-74207714D01*
X171519536Y-74255333D01*
X169489380Y-74588666D02*
X169013190Y-74922000D01*
X169489380Y-75160095D02*
X168489380Y-75160095D01*
X168489380Y-74779142D01*
X168537000Y-74683904D01*
X168584619Y-74636285D01*
X168679857Y-74588666D01*
X168822714Y-74588666D01*
X168917952Y-74636285D01*
X168965571Y-74683904D01*
X169013190Y-74779142D01*
X169013190Y-75160095D01*
X168822714Y-73731523D02*
X169489380Y-73731523D01*
X168441761Y-73969619D02*
X169156047Y-74207714D01*
X169156047Y-73588666D01*
X142405380Y-98083666D02*
X141929190Y-98417000D01*
X142405380Y-98655095D02*
X141405380Y-98655095D01*
X141405380Y-98274142D01*
X141453000Y-98178904D01*
X141500619Y-98131285D01*
X141595857Y-98083666D01*
X141738714Y-98083666D01*
X141833952Y-98131285D01*
X141881571Y-98178904D01*
X141929190Y-98274142D01*
X141929190Y-98655095D01*
X141405380Y-97178904D02*
X141405380Y-97655095D01*
X141881571Y-97702714D01*
X141833952Y-97655095D01*
X141786333Y-97559857D01*
X141786333Y-97321761D01*
X141833952Y-97226523D01*
X141881571Y-97178904D01*
X141976809Y-97131285D01*
X142214904Y-97131285D01*
X142310142Y-97178904D01*
X142357761Y-97226523D01*
X142405380Y-97321761D01*
X142405380Y-97559857D01*
X142357761Y-97655095D01*
X142310142Y-97702714D01*
X144818380Y-98069666D02*
X144342190Y-98403000D01*
X144818380Y-98641095D02*
X143818380Y-98641095D01*
X143818380Y-98260142D01*
X143866000Y-98164904D01*
X143913619Y-98117285D01*
X144008857Y-98069666D01*
X144151714Y-98069666D01*
X144246952Y-98117285D01*
X144294571Y-98164904D01*
X144342190Y-98260142D01*
X144342190Y-98641095D01*
X143818380Y-97212523D02*
X143818380Y-97403000D01*
X143866000Y-97498238D01*
X143913619Y-97545857D01*
X144056476Y-97641095D01*
X144246952Y-97688714D01*
X144627904Y-97688714D01*
X144723142Y-97641095D01*
X144770761Y-97593476D01*
X144818380Y-97498238D01*
X144818380Y-97307761D01*
X144770761Y-97212523D01*
X144723142Y-97164904D01*
X144627904Y-97117285D01*
X144389809Y-97117285D01*
X144294571Y-97164904D01*
X144246952Y-97212523D01*
X144199333Y-97307761D01*
X144199333Y-97498238D01*
X144246952Y-97593476D01*
X144294571Y-97641095D01*
X144389809Y-97688714D01*
X151725333Y-110815380D02*
X151392000Y-110339190D01*
X151153904Y-110815380D02*
X151153904Y-109815380D01*
X151534857Y-109815380D01*
X151630095Y-109863000D01*
X151677714Y-109910619D01*
X151725333Y-110005857D01*
X151725333Y-110148714D01*
X151677714Y-110243952D01*
X151630095Y-110291571D01*
X151534857Y-110339190D01*
X151153904Y-110339190D01*
X152058666Y-109815380D02*
X152725333Y-109815380D01*
X152296761Y-110815380D01*
X151738078Y-117990520D02*
X151404745Y-117514330D01*
X151166649Y-117990520D02*
X151166649Y-116990520D01*
X151547602Y-116990520D01*
X151642840Y-117038140D01*
X151690459Y-117085759D01*
X151738078Y-117180997D01*
X151738078Y-117323854D01*
X151690459Y-117419092D01*
X151642840Y-117466711D01*
X151547602Y-117514330D01*
X151166649Y-117514330D01*
X152214268Y-117990520D02*
X152404745Y-117990520D01*
X152499983Y-117942901D01*
X152547602Y-117895282D01*
X152642840Y-117752425D01*
X152690459Y-117561949D01*
X152690459Y-117180997D01*
X152642840Y-117085759D01*
X152595221Y-117038140D01*
X152499983Y-116990520D01*
X152309506Y-116990520D01*
X152214268Y-117038140D01*
X152166649Y-117085759D01*
X152119030Y-117180997D01*
X152119030Y-117419092D01*
X152166649Y-117514330D01*
X152214268Y-117561949D01*
X152309506Y-117609568D01*
X152499983Y-117609568D01*
X152595221Y-117561949D01*
X152642840Y-117514330D01*
X152690459Y-117419092D01*
X124452142Y-74340980D02*
X124118809Y-73864790D01*
X123880714Y-74340980D02*
X123880714Y-73340980D01*
X124261666Y-73340980D01*
X124356904Y-73388600D01*
X124404523Y-73436219D01*
X124452142Y-73531457D01*
X124452142Y-73674314D01*
X124404523Y-73769552D01*
X124356904Y-73817171D01*
X124261666Y-73864790D01*
X123880714Y-73864790D01*
X125404523Y-74340980D02*
X124833095Y-74340980D01*
X125118809Y-74340980D02*
X125118809Y-73340980D01*
X125023571Y-73483838D01*
X124928333Y-73579076D01*
X124833095Y-73626695D01*
X126023571Y-73340980D02*
X126118809Y-73340980D01*
X126214047Y-73388600D01*
X126261666Y-73436219D01*
X126309285Y-73531457D01*
X126356904Y-73721933D01*
X126356904Y-73960028D01*
X126309285Y-74150504D01*
X126261666Y-74245742D01*
X126214047Y-74293361D01*
X126118809Y-74340980D01*
X126023571Y-74340980D01*
X125928333Y-74293361D01*
X125880714Y-74245742D01*
X125833095Y-74150504D01*
X125785476Y-73960028D01*
X125785476Y-73721933D01*
X125833095Y-73531457D01*
X125880714Y-73436219D01*
X125928333Y-73388600D01*
X126023571Y-73340980D01*
X124350542Y-71496180D02*
X124017209Y-71019990D01*
X123779114Y-71496180D02*
X123779114Y-70496180D01*
X124160066Y-70496180D01*
X124255304Y-70543800D01*
X124302923Y-70591419D01*
X124350542Y-70686657D01*
X124350542Y-70829514D01*
X124302923Y-70924752D01*
X124255304Y-70972371D01*
X124160066Y-71019990D01*
X123779114Y-71019990D01*
X125302923Y-71496180D02*
X124731495Y-71496180D01*
X125017209Y-71496180D02*
X125017209Y-70496180D01*
X124921971Y-70639038D01*
X124826733Y-70734276D01*
X124731495Y-70781895D01*
X126255304Y-71496180D02*
X125683876Y-71496180D01*
X125969590Y-71496180D02*
X125969590Y-70496180D01*
X125874352Y-70639038D01*
X125779114Y-70734276D01*
X125683876Y-70781895D01*
X150995142Y-103581463D02*
X150661809Y-103105273D01*
X150423714Y-103581463D02*
X150423714Y-102581463D01*
X150804666Y-102581463D01*
X150899904Y-102629083D01*
X150947523Y-102676702D01*
X150995142Y-102771940D01*
X150995142Y-102914797D01*
X150947523Y-103010035D01*
X150899904Y-103057654D01*
X150804666Y-103105273D01*
X150423714Y-103105273D01*
X151947523Y-103581463D02*
X151376095Y-103581463D01*
X151661809Y-103581463D02*
X151661809Y-102581463D01*
X151566571Y-102724321D01*
X151471333Y-102819559D01*
X151376095Y-102867178D01*
X152328476Y-102676702D02*
X152376095Y-102629083D01*
X152471333Y-102581463D01*
X152709428Y-102581463D01*
X152804666Y-102629083D01*
X152852285Y-102676702D01*
X152899904Y-102771940D01*
X152899904Y-102867178D01*
X152852285Y-103010035D01*
X152280857Y-103581463D01*
X152899904Y-103581463D01*
X131094266Y-92975180D02*
X131284742Y-92975180D01*
X131379980Y-93022800D01*
X131475219Y-93118038D01*
X131522838Y-93308514D01*
X131522838Y-93641847D01*
X131475219Y-93832323D01*
X131379980Y-93927561D01*
X131284742Y-93975180D01*
X131094266Y-93975180D01*
X130999028Y-93927561D01*
X130903790Y-93832323D01*
X130856171Y-93641847D01*
X130856171Y-93308514D01*
X130903790Y-93118038D01*
X130999028Y-93022800D01*
X131094266Y-92975180D01*
X131951409Y-93975180D02*
X131951409Y-92975180D01*
X132522838Y-93975180D02*
X132094266Y-93403752D01*
X132522838Y-92975180D02*
X131951409Y-93546609D01*
X132951409Y-93975180D02*
X132951409Y-92975180D01*
X171704333Y-76785742D02*
X171656714Y-76833361D01*
X171513857Y-76880980D01*
X171418619Y-76880980D01*
X171275761Y-76833361D01*
X171180523Y-76738123D01*
X171132904Y-76642885D01*
X171085285Y-76452409D01*
X171085285Y-76309552D01*
X171132904Y-76119076D01*
X171180523Y-76023838D01*
X171275761Y-75928600D01*
X171418619Y-75880980D01*
X171513857Y-75880980D01*
X171656714Y-75928600D01*
X171704333Y-75976219D01*
X172037666Y-75880980D02*
X172704333Y-75880980D01*
X172275761Y-76880980D01*
X155114933Y-95988142D02*
X155067314Y-96035761D01*
X154924457Y-96083380D01*
X154829219Y-96083380D01*
X154686361Y-96035761D01*
X154591123Y-95940523D01*
X154543504Y-95845285D01*
X154495885Y-95654809D01*
X154495885Y-95511952D01*
X154543504Y-95321476D01*
X154591123Y-95226238D01*
X154686361Y-95131000D01*
X154829219Y-95083380D01*
X154924457Y-95083380D01*
X155067314Y-95131000D01*
X155114933Y-95178619D01*
X156067314Y-96083380D02*
X155495885Y-96083380D01*
X155781600Y-96083380D02*
X155781600Y-95083380D01*
X155686361Y-95226238D01*
X155591123Y-95321476D01*
X155495885Y-95369095D01*
X160003133Y-95962742D02*
X159955514Y-96010361D01*
X159812657Y-96057980D01*
X159717419Y-96057980D01*
X159574561Y-96010361D01*
X159479323Y-95915123D01*
X159431704Y-95819885D01*
X159384085Y-95629409D01*
X159384085Y-95486552D01*
X159431704Y-95296076D01*
X159479323Y-95200838D01*
X159574561Y-95105600D01*
X159717419Y-95057980D01*
X159812657Y-95057980D01*
X159955514Y-95105600D01*
X160003133Y-95153219D01*
X160384085Y-95153219D02*
X160431704Y-95105600D01*
X160526942Y-95057980D01*
X160765038Y-95057980D01*
X160860276Y-95105600D01*
X160907895Y-95153219D01*
X160955514Y-95248457D01*
X160955514Y-95343695D01*
X160907895Y-95486552D01*
X160336466Y-96057980D01*
X160955514Y-96057980D01*
X164247533Y-95886542D02*
X164199914Y-95934161D01*
X164057057Y-95981780D01*
X163961819Y-95981780D01*
X163818961Y-95934161D01*
X163723723Y-95838923D01*
X163676104Y-95743685D01*
X163628485Y-95553209D01*
X163628485Y-95410352D01*
X163676104Y-95219876D01*
X163723723Y-95124638D01*
X163818961Y-95029400D01*
X163961819Y-94981780D01*
X164057057Y-94981780D01*
X164199914Y-95029400D01*
X164247533Y-95077019D01*
X165104676Y-94981780D02*
X164914200Y-94981780D01*
X164818961Y-95029400D01*
X164771342Y-95077019D01*
X164676104Y-95219876D01*
X164628485Y-95410352D01*
X164628485Y-95791304D01*
X164676104Y-95886542D01*
X164723723Y-95934161D01*
X164818961Y-95981780D01*
X165009438Y-95981780D01*
X165104676Y-95934161D01*
X165152295Y-95886542D01*
X165199914Y-95791304D01*
X165199914Y-95553209D01*
X165152295Y-95457971D01*
X165104676Y-95410352D01*
X165009438Y-95362733D01*
X164818961Y-95362733D01*
X164723723Y-95410352D01*
X164676104Y-95457971D01*
X164628485Y-95553209D01*
X150995142Y-106751380D02*
X150661809Y-106275190D01*
X150423714Y-106751380D02*
X150423714Y-105751380D01*
X150804666Y-105751380D01*
X150899904Y-105799000D01*
X150947523Y-105846619D01*
X150995142Y-105941857D01*
X150995142Y-106084714D01*
X150947523Y-106179952D01*
X150899904Y-106227571D01*
X150804666Y-106275190D01*
X150423714Y-106275190D01*
X151947523Y-106751380D02*
X151376095Y-106751380D01*
X151661809Y-106751380D02*
X151661809Y-105751380D01*
X151566571Y-105894238D01*
X151471333Y-105989476D01*
X151376095Y-106037095D01*
X152280857Y-105751380D02*
X152899904Y-105751380D01*
X152566571Y-106132333D01*
X152709428Y-106132333D01*
X152804666Y-106179952D01*
X152852285Y-106227571D01*
X152899904Y-106322809D01*
X152899904Y-106560904D01*
X152852285Y-106656142D01*
X152804666Y-106703761D01*
X152709428Y-106751380D01*
X152423714Y-106751380D01*
X152328476Y-106703761D01*
X152280857Y-106656142D01*
X151172942Y-121102380D02*
X150839609Y-120626190D01*
X150601514Y-121102380D02*
X150601514Y-120102380D01*
X150982466Y-120102380D01*
X151077704Y-120150000D01*
X151125323Y-120197619D01*
X151172942Y-120292857D01*
X151172942Y-120435714D01*
X151125323Y-120530952D01*
X151077704Y-120578571D01*
X150982466Y-120626190D01*
X150601514Y-120626190D01*
X152125323Y-121102380D02*
X151553895Y-121102380D01*
X151839609Y-121102380D02*
X151839609Y-120102380D01*
X151744371Y-120245238D01*
X151649133Y-120340476D01*
X151553895Y-120388095D01*
X152982466Y-120435714D02*
X152982466Y-121102380D01*
X152744371Y-120054761D02*
X152506276Y-120769047D01*
X153125323Y-120769047D01*
X150995142Y-124150380D02*
X150661809Y-123674190D01*
X150423714Y-124150380D02*
X150423714Y-123150380D01*
X150804666Y-123150380D01*
X150899904Y-123198000D01*
X150947523Y-123245619D01*
X150995142Y-123340857D01*
X150995142Y-123483714D01*
X150947523Y-123578952D01*
X150899904Y-123626571D01*
X150804666Y-123674190D01*
X150423714Y-123674190D01*
X151947523Y-124150380D02*
X151376095Y-124150380D01*
X151661809Y-124150380D02*
X151661809Y-123150380D01*
X151566571Y-123293238D01*
X151471333Y-123388476D01*
X151376095Y-123436095D01*
X152852285Y-123150380D02*
X152376095Y-123150380D01*
X152328476Y-123626571D01*
X152376095Y-123578952D01*
X152471333Y-123531333D01*
X152709428Y-123531333D01*
X152804666Y-123578952D01*
X152852285Y-123626571D01*
X152899904Y-123721809D01*
X152899904Y-123959904D01*
X152852285Y-124055142D01*
X152804666Y-124102761D01*
X152709428Y-124150380D01*
X152471333Y-124150380D01*
X152376095Y-124102761D01*
X152328476Y-124055142D01*
X154633704Y-113888780D02*
X154633704Y-112888780D01*
X154871800Y-112888780D01*
X155014657Y-112936400D01*
X155109895Y-113031638D01*
X155157514Y-113126876D01*
X155205133Y-113317352D01*
X155205133Y-113460209D01*
X155157514Y-113650685D01*
X155109895Y-113745923D01*
X155014657Y-113841161D01*
X154871800Y-113888780D01*
X154633704Y-113888780D01*
X155538466Y-112888780D02*
X156157514Y-112888780D01*
X155824180Y-113269733D01*
X155967038Y-113269733D01*
X156062276Y-113317352D01*
X156109895Y-113364971D01*
X156157514Y-113460209D01*
X156157514Y-113698304D01*
X156109895Y-113793542D01*
X156062276Y-113841161D01*
X155967038Y-113888780D01*
X155681323Y-113888780D01*
X155586085Y-113841161D01*
X155538466Y-113793542D01*
X154760704Y-117927380D02*
X154760704Y-116927380D01*
X154998800Y-116927380D01*
X155141657Y-116975000D01*
X155236895Y-117070238D01*
X155284514Y-117165476D01*
X155332133Y-117355952D01*
X155332133Y-117498809D01*
X155284514Y-117689285D01*
X155236895Y-117784523D01*
X155141657Y-117879761D01*
X154998800Y-117927380D01*
X154760704Y-117927380D01*
X156189276Y-117260714D02*
X156189276Y-117927380D01*
X155951180Y-116879761D02*
X155713085Y-117594047D01*
X156332133Y-117594047D01*
X119218761Y-109751619D02*
X119123523Y-109704000D01*
X119028285Y-109608761D01*
X118885428Y-109465904D01*
X118790190Y-109418285D01*
X118694952Y-109418285D01*
X118742571Y-109656380D02*
X118647333Y-109608761D01*
X118552095Y-109513523D01*
X118504476Y-109323047D01*
X118504476Y-108989714D01*
X118552095Y-108799238D01*
X118647333Y-108704000D01*
X118742571Y-108656380D01*
X118933047Y-108656380D01*
X119028285Y-108704000D01*
X119123523Y-108799238D01*
X119171142Y-108989714D01*
X119171142Y-109323047D01*
X119123523Y-109513523D01*
X119028285Y-109608761D01*
X118933047Y-109656380D01*
X118742571Y-109656380D01*
X120123523Y-109656380D02*
X119552095Y-109656380D01*
X119837809Y-109656380D02*
X119837809Y-108656380D01*
X119742571Y-108799238D01*
X119647333Y-108894476D01*
X119552095Y-108942095D01*
X170259619Y-101060238D02*
X170212000Y-101155476D01*
X170116761Y-101250714D01*
X169973904Y-101393571D01*
X169926285Y-101488809D01*
X169926285Y-101584047D01*
X170164380Y-101536428D02*
X170116761Y-101631666D01*
X170021523Y-101726904D01*
X169831047Y-101774523D01*
X169497714Y-101774523D01*
X169307238Y-101726904D01*
X169212000Y-101631666D01*
X169164380Y-101536428D01*
X169164380Y-101345952D01*
X169212000Y-101250714D01*
X169307238Y-101155476D01*
X169497714Y-101107857D01*
X169831047Y-101107857D01*
X170021523Y-101155476D01*
X170116761Y-101250714D01*
X170164380Y-101345952D01*
X170164380Y-101536428D01*
X169259619Y-100726904D02*
X169212000Y-100679285D01*
X169164380Y-100584047D01*
X169164380Y-100345952D01*
X169212000Y-100250714D01*
X169259619Y-100203095D01*
X169354857Y-100155476D01*
X169450095Y-100155476D01*
X169592952Y-100203095D01*
X170164380Y-100774523D01*
X170164380Y-100155476D01*
X122011142Y-117292380D02*
X121677809Y-116816190D01*
X121439714Y-117292380D02*
X121439714Y-116292380D01*
X121820666Y-116292380D01*
X121915904Y-116340000D01*
X121963523Y-116387619D01*
X122011142Y-116482857D01*
X122011142Y-116625714D01*
X121963523Y-116720952D01*
X121915904Y-116768571D01*
X121820666Y-116816190D01*
X121439714Y-116816190D01*
X122963523Y-117292380D02*
X122392095Y-117292380D01*
X122677809Y-117292380D02*
X122677809Y-116292380D01*
X122582571Y-116435238D01*
X122487333Y-116530476D01*
X122392095Y-116578095D01*
X123296857Y-116292380D02*
X123963523Y-116292380D01*
X123534952Y-117292380D01*
X171608542Y-105608380D02*
X171275209Y-105132190D01*
X171037114Y-105608380D02*
X171037114Y-104608380D01*
X171418066Y-104608380D01*
X171513304Y-104656000D01*
X171560923Y-104703619D01*
X171608542Y-104798857D01*
X171608542Y-104941714D01*
X171560923Y-105036952D01*
X171513304Y-105084571D01*
X171418066Y-105132190D01*
X171037114Y-105132190D01*
X172560923Y-105608380D02*
X171989495Y-105608380D01*
X172275209Y-105608380D02*
X172275209Y-104608380D01*
X172179971Y-104751238D01*
X172084733Y-104846476D01*
X171989495Y-104894095D01*
X173132352Y-105036952D02*
X173037114Y-104989333D01*
X172989495Y-104941714D01*
X172941876Y-104846476D01*
X172941876Y-104798857D01*
X172989495Y-104703619D01*
X173037114Y-104656000D01*
X173132352Y-104608380D01*
X173322828Y-104608380D01*
X173418066Y-104656000D01*
X173465685Y-104703619D01*
X173513304Y-104798857D01*
X173513304Y-104846476D01*
X173465685Y-104941714D01*
X173418066Y-104989333D01*
X173322828Y-105036952D01*
X173132352Y-105036952D01*
X173037114Y-105084571D01*
X172989495Y-105132190D01*
X172941876Y-105227428D01*
X172941876Y-105417904D01*
X172989495Y-105513142D01*
X173037114Y-105560761D01*
X173132352Y-105608380D01*
X173322828Y-105608380D01*
X173418066Y-105560761D01*
X173465685Y-105513142D01*
X173513304Y-105417904D01*
X173513304Y-105227428D01*
X173465685Y-105132190D01*
X173418066Y-105084571D01*
X173322828Y-105036952D01*
X119959380Y-116593857D02*
X119483190Y-116927190D01*
X119959380Y-117165285D02*
X118959380Y-117165285D01*
X118959380Y-116784333D01*
X119007000Y-116689095D01*
X119054619Y-116641476D01*
X119149857Y-116593857D01*
X119292714Y-116593857D01*
X119387952Y-116641476D01*
X119435571Y-116689095D01*
X119483190Y-116784333D01*
X119483190Y-117165285D01*
X119959380Y-115641476D02*
X119959380Y-116212904D01*
X119959380Y-115927190D02*
X118959380Y-115927190D01*
X119102238Y-116022428D01*
X119197476Y-116117666D01*
X119245095Y-116212904D01*
X119959380Y-115165285D02*
X119959380Y-114974809D01*
X119911761Y-114879571D01*
X119864142Y-114831952D01*
X119721285Y-114736714D01*
X119530809Y-114689095D01*
X119149857Y-114689095D01*
X119054619Y-114736714D01*
X119007000Y-114784333D01*
X118959380Y-114879571D01*
X118959380Y-115070047D01*
X119007000Y-115165285D01*
X119054619Y-115212904D01*
X119149857Y-115260523D01*
X119387952Y-115260523D01*
X119483190Y-115212904D01*
X119530809Y-115165285D01*
X119578428Y-115070047D01*
X119578428Y-114879571D01*
X119530809Y-114784333D01*
X119483190Y-114736714D01*
X119387952Y-114689095D01*
X171569142Y-96972380D02*
X171235809Y-96496190D01*
X170997714Y-96972380D02*
X170997714Y-95972380D01*
X171378666Y-95972380D01*
X171473904Y-96020000D01*
X171521523Y-96067619D01*
X171569142Y-96162857D01*
X171569142Y-96305714D01*
X171521523Y-96400952D01*
X171473904Y-96448571D01*
X171378666Y-96496190D01*
X170997714Y-96496190D01*
X171950095Y-96067619D02*
X171997714Y-96020000D01*
X172092952Y-95972380D01*
X172331047Y-95972380D01*
X172426285Y-96020000D01*
X172473904Y-96067619D01*
X172521523Y-96162857D01*
X172521523Y-96258095D01*
X172473904Y-96400952D01*
X171902476Y-96972380D01*
X172521523Y-96972380D01*
X173140571Y-95972380D02*
X173235809Y-95972380D01*
X173331047Y-96020000D01*
X173378666Y-96067619D01*
X173426285Y-96162857D01*
X173473904Y-96353333D01*
X173473904Y-96591428D01*
X173426285Y-96781904D01*
X173378666Y-96877142D01*
X173331047Y-96924761D01*
X173235809Y-96972380D01*
X173140571Y-96972380D01*
X173045333Y-96924761D01*
X172997714Y-96877142D01*
X172950095Y-96781904D01*
X172902476Y-96591428D01*
X172902476Y-96353333D01*
X172950095Y-96162857D01*
X172997714Y-96067619D01*
X173045333Y-96020000D01*
X173140571Y-95972380D01*
X126309380Y-119895857D02*
X125833190Y-120229190D01*
X126309380Y-120467285D02*
X125309380Y-120467285D01*
X125309380Y-120086333D01*
X125357000Y-119991095D01*
X125404619Y-119943476D01*
X125499857Y-119895857D01*
X125642714Y-119895857D01*
X125737952Y-119943476D01*
X125785571Y-119991095D01*
X125833190Y-120086333D01*
X125833190Y-120467285D01*
X125404619Y-119514904D02*
X125357000Y-119467285D01*
X125309380Y-119372047D01*
X125309380Y-119133952D01*
X125357000Y-119038714D01*
X125404619Y-118991095D01*
X125499857Y-118943476D01*
X125595095Y-118943476D01*
X125737952Y-118991095D01*
X126309380Y-119562523D01*
X126309380Y-118943476D01*
X126309380Y-117991095D02*
X126309380Y-118562523D01*
X126309380Y-118276809D02*
X125309380Y-118276809D01*
X125452238Y-118372047D01*
X125547476Y-118467285D01*
X125595095Y-118562523D01*
X167759142Y-98783380D02*
X167425809Y-98307190D01*
X167187714Y-98783380D02*
X167187714Y-97783380D01*
X167568666Y-97783380D01*
X167663904Y-97831000D01*
X167711523Y-97878619D01*
X167759142Y-97973857D01*
X167759142Y-98116714D01*
X167711523Y-98211952D01*
X167663904Y-98259571D01*
X167568666Y-98307190D01*
X167187714Y-98307190D01*
X168140095Y-97878619D02*
X168187714Y-97831000D01*
X168282952Y-97783380D01*
X168521047Y-97783380D01*
X168616285Y-97831000D01*
X168663904Y-97878619D01*
X168711523Y-97973857D01*
X168711523Y-98069095D01*
X168663904Y-98211952D01*
X168092476Y-98783380D01*
X168711523Y-98783380D01*
X169044857Y-97783380D02*
X169663904Y-97783380D01*
X169330571Y-98164333D01*
X169473428Y-98164333D01*
X169568666Y-98211952D01*
X169616285Y-98259571D01*
X169663904Y-98354809D01*
X169663904Y-98592904D01*
X169616285Y-98688142D01*
X169568666Y-98735761D01*
X169473428Y-98783380D01*
X169187714Y-98783380D01*
X169092476Y-98735761D01*
X169044857Y-98688142D01*
X127778380Y-113355285D02*
X126778380Y-113355285D01*
X126778380Y-113117190D01*
X126826000Y-112974333D01*
X126921238Y-112879095D01*
X127016476Y-112831476D01*
X127206952Y-112783857D01*
X127349809Y-112783857D01*
X127540285Y-112831476D01*
X127635523Y-112879095D01*
X127730761Y-112974333D01*
X127778380Y-113117190D01*
X127778380Y-113355285D01*
X127778380Y-111831476D02*
X127778380Y-112402904D01*
X127778380Y-112117190D02*
X126778380Y-112117190D01*
X126921238Y-112212428D01*
X127016476Y-112307666D01*
X127064095Y-112402904D01*
X126873619Y-111450523D02*
X126826000Y-111402904D01*
X126778380Y-111307666D01*
X126778380Y-111069571D01*
X126826000Y-110974333D01*
X126873619Y-110926714D01*
X126968857Y-110879095D01*
X127064095Y-110879095D01*
X127206952Y-110926714D01*
X127778380Y-111498142D01*
X127778380Y-110879095D01*
M02*
