M48
; DRILL file {KiCad (5.1.2)-1} date 8/2/2019 8:13:30 PM
; FORMAT={-:-/ absolute / inch / decimal}
; #@! TF.CreationDate,2019-08-02T20:13:30-05:00
; #@! TF.GenerationSoftware,Kicad,Pcbnew,(5.1.2)-1
; #@! TF.FileFunction,Plated,1,2,PTH
FMAT,2
INCH
T1C0.0157
T2C0.0300
T3C0.0315
T4C0.0350
T5C0.0354
T6C0.0394
T7C0.0551
T8C0.0591
T9C0.1598
%
G90
G05
T1
X4.637Y-4.54
X4.73Y-5.09
X5.0Y-4.38
X5.02Y-4.61
X5.144Y-3.094
X5.2Y-4.58
X5.22Y-2.605
X5.327Y-2.689
X5.368Y-2.7
X5.44Y-3.87
X5.45Y-3.369
X5.4981Y-4.384
X5.516Y-3.647
X5.529Y-4.636
X5.53Y-4.042
X5.553Y-2.851
X5.567Y-4.615
X5.591Y-3.4689
X5.5981Y-4.24
X5.617Y-2.883
X5.64Y-4.31
X5.64Y-4.58
X5.6539Y-4.681
X5.6539Y-4.7204
X5.6562Y-4.7597
X5.723Y-3.283
X5.75Y-3.95
X5.768Y-3.3049
X5.813Y-4.325
X5.84Y-4.0771
X5.8569Y-4.681
X5.8579Y-4.795
X5.8702Y-4.395
X5.8729Y-4.2435
X5.8819Y-4.751
X5.94Y-3.97
X5.98Y-3.57
X5.99Y-3.82
X6.07Y-3.97
X6.12Y-5.09
X6.16Y-3.97
X6.3078Y-3.895
X6.57Y-3.87
X6.68Y-4.12
X6.795Y-2.86
T2
X6.5Y-2.58
X6.6Y-2.58
X6.7Y-2.58
X6.8Y-2.58
X5.675Y-2.58
T3
X5.54Y-3.428
X5.54Y-3.728
X5.64Y-3.428
X5.64Y-3.728
X5.74Y-3.428
X5.74Y-3.728
X5.84Y-3.428
X5.84Y-3.728
X5.94Y-3.428
X5.94Y-3.728
X6.04Y-3.428
X6.04Y-3.728
X6.14Y-3.428
X6.14Y-3.728
X6.24Y-3.428
X6.24Y-3.728
X6.34Y-3.428
X6.34Y-3.728
X6.44Y-3.428
X6.44Y-3.728
X6.54Y-3.428
X6.54Y-3.728
X6.64Y-3.428
X6.64Y-3.728
X6.74Y-3.428
X6.74Y-3.728
X6.84Y-3.428
X6.84Y-3.728
X6.6966Y-3.179
X6.795Y-3.179
X6.35Y-4.03
X6.5421Y-4.03
T4
X5.1079Y-3.9926
X5.2079Y-3.9926
X5.3079Y-3.9926
X5.106Y-4.144
X5.206Y-4.144
X5.306Y-4.144
T5
X5.9409Y-2.581
X6.0409Y-2.581
X6.1409Y-2.581
X6.2409Y-2.581
X5.475Y-2.58
X5.575Y-2.58
T6
X4.588Y-3.152
X4.588Y-3.252
X4.588Y-4.852
X4.588Y-4.952
X4.688Y-3.152
X4.688Y-3.252
X4.688Y-4.852
X4.688Y-4.952
X4.788Y-3.152
X4.788Y-3.252
X4.788Y-4.852
X4.788Y-4.952
X4.888Y-3.152
X4.888Y-3.252
X4.888Y-4.852
X4.888Y-4.952
X4.988Y-3.152
X4.988Y-3.252
X4.988Y-4.852
X4.988Y-4.952
X5.088Y-3.152
X5.088Y-3.252
X5.088Y-4.852
X5.088Y-4.952
X5.188Y-3.152
X5.188Y-3.252
X5.188Y-4.852
X5.188Y-4.952
X5.288Y-3.152
X5.288Y-3.252
X5.288Y-4.852
X5.288Y-4.952
X5.388Y-3.152
X5.388Y-3.252
X5.388Y-4.852
X5.388Y-4.952
X5.488Y-3.152
X5.488Y-3.252
X5.488Y-4.852
X5.488Y-4.952
T7
X4.708Y-3.51
T8
X4.6076Y-3.4096
X4.6076Y-3.6104
X4.8084Y-3.4096
X4.8084Y-3.6104
T9
X4.801Y-3.895
X4.801Y-4.205
T0
M30
