G04 #@! TF.GenerationSoftware,KiCad,Pcbnew,(5.0.0)*
G04 #@! TF.CreationDate,2018-12-18T18:47:31-06:00*
G04 #@! TF.ProjectId,LightingBoard_Hardware,4C69676874696E67426F6172645F4861,rev?*
G04 #@! TF.SameCoordinates,Original*
G04 #@! TF.FileFunction,Copper,L1,Top,Signal*
G04 #@! TF.FilePolarity,Positive*
%FSLAX46Y46*%
G04 Gerber Fmt 4.6, Leading zero omitted, Abs format (unit mm)*
G04 Created by KiCad (PCBNEW (5.0.0)) date 12/18/18 18:47:31*
%MOMM*%
%LPD*%
G01*
G04 APERTURE LIST*
G04 #@! TA.AperFunction,ComponentPad*
%ADD10C,2.000000*%
G04 #@! TD*
G04 #@! TA.AperFunction,Conductor*
%ADD11C,0.100000*%
G04 #@! TD*
G04 #@! TA.AperFunction,SMDPad,CuDef*
%ADD12C,0.950000*%
G04 #@! TD*
G04 #@! TA.AperFunction,ComponentPad*
%ADD13C,5.080000*%
G04 #@! TD*
G04 #@! TA.AperFunction,ComponentPad*
%ADD14C,1.524000*%
G04 #@! TD*
G04 #@! TA.AperFunction,ViaPad*
%ADD15C,1.000000*%
G04 #@! TD*
G04 #@! TA.AperFunction,ViaPad*
%ADD16C,0.800000*%
G04 #@! TD*
G04 #@! TA.AperFunction,Conductor*
%ADD17C,0.381000*%
G04 #@! TD*
G04 #@! TA.AperFunction,Conductor*
%ADD18C,0.762000*%
G04 #@! TD*
G04 #@! TA.AperFunction,Conductor*
%ADD19C,1.270000*%
G04 #@! TD*
G04 #@! TA.AperFunction,Conductor*
%ADD20C,1.905000*%
G04 #@! TD*
G04 #@! TA.AperFunction,Conductor*
%ADD21C,0.250000*%
G04 #@! TD*
G04 #@! TA.AperFunction,Conductor*
%ADD22C,0.254000*%
G04 #@! TD*
G04 APERTURE END LIST*
D10*
G04 #@! TO.P,U1,12*
G04 #@! TO.N,/Headlight_V1-*
X130810000Y-83439000D03*
G04 #@! TO.P,U1,11*
X133350000Y-83439000D03*
G04 #@! TO.P,U1,13*
G04 #@! TO.N,/Headlight_V1+*
X130810000Y-98679000D03*
G04 #@! TO.P,U1,14*
X133350000Y-98679000D03*
G04 #@! TO.P,U1,21*
G04 #@! TO.N,Headlight_OnOff_PWM1*
X151416000Y-98679000D03*
G04 #@! TO.P,U1,24*
G04 #@! TO.N,+12VA*
X158496000Y-98679000D03*
G04 #@! TO.P,U1,1*
G04 #@! TO.N,GND*
X158496000Y-83439000D03*
G04 #@! TO.P,U1,23*
G04 #@! TO.N,+12VA*
X155956000Y-98679000D03*
G04 #@! TO.P,U1,2*
G04 #@! TO.N,GND*
X155956000Y-83439000D03*
G04 #@! TD*
D11*
G04 #@! TO.N,+5V*
G04 #@! TO.C,C1*
G36*
X118293779Y-49945144D02*
X118316834Y-49948563D01*
X118339443Y-49954227D01*
X118361387Y-49962079D01*
X118382457Y-49972044D01*
X118402448Y-49984026D01*
X118421168Y-49997910D01*
X118438438Y-50013562D01*
X118454090Y-50030832D01*
X118467974Y-50049552D01*
X118479956Y-50069543D01*
X118489921Y-50090613D01*
X118497773Y-50112557D01*
X118503437Y-50135166D01*
X118506856Y-50158221D01*
X118508000Y-50181500D01*
X118508000Y-50656500D01*
X118506856Y-50679779D01*
X118503437Y-50702834D01*
X118497773Y-50725443D01*
X118489921Y-50747387D01*
X118479956Y-50768457D01*
X118467974Y-50788448D01*
X118454090Y-50807168D01*
X118438438Y-50824438D01*
X118421168Y-50840090D01*
X118402448Y-50853974D01*
X118382457Y-50865956D01*
X118361387Y-50875921D01*
X118339443Y-50883773D01*
X118316834Y-50889437D01*
X118293779Y-50892856D01*
X118270500Y-50894000D01*
X117695500Y-50894000D01*
X117672221Y-50892856D01*
X117649166Y-50889437D01*
X117626557Y-50883773D01*
X117604613Y-50875921D01*
X117583543Y-50865956D01*
X117563552Y-50853974D01*
X117544832Y-50840090D01*
X117527562Y-50824438D01*
X117511910Y-50807168D01*
X117498026Y-50788448D01*
X117486044Y-50768457D01*
X117476079Y-50747387D01*
X117468227Y-50725443D01*
X117462563Y-50702834D01*
X117459144Y-50679779D01*
X117458000Y-50656500D01*
X117458000Y-50181500D01*
X117459144Y-50158221D01*
X117462563Y-50135166D01*
X117468227Y-50112557D01*
X117476079Y-50090613D01*
X117486044Y-50069543D01*
X117498026Y-50049552D01*
X117511910Y-50030832D01*
X117527562Y-50013562D01*
X117544832Y-49997910D01*
X117563552Y-49984026D01*
X117583543Y-49972044D01*
X117604613Y-49962079D01*
X117626557Y-49954227D01*
X117649166Y-49948563D01*
X117672221Y-49945144D01*
X117695500Y-49944000D01*
X118270500Y-49944000D01*
X118293779Y-49945144D01*
X118293779Y-49945144D01*
G37*
D12*
G04 #@! TD*
G04 #@! TO.P,C1,1*
G04 #@! TO.N,+5V*
X117983000Y-50419000D03*
D11*
G04 #@! TO.N,GND*
G04 #@! TO.C,C1*
G36*
X120043779Y-49945144D02*
X120066834Y-49948563D01*
X120089443Y-49954227D01*
X120111387Y-49962079D01*
X120132457Y-49972044D01*
X120152448Y-49984026D01*
X120171168Y-49997910D01*
X120188438Y-50013562D01*
X120204090Y-50030832D01*
X120217974Y-50049552D01*
X120229956Y-50069543D01*
X120239921Y-50090613D01*
X120247773Y-50112557D01*
X120253437Y-50135166D01*
X120256856Y-50158221D01*
X120258000Y-50181500D01*
X120258000Y-50656500D01*
X120256856Y-50679779D01*
X120253437Y-50702834D01*
X120247773Y-50725443D01*
X120239921Y-50747387D01*
X120229956Y-50768457D01*
X120217974Y-50788448D01*
X120204090Y-50807168D01*
X120188438Y-50824438D01*
X120171168Y-50840090D01*
X120152448Y-50853974D01*
X120132457Y-50865956D01*
X120111387Y-50875921D01*
X120089443Y-50883773D01*
X120066834Y-50889437D01*
X120043779Y-50892856D01*
X120020500Y-50894000D01*
X119445500Y-50894000D01*
X119422221Y-50892856D01*
X119399166Y-50889437D01*
X119376557Y-50883773D01*
X119354613Y-50875921D01*
X119333543Y-50865956D01*
X119313552Y-50853974D01*
X119294832Y-50840090D01*
X119277562Y-50824438D01*
X119261910Y-50807168D01*
X119248026Y-50788448D01*
X119236044Y-50768457D01*
X119226079Y-50747387D01*
X119218227Y-50725443D01*
X119212563Y-50702834D01*
X119209144Y-50679779D01*
X119208000Y-50656500D01*
X119208000Y-50181500D01*
X119209144Y-50158221D01*
X119212563Y-50135166D01*
X119218227Y-50112557D01*
X119226079Y-50090613D01*
X119236044Y-50069543D01*
X119248026Y-50049552D01*
X119261910Y-50030832D01*
X119277562Y-50013562D01*
X119294832Y-49997910D01*
X119313552Y-49984026D01*
X119333543Y-49972044D01*
X119354613Y-49962079D01*
X119376557Y-49954227D01*
X119399166Y-49948563D01*
X119422221Y-49945144D01*
X119445500Y-49944000D01*
X120020500Y-49944000D01*
X120043779Y-49945144D01*
X120043779Y-49945144D01*
G37*
D12*
G04 #@! TD*
G04 #@! TO.P,C1,2*
G04 #@! TO.N,GND*
X119733000Y-50419000D03*
D11*
G04 #@! TO.N,Net-(C2-Pad1)*
G04 #@! TO.C,C2*
G36*
X138613779Y-122843144D02*
X138636834Y-122846563D01*
X138659443Y-122852227D01*
X138681387Y-122860079D01*
X138702457Y-122870044D01*
X138722448Y-122882026D01*
X138741168Y-122895910D01*
X138758438Y-122911562D01*
X138774090Y-122928832D01*
X138787974Y-122947552D01*
X138799956Y-122967543D01*
X138809921Y-122988613D01*
X138817773Y-123010557D01*
X138823437Y-123033166D01*
X138826856Y-123056221D01*
X138828000Y-123079500D01*
X138828000Y-123554500D01*
X138826856Y-123577779D01*
X138823437Y-123600834D01*
X138817773Y-123623443D01*
X138809921Y-123645387D01*
X138799956Y-123666457D01*
X138787974Y-123686448D01*
X138774090Y-123705168D01*
X138758438Y-123722438D01*
X138741168Y-123738090D01*
X138722448Y-123751974D01*
X138702457Y-123763956D01*
X138681387Y-123773921D01*
X138659443Y-123781773D01*
X138636834Y-123787437D01*
X138613779Y-123790856D01*
X138590500Y-123792000D01*
X138015500Y-123792000D01*
X137992221Y-123790856D01*
X137969166Y-123787437D01*
X137946557Y-123781773D01*
X137924613Y-123773921D01*
X137903543Y-123763956D01*
X137883552Y-123751974D01*
X137864832Y-123738090D01*
X137847562Y-123722438D01*
X137831910Y-123705168D01*
X137818026Y-123686448D01*
X137806044Y-123666457D01*
X137796079Y-123645387D01*
X137788227Y-123623443D01*
X137782563Y-123600834D01*
X137779144Y-123577779D01*
X137778000Y-123554500D01*
X137778000Y-123079500D01*
X137779144Y-123056221D01*
X137782563Y-123033166D01*
X137788227Y-123010557D01*
X137796079Y-122988613D01*
X137806044Y-122967543D01*
X137818026Y-122947552D01*
X137831910Y-122928832D01*
X137847562Y-122911562D01*
X137864832Y-122895910D01*
X137883552Y-122882026D01*
X137903543Y-122870044D01*
X137924613Y-122860079D01*
X137946557Y-122852227D01*
X137969166Y-122846563D01*
X137992221Y-122843144D01*
X138015500Y-122842000D01*
X138590500Y-122842000D01*
X138613779Y-122843144D01*
X138613779Y-122843144D01*
G37*
D12*
G04 #@! TD*
G04 #@! TO.P,C2,1*
G04 #@! TO.N,Net-(C2-Pad1)*
X138303000Y-123317000D03*
D11*
G04 #@! TO.N,GND*
G04 #@! TO.C,C2*
G36*
X140363779Y-122843144D02*
X140386834Y-122846563D01*
X140409443Y-122852227D01*
X140431387Y-122860079D01*
X140452457Y-122870044D01*
X140472448Y-122882026D01*
X140491168Y-122895910D01*
X140508438Y-122911562D01*
X140524090Y-122928832D01*
X140537974Y-122947552D01*
X140549956Y-122967543D01*
X140559921Y-122988613D01*
X140567773Y-123010557D01*
X140573437Y-123033166D01*
X140576856Y-123056221D01*
X140578000Y-123079500D01*
X140578000Y-123554500D01*
X140576856Y-123577779D01*
X140573437Y-123600834D01*
X140567773Y-123623443D01*
X140559921Y-123645387D01*
X140549956Y-123666457D01*
X140537974Y-123686448D01*
X140524090Y-123705168D01*
X140508438Y-123722438D01*
X140491168Y-123738090D01*
X140472448Y-123751974D01*
X140452457Y-123763956D01*
X140431387Y-123773921D01*
X140409443Y-123781773D01*
X140386834Y-123787437D01*
X140363779Y-123790856D01*
X140340500Y-123792000D01*
X139765500Y-123792000D01*
X139742221Y-123790856D01*
X139719166Y-123787437D01*
X139696557Y-123781773D01*
X139674613Y-123773921D01*
X139653543Y-123763956D01*
X139633552Y-123751974D01*
X139614832Y-123738090D01*
X139597562Y-123722438D01*
X139581910Y-123705168D01*
X139568026Y-123686448D01*
X139556044Y-123666457D01*
X139546079Y-123645387D01*
X139538227Y-123623443D01*
X139532563Y-123600834D01*
X139529144Y-123577779D01*
X139528000Y-123554500D01*
X139528000Y-123079500D01*
X139529144Y-123056221D01*
X139532563Y-123033166D01*
X139538227Y-123010557D01*
X139546079Y-122988613D01*
X139556044Y-122967543D01*
X139568026Y-122947552D01*
X139581910Y-122928832D01*
X139597562Y-122911562D01*
X139614832Y-122895910D01*
X139633552Y-122882026D01*
X139653543Y-122870044D01*
X139674613Y-122860079D01*
X139696557Y-122852227D01*
X139719166Y-122846563D01*
X139742221Y-122843144D01*
X139765500Y-122842000D01*
X140340500Y-122842000D01*
X140363779Y-122843144D01*
X140363779Y-122843144D01*
G37*
D12*
G04 #@! TD*
G04 #@! TO.P,C2,2*
G04 #@! TO.N,GND*
X140053000Y-123317000D03*
D11*
G04 #@! TO.N,GND*
G04 #@! TO.C,C3*
G36*
X131783779Y-122843144D02*
X131806834Y-122846563D01*
X131829443Y-122852227D01*
X131851387Y-122860079D01*
X131872457Y-122870044D01*
X131892448Y-122882026D01*
X131911168Y-122895910D01*
X131928438Y-122911562D01*
X131944090Y-122928832D01*
X131957974Y-122947552D01*
X131969956Y-122967543D01*
X131979921Y-122988613D01*
X131987773Y-123010557D01*
X131993437Y-123033166D01*
X131996856Y-123056221D01*
X131998000Y-123079500D01*
X131998000Y-123554500D01*
X131996856Y-123577779D01*
X131993437Y-123600834D01*
X131987773Y-123623443D01*
X131979921Y-123645387D01*
X131969956Y-123666457D01*
X131957974Y-123686448D01*
X131944090Y-123705168D01*
X131928438Y-123722438D01*
X131911168Y-123738090D01*
X131892448Y-123751974D01*
X131872457Y-123763956D01*
X131851387Y-123773921D01*
X131829443Y-123781773D01*
X131806834Y-123787437D01*
X131783779Y-123790856D01*
X131760500Y-123792000D01*
X131185500Y-123792000D01*
X131162221Y-123790856D01*
X131139166Y-123787437D01*
X131116557Y-123781773D01*
X131094613Y-123773921D01*
X131073543Y-123763956D01*
X131053552Y-123751974D01*
X131034832Y-123738090D01*
X131017562Y-123722438D01*
X131001910Y-123705168D01*
X130988026Y-123686448D01*
X130976044Y-123666457D01*
X130966079Y-123645387D01*
X130958227Y-123623443D01*
X130952563Y-123600834D01*
X130949144Y-123577779D01*
X130948000Y-123554500D01*
X130948000Y-123079500D01*
X130949144Y-123056221D01*
X130952563Y-123033166D01*
X130958227Y-123010557D01*
X130966079Y-122988613D01*
X130976044Y-122967543D01*
X130988026Y-122947552D01*
X131001910Y-122928832D01*
X131017562Y-122911562D01*
X131034832Y-122895910D01*
X131053552Y-122882026D01*
X131073543Y-122870044D01*
X131094613Y-122860079D01*
X131116557Y-122852227D01*
X131139166Y-122846563D01*
X131162221Y-122843144D01*
X131185500Y-122842000D01*
X131760500Y-122842000D01*
X131783779Y-122843144D01*
X131783779Y-122843144D01*
G37*
D12*
G04 #@! TD*
G04 #@! TO.P,C3,2*
G04 #@! TO.N,GND*
X131473000Y-123317000D03*
D11*
G04 #@! TO.N,+5V*
G04 #@! TO.C,C3*
G36*
X133533779Y-122843144D02*
X133556834Y-122846563D01*
X133579443Y-122852227D01*
X133601387Y-122860079D01*
X133622457Y-122870044D01*
X133642448Y-122882026D01*
X133661168Y-122895910D01*
X133678438Y-122911562D01*
X133694090Y-122928832D01*
X133707974Y-122947552D01*
X133719956Y-122967543D01*
X133729921Y-122988613D01*
X133737773Y-123010557D01*
X133743437Y-123033166D01*
X133746856Y-123056221D01*
X133748000Y-123079500D01*
X133748000Y-123554500D01*
X133746856Y-123577779D01*
X133743437Y-123600834D01*
X133737773Y-123623443D01*
X133729921Y-123645387D01*
X133719956Y-123666457D01*
X133707974Y-123686448D01*
X133694090Y-123705168D01*
X133678438Y-123722438D01*
X133661168Y-123738090D01*
X133642448Y-123751974D01*
X133622457Y-123763956D01*
X133601387Y-123773921D01*
X133579443Y-123781773D01*
X133556834Y-123787437D01*
X133533779Y-123790856D01*
X133510500Y-123792000D01*
X132935500Y-123792000D01*
X132912221Y-123790856D01*
X132889166Y-123787437D01*
X132866557Y-123781773D01*
X132844613Y-123773921D01*
X132823543Y-123763956D01*
X132803552Y-123751974D01*
X132784832Y-123738090D01*
X132767562Y-123722438D01*
X132751910Y-123705168D01*
X132738026Y-123686448D01*
X132726044Y-123666457D01*
X132716079Y-123645387D01*
X132708227Y-123623443D01*
X132702563Y-123600834D01*
X132699144Y-123577779D01*
X132698000Y-123554500D01*
X132698000Y-123079500D01*
X132699144Y-123056221D01*
X132702563Y-123033166D01*
X132708227Y-123010557D01*
X132716079Y-122988613D01*
X132726044Y-122967543D01*
X132738026Y-122947552D01*
X132751910Y-122928832D01*
X132767562Y-122911562D01*
X132784832Y-122895910D01*
X132803552Y-122882026D01*
X132823543Y-122870044D01*
X132844613Y-122860079D01*
X132866557Y-122852227D01*
X132889166Y-122846563D01*
X132912221Y-122843144D01*
X132935500Y-122842000D01*
X133510500Y-122842000D01*
X133533779Y-122843144D01*
X133533779Y-122843144D01*
G37*
D12*
G04 #@! TD*
G04 #@! TO.P,C3,1*
G04 #@! TO.N,+5V*
X133223000Y-123317000D03*
D13*
G04 #@! TO.P,Conn1,3*
G04 #@! TO.N,Net-(C2-Pad1)*
X120294400Y-112775000D03*
G04 #@! TO.P,Conn1,2*
G04 #@! TO.N,+12VA*
X120294400Y-104776000D03*
G04 #@! TO.P,Conn1,1*
G04 #@! TO.N,GND*
X120294400Y-96775000D03*
G04 #@! TD*
D14*
G04 #@! TO.P,Conn2,1*
G04 #@! TO.N,/Headlight_V1+*
X114681000Y-69469000D03*
G04 #@! TO.P,Conn2,2*
G04 #@! TO.N,/Headlight_V1-*
X114681000Y-66929000D03*
G04 #@! TD*
G04 #@! TO.P,Conn3,2*
G04 #@! TO.N,/Headlight_V2-*
X114681000Y-57404000D03*
G04 #@! TO.P,Conn3,1*
G04 #@! TO.N,/Headlight_V2+*
X114681000Y-59944000D03*
G04 #@! TD*
G04 #@! TO.P,Conn4,1*
G04 #@! TO.N,+5V*
X114681000Y-50419000D03*
G04 #@! TO.P,Conn4,2*
G04 #@! TO.N,Net-(Conn4-Pad2)*
X114681000Y-47879000D03*
G04 #@! TO.P,Conn4,3*
G04 #@! TO.N,GND*
X114681000Y-45339000D03*
G04 #@! TD*
D11*
G04 #@! TO.N,GND*
G04 #@! TO.C,D2*
G36*
X143693779Y-43087144D02*
X143716834Y-43090563D01*
X143739443Y-43096227D01*
X143761387Y-43104079D01*
X143782457Y-43114044D01*
X143802448Y-43126026D01*
X143821168Y-43139910D01*
X143838438Y-43155562D01*
X143854090Y-43172832D01*
X143867974Y-43191552D01*
X143879956Y-43211543D01*
X143889921Y-43232613D01*
X143897773Y-43254557D01*
X143903437Y-43277166D01*
X143906856Y-43300221D01*
X143908000Y-43323500D01*
X143908000Y-43798500D01*
X143906856Y-43821779D01*
X143903437Y-43844834D01*
X143897773Y-43867443D01*
X143889921Y-43889387D01*
X143879956Y-43910457D01*
X143867974Y-43930448D01*
X143854090Y-43949168D01*
X143838438Y-43966438D01*
X143821168Y-43982090D01*
X143802448Y-43995974D01*
X143782457Y-44007956D01*
X143761387Y-44017921D01*
X143739443Y-44025773D01*
X143716834Y-44031437D01*
X143693779Y-44034856D01*
X143670500Y-44036000D01*
X143095500Y-44036000D01*
X143072221Y-44034856D01*
X143049166Y-44031437D01*
X143026557Y-44025773D01*
X143004613Y-44017921D01*
X142983543Y-44007956D01*
X142963552Y-43995974D01*
X142944832Y-43982090D01*
X142927562Y-43966438D01*
X142911910Y-43949168D01*
X142898026Y-43930448D01*
X142886044Y-43910457D01*
X142876079Y-43889387D01*
X142868227Y-43867443D01*
X142862563Y-43844834D01*
X142859144Y-43821779D01*
X142858000Y-43798500D01*
X142858000Y-43323500D01*
X142859144Y-43300221D01*
X142862563Y-43277166D01*
X142868227Y-43254557D01*
X142876079Y-43232613D01*
X142886044Y-43211543D01*
X142898026Y-43191552D01*
X142911910Y-43172832D01*
X142927562Y-43155562D01*
X142944832Y-43139910D01*
X142963552Y-43126026D01*
X142983543Y-43114044D01*
X143004613Y-43104079D01*
X143026557Y-43096227D01*
X143049166Y-43090563D01*
X143072221Y-43087144D01*
X143095500Y-43086000D01*
X143670500Y-43086000D01*
X143693779Y-43087144D01*
X143693779Y-43087144D01*
G37*
D12*
G04 #@! TD*
G04 #@! TO.P,D2,1*
G04 #@! TO.N,GND*
X143383000Y-43561000D03*
D11*
G04 #@! TO.N,Net-(D2-Pad2)*
G04 #@! TO.C,D2*
G36*
X141943779Y-43087144D02*
X141966834Y-43090563D01*
X141989443Y-43096227D01*
X142011387Y-43104079D01*
X142032457Y-43114044D01*
X142052448Y-43126026D01*
X142071168Y-43139910D01*
X142088438Y-43155562D01*
X142104090Y-43172832D01*
X142117974Y-43191552D01*
X142129956Y-43211543D01*
X142139921Y-43232613D01*
X142147773Y-43254557D01*
X142153437Y-43277166D01*
X142156856Y-43300221D01*
X142158000Y-43323500D01*
X142158000Y-43798500D01*
X142156856Y-43821779D01*
X142153437Y-43844834D01*
X142147773Y-43867443D01*
X142139921Y-43889387D01*
X142129956Y-43910457D01*
X142117974Y-43930448D01*
X142104090Y-43949168D01*
X142088438Y-43966438D01*
X142071168Y-43982090D01*
X142052448Y-43995974D01*
X142032457Y-44007956D01*
X142011387Y-44017921D01*
X141989443Y-44025773D01*
X141966834Y-44031437D01*
X141943779Y-44034856D01*
X141920500Y-44036000D01*
X141345500Y-44036000D01*
X141322221Y-44034856D01*
X141299166Y-44031437D01*
X141276557Y-44025773D01*
X141254613Y-44017921D01*
X141233543Y-44007956D01*
X141213552Y-43995974D01*
X141194832Y-43982090D01*
X141177562Y-43966438D01*
X141161910Y-43949168D01*
X141148026Y-43930448D01*
X141136044Y-43910457D01*
X141126079Y-43889387D01*
X141118227Y-43867443D01*
X141112563Y-43844834D01*
X141109144Y-43821779D01*
X141108000Y-43798500D01*
X141108000Y-43323500D01*
X141109144Y-43300221D01*
X141112563Y-43277166D01*
X141118227Y-43254557D01*
X141126079Y-43232613D01*
X141136044Y-43211543D01*
X141148026Y-43191552D01*
X141161910Y-43172832D01*
X141177562Y-43155562D01*
X141194832Y-43139910D01*
X141213552Y-43126026D01*
X141233543Y-43114044D01*
X141254613Y-43104079D01*
X141276557Y-43096227D01*
X141299166Y-43090563D01*
X141322221Y-43087144D01*
X141345500Y-43086000D01*
X141920500Y-43086000D01*
X141943779Y-43087144D01*
X141943779Y-43087144D01*
G37*
D12*
G04 #@! TD*
G04 #@! TO.P,D2,2*
G04 #@! TO.N,Net-(D2-Pad2)*
X141633000Y-43561000D03*
D11*
G04 #@! TO.N,Net-(D3-Pad2)*
G04 #@! TO.C,D3*
G36*
X150424779Y-43087144D02*
X150447834Y-43090563D01*
X150470443Y-43096227D01*
X150492387Y-43104079D01*
X150513457Y-43114044D01*
X150533448Y-43126026D01*
X150552168Y-43139910D01*
X150569438Y-43155562D01*
X150585090Y-43172832D01*
X150598974Y-43191552D01*
X150610956Y-43211543D01*
X150620921Y-43232613D01*
X150628773Y-43254557D01*
X150634437Y-43277166D01*
X150637856Y-43300221D01*
X150639000Y-43323500D01*
X150639000Y-43798500D01*
X150637856Y-43821779D01*
X150634437Y-43844834D01*
X150628773Y-43867443D01*
X150620921Y-43889387D01*
X150610956Y-43910457D01*
X150598974Y-43930448D01*
X150585090Y-43949168D01*
X150569438Y-43966438D01*
X150552168Y-43982090D01*
X150533448Y-43995974D01*
X150513457Y-44007956D01*
X150492387Y-44017921D01*
X150470443Y-44025773D01*
X150447834Y-44031437D01*
X150424779Y-44034856D01*
X150401500Y-44036000D01*
X149826500Y-44036000D01*
X149803221Y-44034856D01*
X149780166Y-44031437D01*
X149757557Y-44025773D01*
X149735613Y-44017921D01*
X149714543Y-44007956D01*
X149694552Y-43995974D01*
X149675832Y-43982090D01*
X149658562Y-43966438D01*
X149642910Y-43949168D01*
X149629026Y-43930448D01*
X149617044Y-43910457D01*
X149607079Y-43889387D01*
X149599227Y-43867443D01*
X149593563Y-43844834D01*
X149590144Y-43821779D01*
X149589000Y-43798500D01*
X149589000Y-43323500D01*
X149590144Y-43300221D01*
X149593563Y-43277166D01*
X149599227Y-43254557D01*
X149607079Y-43232613D01*
X149617044Y-43211543D01*
X149629026Y-43191552D01*
X149642910Y-43172832D01*
X149658562Y-43155562D01*
X149675832Y-43139910D01*
X149694552Y-43126026D01*
X149714543Y-43114044D01*
X149735613Y-43104079D01*
X149757557Y-43096227D01*
X149780166Y-43090563D01*
X149803221Y-43087144D01*
X149826500Y-43086000D01*
X150401500Y-43086000D01*
X150424779Y-43087144D01*
X150424779Y-43087144D01*
G37*
D12*
G04 #@! TD*
G04 #@! TO.P,D3,2*
G04 #@! TO.N,Net-(D3-Pad2)*
X150114000Y-43561000D03*
D11*
G04 #@! TO.N,GND*
G04 #@! TO.C,D3*
G36*
X152174779Y-43087144D02*
X152197834Y-43090563D01*
X152220443Y-43096227D01*
X152242387Y-43104079D01*
X152263457Y-43114044D01*
X152283448Y-43126026D01*
X152302168Y-43139910D01*
X152319438Y-43155562D01*
X152335090Y-43172832D01*
X152348974Y-43191552D01*
X152360956Y-43211543D01*
X152370921Y-43232613D01*
X152378773Y-43254557D01*
X152384437Y-43277166D01*
X152387856Y-43300221D01*
X152389000Y-43323500D01*
X152389000Y-43798500D01*
X152387856Y-43821779D01*
X152384437Y-43844834D01*
X152378773Y-43867443D01*
X152370921Y-43889387D01*
X152360956Y-43910457D01*
X152348974Y-43930448D01*
X152335090Y-43949168D01*
X152319438Y-43966438D01*
X152302168Y-43982090D01*
X152283448Y-43995974D01*
X152263457Y-44007956D01*
X152242387Y-44017921D01*
X152220443Y-44025773D01*
X152197834Y-44031437D01*
X152174779Y-44034856D01*
X152151500Y-44036000D01*
X151576500Y-44036000D01*
X151553221Y-44034856D01*
X151530166Y-44031437D01*
X151507557Y-44025773D01*
X151485613Y-44017921D01*
X151464543Y-44007956D01*
X151444552Y-43995974D01*
X151425832Y-43982090D01*
X151408562Y-43966438D01*
X151392910Y-43949168D01*
X151379026Y-43930448D01*
X151367044Y-43910457D01*
X151357079Y-43889387D01*
X151349227Y-43867443D01*
X151343563Y-43844834D01*
X151340144Y-43821779D01*
X151339000Y-43798500D01*
X151339000Y-43323500D01*
X151340144Y-43300221D01*
X151343563Y-43277166D01*
X151349227Y-43254557D01*
X151357079Y-43232613D01*
X151367044Y-43211543D01*
X151379026Y-43191552D01*
X151392910Y-43172832D01*
X151408562Y-43155562D01*
X151425832Y-43139910D01*
X151444552Y-43126026D01*
X151464543Y-43114044D01*
X151485613Y-43104079D01*
X151507557Y-43096227D01*
X151530166Y-43090563D01*
X151553221Y-43087144D01*
X151576500Y-43086000D01*
X152151500Y-43086000D01*
X152174779Y-43087144D01*
X152174779Y-43087144D01*
G37*
D12*
G04 #@! TD*
G04 #@! TO.P,D3,1*
G04 #@! TO.N,GND*
X151864000Y-43561000D03*
D11*
G04 #@! TO.N,GND*
G04 #@! TO.C,D4*
G36*
X160683779Y-43087144D02*
X160706834Y-43090563D01*
X160729443Y-43096227D01*
X160751387Y-43104079D01*
X160772457Y-43114044D01*
X160792448Y-43126026D01*
X160811168Y-43139910D01*
X160828438Y-43155562D01*
X160844090Y-43172832D01*
X160857974Y-43191552D01*
X160869956Y-43211543D01*
X160879921Y-43232613D01*
X160887773Y-43254557D01*
X160893437Y-43277166D01*
X160896856Y-43300221D01*
X160898000Y-43323500D01*
X160898000Y-43798500D01*
X160896856Y-43821779D01*
X160893437Y-43844834D01*
X160887773Y-43867443D01*
X160879921Y-43889387D01*
X160869956Y-43910457D01*
X160857974Y-43930448D01*
X160844090Y-43949168D01*
X160828438Y-43966438D01*
X160811168Y-43982090D01*
X160792448Y-43995974D01*
X160772457Y-44007956D01*
X160751387Y-44017921D01*
X160729443Y-44025773D01*
X160706834Y-44031437D01*
X160683779Y-44034856D01*
X160660500Y-44036000D01*
X160085500Y-44036000D01*
X160062221Y-44034856D01*
X160039166Y-44031437D01*
X160016557Y-44025773D01*
X159994613Y-44017921D01*
X159973543Y-44007956D01*
X159953552Y-43995974D01*
X159934832Y-43982090D01*
X159917562Y-43966438D01*
X159901910Y-43949168D01*
X159888026Y-43930448D01*
X159876044Y-43910457D01*
X159866079Y-43889387D01*
X159858227Y-43867443D01*
X159852563Y-43844834D01*
X159849144Y-43821779D01*
X159848000Y-43798500D01*
X159848000Y-43323500D01*
X159849144Y-43300221D01*
X159852563Y-43277166D01*
X159858227Y-43254557D01*
X159866079Y-43232613D01*
X159876044Y-43211543D01*
X159888026Y-43191552D01*
X159901910Y-43172832D01*
X159917562Y-43155562D01*
X159934832Y-43139910D01*
X159953552Y-43126026D01*
X159973543Y-43114044D01*
X159994613Y-43104079D01*
X160016557Y-43096227D01*
X160039166Y-43090563D01*
X160062221Y-43087144D01*
X160085500Y-43086000D01*
X160660500Y-43086000D01*
X160683779Y-43087144D01*
X160683779Y-43087144D01*
G37*
D12*
G04 #@! TD*
G04 #@! TO.P,D4,1*
G04 #@! TO.N,GND*
X160373000Y-43561000D03*
D11*
G04 #@! TO.N,Net-(D4-Pad2)*
G04 #@! TO.C,D4*
G36*
X158933779Y-43087144D02*
X158956834Y-43090563D01*
X158979443Y-43096227D01*
X159001387Y-43104079D01*
X159022457Y-43114044D01*
X159042448Y-43126026D01*
X159061168Y-43139910D01*
X159078438Y-43155562D01*
X159094090Y-43172832D01*
X159107974Y-43191552D01*
X159119956Y-43211543D01*
X159129921Y-43232613D01*
X159137773Y-43254557D01*
X159143437Y-43277166D01*
X159146856Y-43300221D01*
X159148000Y-43323500D01*
X159148000Y-43798500D01*
X159146856Y-43821779D01*
X159143437Y-43844834D01*
X159137773Y-43867443D01*
X159129921Y-43889387D01*
X159119956Y-43910457D01*
X159107974Y-43930448D01*
X159094090Y-43949168D01*
X159078438Y-43966438D01*
X159061168Y-43982090D01*
X159042448Y-43995974D01*
X159022457Y-44007956D01*
X159001387Y-44017921D01*
X158979443Y-44025773D01*
X158956834Y-44031437D01*
X158933779Y-44034856D01*
X158910500Y-44036000D01*
X158335500Y-44036000D01*
X158312221Y-44034856D01*
X158289166Y-44031437D01*
X158266557Y-44025773D01*
X158244613Y-44017921D01*
X158223543Y-44007956D01*
X158203552Y-43995974D01*
X158184832Y-43982090D01*
X158167562Y-43966438D01*
X158151910Y-43949168D01*
X158138026Y-43930448D01*
X158126044Y-43910457D01*
X158116079Y-43889387D01*
X158108227Y-43867443D01*
X158102563Y-43844834D01*
X158099144Y-43821779D01*
X158098000Y-43798500D01*
X158098000Y-43323500D01*
X158099144Y-43300221D01*
X158102563Y-43277166D01*
X158108227Y-43254557D01*
X158116079Y-43232613D01*
X158126044Y-43211543D01*
X158138026Y-43191552D01*
X158151910Y-43172832D01*
X158167562Y-43155562D01*
X158184832Y-43139910D01*
X158203552Y-43126026D01*
X158223543Y-43114044D01*
X158244613Y-43104079D01*
X158266557Y-43096227D01*
X158289166Y-43090563D01*
X158312221Y-43087144D01*
X158335500Y-43086000D01*
X158910500Y-43086000D01*
X158933779Y-43087144D01*
X158933779Y-43087144D01*
G37*
D12*
G04 #@! TD*
G04 #@! TO.P,D4,2*
G04 #@! TO.N,Net-(D4-Pad2)*
X158623000Y-43561000D03*
D11*
G04 #@! TO.N,Net-(Conn4-Pad2)*
G04 #@! TO.C,R1*
G36*
X118293779Y-47405144D02*
X118316834Y-47408563D01*
X118339443Y-47414227D01*
X118361387Y-47422079D01*
X118382457Y-47432044D01*
X118402448Y-47444026D01*
X118421168Y-47457910D01*
X118438438Y-47473562D01*
X118454090Y-47490832D01*
X118467974Y-47509552D01*
X118479956Y-47529543D01*
X118489921Y-47550613D01*
X118497773Y-47572557D01*
X118503437Y-47595166D01*
X118506856Y-47618221D01*
X118508000Y-47641500D01*
X118508000Y-48116500D01*
X118506856Y-48139779D01*
X118503437Y-48162834D01*
X118497773Y-48185443D01*
X118489921Y-48207387D01*
X118479956Y-48228457D01*
X118467974Y-48248448D01*
X118454090Y-48267168D01*
X118438438Y-48284438D01*
X118421168Y-48300090D01*
X118402448Y-48313974D01*
X118382457Y-48325956D01*
X118361387Y-48335921D01*
X118339443Y-48343773D01*
X118316834Y-48349437D01*
X118293779Y-48352856D01*
X118270500Y-48354000D01*
X117695500Y-48354000D01*
X117672221Y-48352856D01*
X117649166Y-48349437D01*
X117626557Y-48343773D01*
X117604613Y-48335921D01*
X117583543Y-48325956D01*
X117563552Y-48313974D01*
X117544832Y-48300090D01*
X117527562Y-48284438D01*
X117511910Y-48267168D01*
X117498026Y-48248448D01*
X117486044Y-48228457D01*
X117476079Y-48207387D01*
X117468227Y-48185443D01*
X117462563Y-48162834D01*
X117459144Y-48139779D01*
X117458000Y-48116500D01*
X117458000Y-47641500D01*
X117459144Y-47618221D01*
X117462563Y-47595166D01*
X117468227Y-47572557D01*
X117476079Y-47550613D01*
X117486044Y-47529543D01*
X117498026Y-47509552D01*
X117511910Y-47490832D01*
X117527562Y-47473562D01*
X117544832Y-47457910D01*
X117563552Y-47444026D01*
X117583543Y-47432044D01*
X117604613Y-47422079D01*
X117626557Y-47414227D01*
X117649166Y-47408563D01*
X117672221Y-47405144D01*
X117695500Y-47404000D01*
X118270500Y-47404000D01*
X118293779Y-47405144D01*
X118293779Y-47405144D01*
G37*
D12*
G04 #@! TD*
G04 #@! TO.P,R1,1*
G04 #@! TO.N,Net-(Conn4-Pad2)*
X117983000Y-47879000D03*
D11*
G04 #@! TO.N,Dout_NeoPixel*
G04 #@! TO.C,R1*
G36*
X120043779Y-47405144D02*
X120066834Y-47408563D01*
X120089443Y-47414227D01*
X120111387Y-47422079D01*
X120132457Y-47432044D01*
X120152448Y-47444026D01*
X120171168Y-47457910D01*
X120188438Y-47473562D01*
X120204090Y-47490832D01*
X120217974Y-47509552D01*
X120229956Y-47529543D01*
X120239921Y-47550613D01*
X120247773Y-47572557D01*
X120253437Y-47595166D01*
X120256856Y-47618221D01*
X120258000Y-47641500D01*
X120258000Y-48116500D01*
X120256856Y-48139779D01*
X120253437Y-48162834D01*
X120247773Y-48185443D01*
X120239921Y-48207387D01*
X120229956Y-48228457D01*
X120217974Y-48248448D01*
X120204090Y-48267168D01*
X120188438Y-48284438D01*
X120171168Y-48300090D01*
X120152448Y-48313974D01*
X120132457Y-48325956D01*
X120111387Y-48335921D01*
X120089443Y-48343773D01*
X120066834Y-48349437D01*
X120043779Y-48352856D01*
X120020500Y-48354000D01*
X119445500Y-48354000D01*
X119422221Y-48352856D01*
X119399166Y-48349437D01*
X119376557Y-48343773D01*
X119354613Y-48335921D01*
X119333543Y-48325956D01*
X119313552Y-48313974D01*
X119294832Y-48300090D01*
X119277562Y-48284438D01*
X119261910Y-48267168D01*
X119248026Y-48248448D01*
X119236044Y-48228457D01*
X119226079Y-48207387D01*
X119218227Y-48185443D01*
X119212563Y-48162834D01*
X119209144Y-48139779D01*
X119208000Y-48116500D01*
X119208000Y-47641500D01*
X119209144Y-47618221D01*
X119212563Y-47595166D01*
X119218227Y-47572557D01*
X119226079Y-47550613D01*
X119236044Y-47529543D01*
X119248026Y-47509552D01*
X119261910Y-47490832D01*
X119277562Y-47473562D01*
X119294832Y-47457910D01*
X119313552Y-47444026D01*
X119333543Y-47432044D01*
X119354613Y-47422079D01*
X119376557Y-47414227D01*
X119399166Y-47408563D01*
X119422221Y-47405144D01*
X119445500Y-47404000D01*
X120020500Y-47404000D01*
X120043779Y-47405144D01*
X120043779Y-47405144D01*
G37*
D12*
G04 #@! TD*
G04 #@! TO.P,R1,2*
G04 #@! TO.N,Dout_NeoPixel*
X119733000Y-47879000D03*
D11*
G04 #@! TO.N,Net-(D2-Pad2)*
G04 #@! TO.C,R2*
G36*
X139728779Y-43087144D02*
X139751834Y-43090563D01*
X139774443Y-43096227D01*
X139796387Y-43104079D01*
X139817457Y-43114044D01*
X139837448Y-43126026D01*
X139856168Y-43139910D01*
X139873438Y-43155562D01*
X139889090Y-43172832D01*
X139902974Y-43191552D01*
X139914956Y-43211543D01*
X139924921Y-43232613D01*
X139932773Y-43254557D01*
X139938437Y-43277166D01*
X139941856Y-43300221D01*
X139943000Y-43323500D01*
X139943000Y-43798500D01*
X139941856Y-43821779D01*
X139938437Y-43844834D01*
X139932773Y-43867443D01*
X139924921Y-43889387D01*
X139914956Y-43910457D01*
X139902974Y-43930448D01*
X139889090Y-43949168D01*
X139873438Y-43966438D01*
X139856168Y-43982090D01*
X139837448Y-43995974D01*
X139817457Y-44007956D01*
X139796387Y-44017921D01*
X139774443Y-44025773D01*
X139751834Y-44031437D01*
X139728779Y-44034856D01*
X139705500Y-44036000D01*
X139130500Y-44036000D01*
X139107221Y-44034856D01*
X139084166Y-44031437D01*
X139061557Y-44025773D01*
X139039613Y-44017921D01*
X139018543Y-44007956D01*
X138998552Y-43995974D01*
X138979832Y-43982090D01*
X138962562Y-43966438D01*
X138946910Y-43949168D01*
X138933026Y-43930448D01*
X138921044Y-43910457D01*
X138911079Y-43889387D01*
X138903227Y-43867443D01*
X138897563Y-43844834D01*
X138894144Y-43821779D01*
X138893000Y-43798500D01*
X138893000Y-43323500D01*
X138894144Y-43300221D01*
X138897563Y-43277166D01*
X138903227Y-43254557D01*
X138911079Y-43232613D01*
X138921044Y-43211543D01*
X138933026Y-43191552D01*
X138946910Y-43172832D01*
X138962562Y-43155562D01*
X138979832Y-43139910D01*
X138998552Y-43126026D01*
X139018543Y-43114044D01*
X139039613Y-43104079D01*
X139061557Y-43096227D01*
X139084166Y-43090563D01*
X139107221Y-43087144D01*
X139130500Y-43086000D01*
X139705500Y-43086000D01*
X139728779Y-43087144D01*
X139728779Y-43087144D01*
G37*
D12*
G04 #@! TD*
G04 #@! TO.P,R2,2*
G04 #@! TO.N,Net-(D2-Pad2)*
X139418000Y-43561000D03*
D11*
G04 #@! TO.N,+5V*
G04 #@! TO.C,R2*
G36*
X137978779Y-43087144D02*
X138001834Y-43090563D01*
X138024443Y-43096227D01*
X138046387Y-43104079D01*
X138067457Y-43114044D01*
X138087448Y-43126026D01*
X138106168Y-43139910D01*
X138123438Y-43155562D01*
X138139090Y-43172832D01*
X138152974Y-43191552D01*
X138164956Y-43211543D01*
X138174921Y-43232613D01*
X138182773Y-43254557D01*
X138188437Y-43277166D01*
X138191856Y-43300221D01*
X138193000Y-43323500D01*
X138193000Y-43798500D01*
X138191856Y-43821779D01*
X138188437Y-43844834D01*
X138182773Y-43867443D01*
X138174921Y-43889387D01*
X138164956Y-43910457D01*
X138152974Y-43930448D01*
X138139090Y-43949168D01*
X138123438Y-43966438D01*
X138106168Y-43982090D01*
X138087448Y-43995974D01*
X138067457Y-44007956D01*
X138046387Y-44017921D01*
X138024443Y-44025773D01*
X138001834Y-44031437D01*
X137978779Y-44034856D01*
X137955500Y-44036000D01*
X137380500Y-44036000D01*
X137357221Y-44034856D01*
X137334166Y-44031437D01*
X137311557Y-44025773D01*
X137289613Y-44017921D01*
X137268543Y-44007956D01*
X137248552Y-43995974D01*
X137229832Y-43982090D01*
X137212562Y-43966438D01*
X137196910Y-43949168D01*
X137183026Y-43930448D01*
X137171044Y-43910457D01*
X137161079Y-43889387D01*
X137153227Y-43867443D01*
X137147563Y-43844834D01*
X137144144Y-43821779D01*
X137143000Y-43798500D01*
X137143000Y-43323500D01*
X137144144Y-43300221D01*
X137147563Y-43277166D01*
X137153227Y-43254557D01*
X137161079Y-43232613D01*
X137171044Y-43211543D01*
X137183026Y-43191552D01*
X137196910Y-43172832D01*
X137212562Y-43155562D01*
X137229832Y-43139910D01*
X137248552Y-43126026D01*
X137268543Y-43114044D01*
X137289613Y-43104079D01*
X137311557Y-43096227D01*
X137334166Y-43090563D01*
X137357221Y-43087144D01*
X137380500Y-43086000D01*
X137955500Y-43086000D01*
X137978779Y-43087144D01*
X137978779Y-43087144D01*
G37*
D12*
G04 #@! TD*
G04 #@! TO.P,R2,1*
G04 #@! TO.N,+5V*
X137668000Y-43561000D03*
D11*
G04 #@! TO.N,Dout_NeoPixel*
G04 #@! TO.C,R3*
G36*
X146515779Y-43087144D02*
X146538834Y-43090563D01*
X146561443Y-43096227D01*
X146583387Y-43104079D01*
X146604457Y-43114044D01*
X146624448Y-43126026D01*
X146643168Y-43139910D01*
X146660438Y-43155562D01*
X146676090Y-43172832D01*
X146689974Y-43191552D01*
X146701956Y-43211543D01*
X146711921Y-43232613D01*
X146719773Y-43254557D01*
X146725437Y-43277166D01*
X146728856Y-43300221D01*
X146730000Y-43323500D01*
X146730000Y-43798500D01*
X146728856Y-43821779D01*
X146725437Y-43844834D01*
X146719773Y-43867443D01*
X146711921Y-43889387D01*
X146701956Y-43910457D01*
X146689974Y-43930448D01*
X146676090Y-43949168D01*
X146660438Y-43966438D01*
X146643168Y-43982090D01*
X146624448Y-43995974D01*
X146604457Y-44007956D01*
X146583387Y-44017921D01*
X146561443Y-44025773D01*
X146538834Y-44031437D01*
X146515779Y-44034856D01*
X146492500Y-44036000D01*
X145917500Y-44036000D01*
X145894221Y-44034856D01*
X145871166Y-44031437D01*
X145848557Y-44025773D01*
X145826613Y-44017921D01*
X145805543Y-44007956D01*
X145785552Y-43995974D01*
X145766832Y-43982090D01*
X145749562Y-43966438D01*
X145733910Y-43949168D01*
X145720026Y-43930448D01*
X145708044Y-43910457D01*
X145698079Y-43889387D01*
X145690227Y-43867443D01*
X145684563Y-43844834D01*
X145681144Y-43821779D01*
X145680000Y-43798500D01*
X145680000Y-43323500D01*
X145681144Y-43300221D01*
X145684563Y-43277166D01*
X145690227Y-43254557D01*
X145698079Y-43232613D01*
X145708044Y-43211543D01*
X145720026Y-43191552D01*
X145733910Y-43172832D01*
X145749562Y-43155562D01*
X145766832Y-43139910D01*
X145785552Y-43126026D01*
X145805543Y-43114044D01*
X145826613Y-43104079D01*
X145848557Y-43096227D01*
X145871166Y-43090563D01*
X145894221Y-43087144D01*
X145917500Y-43086000D01*
X146492500Y-43086000D01*
X146515779Y-43087144D01*
X146515779Y-43087144D01*
G37*
D12*
G04 #@! TD*
G04 #@! TO.P,R3,1*
G04 #@! TO.N,Dout_NeoPixel*
X146205000Y-43561000D03*
D11*
G04 #@! TO.N,Net-(D3-Pad2)*
G04 #@! TO.C,R3*
G36*
X148265779Y-43087144D02*
X148288834Y-43090563D01*
X148311443Y-43096227D01*
X148333387Y-43104079D01*
X148354457Y-43114044D01*
X148374448Y-43126026D01*
X148393168Y-43139910D01*
X148410438Y-43155562D01*
X148426090Y-43172832D01*
X148439974Y-43191552D01*
X148451956Y-43211543D01*
X148461921Y-43232613D01*
X148469773Y-43254557D01*
X148475437Y-43277166D01*
X148478856Y-43300221D01*
X148480000Y-43323500D01*
X148480000Y-43798500D01*
X148478856Y-43821779D01*
X148475437Y-43844834D01*
X148469773Y-43867443D01*
X148461921Y-43889387D01*
X148451956Y-43910457D01*
X148439974Y-43930448D01*
X148426090Y-43949168D01*
X148410438Y-43966438D01*
X148393168Y-43982090D01*
X148374448Y-43995974D01*
X148354457Y-44007956D01*
X148333387Y-44017921D01*
X148311443Y-44025773D01*
X148288834Y-44031437D01*
X148265779Y-44034856D01*
X148242500Y-44036000D01*
X147667500Y-44036000D01*
X147644221Y-44034856D01*
X147621166Y-44031437D01*
X147598557Y-44025773D01*
X147576613Y-44017921D01*
X147555543Y-44007956D01*
X147535552Y-43995974D01*
X147516832Y-43982090D01*
X147499562Y-43966438D01*
X147483910Y-43949168D01*
X147470026Y-43930448D01*
X147458044Y-43910457D01*
X147448079Y-43889387D01*
X147440227Y-43867443D01*
X147434563Y-43844834D01*
X147431144Y-43821779D01*
X147430000Y-43798500D01*
X147430000Y-43323500D01*
X147431144Y-43300221D01*
X147434563Y-43277166D01*
X147440227Y-43254557D01*
X147448079Y-43232613D01*
X147458044Y-43211543D01*
X147470026Y-43191552D01*
X147483910Y-43172832D01*
X147499562Y-43155562D01*
X147516832Y-43139910D01*
X147535552Y-43126026D01*
X147555543Y-43114044D01*
X147576613Y-43104079D01*
X147598557Y-43096227D01*
X147621166Y-43090563D01*
X147644221Y-43087144D01*
X147667500Y-43086000D01*
X148242500Y-43086000D01*
X148265779Y-43087144D01*
X148265779Y-43087144D01*
G37*
D12*
G04 #@! TD*
G04 #@! TO.P,R3,2*
G04 #@! TO.N,Net-(D3-Pad2)*
X147955000Y-43561000D03*
D11*
G04 #@! TO.N,Net-(D4-Pad2)*
G04 #@! TO.C,R4*
G36*
X156774779Y-43087144D02*
X156797834Y-43090563D01*
X156820443Y-43096227D01*
X156842387Y-43104079D01*
X156863457Y-43114044D01*
X156883448Y-43126026D01*
X156902168Y-43139910D01*
X156919438Y-43155562D01*
X156935090Y-43172832D01*
X156948974Y-43191552D01*
X156960956Y-43211543D01*
X156970921Y-43232613D01*
X156978773Y-43254557D01*
X156984437Y-43277166D01*
X156987856Y-43300221D01*
X156989000Y-43323500D01*
X156989000Y-43798500D01*
X156987856Y-43821779D01*
X156984437Y-43844834D01*
X156978773Y-43867443D01*
X156970921Y-43889387D01*
X156960956Y-43910457D01*
X156948974Y-43930448D01*
X156935090Y-43949168D01*
X156919438Y-43966438D01*
X156902168Y-43982090D01*
X156883448Y-43995974D01*
X156863457Y-44007956D01*
X156842387Y-44017921D01*
X156820443Y-44025773D01*
X156797834Y-44031437D01*
X156774779Y-44034856D01*
X156751500Y-44036000D01*
X156176500Y-44036000D01*
X156153221Y-44034856D01*
X156130166Y-44031437D01*
X156107557Y-44025773D01*
X156085613Y-44017921D01*
X156064543Y-44007956D01*
X156044552Y-43995974D01*
X156025832Y-43982090D01*
X156008562Y-43966438D01*
X155992910Y-43949168D01*
X155979026Y-43930448D01*
X155967044Y-43910457D01*
X155957079Y-43889387D01*
X155949227Y-43867443D01*
X155943563Y-43844834D01*
X155940144Y-43821779D01*
X155939000Y-43798500D01*
X155939000Y-43323500D01*
X155940144Y-43300221D01*
X155943563Y-43277166D01*
X155949227Y-43254557D01*
X155957079Y-43232613D01*
X155967044Y-43211543D01*
X155979026Y-43191552D01*
X155992910Y-43172832D01*
X156008562Y-43155562D01*
X156025832Y-43139910D01*
X156044552Y-43126026D01*
X156064543Y-43114044D01*
X156085613Y-43104079D01*
X156107557Y-43096227D01*
X156130166Y-43090563D01*
X156153221Y-43087144D01*
X156176500Y-43086000D01*
X156751500Y-43086000D01*
X156774779Y-43087144D01*
X156774779Y-43087144D01*
G37*
D12*
G04 #@! TD*
G04 #@! TO.P,R4,2*
G04 #@! TO.N,Net-(D4-Pad2)*
X156464000Y-43561000D03*
D11*
G04 #@! TO.N,Headlight_OnOff_PWM1*
G04 #@! TO.C,R4*
G36*
X155024779Y-43087144D02*
X155047834Y-43090563D01*
X155070443Y-43096227D01*
X155092387Y-43104079D01*
X155113457Y-43114044D01*
X155133448Y-43126026D01*
X155152168Y-43139910D01*
X155169438Y-43155562D01*
X155185090Y-43172832D01*
X155198974Y-43191552D01*
X155210956Y-43211543D01*
X155220921Y-43232613D01*
X155228773Y-43254557D01*
X155234437Y-43277166D01*
X155237856Y-43300221D01*
X155239000Y-43323500D01*
X155239000Y-43798500D01*
X155237856Y-43821779D01*
X155234437Y-43844834D01*
X155228773Y-43867443D01*
X155220921Y-43889387D01*
X155210956Y-43910457D01*
X155198974Y-43930448D01*
X155185090Y-43949168D01*
X155169438Y-43966438D01*
X155152168Y-43982090D01*
X155133448Y-43995974D01*
X155113457Y-44007956D01*
X155092387Y-44017921D01*
X155070443Y-44025773D01*
X155047834Y-44031437D01*
X155024779Y-44034856D01*
X155001500Y-44036000D01*
X154426500Y-44036000D01*
X154403221Y-44034856D01*
X154380166Y-44031437D01*
X154357557Y-44025773D01*
X154335613Y-44017921D01*
X154314543Y-44007956D01*
X154294552Y-43995974D01*
X154275832Y-43982090D01*
X154258562Y-43966438D01*
X154242910Y-43949168D01*
X154229026Y-43930448D01*
X154217044Y-43910457D01*
X154207079Y-43889387D01*
X154199227Y-43867443D01*
X154193563Y-43844834D01*
X154190144Y-43821779D01*
X154189000Y-43798500D01*
X154189000Y-43323500D01*
X154190144Y-43300221D01*
X154193563Y-43277166D01*
X154199227Y-43254557D01*
X154207079Y-43232613D01*
X154217044Y-43211543D01*
X154229026Y-43191552D01*
X154242910Y-43172832D01*
X154258562Y-43155562D01*
X154275832Y-43139910D01*
X154294552Y-43126026D01*
X154314543Y-43114044D01*
X154335613Y-43104079D01*
X154357557Y-43096227D01*
X154380166Y-43090563D01*
X154403221Y-43087144D01*
X154426500Y-43086000D01*
X155001500Y-43086000D01*
X155024779Y-43087144D01*
X155024779Y-43087144D01*
G37*
D12*
G04 #@! TD*
G04 #@! TO.P,R4,1*
G04 #@! TO.N,Headlight_OnOff_PWM1*
X154714000Y-43561000D03*
D10*
G04 #@! TO.P,U2,2*
G04 #@! TO.N,GND*
X155956000Y-61849000D03*
G04 #@! TO.P,U2,23*
G04 #@! TO.N,+12VA*
X155956000Y-77089000D03*
G04 #@! TO.P,U2,1*
G04 #@! TO.N,GND*
X158496000Y-61849000D03*
G04 #@! TO.P,U2,24*
G04 #@! TO.N,+12VA*
X158496000Y-77089000D03*
G04 #@! TO.P,U2,21*
G04 #@! TO.N,Headlight_OnOff_PWM2*
X151416000Y-77089000D03*
G04 #@! TO.P,U2,14*
G04 #@! TO.N,/Headlight_V2+*
X133350000Y-77089000D03*
G04 #@! TO.P,U2,13*
X130810000Y-77089000D03*
G04 #@! TO.P,U2,11*
G04 #@! TO.N,/Headlight_V2-*
X133350000Y-61849000D03*
G04 #@! TO.P,U2,12*
X130810000Y-61849000D03*
G04 #@! TD*
D14*
G04 #@! TO.P,U4,1*
G04 #@! TO.N,Net-(C2-Pad1)*
X138303000Y-119634000D03*
G04 #@! TO.P,U4,2*
G04 #@! TO.N,GND*
X135763000Y-119634000D03*
G04 #@! TO.P,U4,3*
G04 #@! TO.N,+5V*
X133223000Y-119634000D03*
G04 #@! TD*
D15*
G04 #@! TO.N,+5V*
X102743000Y-104775000D03*
X102743000Y-49784000D03*
D16*
G04 #@! TO.N,Dout_NeoPixel*
X121031000Y-47879000D03*
G04 #@! TO.N,Headlight_OnOff_PWM1*
X153670000Y-44605000D03*
G04 #@! TD*
D17*
G04 #@! TO.N,+5V*
X133223000Y-119634000D02*
X133223000Y-123317000D01*
D18*
X102743000Y-104775000D02*
X102743000Y-49784000D01*
D17*
X102743000Y-49784000D02*
X102743000Y-42291000D01*
X102743000Y-42291000D02*
X104013000Y-41021000D01*
X104013000Y-41021000D02*
X136398000Y-41021000D01*
X136398000Y-41021000D02*
X137668000Y-42291000D01*
X137668000Y-42291000D02*
X137668000Y-43561000D01*
D18*
X102743000Y-49784000D02*
X102743000Y-49784000D01*
D17*
X117983000Y-50419000D02*
X114681000Y-50419000D01*
D19*
G04 #@! TO.N,GND*
X158496000Y-83439000D02*
X155956000Y-83439000D01*
X158496000Y-61849000D02*
X155956000Y-61849000D01*
D17*
G04 #@! TO.N,Net-(C2-Pad1)*
X138303000Y-123317000D02*
X138303000Y-119634000D01*
D18*
X120294400Y-112775000D02*
X135763000Y-112775000D01*
X135763000Y-112775000D02*
X135763000Y-112776000D01*
X135763000Y-112776000D02*
X138303000Y-115316000D01*
X138303000Y-115316000D02*
X138303000Y-119634000D01*
D20*
G04 #@! TO.N,+12VA*
X120294400Y-104776000D02*
X138429000Y-104776000D01*
X138429000Y-104776000D02*
X141986000Y-101219000D01*
X141986000Y-101219000D02*
X153416000Y-101219000D01*
X153416000Y-101219000D02*
X155956000Y-98679000D01*
X155956000Y-98679000D02*
X158496000Y-98679000D01*
X158496000Y-98679000D02*
X161036000Y-96139000D01*
X161036000Y-96139000D02*
X161036000Y-79629000D01*
X161036000Y-79629000D02*
X158496000Y-77089000D01*
X158496000Y-77089000D02*
X155956000Y-77089000D01*
G04 #@! TO.N,/Headlight_V1+*
X130810000Y-98679000D02*
X125730000Y-93599000D01*
X125730000Y-93599000D02*
X125730000Y-73279000D01*
X125730000Y-73279000D02*
X121920000Y-69469000D01*
X130810000Y-98679000D02*
X133350000Y-98679000D01*
X114681000Y-69469000D02*
X117221000Y-69469000D01*
X121920000Y-69469000D02*
X117221000Y-69469000D01*
X117221000Y-69469000D02*
X115316000Y-69469000D01*
G04 #@! TO.N,/Headlight_V1-*
X130810000Y-83439000D02*
X133350000Y-83439000D01*
X128270000Y-80899000D02*
X130810000Y-83439000D01*
X128270000Y-72009000D02*
X128270000Y-80899000D01*
X123190000Y-66929000D02*
X128270000Y-72009000D01*
X114681000Y-66929000D02*
X117475000Y-66929000D01*
X115316000Y-66929000D02*
X117475000Y-66929000D01*
X117475000Y-66929000D02*
X123190000Y-66929000D01*
G04 #@! TO.N,/Headlight_V2-*
X133350000Y-61849000D02*
X130810000Y-61849000D01*
X130810000Y-61849000D02*
X126365000Y-57404000D01*
X114681000Y-57404000D02*
X118618000Y-57404000D01*
X126365000Y-57404000D02*
X118618000Y-57404000D01*
X118618000Y-57404000D02*
X115316000Y-57404000D01*
G04 #@! TO.N,/Headlight_V2+*
X133350000Y-77089000D02*
X130810000Y-77089000D01*
X130810000Y-77089000D02*
X130810000Y-66294000D01*
X130810000Y-66294000D02*
X124460000Y-59944000D01*
X114681000Y-59944000D02*
X116840000Y-59944000D01*
X124460000Y-59944000D02*
X116840000Y-59944000D01*
X116840000Y-59944000D02*
X115316000Y-59944000D01*
D17*
G04 #@! TO.N,Net-(Conn4-Pad2)*
X117983000Y-47879000D02*
X114681000Y-47879000D01*
G04 #@! TO.N,Net-(D2-Pad2)*
X139418000Y-43561000D02*
X141633000Y-43561000D01*
G04 #@! TO.N,Net-(D3-Pad2)*
X147955000Y-43561000D02*
X150114000Y-43561000D01*
G04 #@! TO.N,Net-(D4-Pad2)*
X156464000Y-43561000D02*
X158623000Y-43561000D01*
G04 #@! TO.N,Dout_NeoPixel*
X146205000Y-43561000D02*
X146205000Y-46581000D01*
X146205000Y-46581000D02*
X144907000Y-47879000D01*
X144907000Y-47879000D02*
X121031000Y-47879000D01*
X121031000Y-47879000D02*
X119733000Y-47879000D01*
D21*
G04 #@! TO.N,Headlight_OnOff_PWM1*
X153670000Y-44605000D02*
X153670000Y-44605000D01*
D17*
X154714000Y-43561000D02*
X153670000Y-44605000D01*
D21*
X153670000Y-44605000D02*
X153670000Y-44605000D01*
G04 #@! TD*
D22*
G04 #@! TO.N,GND*
G36*
X160795409Y-40902090D02*
X161134752Y-41056381D01*
X161417152Y-41299712D01*
X161619906Y-41612523D01*
X161733748Y-41993184D01*
X161748400Y-42190350D01*
X161748401Y-78096337D01*
X159929587Y-76277523D01*
X159882086Y-76162847D01*
X159422153Y-75702914D01*
X158821222Y-75454000D01*
X158170778Y-75454000D01*
X158056103Y-75501500D01*
X156395897Y-75501500D01*
X156281222Y-75454000D01*
X155630778Y-75454000D01*
X155029847Y-75702914D01*
X154569914Y-76162847D01*
X154321000Y-76763778D01*
X154321000Y-77414222D01*
X154569914Y-78015153D01*
X155029847Y-78475086D01*
X155630778Y-78724000D01*
X156281222Y-78724000D01*
X156395897Y-78676500D01*
X157838437Y-78676500D01*
X159448501Y-80286565D01*
X159448500Y-95481436D01*
X157838437Y-97091500D01*
X156395897Y-97091500D01*
X156281222Y-97044000D01*
X155630778Y-97044000D01*
X155029847Y-97292914D01*
X154569914Y-97752847D01*
X154522414Y-97867522D01*
X152814321Y-99575616D01*
X153051000Y-99004222D01*
X153051000Y-98353778D01*
X152802086Y-97752847D01*
X152342153Y-97292914D01*
X151741222Y-97044000D01*
X151090778Y-97044000D01*
X150489847Y-97292914D01*
X150029914Y-97752847D01*
X149781000Y-98353778D01*
X149781000Y-99004222D01*
X150029914Y-99605153D01*
X150056261Y-99631500D01*
X142142350Y-99631500D01*
X141986000Y-99600400D01*
X141366588Y-99723609D01*
X140974024Y-99985912D01*
X140841477Y-100074477D01*
X140752912Y-100207024D01*
X137771437Y-103188500D01*
X123073431Y-103188500D01*
X122986035Y-102977507D01*
X122092893Y-102084365D01*
X120925947Y-101601000D01*
X119662853Y-101601000D01*
X118495907Y-102084365D01*
X117602765Y-102977507D01*
X117119400Y-104144453D01*
X117119400Y-105407547D01*
X117602765Y-106574493D01*
X118495907Y-107467635D01*
X119662853Y-107951000D01*
X120925947Y-107951000D01*
X122092893Y-107467635D01*
X122986035Y-106574493D01*
X123073431Y-106363500D01*
X138272655Y-106363500D01*
X138429000Y-106394599D01*
X138585345Y-106363500D01*
X138585350Y-106363500D01*
X139048411Y-106271391D01*
X139573523Y-105920523D01*
X139662090Y-105787973D01*
X142643564Y-102806500D01*
X144121496Y-102806500D01*
X144009595Y-102973972D01*
X143954491Y-103251000D01*
X143968401Y-103320931D01*
X143968400Y-124009074D01*
X143954491Y-124079000D01*
X144009595Y-124356028D01*
X144166519Y-124590881D01*
X144401372Y-124747805D01*
X144560971Y-124779551D01*
X144678400Y-124802909D01*
X144748325Y-124789000D01*
X160375819Y-124789000D01*
X160795409Y-124849090D01*
X161134752Y-125003381D01*
X161417152Y-125246712D01*
X161619906Y-125559523D01*
X161733748Y-125940184D01*
X161748401Y-126137363D01*
X161748400Y-133628281D01*
X161662891Y-133654423D01*
X161570433Y-133681460D01*
X161562559Y-133685098D01*
X161041044Y-133929948D01*
X160960475Y-133982872D01*
X160879327Y-134034768D01*
X160872790Y-134040470D01*
X160440958Y-134421851D01*
X160378496Y-134495244D01*
X160315160Y-134567847D01*
X160310487Y-134575154D01*
X160003054Y-135062407D01*
X159963698Y-135150387D01*
X159923289Y-135237840D01*
X159920857Y-135246160D01*
X159920854Y-135246166D01*
X159920853Y-135246173D01*
X159762534Y-135800118D01*
X159749456Y-135895586D01*
X159735213Y-135990890D01*
X159735213Y-135999564D01*
X159738733Y-136575687D01*
X159752988Y-136671068D01*
X159766054Y-136766455D01*
X159768488Y-136774781D01*
X159933564Y-137326758D01*
X159973991Y-137414250D01*
X160013330Y-137502194D01*
X160018003Y-137509501D01*
X160331366Y-137992961D01*
X160394728Y-138065594D01*
X160457163Y-138138955D01*
X160463696Y-138144654D01*
X160463700Y-138144658D01*
X160463705Y-138144661D01*
X160900159Y-138520734D01*
X160981342Y-138572653D01*
X161061875Y-138625554D01*
X161069746Y-138629190D01*
X161069749Y-138629192D01*
X161069752Y-138629193D01*
X161594217Y-138867653D01*
X161686709Y-138894700D01*
X161748401Y-138913561D01*
X161748400Y-146888418D01*
X161688310Y-147308009D01*
X161534019Y-147647352D01*
X161290688Y-147929752D01*
X160977879Y-148132506D01*
X160597215Y-148246348D01*
X160400049Y-148261000D01*
X103580981Y-148261000D01*
X103161391Y-148200910D01*
X102822048Y-148046619D01*
X102539648Y-147803288D01*
X102336894Y-147490479D01*
X102223052Y-147109815D01*
X102208400Y-146912649D01*
X102208400Y-138913719D01*
X102293909Y-138887577D01*
X102386367Y-138860540D01*
X102394241Y-138856902D01*
X102915756Y-138612052D01*
X102996325Y-138559128D01*
X103077473Y-138507232D01*
X103084010Y-138501530D01*
X103515842Y-138120149D01*
X103578287Y-138046776D01*
X103641640Y-137974153D01*
X103646313Y-137966846D01*
X103953746Y-137479593D01*
X103993087Y-137391645D01*
X104033511Y-137304160D01*
X104035945Y-137295835D01*
X104194266Y-136741882D01*
X104207343Y-136646421D01*
X104221587Y-136551111D01*
X104221587Y-136542436D01*
X104218067Y-135966313D01*
X104203814Y-135870943D01*
X104190746Y-135775544D01*
X104188312Y-135767219D01*
X104023236Y-135215241D01*
X103982818Y-135127769D01*
X103943471Y-135039806D01*
X103938797Y-135032499D01*
X103625434Y-134549040D01*
X103562107Y-134476447D01*
X103499637Y-134403045D01*
X103493100Y-134397343D01*
X103056641Y-134021266D01*
X102975458Y-133969347D01*
X102894925Y-133916446D01*
X102887054Y-133912810D01*
X102887051Y-133912808D01*
X102887048Y-133912807D01*
X102362583Y-133674347D01*
X102270091Y-133647300D01*
X102208400Y-133628439D01*
X102208400Y-119356119D01*
X131826000Y-119356119D01*
X131826000Y-119911881D01*
X132038680Y-120425337D01*
X132397500Y-120784157D01*
X132397501Y-122395122D01*
X132309753Y-122453753D01*
X132117922Y-122740848D01*
X132050560Y-123079500D01*
X132050560Y-123554500D01*
X132117922Y-123893152D01*
X132309753Y-124180247D01*
X132596848Y-124372078D01*
X132935500Y-124439440D01*
X133510500Y-124439440D01*
X133849152Y-124372078D01*
X134136247Y-124180247D01*
X134328078Y-123893152D01*
X134395440Y-123554500D01*
X134395440Y-123079500D01*
X134328078Y-122740848D01*
X134136247Y-122453753D01*
X134048500Y-122395122D01*
X134048500Y-120784157D01*
X134407320Y-120425337D01*
X134620000Y-119911881D01*
X134620000Y-119356119D01*
X134407320Y-118842663D01*
X134014337Y-118449680D01*
X133500881Y-118237000D01*
X132945119Y-118237000D01*
X132431663Y-118449680D01*
X132038680Y-118842663D01*
X131826000Y-119356119D01*
X102208400Y-119356119D01*
X102208400Y-112143453D01*
X117119400Y-112143453D01*
X117119400Y-113406547D01*
X117602765Y-114573493D01*
X118495907Y-115466635D01*
X119662853Y-115950000D01*
X120925947Y-115950000D01*
X122092893Y-115466635D01*
X122986035Y-114573493D01*
X123310154Y-113791000D01*
X135341160Y-113791000D01*
X137287000Y-115736841D01*
X137287001Y-118674342D01*
X137118680Y-118842663D01*
X136906000Y-119356119D01*
X136906000Y-119911881D01*
X137118680Y-120425337D01*
X137477501Y-120784158D01*
X137477500Y-122395122D01*
X137389753Y-122453753D01*
X137197922Y-122740848D01*
X137130560Y-123079500D01*
X137130560Y-123554500D01*
X137197922Y-123893152D01*
X137389753Y-124180247D01*
X137676848Y-124372078D01*
X138015500Y-124439440D01*
X138590500Y-124439440D01*
X138929152Y-124372078D01*
X139216247Y-124180247D01*
X139408078Y-123893152D01*
X139475440Y-123554500D01*
X139475440Y-123079500D01*
X139408078Y-122740848D01*
X139216247Y-122453753D01*
X139128500Y-122395122D01*
X139128500Y-120784157D01*
X139487320Y-120425337D01*
X139700000Y-119911881D01*
X139700000Y-119356119D01*
X139487320Y-118842663D01*
X139319000Y-118674343D01*
X139319000Y-115416063D01*
X139338904Y-115315999D01*
X139260051Y-114919578D01*
X139260051Y-114919577D01*
X139035495Y-114583505D01*
X138950664Y-114526823D01*
X136554193Y-112130353D01*
X136495495Y-112042505D01*
X136159423Y-111817949D01*
X135863065Y-111759000D01*
X135863064Y-111759000D01*
X135763000Y-111739096D01*
X135662935Y-111759000D01*
X123310154Y-111759000D01*
X122986035Y-110976507D01*
X122092893Y-110083365D01*
X120925947Y-109600000D01*
X119662853Y-109600000D01*
X118495907Y-110083365D01*
X117602765Y-110976507D01*
X117119400Y-112143453D01*
X102208400Y-112143453D01*
X102208400Y-105782077D01*
X102517234Y-105910000D01*
X102968766Y-105910000D01*
X103385926Y-105737207D01*
X103705207Y-105417926D01*
X103878000Y-105000766D01*
X103878000Y-104549234D01*
X103759000Y-104261942D01*
X103759000Y-71271742D01*
X104040289Y-71950833D01*
X104704167Y-72614711D01*
X105571567Y-72974000D01*
X106510433Y-72974000D01*
X107377833Y-72614711D01*
X108041711Y-71950833D01*
X108401000Y-71083433D01*
X108401000Y-70144567D01*
X108041711Y-69277167D01*
X107377833Y-68613289D01*
X106510433Y-68254000D01*
X105571567Y-68254000D01*
X104704167Y-68613289D01*
X104040289Y-69277167D01*
X103759000Y-69956258D01*
X103759000Y-66434085D01*
X104044289Y-67122833D01*
X104708167Y-67786711D01*
X105575567Y-68146000D01*
X106514433Y-68146000D01*
X107381833Y-67786711D01*
X108045711Y-67122833D01*
X108405000Y-66255433D01*
X108405000Y-65316567D01*
X108045711Y-64449167D01*
X107381833Y-63785289D01*
X106540196Y-63436672D01*
X107377833Y-63089711D01*
X108041711Y-62425833D01*
X108401000Y-61558433D01*
X108401000Y-60619567D01*
X108041711Y-59752167D01*
X107377833Y-59088289D01*
X106510433Y-58729000D01*
X105571567Y-58729000D01*
X104704167Y-59088289D01*
X104040289Y-59752167D01*
X103759000Y-60431258D01*
X103759000Y-56909085D01*
X104044289Y-57597833D01*
X104708167Y-58261711D01*
X105575567Y-58621000D01*
X106514433Y-58621000D01*
X107381833Y-58261711D01*
X108045711Y-57597833D01*
X108125999Y-57404000D01*
X113062400Y-57404000D01*
X113185609Y-58023411D01*
X113536477Y-58548523D01*
X113724267Y-58674000D01*
X113536477Y-58799477D01*
X113185609Y-59324589D01*
X113062400Y-59944000D01*
X113185609Y-60563411D01*
X113536477Y-61088523D01*
X114061589Y-61439391D01*
X114524650Y-61531500D01*
X123802437Y-61531500D01*
X129222501Y-66951565D01*
X129222501Y-70716437D01*
X124423090Y-65917027D01*
X124334523Y-65784477D01*
X123809411Y-65433609D01*
X123346350Y-65341500D01*
X123346345Y-65341500D01*
X123190000Y-65310401D01*
X123033655Y-65341500D01*
X114524650Y-65341500D01*
X114061589Y-65433609D01*
X113536477Y-65784477D01*
X113185609Y-66309589D01*
X113062400Y-66929000D01*
X113185609Y-67548411D01*
X113536477Y-68073523D01*
X113724267Y-68199000D01*
X113536477Y-68324477D01*
X113185609Y-68849589D01*
X113062400Y-69469000D01*
X113185609Y-70088411D01*
X113536477Y-70613523D01*
X114061589Y-70964391D01*
X114524650Y-71056500D01*
X121262437Y-71056500D01*
X124142501Y-73936565D01*
X124142500Y-93442655D01*
X124111401Y-93599000D01*
X124142500Y-93755345D01*
X124142500Y-93755349D01*
X124234609Y-94218410D01*
X124585477Y-94743523D01*
X124718027Y-94832090D01*
X129376414Y-99490478D01*
X129423914Y-99605153D01*
X129883847Y-100065086D01*
X130484778Y-100314000D01*
X131135222Y-100314000D01*
X131249897Y-100266500D01*
X132910103Y-100266500D01*
X133024778Y-100314000D01*
X133675222Y-100314000D01*
X134276153Y-100065086D01*
X134736086Y-99605153D01*
X134985000Y-99004222D01*
X134985000Y-98353778D01*
X134736086Y-97752847D01*
X134276153Y-97292914D01*
X133675222Y-97044000D01*
X133024778Y-97044000D01*
X132910103Y-97091500D01*
X131467564Y-97091500D01*
X127317500Y-92941437D01*
X127317500Y-82191563D01*
X129376414Y-84250478D01*
X129423914Y-84365153D01*
X129883847Y-84825086D01*
X130484778Y-85074000D01*
X131135222Y-85074000D01*
X131249897Y-85026500D01*
X132910103Y-85026500D01*
X133024778Y-85074000D01*
X133675222Y-85074000D01*
X134276153Y-84825086D01*
X134736086Y-84365153D01*
X134985000Y-83764222D01*
X134985000Y-83113778D01*
X134736086Y-82512847D01*
X134276153Y-82052914D01*
X133675222Y-81804000D01*
X133024778Y-81804000D01*
X132910103Y-81851500D01*
X131467564Y-81851500D01*
X129857500Y-80241437D01*
X129857500Y-78448739D01*
X129883847Y-78475086D01*
X130484778Y-78724000D01*
X131135222Y-78724000D01*
X131249897Y-78676500D01*
X132910103Y-78676500D01*
X133024778Y-78724000D01*
X133675222Y-78724000D01*
X134276153Y-78475086D01*
X134736086Y-78015153D01*
X134985000Y-77414222D01*
X134985000Y-76763778D01*
X149781000Y-76763778D01*
X149781000Y-77414222D01*
X150029914Y-78015153D01*
X150489847Y-78475086D01*
X151090778Y-78724000D01*
X151741222Y-78724000D01*
X152342153Y-78475086D01*
X152802086Y-78015153D01*
X153051000Y-77414222D01*
X153051000Y-76763778D01*
X152802086Y-76162847D01*
X152342153Y-75702914D01*
X151741222Y-75454000D01*
X151090778Y-75454000D01*
X150489847Y-75702914D01*
X150029914Y-76162847D01*
X149781000Y-76763778D01*
X134985000Y-76763778D01*
X134736086Y-76162847D01*
X134276153Y-75702914D01*
X133675222Y-75454000D01*
X133024778Y-75454000D01*
X132910103Y-75501500D01*
X132397500Y-75501500D01*
X132397500Y-66450344D01*
X132428599Y-66293999D01*
X132397500Y-66137654D01*
X132397500Y-66137650D01*
X132305391Y-65674589D01*
X131954523Y-65149477D01*
X131821976Y-65060912D01*
X130075560Y-63314496D01*
X130484778Y-63484000D01*
X131135222Y-63484000D01*
X131249897Y-63436500D01*
X132910103Y-63436500D01*
X133024778Y-63484000D01*
X133675222Y-63484000D01*
X134276153Y-63235086D01*
X134736086Y-62775153D01*
X134985000Y-62174222D01*
X134985000Y-61523778D01*
X134736086Y-60922847D01*
X134276153Y-60462914D01*
X133675222Y-60214000D01*
X133024778Y-60214000D01*
X132910103Y-60261500D01*
X131467564Y-60261500D01*
X127598090Y-56392027D01*
X127509523Y-56259477D01*
X126984411Y-55908609D01*
X126521350Y-55816500D01*
X126521345Y-55816500D01*
X126365000Y-55785401D01*
X126208655Y-55816500D01*
X114524650Y-55816500D01*
X114061589Y-55908609D01*
X113536477Y-56259477D01*
X113185609Y-56784589D01*
X113062400Y-57404000D01*
X108125999Y-57404000D01*
X108405000Y-56730433D01*
X108405000Y-55791567D01*
X108045711Y-54924167D01*
X107381833Y-54260289D01*
X106693085Y-53975000D01*
X107381833Y-53689711D01*
X108045711Y-53025833D01*
X108405000Y-52158433D01*
X108405000Y-51219567D01*
X108045711Y-50352167D01*
X107381833Y-49688289D01*
X106514433Y-49329000D01*
X105575567Y-49329000D01*
X104708167Y-49688289D01*
X104044289Y-50352167D01*
X103759000Y-51040915D01*
X103759000Y-50297058D01*
X103878000Y-50009766D01*
X103878000Y-49558234D01*
X103705207Y-49141074D01*
X103568500Y-49004367D01*
X103568500Y-47601119D01*
X113284000Y-47601119D01*
X113284000Y-48156881D01*
X113496680Y-48670337D01*
X113889663Y-49063320D01*
X114096513Y-49149000D01*
X113889663Y-49234680D01*
X113496680Y-49627663D01*
X113284000Y-50141119D01*
X113284000Y-50696881D01*
X113496680Y-51210337D01*
X113889663Y-51603320D01*
X114403119Y-51816000D01*
X114958881Y-51816000D01*
X115472337Y-51603320D01*
X115831157Y-51244500D01*
X117044531Y-51244500D01*
X117069753Y-51282247D01*
X117356848Y-51474078D01*
X117695500Y-51541440D01*
X118270500Y-51541440D01*
X118609152Y-51474078D01*
X118896247Y-51282247D01*
X119088078Y-50995152D01*
X119155440Y-50656500D01*
X119155440Y-50181500D01*
X119088078Y-49842848D01*
X118896247Y-49555753D01*
X118609152Y-49363922D01*
X118270500Y-49296560D01*
X117695500Y-49296560D01*
X117356848Y-49363922D01*
X117069753Y-49555753D01*
X117044531Y-49593500D01*
X115831157Y-49593500D01*
X115472337Y-49234680D01*
X115265487Y-49149000D01*
X115472337Y-49063320D01*
X115831157Y-48704500D01*
X117044531Y-48704500D01*
X117069753Y-48742247D01*
X117356848Y-48934078D01*
X117695500Y-49001440D01*
X118270500Y-49001440D01*
X118609152Y-48934078D01*
X118858000Y-48767803D01*
X119106848Y-48934078D01*
X119445500Y-49001440D01*
X120020500Y-49001440D01*
X120359152Y-48934078D01*
X120556022Y-48802534D01*
X120825126Y-48914000D01*
X121236874Y-48914000D01*
X121617280Y-48756431D01*
X121669211Y-48704500D01*
X144825699Y-48704500D01*
X144907000Y-48720672D01*
X144988301Y-48704500D01*
X144988303Y-48704500D01*
X145229094Y-48656604D01*
X145502152Y-48474152D01*
X145548209Y-48405223D01*
X146731226Y-47222207D01*
X146800152Y-47176152D01*
X146982604Y-46903094D01*
X147030500Y-46662303D01*
X147030500Y-46662299D01*
X147046671Y-46581001D01*
X147030500Y-46499703D01*
X147030500Y-44482878D01*
X147080000Y-44449803D01*
X147328848Y-44616078D01*
X147667500Y-44683440D01*
X148242500Y-44683440D01*
X148581152Y-44616078D01*
X148868247Y-44424247D01*
X148893469Y-44386500D01*
X149175531Y-44386500D01*
X149200753Y-44424247D01*
X149487848Y-44616078D01*
X149826500Y-44683440D01*
X150401500Y-44683440D01*
X150740152Y-44616078D01*
X151027247Y-44424247D01*
X151044032Y-44399126D01*
X152635000Y-44399126D01*
X152635000Y-44810874D01*
X152792569Y-45191280D01*
X153083720Y-45482431D01*
X153464126Y-45640000D01*
X153875874Y-45640000D01*
X154256280Y-45482431D01*
X154547431Y-45191280D01*
X154705000Y-44810874D01*
X154705000Y-44737432D01*
X154758992Y-44683440D01*
X155001500Y-44683440D01*
X155340152Y-44616078D01*
X155589000Y-44449803D01*
X155837848Y-44616078D01*
X156176500Y-44683440D01*
X156751500Y-44683440D01*
X157090152Y-44616078D01*
X157377247Y-44424247D01*
X157402469Y-44386500D01*
X157684531Y-44386500D01*
X157709753Y-44424247D01*
X157996848Y-44616078D01*
X158335500Y-44683440D01*
X158910500Y-44683440D01*
X159249152Y-44616078D01*
X159536247Y-44424247D01*
X159728078Y-44137152D01*
X159795440Y-43798500D01*
X159795440Y-43323500D01*
X159728078Y-42984848D01*
X159536247Y-42697753D01*
X159249152Y-42505922D01*
X158910500Y-42438560D01*
X158335500Y-42438560D01*
X157996848Y-42505922D01*
X157709753Y-42697753D01*
X157684531Y-42735500D01*
X157402469Y-42735500D01*
X157377247Y-42697753D01*
X157090152Y-42505922D01*
X156751500Y-42438560D01*
X156176500Y-42438560D01*
X155837848Y-42505922D01*
X155589000Y-42672197D01*
X155340152Y-42505922D01*
X155001500Y-42438560D01*
X154426500Y-42438560D01*
X154087848Y-42505922D01*
X153800753Y-42697753D01*
X153608922Y-42984848D01*
X153541560Y-43323500D01*
X153541560Y-43566008D01*
X153537568Y-43570000D01*
X153464126Y-43570000D01*
X153083720Y-43727569D01*
X152792569Y-44018720D01*
X152635000Y-44399126D01*
X151044032Y-44399126D01*
X151219078Y-44137152D01*
X151286440Y-43798500D01*
X151286440Y-43323500D01*
X151219078Y-42984848D01*
X151027247Y-42697753D01*
X150740152Y-42505922D01*
X150401500Y-42438560D01*
X149826500Y-42438560D01*
X149487848Y-42505922D01*
X149200753Y-42697753D01*
X149175531Y-42735500D01*
X148893469Y-42735500D01*
X148868247Y-42697753D01*
X148581152Y-42505922D01*
X148242500Y-42438560D01*
X147667500Y-42438560D01*
X147328848Y-42505922D01*
X147080000Y-42672197D01*
X146831152Y-42505922D01*
X146492500Y-42438560D01*
X145917500Y-42438560D01*
X145578848Y-42505922D01*
X145291753Y-42697753D01*
X145099922Y-42984848D01*
X145032560Y-43323500D01*
X145032560Y-43798500D01*
X145099922Y-44137152D01*
X145291753Y-44424247D01*
X145379500Y-44482878D01*
X145379501Y-46239066D01*
X144565068Y-47053500D01*
X121669211Y-47053500D01*
X121617280Y-47001569D01*
X121236874Y-46844000D01*
X120825126Y-46844000D01*
X120556022Y-46955466D01*
X120359152Y-46823922D01*
X120020500Y-46756560D01*
X119445500Y-46756560D01*
X119106848Y-46823922D01*
X118858000Y-46990197D01*
X118609152Y-46823922D01*
X118270500Y-46756560D01*
X117695500Y-46756560D01*
X117356848Y-46823922D01*
X117069753Y-47015753D01*
X117044531Y-47053500D01*
X115831157Y-47053500D01*
X115472337Y-46694680D01*
X114958881Y-46482000D01*
X114403119Y-46482000D01*
X113889663Y-46694680D01*
X113496680Y-47087663D01*
X113284000Y-47601119D01*
X103568500Y-47601119D01*
X103568500Y-42632932D01*
X104354933Y-41846500D01*
X105243613Y-41846500D01*
X104708167Y-42068289D01*
X104044289Y-42732167D01*
X103685000Y-43599567D01*
X103685000Y-44538433D01*
X104044289Y-45405833D01*
X104708167Y-46069711D01*
X105575567Y-46429000D01*
X106514433Y-46429000D01*
X107381833Y-46069711D01*
X108045711Y-45405833D01*
X108405000Y-44538433D01*
X108405000Y-43599567D01*
X108045711Y-42732167D01*
X107381833Y-42068289D01*
X106846387Y-41846500D01*
X136056068Y-41846500D01*
X136842500Y-42632933D01*
X136842500Y-42639122D01*
X136754753Y-42697753D01*
X136562922Y-42984848D01*
X136495560Y-43323500D01*
X136495560Y-43798500D01*
X136562922Y-44137152D01*
X136754753Y-44424247D01*
X137041848Y-44616078D01*
X137380500Y-44683440D01*
X137955500Y-44683440D01*
X138294152Y-44616078D01*
X138543000Y-44449803D01*
X138791848Y-44616078D01*
X139130500Y-44683440D01*
X139705500Y-44683440D01*
X140044152Y-44616078D01*
X140331247Y-44424247D01*
X140356469Y-44386500D01*
X140694531Y-44386500D01*
X140719753Y-44424247D01*
X141006848Y-44616078D01*
X141345500Y-44683440D01*
X141920500Y-44683440D01*
X142259152Y-44616078D01*
X142546247Y-44424247D01*
X142738078Y-44137152D01*
X142805440Y-43798500D01*
X142805440Y-43323500D01*
X142738078Y-42984848D01*
X142546247Y-42697753D01*
X142259152Y-42505922D01*
X141920500Y-42438560D01*
X141345500Y-42438560D01*
X141006848Y-42505922D01*
X140719753Y-42697753D01*
X140694531Y-42735500D01*
X140356469Y-42735500D01*
X140331247Y-42697753D01*
X140044152Y-42505922D01*
X139705500Y-42438560D01*
X139130500Y-42438560D01*
X138791848Y-42505922D01*
X138543000Y-42672197D01*
X138493500Y-42639122D01*
X138493500Y-42372297D01*
X138509671Y-42290999D01*
X138493500Y-42209701D01*
X138493500Y-42209697D01*
X138445604Y-41968906D01*
X138263152Y-41695848D01*
X138194226Y-41649793D01*
X137386432Y-40842000D01*
X160375819Y-40842000D01*
X160795409Y-40902090D01*
X160795409Y-40902090D01*
G37*
X160795409Y-40902090D02*
X161134752Y-41056381D01*
X161417152Y-41299712D01*
X161619906Y-41612523D01*
X161733748Y-41993184D01*
X161748400Y-42190350D01*
X161748401Y-78096337D01*
X159929587Y-76277523D01*
X159882086Y-76162847D01*
X159422153Y-75702914D01*
X158821222Y-75454000D01*
X158170778Y-75454000D01*
X158056103Y-75501500D01*
X156395897Y-75501500D01*
X156281222Y-75454000D01*
X155630778Y-75454000D01*
X155029847Y-75702914D01*
X154569914Y-76162847D01*
X154321000Y-76763778D01*
X154321000Y-77414222D01*
X154569914Y-78015153D01*
X155029847Y-78475086D01*
X155630778Y-78724000D01*
X156281222Y-78724000D01*
X156395897Y-78676500D01*
X157838437Y-78676500D01*
X159448501Y-80286565D01*
X159448500Y-95481436D01*
X157838437Y-97091500D01*
X156395897Y-97091500D01*
X156281222Y-97044000D01*
X155630778Y-97044000D01*
X155029847Y-97292914D01*
X154569914Y-97752847D01*
X154522414Y-97867522D01*
X152814321Y-99575616D01*
X153051000Y-99004222D01*
X153051000Y-98353778D01*
X152802086Y-97752847D01*
X152342153Y-97292914D01*
X151741222Y-97044000D01*
X151090778Y-97044000D01*
X150489847Y-97292914D01*
X150029914Y-97752847D01*
X149781000Y-98353778D01*
X149781000Y-99004222D01*
X150029914Y-99605153D01*
X150056261Y-99631500D01*
X142142350Y-99631500D01*
X141986000Y-99600400D01*
X141366588Y-99723609D01*
X140974024Y-99985912D01*
X140841477Y-100074477D01*
X140752912Y-100207024D01*
X137771437Y-103188500D01*
X123073431Y-103188500D01*
X122986035Y-102977507D01*
X122092893Y-102084365D01*
X120925947Y-101601000D01*
X119662853Y-101601000D01*
X118495907Y-102084365D01*
X117602765Y-102977507D01*
X117119400Y-104144453D01*
X117119400Y-105407547D01*
X117602765Y-106574493D01*
X118495907Y-107467635D01*
X119662853Y-107951000D01*
X120925947Y-107951000D01*
X122092893Y-107467635D01*
X122986035Y-106574493D01*
X123073431Y-106363500D01*
X138272655Y-106363500D01*
X138429000Y-106394599D01*
X138585345Y-106363500D01*
X138585350Y-106363500D01*
X139048411Y-106271391D01*
X139573523Y-105920523D01*
X139662090Y-105787973D01*
X142643564Y-102806500D01*
X144121496Y-102806500D01*
X144009595Y-102973972D01*
X143954491Y-103251000D01*
X143968401Y-103320931D01*
X143968400Y-124009074D01*
X143954491Y-124079000D01*
X144009595Y-124356028D01*
X144166519Y-124590881D01*
X144401372Y-124747805D01*
X144560971Y-124779551D01*
X144678400Y-124802909D01*
X144748325Y-124789000D01*
X160375819Y-124789000D01*
X160795409Y-124849090D01*
X161134752Y-125003381D01*
X161417152Y-125246712D01*
X161619906Y-125559523D01*
X161733748Y-125940184D01*
X161748401Y-126137363D01*
X161748400Y-133628281D01*
X161662891Y-133654423D01*
X161570433Y-133681460D01*
X161562559Y-133685098D01*
X161041044Y-133929948D01*
X160960475Y-133982872D01*
X160879327Y-134034768D01*
X160872790Y-134040470D01*
X160440958Y-134421851D01*
X160378496Y-134495244D01*
X160315160Y-134567847D01*
X160310487Y-134575154D01*
X160003054Y-135062407D01*
X159963698Y-135150387D01*
X159923289Y-135237840D01*
X159920857Y-135246160D01*
X159920854Y-135246166D01*
X159920853Y-135246173D01*
X159762534Y-135800118D01*
X159749456Y-135895586D01*
X159735213Y-135990890D01*
X159735213Y-135999564D01*
X159738733Y-136575687D01*
X159752988Y-136671068D01*
X159766054Y-136766455D01*
X159768488Y-136774781D01*
X159933564Y-137326758D01*
X159973991Y-137414250D01*
X160013330Y-137502194D01*
X160018003Y-137509501D01*
X160331366Y-137992961D01*
X160394728Y-138065594D01*
X160457163Y-138138955D01*
X160463696Y-138144654D01*
X160463700Y-138144658D01*
X160463705Y-138144661D01*
X160900159Y-138520734D01*
X160981342Y-138572653D01*
X161061875Y-138625554D01*
X161069746Y-138629190D01*
X161069749Y-138629192D01*
X161069752Y-138629193D01*
X161594217Y-138867653D01*
X161686709Y-138894700D01*
X161748401Y-138913561D01*
X161748400Y-146888418D01*
X161688310Y-147308009D01*
X161534019Y-147647352D01*
X161290688Y-147929752D01*
X160977879Y-148132506D01*
X160597215Y-148246348D01*
X160400049Y-148261000D01*
X103580981Y-148261000D01*
X103161391Y-148200910D01*
X102822048Y-148046619D01*
X102539648Y-147803288D01*
X102336894Y-147490479D01*
X102223052Y-147109815D01*
X102208400Y-146912649D01*
X102208400Y-138913719D01*
X102293909Y-138887577D01*
X102386367Y-138860540D01*
X102394241Y-138856902D01*
X102915756Y-138612052D01*
X102996325Y-138559128D01*
X103077473Y-138507232D01*
X103084010Y-138501530D01*
X103515842Y-138120149D01*
X103578287Y-138046776D01*
X103641640Y-137974153D01*
X103646313Y-137966846D01*
X103953746Y-137479593D01*
X103993087Y-137391645D01*
X104033511Y-137304160D01*
X104035945Y-137295835D01*
X104194266Y-136741882D01*
X104207343Y-136646421D01*
X104221587Y-136551111D01*
X104221587Y-136542436D01*
X104218067Y-135966313D01*
X104203814Y-135870943D01*
X104190746Y-135775544D01*
X104188312Y-135767219D01*
X104023236Y-135215241D01*
X103982818Y-135127769D01*
X103943471Y-135039806D01*
X103938797Y-135032499D01*
X103625434Y-134549040D01*
X103562107Y-134476447D01*
X103499637Y-134403045D01*
X103493100Y-134397343D01*
X103056641Y-134021266D01*
X102975458Y-133969347D01*
X102894925Y-133916446D01*
X102887054Y-133912810D01*
X102887051Y-133912808D01*
X102887048Y-133912807D01*
X102362583Y-133674347D01*
X102270091Y-133647300D01*
X102208400Y-133628439D01*
X102208400Y-119356119D01*
X131826000Y-119356119D01*
X131826000Y-119911881D01*
X132038680Y-120425337D01*
X132397500Y-120784157D01*
X132397501Y-122395122D01*
X132309753Y-122453753D01*
X132117922Y-122740848D01*
X132050560Y-123079500D01*
X132050560Y-123554500D01*
X132117922Y-123893152D01*
X132309753Y-124180247D01*
X132596848Y-124372078D01*
X132935500Y-124439440D01*
X133510500Y-124439440D01*
X133849152Y-124372078D01*
X134136247Y-124180247D01*
X134328078Y-123893152D01*
X134395440Y-123554500D01*
X134395440Y-123079500D01*
X134328078Y-122740848D01*
X134136247Y-122453753D01*
X134048500Y-122395122D01*
X134048500Y-120784157D01*
X134407320Y-120425337D01*
X134620000Y-119911881D01*
X134620000Y-119356119D01*
X134407320Y-118842663D01*
X134014337Y-118449680D01*
X133500881Y-118237000D01*
X132945119Y-118237000D01*
X132431663Y-118449680D01*
X132038680Y-118842663D01*
X131826000Y-119356119D01*
X102208400Y-119356119D01*
X102208400Y-112143453D01*
X117119400Y-112143453D01*
X117119400Y-113406547D01*
X117602765Y-114573493D01*
X118495907Y-115466635D01*
X119662853Y-115950000D01*
X120925947Y-115950000D01*
X122092893Y-115466635D01*
X122986035Y-114573493D01*
X123310154Y-113791000D01*
X135341160Y-113791000D01*
X137287000Y-115736841D01*
X137287001Y-118674342D01*
X137118680Y-118842663D01*
X136906000Y-119356119D01*
X136906000Y-119911881D01*
X137118680Y-120425337D01*
X137477501Y-120784158D01*
X137477500Y-122395122D01*
X137389753Y-122453753D01*
X137197922Y-122740848D01*
X137130560Y-123079500D01*
X137130560Y-123554500D01*
X137197922Y-123893152D01*
X137389753Y-124180247D01*
X137676848Y-124372078D01*
X138015500Y-124439440D01*
X138590500Y-124439440D01*
X138929152Y-124372078D01*
X139216247Y-124180247D01*
X139408078Y-123893152D01*
X139475440Y-123554500D01*
X139475440Y-123079500D01*
X139408078Y-122740848D01*
X139216247Y-122453753D01*
X139128500Y-122395122D01*
X139128500Y-120784157D01*
X139487320Y-120425337D01*
X139700000Y-119911881D01*
X139700000Y-119356119D01*
X139487320Y-118842663D01*
X139319000Y-118674343D01*
X139319000Y-115416063D01*
X139338904Y-115315999D01*
X139260051Y-114919578D01*
X139260051Y-114919577D01*
X139035495Y-114583505D01*
X138950664Y-114526823D01*
X136554193Y-112130353D01*
X136495495Y-112042505D01*
X136159423Y-111817949D01*
X135863065Y-111759000D01*
X135863064Y-111759000D01*
X135763000Y-111739096D01*
X135662935Y-111759000D01*
X123310154Y-111759000D01*
X122986035Y-110976507D01*
X122092893Y-110083365D01*
X120925947Y-109600000D01*
X119662853Y-109600000D01*
X118495907Y-110083365D01*
X117602765Y-110976507D01*
X117119400Y-112143453D01*
X102208400Y-112143453D01*
X102208400Y-105782077D01*
X102517234Y-105910000D01*
X102968766Y-105910000D01*
X103385926Y-105737207D01*
X103705207Y-105417926D01*
X103878000Y-105000766D01*
X103878000Y-104549234D01*
X103759000Y-104261942D01*
X103759000Y-71271742D01*
X104040289Y-71950833D01*
X104704167Y-72614711D01*
X105571567Y-72974000D01*
X106510433Y-72974000D01*
X107377833Y-72614711D01*
X108041711Y-71950833D01*
X108401000Y-71083433D01*
X108401000Y-70144567D01*
X108041711Y-69277167D01*
X107377833Y-68613289D01*
X106510433Y-68254000D01*
X105571567Y-68254000D01*
X104704167Y-68613289D01*
X104040289Y-69277167D01*
X103759000Y-69956258D01*
X103759000Y-66434085D01*
X104044289Y-67122833D01*
X104708167Y-67786711D01*
X105575567Y-68146000D01*
X106514433Y-68146000D01*
X107381833Y-67786711D01*
X108045711Y-67122833D01*
X108405000Y-66255433D01*
X108405000Y-65316567D01*
X108045711Y-64449167D01*
X107381833Y-63785289D01*
X106540196Y-63436672D01*
X107377833Y-63089711D01*
X108041711Y-62425833D01*
X108401000Y-61558433D01*
X108401000Y-60619567D01*
X108041711Y-59752167D01*
X107377833Y-59088289D01*
X106510433Y-58729000D01*
X105571567Y-58729000D01*
X104704167Y-59088289D01*
X104040289Y-59752167D01*
X103759000Y-60431258D01*
X103759000Y-56909085D01*
X104044289Y-57597833D01*
X104708167Y-58261711D01*
X105575567Y-58621000D01*
X106514433Y-58621000D01*
X107381833Y-58261711D01*
X108045711Y-57597833D01*
X108125999Y-57404000D01*
X113062400Y-57404000D01*
X113185609Y-58023411D01*
X113536477Y-58548523D01*
X113724267Y-58674000D01*
X113536477Y-58799477D01*
X113185609Y-59324589D01*
X113062400Y-59944000D01*
X113185609Y-60563411D01*
X113536477Y-61088523D01*
X114061589Y-61439391D01*
X114524650Y-61531500D01*
X123802437Y-61531500D01*
X129222501Y-66951565D01*
X129222501Y-70716437D01*
X124423090Y-65917027D01*
X124334523Y-65784477D01*
X123809411Y-65433609D01*
X123346350Y-65341500D01*
X123346345Y-65341500D01*
X123190000Y-65310401D01*
X123033655Y-65341500D01*
X114524650Y-65341500D01*
X114061589Y-65433609D01*
X113536477Y-65784477D01*
X113185609Y-66309589D01*
X113062400Y-66929000D01*
X113185609Y-67548411D01*
X113536477Y-68073523D01*
X113724267Y-68199000D01*
X113536477Y-68324477D01*
X113185609Y-68849589D01*
X113062400Y-69469000D01*
X113185609Y-70088411D01*
X113536477Y-70613523D01*
X114061589Y-70964391D01*
X114524650Y-71056500D01*
X121262437Y-71056500D01*
X124142501Y-73936565D01*
X124142500Y-93442655D01*
X124111401Y-93599000D01*
X124142500Y-93755345D01*
X124142500Y-93755349D01*
X124234609Y-94218410D01*
X124585477Y-94743523D01*
X124718027Y-94832090D01*
X129376414Y-99490478D01*
X129423914Y-99605153D01*
X129883847Y-100065086D01*
X130484778Y-100314000D01*
X131135222Y-100314000D01*
X131249897Y-100266500D01*
X132910103Y-100266500D01*
X133024778Y-100314000D01*
X133675222Y-100314000D01*
X134276153Y-100065086D01*
X134736086Y-99605153D01*
X134985000Y-99004222D01*
X134985000Y-98353778D01*
X134736086Y-97752847D01*
X134276153Y-97292914D01*
X133675222Y-97044000D01*
X133024778Y-97044000D01*
X132910103Y-97091500D01*
X131467564Y-97091500D01*
X127317500Y-92941437D01*
X127317500Y-82191563D01*
X129376414Y-84250478D01*
X129423914Y-84365153D01*
X129883847Y-84825086D01*
X130484778Y-85074000D01*
X131135222Y-85074000D01*
X131249897Y-85026500D01*
X132910103Y-85026500D01*
X133024778Y-85074000D01*
X133675222Y-85074000D01*
X134276153Y-84825086D01*
X134736086Y-84365153D01*
X134985000Y-83764222D01*
X134985000Y-83113778D01*
X134736086Y-82512847D01*
X134276153Y-82052914D01*
X133675222Y-81804000D01*
X133024778Y-81804000D01*
X132910103Y-81851500D01*
X131467564Y-81851500D01*
X129857500Y-80241437D01*
X129857500Y-78448739D01*
X129883847Y-78475086D01*
X130484778Y-78724000D01*
X131135222Y-78724000D01*
X131249897Y-78676500D01*
X132910103Y-78676500D01*
X133024778Y-78724000D01*
X133675222Y-78724000D01*
X134276153Y-78475086D01*
X134736086Y-78015153D01*
X134985000Y-77414222D01*
X134985000Y-76763778D01*
X149781000Y-76763778D01*
X149781000Y-77414222D01*
X150029914Y-78015153D01*
X150489847Y-78475086D01*
X151090778Y-78724000D01*
X151741222Y-78724000D01*
X152342153Y-78475086D01*
X152802086Y-78015153D01*
X153051000Y-77414222D01*
X153051000Y-76763778D01*
X152802086Y-76162847D01*
X152342153Y-75702914D01*
X151741222Y-75454000D01*
X151090778Y-75454000D01*
X150489847Y-75702914D01*
X150029914Y-76162847D01*
X149781000Y-76763778D01*
X134985000Y-76763778D01*
X134736086Y-76162847D01*
X134276153Y-75702914D01*
X133675222Y-75454000D01*
X133024778Y-75454000D01*
X132910103Y-75501500D01*
X132397500Y-75501500D01*
X132397500Y-66450344D01*
X132428599Y-66293999D01*
X132397500Y-66137654D01*
X132397500Y-66137650D01*
X132305391Y-65674589D01*
X131954523Y-65149477D01*
X131821976Y-65060912D01*
X130075560Y-63314496D01*
X130484778Y-63484000D01*
X131135222Y-63484000D01*
X131249897Y-63436500D01*
X132910103Y-63436500D01*
X133024778Y-63484000D01*
X133675222Y-63484000D01*
X134276153Y-63235086D01*
X134736086Y-62775153D01*
X134985000Y-62174222D01*
X134985000Y-61523778D01*
X134736086Y-60922847D01*
X134276153Y-60462914D01*
X133675222Y-60214000D01*
X133024778Y-60214000D01*
X132910103Y-60261500D01*
X131467564Y-60261500D01*
X127598090Y-56392027D01*
X127509523Y-56259477D01*
X126984411Y-55908609D01*
X126521350Y-55816500D01*
X126521345Y-55816500D01*
X126365000Y-55785401D01*
X126208655Y-55816500D01*
X114524650Y-55816500D01*
X114061589Y-55908609D01*
X113536477Y-56259477D01*
X113185609Y-56784589D01*
X113062400Y-57404000D01*
X108125999Y-57404000D01*
X108405000Y-56730433D01*
X108405000Y-55791567D01*
X108045711Y-54924167D01*
X107381833Y-54260289D01*
X106693085Y-53975000D01*
X107381833Y-53689711D01*
X108045711Y-53025833D01*
X108405000Y-52158433D01*
X108405000Y-51219567D01*
X108045711Y-50352167D01*
X107381833Y-49688289D01*
X106514433Y-49329000D01*
X105575567Y-49329000D01*
X104708167Y-49688289D01*
X104044289Y-50352167D01*
X103759000Y-51040915D01*
X103759000Y-50297058D01*
X103878000Y-50009766D01*
X103878000Y-49558234D01*
X103705207Y-49141074D01*
X103568500Y-49004367D01*
X103568500Y-47601119D01*
X113284000Y-47601119D01*
X113284000Y-48156881D01*
X113496680Y-48670337D01*
X113889663Y-49063320D01*
X114096513Y-49149000D01*
X113889663Y-49234680D01*
X113496680Y-49627663D01*
X113284000Y-50141119D01*
X113284000Y-50696881D01*
X113496680Y-51210337D01*
X113889663Y-51603320D01*
X114403119Y-51816000D01*
X114958881Y-51816000D01*
X115472337Y-51603320D01*
X115831157Y-51244500D01*
X117044531Y-51244500D01*
X117069753Y-51282247D01*
X117356848Y-51474078D01*
X117695500Y-51541440D01*
X118270500Y-51541440D01*
X118609152Y-51474078D01*
X118896247Y-51282247D01*
X119088078Y-50995152D01*
X119155440Y-50656500D01*
X119155440Y-50181500D01*
X119088078Y-49842848D01*
X118896247Y-49555753D01*
X118609152Y-49363922D01*
X118270500Y-49296560D01*
X117695500Y-49296560D01*
X117356848Y-49363922D01*
X117069753Y-49555753D01*
X117044531Y-49593500D01*
X115831157Y-49593500D01*
X115472337Y-49234680D01*
X115265487Y-49149000D01*
X115472337Y-49063320D01*
X115831157Y-48704500D01*
X117044531Y-48704500D01*
X117069753Y-48742247D01*
X117356848Y-48934078D01*
X117695500Y-49001440D01*
X118270500Y-49001440D01*
X118609152Y-48934078D01*
X118858000Y-48767803D01*
X119106848Y-48934078D01*
X119445500Y-49001440D01*
X120020500Y-49001440D01*
X120359152Y-48934078D01*
X120556022Y-48802534D01*
X120825126Y-48914000D01*
X121236874Y-48914000D01*
X121617280Y-48756431D01*
X121669211Y-48704500D01*
X144825699Y-48704500D01*
X144907000Y-48720672D01*
X144988301Y-48704500D01*
X144988303Y-48704500D01*
X145229094Y-48656604D01*
X145502152Y-48474152D01*
X145548209Y-48405223D01*
X146731226Y-47222207D01*
X146800152Y-47176152D01*
X146982604Y-46903094D01*
X147030500Y-46662303D01*
X147030500Y-46662299D01*
X147046671Y-46581001D01*
X147030500Y-46499703D01*
X147030500Y-44482878D01*
X147080000Y-44449803D01*
X147328848Y-44616078D01*
X147667500Y-44683440D01*
X148242500Y-44683440D01*
X148581152Y-44616078D01*
X148868247Y-44424247D01*
X148893469Y-44386500D01*
X149175531Y-44386500D01*
X149200753Y-44424247D01*
X149487848Y-44616078D01*
X149826500Y-44683440D01*
X150401500Y-44683440D01*
X150740152Y-44616078D01*
X151027247Y-44424247D01*
X151044032Y-44399126D01*
X152635000Y-44399126D01*
X152635000Y-44810874D01*
X152792569Y-45191280D01*
X153083720Y-45482431D01*
X153464126Y-45640000D01*
X153875874Y-45640000D01*
X154256280Y-45482431D01*
X154547431Y-45191280D01*
X154705000Y-44810874D01*
X154705000Y-44737432D01*
X154758992Y-44683440D01*
X155001500Y-44683440D01*
X155340152Y-44616078D01*
X155589000Y-44449803D01*
X155837848Y-44616078D01*
X156176500Y-44683440D01*
X156751500Y-44683440D01*
X157090152Y-44616078D01*
X157377247Y-44424247D01*
X157402469Y-44386500D01*
X157684531Y-44386500D01*
X157709753Y-44424247D01*
X157996848Y-44616078D01*
X158335500Y-44683440D01*
X158910500Y-44683440D01*
X159249152Y-44616078D01*
X159536247Y-44424247D01*
X159728078Y-44137152D01*
X159795440Y-43798500D01*
X159795440Y-43323500D01*
X159728078Y-42984848D01*
X159536247Y-42697753D01*
X159249152Y-42505922D01*
X158910500Y-42438560D01*
X158335500Y-42438560D01*
X157996848Y-42505922D01*
X157709753Y-42697753D01*
X157684531Y-42735500D01*
X157402469Y-42735500D01*
X157377247Y-42697753D01*
X157090152Y-42505922D01*
X156751500Y-42438560D01*
X156176500Y-42438560D01*
X155837848Y-42505922D01*
X155589000Y-42672197D01*
X155340152Y-42505922D01*
X155001500Y-42438560D01*
X154426500Y-42438560D01*
X154087848Y-42505922D01*
X153800753Y-42697753D01*
X153608922Y-42984848D01*
X153541560Y-43323500D01*
X153541560Y-43566008D01*
X153537568Y-43570000D01*
X153464126Y-43570000D01*
X153083720Y-43727569D01*
X152792569Y-44018720D01*
X152635000Y-44399126D01*
X151044032Y-44399126D01*
X151219078Y-44137152D01*
X151286440Y-43798500D01*
X151286440Y-43323500D01*
X151219078Y-42984848D01*
X151027247Y-42697753D01*
X150740152Y-42505922D01*
X150401500Y-42438560D01*
X149826500Y-42438560D01*
X149487848Y-42505922D01*
X149200753Y-42697753D01*
X149175531Y-42735500D01*
X148893469Y-42735500D01*
X148868247Y-42697753D01*
X148581152Y-42505922D01*
X148242500Y-42438560D01*
X147667500Y-42438560D01*
X147328848Y-42505922D01*
X147080000Y-42672197D01*
X146831152Y-42505922D01*
X146492500Y-42438560D01*
X145917500Y-42438560D01*
X145578848Y-42505922D01*
X145291753Y-42697753D01*
X145099922Y-42984848D01*
X145032560Y-43323500D01*
X145032560Y-43798500D01*
X145099922Y-44137152D01*
X145291753Y-44424247D01*
X145379500Y-44482878D01*
X145379501Y-46239066D01*
X144565068Y-47053500D01*
X121669211Y-47053500D01*
X121617280Y-47001569D01*
X121236874Y-46844000D01*
X120825126Y-46844000D01*
X120556022Y-46955466D01*
X120359152Y-46823922D01*
X120020500Y-46756560D01*
X119445500Y-46756560D01*
X119106848Y-46823922D01*
X118858000Y-46990197D01*
X118609152Y-46823922D01*
X118270500Y-46756560D01*
X117695500Y-46756560D01*
X117356848Y-46823922D01*
X117069753Y-47015753D01*
X117044531Y-47053500D01*
X115831157Y-47053500D01*
X115472337Y-46694680D01*
X114958881Y-46482000D01*
X114403119Y-46482000D01*
X113889663Y-46694680D01*
X113496680Y-47087663D01*
X113284000Y-47601119D01*
X103568500Y-47601119D01*
X103568500Y-42632932D01*
X104354933Y-41846500D01*
X105243613Y-41846500D01*
X104708167Y-42068289D01*
X104044289Y-42732167D01*
X103685000Y-43599567D01*
X103685000Y-44538433D01*
X104044289Y-45405833D01*
X104708167Y-46069711D01*
X105575567Y-46429000D01*
X106514433Y-46429000D01*
X107381833Y-46069711D01*
X108045711Y-45405833D01*
X108405000Y-44538433D01*
X108405000Y-43599567D01*
X108045711Y-42732167D01*
X107381833Y-42068289D01*
X106846387Y-41846500D01*
X136056068Y-41846500D01*
X136842500Y-42632933D01*
X136842500Y-42639122D01*
X136754753Y-42697753D01*
X136562922Y-42984848D01*
X136495560Y-43323500D01*
X136495560Y-43798500D01*
X136562922Y-44137152D01*
X136754753Y-44424247D01*
X137041848Y-44616078D01*
X137380500Y-44683440D01*
X137955500Y-44683440D01*
X138294152Y-44616078D01*
X138543000Y-44449803D01*
X138791848Y-44616078D01*
X139130500Y-44683440D01*
X139705500Y-44683440D01*
X140044152Y-44616078D01*
X140331247Y-44424247D01*
X140356469Y-44386500D01*
X140694531Y-44386500D01*
X140719753Y-44424247D01*
X141006848Y-44616078D01*
X141345500Y-44683440D01*
X141920500Y-44683440D01*
X142259152Y-44616078D01*
X142546247Y-44424247D01*
X142738078Y-44137152D01*
X142805440Y-43798500D01*
X142805440Y-43323500D01*
X142738078Y-42984848D01*
X142546247Y-42697753D01*
X142259152Y-42505922D01*
X141920500Y-42438560D01*
X141345500Y-42438560D01*
X141006848Y-42505922D01*
X140719753Y-42697753D01*
X140694531Y-42735500D01*
X140356469Y-42735500D01*
X140331247Y-42697753D01*
X140044152Y-42505922D01*
X139705500Y-42438560D01*
X139130500Y-42438560D01*
X138791848Y-42505922D01*
X138543000Y-42672197D01*
X138493500Y-42639122D01*
X138493500Y-42372297D01*
X138509671Y-42290999D01*
X138493500Y-42209701D01*
X138493500Y-42209697D01*
X138445604Y-41968906D01*
X138263152Y-41695848D01*
X138194226Y-41649793D01*
X137386432Y-40842000D01*
X160375819Y-40842000D01*
X160795409Y-40902090D01*
G04 #@! TD*
M02*
