G04 #@! TF.GenerationSoftware,KiCad,Pcbnew,(5.0.0)*
G04 #@! TF.CreationDate,2018-12-18T18:47:31-06:00*
G04 #@! TF.ProjectId,LightingBoard_Hardware,4C69676874696E67426F6172645F4861,rev?*
G04 #@! TF.SameCoordinates,Original*
G04 #@! TF.FileFunction,Soldermask,Top*
G04 #@! TF.FilePolarity,Negative*
%FSLAX46Y46*%
G04 Gerber Fmt 4.6, Leading zero omitted, Abs format (unit mm)*
G04 Created by KiCad (PCBNEW (5.0.0)) date 12/18/18 18:47:31*
%MOMM*%
%LPD*%
G01*
G04 APERTURE LIST*
%ADD10C,0.100000*%
G04 APERTURE END LIST*
D10*
G36*
X133637499Y-122795445D02*
X133674993Y-122806819D01*
X133709557Y-122825294D01*
X133739847Y-122850153D01*
X133764706Y-122880443D01*
X133783181Y-122915007D01*
X133794555Y-122952501D01*
X133799000Y-122997638D01*
X133799000Y-123636362D01*
X133794555Y-123681499D01*
X133783181Y-123718993D01*
X133764706Y-123753557D01*
X133739847Y-123783847D01*
X133709557Y-123808706D01*
X133674993Y-123827181D01*
X133637499Y-123838555D01*
X133592362Y-123843000D01*
X132853638Y-123843000D01*
X132808501Y-123838555D01*
X132771007Y-123827181D01*
X132736443Y-123808706D01*
X132706153Y-123783847D01*
X132681294Y-123753557D01*
X132662819Y-123718993D01*
X132651445Y-123681499D01*
X132647000Y-123636362D01*
X132647000Y-122997638D01*
X132651445Y-122952501D01*
X132662819Y-122915007D01*
X132681294Y-122880443D01*
X132706153Y-122850153D01*
X132736443Y-122825294D01*
X132771007Y-122806819D01*
X132808501Y-122795445D01*
X132853638Y-122791000D01*
X133592362Y-122791000D01*
X133637499Y-122795445D01*
X133637499Y-122795445D01*
G37*
G36*
X131887499Y-122795445D02*
X131924993Y-122806819D01*
X131959557Y-122825294D01*
X131989847Y-122850153D01*
X132014706Y-122880443D01*
X132033181Y-122915007D01*
X132044555Y-122952501D01*
X132049000Y-122997638D01*
X132049000Y-123636362D01*
X132044555Y-123681499D01*
X132033181Y-123718993D01*
X132014706Y-123753557D01*
X131989847Y-123783847D01*
X131959557Y-123808706D01*
X131924993Y-123827181D01*
X131887499Y-123838555D01*
X131842362Y-123843000D01*
X131103638Y-123843000D01*
X131058501Y-123838555D01*
X131021007Y-123827181D01*
X130986443Y-123808706D01*
X130956153Y-123783847D01*
X130931294Y-123753557D01*
X130912819Y-123718993D01*
X130901445Y-123681499D01*
X130897000Y-123636362D01*
X130897000Y-122997638D01*
X130901445Y-122952501D01*
X130912819Y-122915007D01*
X130931294Y-122880443D01*
X130956153Y-122850153D01*
X130986443Y-122825294D01*
X131021007Y-122806819D01*
X131058501Y-122795445D01*
X131103638Y-122791000D01*
X131842362Y-122791000D01*
X131887499Y-122795445D01*
X131887499Y-122795445D01*
G37*
G36*
X140467499Y-122795445D02*
X140504993Y-122806819D01*
X140539557Y-122825294D01*
X140569847Y-122850153D01*
X140594706Y-122880443D01*
X140613181Y-122915007D01*
X140624555Y-122952501D01*
X140629000Y-122997638D01*
X140629000Y-123636362D01*
X140624555Y-123681499D01*
X140613181Y-123718993D01*
X140594706Y-123753557D01*
X140569847Y-123783847D01*
X140539557Y-123808706D01*
X140504993Y-123827181D01*
X140467499Y-123838555D01*
X140422362Y-123843000D01*
X139683638Y-123843000D01*
X139638501Y-123838555D01*
X139601007Y-123827181D01*
X139566443Y-123808706D01*
X139536153Y-123783847D01*
X139511294Y-123753557D01*
X139492819Y-123718993D01*
X139481445Y-123681499D01*
X139477000Y-123636362D01*
X139477000Y-122997638D01*
X139481445Y-122952501D01*
X139492819Y-122915007D01*
X139511294Y-122880443D01*
X139536153Y-122850153D01*
X139566443Y-122825294D01*
X139601007Y-122806819D01*
X139638501Y-122795445D01*
X139683638Y-122791000D01*
X140422362Y-122791000D01*
X140467499Y-122795445D01*
X140467499Y-122795445D01*
G37*
G36*
X138717499Y-122795445D02*
X138754993Y-122806819D01*
X138789557Y-122825294D01*
X138819847Y-122850153D01*
X138844706Y-122880443D01*
X138863181Y-122915007D01*
X138874555Y-122952501D01*
X138879000Y-122997638D01*
X138879000Y-123636362D01*
X138874555Y-123681499D01*
X138863181Y-123718993D01*
X138844706Y-123753557D01*
X138819847Y-123783847D01*
X138789557Y-123808706D01*
X138754993Y-123827181D01*
X138717499Y-123838555D01*
X138672362Y-123843000D01*
X137933638Y-123843000D01*
X137888501Y-123838555D01*
X137851007Y-123827181D01*
X137816443Y-123808706D01*
X137786153Y-123783847D01*
X137761294Y-123753557D01*
X137742819Y-123718993D01*
X137731445Y-123681499D01*
X137727000Y-123636362D01*
X137727000Y-122997638D01*
X137731445Y-122952501D01*
X137742819Y-122915007D01*
X137761294Y-122880443D01*
X137786153Y-122850153D01*
X137816443Y-122825294D01*
X137851007Y-122806819D01*
X137888501Y-122795445D01*
X137933638Y-122791000D01*
X138672362Y-122791000D01*
X138717499Y-122795445D01*
X138717499Y-122795445D01*
G37*
G36*
X133460142Y-118852242D02*
X133608102Y-118913530D01*
X133741258Y-119002502D01*
X133854498Y-119115742D01*
X133943470Y-119248898D01*
X134004758Y-119396858D01*
X134036000Y-119553925D01*
X134036000Y-119714075D01*
X134004758Y-119871142D01*
X133943470Y-120019102D01*
X133854498Y-120152258D01*
X133741258Y-120265498D01*
X133608102Y-120354470D01*
X133460142Y-120415758D01*
X133303075Y-120447000D01*
X133142925Y-120447000D01*
X132985858Y-120415758D01*
X132837898Y-120354470D01*
X132704742Y-120265498D01*
X132591502Y-120152258D01*
X132502530Y-120019102D01*
X132441242Y-119871142D01*
X132410000Y-119714075D01*
X132410000Y-119553925D01*
X132441242Y-119396858D01*
X132502530Y-119248898D01*
X132591502Y-119115742D01*
X132704742Y-119002502D01*
X132837898Y-118913530D01*
X132985858Y-118852242D01*
X133142925Y-118821000D01*
X133303075Y-118821000D01*
X133460142Y-118852242D01*
X133460142Y-118852242D01*
G37*
G36*
X136000142Y-118852242D02*
X136148102Y-118913530D01*
X136281258Y-119002502D01*
X136394498Y-119115742D01*
X136483470Y-119248898D01*
X136544758Y-119396858D01*
X136576000Y-119553925D01*
X136576000Y-119714075D01*
X136544758Y-119871142D01*
X136483470Y-120019102D01*
X136394498Y-120152258D01*
X136281258Y-120265498D01*
X136148102Y-120354470D01*
X136000142Y-120415758D01*
X135843075Y-120447000D01*
X135682925Y-120447000D01*
X135525858Y-120415758D01*
X135377898Y-120354470D01*
X135244742Y-120265498D01*
X135131502Y-120152258D01*
X135042530Y-120019102D01*
X134981242Y-119871142D01*
X134950000Y-119714075D01*
X134950000Y-119553925D01*
X134981242Y-119396858D01*
X135042530Y-119248898D01*
X135131502Y-119115742D01*
X135244742Y-119002502D01*
X135377898Y-118913530D01*
X135525858Y-118852242D01*
X135682925Y-118821000D01*
X135843075Y-118821000D01*
X136000142Y-118852242D01*
X136000142Y-118852242D01*
G37*
G36*
X138540142Y-118852242D02*
X138688102Y-118913530D01*
X138821258Y-119002502D01*
X138934498Y-119115742D01*
X139023470Y-119248898D01*
X139084758Y-119396858D01*
X139116000Y-119553925D01*
X139116000Y-119714075D01*
X139084758Y-119871142D01*
X139023470Y-120019102D01*
X138934498Y-120152258D01*
X138821258Y-120265498D01*
X138688102Y-120354470D01*
X138540142Y-120415758D01*
X138383075Y-120447000D01*
X138222925Y-120447000D01*
X138065858Y-120415758D01*
X137917898Y-120354470D01*
X137784742Y-120265498D01*
X137671502Y-120152258D01*
X137582530Y-120019102D01*
X137521242Y-119871142D01*
X137490000Y-119714075D01*
X137490000Y-119553925D01*
X137521242Y-119396858D01*
X137582530Y-119248898D01*
X137671502Y-119115742D01*
X137784742Y-119002502D01*
X137917898Y-118913530D01*
X138065858Y-118852242D01*
X138222925Y-118821000D01*
X138383075Y-118821000D01*
X138540142Y-118852242D01*
X138540142Y-118852242D01*
G37*
G36*
X120883308Y-110250380D02*
X121050167Y-110283570D01*
X121521699Y-110478885D01*
X121943203Y-110760526D01*
X121946069Y-110762441D01*
X122306959Y-111123331D01*
X122306961Y-111123334D01*
X122590515Y-111547701D01*
X122785830Y-112019233D01*
X122885400Y-112519809D01*
X122885400Y-113030191D01*
X122785830Y-113530767D01*
X122590515Y-114002299D01*
X122308874Y-114423803D01*
X122306959Y-114426669D01*
X121946069Y-114787559D01*
X121946066Y-114787561D01*
X121521699Y-115071115D01*
X121050167Y-115266430D01*
X120883308Y-115299620D01*
X120549593Y-115366000D01*
X120039207Y-115366000D01*
X119705492Y-115299620D01*
X119538633Y-115266430D01*
X119067101Y-115071115D01*
X118642734Y-114787561D01*
X118642731Y-114787559D01*
X118281841Y-114426669D01*
X118279926Y-114423803D01*
X117998285Y-114002299D01*
X117802970Y-113530767D01*
X117703400Y-113030191D01*
X117703400Y-112519809D01*
X117802970Y-112019233D01*
X117998285Y-111547701D01*
X118281839Y-111123334D01*
X118281841Y-111123331D01*
X118642731Y-110762441D01*
X118645597Y-110760526D01*
X119067101Y-110478885D01*
X119538633Y-110283570D01*
X119705492Y-110250380D01*
X120039207Y-110184000D01*
X120549593Y-110184000D01*
X120883308Y-110250380D01*
X120883308Y-110250380D01*
G37*
G36*
X120883308Y-102251380D02*
X121050167Y-102284570D01*
X121521699Y-102479885D01*
X121943203Y-102761526D01*
X121946069Y-102763441D01*
X122306959Y-103124331D01*
X122306961Y-103124334D01*
X122590515Y-103548701D01*
X122785830Y-104020233D01*
X122885400Y-104520809D01*
X122885400Y-105031191D01*
X122785830Y-105531767D01*
X122590515Y-106003299D01*
X122308874Y-106424803D01*
X122306959Y-106427669D01*
X121946069Y-106788559D01*
X121946066Y-106788561D01*
X121521699Y-107072115D01*
X121050167Y-107267430D01*
X120883308Y-107300620D01*
X120549593Y-107367000D01*
X120039207Y-107367000D01*
X119705492Y-107300620D01*
X119538633Y-107267430D01*
X119067101Y-107072115D01*
X118642734Y-106788561D01*
X118642731Y-106788559D01*
X118281841Y-106427669D01*
X118279926Y-106424803D01*
X117998285Y-106003299D01*
X117802970Y-105531767D01*
X117703400Y-105031191D01*
X117703400Y-104520809D01*
X117802970Y-104020233D01*
X117998285Y-103548701D01*
X118281839Y-103124334D01*
X118281841Y-103124331D01*
X118642731Y-102763441D01*
X118645597Y-102761526D01*
X119067101Y-102479885D01*
X119538633Y-102284570D01*
X119705492Y-102251380D01*
X120039207Y-102185000D01*
X120549593Y-102185000D01*
X120883308Y-102251380D01*
X120883308Y-102251380D01*
G37*
G36*
X158802565Y-97668389D02*
X158993834Y-97747615D01*
X159165976Y-97862637D01*
X159312363Y-98009024D01*
X159427385Y-98181166D01*
X159506611Y-98372435D01*
X159547000Y-98575484D01*
X159547000Y-98782516D01*
X159506611Y-98985565D01*
X159427385Y-99176834D01*
X159312363Y-99348976D01*
X159165976Y-99495363D01*
X158993834Y-99610385D01*
X158802565Y-99689611D01*
X158599516Y-99730000D01*
X158392484Y-99730000D01*
X158189435Y-99689611D01*
X157998166Y-99610385D01*
X157826024Y-99495363D01*
X157679637Y-99348976D01*
X157564615Y-99176834D01*
X157485389Y-98985565D01*
X157445000Y-98782516D01*
X157445000Y-98575484D01*
X157485389Y-98372435D01*
X157564615Y-98181166D01*
X157679637Y-98009024D01*
X157826024Y-97862637D01*
X157998166Y-97747615D01*
X158189435Y-97668389D01*
X158392484Y-97628000D01*
X158599516Y-97628000D01*
X158802565Y-97668389D01*
X158802565Y-97668389D01*
G37*
G36*
X156262565Y-97668389D02*
X156453834Y-97747615D01*
X156625976Y-97862637D01*
X156772363Y-98009024D01*
X156887385Y-98181166D01*
X156966611Y-98372435D01*
X157007000Y-98575484D01*
X157007000Y-98782516D01*
X156966611Y-98985565D01*
X156887385Y-99176834D01*
X156772363Y-99348976D01*
X156625976Y-99495363D01*
X156453834Y-99610385D01*
X156262565Y-99689611D01*
X156059516Y-99730000D01*
X155852484Y-99730000D01*
X155649435Y-99689611D01*
X155458166Y-99610385D01*
X155286024Y-99495363D01*
X155139637Y-99348976D01*
X155024615Y-99176834D01*
X154945389Y-98985565D01*
X154905000Y-98782516D01*
X154905000Y-98575484D01*
X154945389Y-98372435D01*
X155024615Y-98181166D01*
X155139637Y-98009024D01*
X155286024Y-97862637D01*
X155458166Y-97747615D01*
X155649435Y-97668389D01*
X155852484Y-97628000D01*
X156059516Y-97628000D01*
X156262565Y-97668389D01*
X156262565Y-97668389D01*
G37*
G36*
X151722565Y-97668389D02*
X151913834Y-97747615D01*
X152085976Y-97862637D01*
X152232363Y-98009024D01*
X152347385Y-98181166D01*
X152426611Y-98372435D01*
X152467000Y-98575484D01*
X152467000Y-98782516D01*
X152426611Y-98985565D01*
X152347385Y-99176834D01*
X152232363Y-99348976D01*
X152085976Y-99495363D01*
X151913834Y-99610385D01*
X151722565Y-99689611D01*
X151519516Y-99730000D01*
X151312484Y-99730000D01*
X151109435Y-99689611D01*
X150918166Y-99610385D01*
X150746024Y-99495363D01*
X150599637Y-99348976D01*
X150484615Y-99176834D01*
X150405389Y-98985565D01*
X150365000Y-98782516D01*
X150365000Y-98575484D01*
X150405389Y-98372435D01*
X150484615Y-98181166D01*
X150599637Y-98009024D01*
X150746024Y-97862637D01*
X150918166Y-97747615D01*
X151109435Y-97668389D01*
X151312484Y-97628000D01*
X151519516Y-97628000D01*
X151722565Y-97668389D01*
X151722565Y-97668389D01*
G37*
G36*
X133656565Y-97668389D02*
X133847834Y-97747615D01*
X134019976Y-97862637D01*
X134166363Y-98009024D01*
X134281385Y-98181166D01*
X134360611Y-98372435D01*
X134401000Y-98575484D01*
X134401000Y-98782516D01*
X134360611Y-98985565D01*
X134281385Y-99176834D01*
X134166363Y-99348976D01*
X134019976Y-99495363D01*
X133847834Y-99610385D01*
X133656565Y-99689611D01*
X133453516Y-99730000D01*
X133246484Y-99730000D01*
X133043435Y-99689611D01*
X132852166Y-99610385D01*
X132680024Y-99495363D01*
X132533637Y-99348976D01*
X132418615Y-99176834D01*
X132339389Y-98985565D01*
X132299000Y-98782516D01*
X132299000Y-98575484D01*
X132339389Y-98372435D01*
X132418615Y-98181166D01*
X132533637Y-98009024D01*
X132680024Y-97862637D01*
X132852166Y-97747615D01*
X133043435Y-97668389D01*
X133246484Y-97628000D01*
X133453516Y-97628000D01*
X133656565Y-97668389D01*
X133656565Y-97668389D01*
G37*
G36*
X131116565Y-97668389D02*
X131307834Y-97747615D01*
X131479976Y-97862637D01*
X131626363Y-98009024D01*
X131741385Y-98181166D01*
X131820611Y-98372435D01*
X131861000Y-98575484D01*
X131861000Y-98782516D01*
X131820611Y-98985565D01*
X131741385Y-99176834D01*
X131626363Y-99348976D01*
X131479976Y-99495363D01*
X131307834Y-99610385D01*
X131116565Y-99689611D01*
X130913516Y-99730000D01*
X130706484Y-99730000D01*
X130503435Y-99689611D01*
X130312166Y-99610385D01*
X130140024Y-99495363D01*
X129993637Y-99348976D01*
X129878615Y-99176834D01*
X129799389Y-98985565D01*
X129759000Y-98782516D01*
X129759000Y-98575484D01*
X129799389Y-98372435D01*
X129878615Y-98181166D01*
X129993637Y-98009024D01*
X130140024Y-97862637D01*
X130312166Y-97747615D01*
X130503435Y-97668389D01*
X130706484Y-97628000D01*
X130913516Y-97628000D01*
X131116565Y-97668389D01*
X131116565Y-97668389D01*
G37*
G36*
X120883308Y-94250380D02*
X121050167Y-94283570D01*
X121521699Y-94478885D01*
X121943203Y-94760526D01*
X121946069Y-94762441D01*
X122306959Y-95123331D01*
X122306961Y-95123334D01*
X122590515Y-95547701D01*
X122785830Y-96019233D01*
X122885400Y-96519809D01*
X122885400Y-97030191D01*
X122785830Y-97530767D01*
X122590515Y-98002299D01*
X122586021Y-98009024D01*
X122306959Y-98426669D01*
X121946069Y-98787559D01*
X121946066Y-98787561D01*
X121521699Y-99071115D01*
X121050167Y-99266430D01*
X120883308Y-99299620D01*
X120549593Y-99366000D01*
X120039207Y-99366000D01*
X119705492Y-99299620D01*
X119538633Y-99266430D01*
X119067101Y-99071115D01*
X118642734Y-98787561D01*
X118642731Y-98787559D01*
X118281841Y-98426669D01*
X118002779Y-98009024D01*
X117998285Y-98002299D01*
X117802970Y-97530767D01*
X117703400Y-97030191D01*
X117703400Y-96519809D01*
X117802970Y-96019233D01*
X117998285Y-95547701D01*
X118281839Y-95123334D01*
X118281841Y-95123331D01*
X118642731Y-94762441D01*
X118645597Y-94760526D01*
X119067101Y-94478885D01*
X119538633Y-94283570D01*
X119705492Y-94250380D01*
X120039207Y-94184000D01*
X120549593Y-94184000D01*
X120883308Y-94250380D01*
X120883308Y-94250380D01*
G37*
G36*
X131116565Y-82428389D02*
X131307834Y-82507615D01*
X131479976Y-82622637D01*
X131626363Y-82769024D01*
X131741385Y-82941166D01*
X131820611Y-83132435D01*
X131861000Y-83335484D01*
X131861000Y-83542516D01*
X131820611Y-83745565D01*
X131741385Y-83936834D01*
X131626363Y-84108976D01*
X131479976Y-84255363D01*
X131307834Y-84370385D01*
X131116565Y-84449611D01*
X130913516Y-84490000D01*
X130706484Y-84490000D01*
X130503435Y-84449611D01*
X130312166Y-84370385D01*
X130140024Y-84255363D01*
X129993637Y-84108976D01*
X129878615Y-83936834D01*
X129799389Y-83745565D01*
X129759000Y-83542516D01*
X129759000Y-83335484D01*
X129799389Y-83132435D01*
X129878615Y-82941166D01*
X129993637Y-82769024D01*
X130140024Y-82622637D01*
X130312166Y-82507615D01*
X130503435Y-82428389D01*
X130706484Y-82388000D01*
X130913516Y-82388000D01*
X131116565Y-82428389D01*
X131116565Y-82428389D01*
G37*
G36*
X133656565Y-82428389D02*
X133847834Y-82507615D01*
X134019976Y-82622637D01*
X134166363Y-82769024D01*
X134281385Y-82941166D01*
X134360611Y-83132435D01*
X134401000Y-83335484D01*
X134401000Y-83542516D01*
X134360611Y-83745565D01*
X134281385Y-83936834D01*
X134166363Y-84108976D01*
X134019976Y-84255363D01*
X133847834Y-84370385D01*
X133656565Y-84449611D01*
X133453516Y-84490000D01*
X133246484Y-84490000D01*
X133043435Y-84449611D01*
X132852166Y-84370385D01*
X132680024Y-84255363D01*
X132533637Y-84108976D01*
X132418615Y-83936834D01*
X132339389Y-83745565D01*
X132299000Y-83542516D01*
X132299000Y-83335484D01*
X132339389Y-83132435D01*
X132418615Y-82941166D01*
X132533637Y-82769024D01*
X132680024Y-82622637D01*
X132852166Y-82507615D01*
X133043435Y-82428389D01*
X133246484Y-82388000D01*
X133453516Y-82388000D01*
X133656565Y-82428389D01*
X133656565Y-82428389D01*
G37*
G36*
X156262565Y-82428389D02*
X156453834Y-82507615D01*
X156625976Y-82622637D01*
X156772363Y-82769024D01*
X156887385Y-82941166D01*
X156966611Y-83132435D01*
X157007000Y-83335484D01*
X157007000Y-83542516D01*
X156966611Y-83745565D01*
X156887385Y-83936834D01*
X156772363Y-84108976D01*
X156625976Y-84255363D01*
X156453834Y-84370385D01*
X156262565Y-84449611D01*
X156059516Y-84490000D01*
X155852484Y-84490000D01*
X155649435Y-84449611D01*
X155458166Y-84370385D01*
X155286024Y-84255363D01*
X155139637Y-84108976D01*
X155024615Y-83936834D01*
X154945389Y-83745565D01*
X154905000Y-83542516D01*
X154905000Y-83335484D01*
X154945389Y-83132435D01*
X155024615Y-82941166D01*
X155139637Y-82769024D01*
X155286024Y-82622637D01*
X155458166Y-82507615D01*
X155649435Y-82428389D01*
X155852484Y-82388000D01*
X156059516Y-82388000D01*
X156262565Y-82428389D01*
X156262565Y-82428389D01*
G37*
G36*
X158802565Y-82428389D02*
X158993834Y-82507615D01*
X159165976Y-82622637D01*
X159312363Y-82769024D01*
X159427385Y-82941166D01*
X159506611Y-83132435D01*
X159547000Y-83335484D01*
X159547000Y-83542516D01*
X159506611Y-83745565D01*
X159427385Y-83936834D01*
X159312363Y-84108976D01*
X159165976Y-84255363D01*
X158993834Y-84370385D01*
X158802565Y-84449611D01*
X158599516Y-84490000D01*
X158392484Y-84490000D01*
X158189435Y-84449611D01*
X157998166Y-84370385D01*
X157826024Y-84255363D01*
X157679637Y-84108976D01*
X157564615Y-83936834D01*
X157485389Y-83745565D01*
X157445000Y-83542516D01*
X157445000Y-83335484D01*
X157485389Y-83132435D01*
X157564615Y-82941166D01*
X157679637Y-82769024D01*
X157826024Y-82622637D01*
X157998166Y-82507615D01*
X158189435Y-82428389D01*
X158392484Y-82388000D01*
X158599516Y-82388000D01*
X158802565Y-82428389D01*
X158802565Y-82428389D01*
G37*
G36*
X131116565Y-76078389D02*
X131307834Y-76157615D01*
X131479976Y-76272637D01*
X131626363Y-76419024D01*
X131741385Y-76591166D01*
X131820611Y-76782435D01*
X131861000Y-76985484D01*
X131861000Y-77192516D01*
X131820611Y-77395565D01*
X131741385Y-77586834D01*
X131626363Y-77758976D01*
X131479976Y-77905363D01*
X131307834Y-78020385D01*
X131116565Y-78099611D01*
X130913516Y-78140000D01*
X130706484Y-78140000D01*
X130503435Y-78099611D01*
X130312166Y-78020385D01*
X130140024Y-77905363D01*
X129993637Y-77758976D01*
X129878615Y-77586834D01*
X129799389Y-77395565D01*
X129759000Y-77192516D01*
X129759000Y-76985484D01*
X129799389Y-76782435D01*
X129878615Y-76591166D01*
X129993637Y-76419024D01*
X130140024Y-76272637D01*
X130312166Y-76157615D01*
X130503435Y-76078389D01*
X130706484Y-76038000D01*
X130913516Y-76038000D01*
X131116565Y-76078389D01*
X131116565Y-76078389D01*
G37*
G36*
X133656565Y-76078389D02*
X133847834Y-76157615D01*
X134019976Y-76272637D01*
X134166363Y-76419024D01*
X134281385Y-76591166D01*
X134360611Y-76782435D01*
X134401000Y-76985484D01*
X134401000Y-77192516D01*
X134360611Y-77395565D01*
X134281385Y-77586834D01*
X134166363Y-77758976D01*
X134019976Y-77905363D01*
X133847834Y-78020385D01*
X133656565Y-78099611D01*
X133453516Y-78140000D01*
X133246484Y-78140000D01*
X133043435Y-78099611D01*
X132852166Y-78020385D01*
X132680024Y-77905363D01*
X132533637Y-77758976D01*
X132418615Y-77586834D01*
X132339389Y-77395565D01*
X132299000Y-77192516D01*
X132299000Y-76985484D01*
X132339389Y-76782435D01*
X132418615Y-76591166D01*
X132533637Y-76419024D01*
X132680024Y-76272637D01*
X132852166Y-76157615D01*
X133043435Y-76078389D01*
X133246484Y-76038000D01*
X133453516Y-76038000D01*
X133656565Y-76078389D01*
X133656565Y-76078389D01*
G37*
G36*
X151722565Y-76078389D02*
X151913834Y-76157615D01*
X152085976Y-76272637D01*
X152232363Y-76419024D01*
X152347385Y-76591166D01*
X152426611Y-76782435D01*
X152467000Y-76985484D01*
X152467000Y-77192516D01*
X152426611Y-77395565D01*
X152347385Y-77586834D01*
X152232363Y-77758976D01*
X152085976Y-77905363D01*
X151913834Y-78020385D01*
X151722565Y-78099611D01*
X151519516Y-78140000D01*
X151312484Y-78140000D01*
X151109435Y-78099611D01*
X150918166Y-78020385D01*
X150746024Y-77905363D01*
X150599637Y-77758976D01*
X150484615Y-77586834D01*
X150405389Y-77395565D01*
X150365000Y-77192516D01*
X150365000Y-76985484D01*
X150405389Y-76782435D01*
X150484615Y-76591166D01*
X150599637Y-76419024D01*
X150746024Y-76272637D01*
X150918166Y-76157615D01*
X151109435Y-76078389D01*
X151312484Y-76038000D01*
X151519516Y-76038000D01*
X151722565Y-76078389D01*
X151722565Y-76078389D01*
G37*
G36*
X158802565Y-76078389D02*
X158993834Y-76157615D01*
X159165976Y-76272637D01*
X159312363Y-76419024D01*
X159427385Y-76591166D01*
X159506611Y-76782435D01*
X159547000Y-76985484D01*
X159547000Y-77192516D01*
X159506611Y-77395565D01*
X159427385Y-77586834D01*
X159312363Y-77758976D01*
X159165976Y-77905363D01*
X158993834Y-78020385D01*
X158802565Y-78099611D01*
X158599516Y-78140000D01*
X158392484Y-78140000D01*
X158189435Y-78099611D01*
X157998166Y-78020385D01*
X157826024Y-77905363D01*
X157679637Y-77758976D01*
X157564615Y-77586834D01*
X157485389Y-77395565D01*
X157445000Y-77192516D01*
X157445000Y-76985484D01*
X157485389Y-76782435D01*
X157564615Y-76591166D01*
X157679637Y-76419024D01*
X157826024Y-76272637D01*
X157998166Y-76157615D01*
X158189435Y-76078389D01*
X158392484Y-76038000D01*
X158599516Y-76038000D01*
X158802565Y-76078389D01*
X158802565Y-76078389D01*
G37*
G36*
X156262565Y-76078389D02*
X156453834Y-76157615D01*
X156625976Y-76272637D01*
X156772363Y-76419024D01*
X156887385Y-76591166D01*
X156966611Y-76782435D01*
X157007000Y-76985484D01*
X157007000Y-77192516D01*
X156966611Y-77395565D01*
X156887385Y-77586834D01*
X156772363Y-77758976D01*
X156625976Y-77905363D01*
X156453834Y-78020385D01*
X156262565Y-78099611D01*
X156059516Y-78140000D01*
X155852484Y-78140000D01*
X155649435Y-78099611D01*
X155458166Y-78020385D01*
X155286024Y-77905363D01*
X155139637Y-77758976D01*
X155024615Y-77586834D01*
X154945389Y-77395565D01*
X154905000Y-77192516D01*
X154905000Y-76985484D01*
X154945389Y-76782435D01*
X155024615Y-76591166D01*
X155139637Y-76419024D01*
X155286024Y-76272637D01*
X155458166Y-76157615D01*
X155649435Y-76078389D01*
X155852484Y-76038000D01*
X156059516Y-76038000D01*
X156262565Y-76078389D01*
X156262565Y-76078389D01*
G37*
G36*
X106559037Y-68906250D02*
X106559039Y-68906251D01*
X106559040Y-68906251D01*
X106882251Y-69040129D01*
X107169192Y-69231857D01*
X107173137Y-69234493D01*
X107420507Y-69481863D01*
X107420509Y-69481866D01*
X107614871Y-69772749D01*
X107648568Y-69854102D01*
X107748750Y-70095963D01*
X107785755Y-70282000D01*
X107817000Y-70439079D01*
X107817000Y-70788921D01*
X107748749Y-71132040D01*
X107614871Y-71455251D01*
X107614870Y-71455252D01*
X107420507Y-71746137D01*
X107173137Y-71993507D01*
X107173134Y-71993509D01*
X106882251Y-72187871D01*
X106559040Y-72321749D01*
X106559039Y-72321749D01*
X106559037Y-72321750D01*
X106215922Y-72390000D01*
X105866078Y-72390000D01*
X105522963Y-72321750D01*
X105522961Y-72321749D01*
X105522960Y-72321749D01*
X105199749Y-72187871D01*
X104908866Y-71993509D01*
X104908863Y-71993507D01*
X104661493Y-71746137D01*
X104467130Y-71455252D01*
X104467129Y-71455251D01*
X104333251Y-71132040D01*
X104265000Y-70788921D01*
X104265000Y-70439079D01*
X104296245Y-70282000D01*
X104333250Y-70095963D01*
X104433432Y-69854102D01*
X104467129Y-69772749D01*
X104661491Y-69481866D01*
X104661493Y-69481863D01*
X104908863Y-69234493D01*
X104912808Y-69231857D01*
X105199749Y-69040129D01*
X105522960Y-68906251D01*
X105522961Y-68906251D01*
X105522963Y-68906250D01*
X105866078Y-68838000D01*
X106215922Y-68838000D01*
X106559037Y-68906250D01*
X106559037Y-68906250D01*
G37*
G36*
X114918142Y-68687242D02*
X115066102Y-68748530D01*
X115199258Y-68837502D01*
X115312498Y-68950742D01*
X115401470Y-69083898D01*
X115462758Y-69231858D01*
X115494000Y-69388925D01*
X115494000Y-69549075D01*
X115462758Y-69706142D01*
X115401470Y-69854102D01*
X115312498Y-69987258D01*
X115199258Y-70100498D01*
X115066102Y-70189470D01*
X114918142Y-70250758D01*
X114761075Y-70282000D01*
X114600925Y-70282000D01*
X114443858Y-70250758D01*
X114295898Y-70189470D01*
X114162742Y-70100498D01*
X114049502Y-69987258D01*
X113960530Y-69854102D01*
X113899242Y-69706142D01*
X113868000Y-69549075D01*
X113868000Y-69388925D01*
X113899242Y-69231858D01*
X113960530Y-69083898D01*
X114049502Y-68950742D01*
X114162742Y-68837502D01*
X114295898Y-68748530D01*
X114443858Y-68687242D01*
X114600925Y-68656000D01*
X114761075Y-68656000D01*
X114918142Y-68687242D01*
X114918142Y-68687242D01*
G37*
G36*
X114918142Y-66147242D02*
X115066102Y-66208530D01*
X115199258Y-66297502D01*
X115312498Y-66410742D01*
X115401470Y-66543898D01*
X115462758Y-66691858D01*
X115494000Y-66848925D01*
X115494000Y-67009075D01*
X115462758Y-67166142D01*
X115415354Y-67280583D01*
X115401471Y-67314100D01*
X115312499Y-67447257D01*
X115199257Y-67560499D01*
X115133130Y-67604683D01*
X115066102Y-67649470D01*
X114918142Y-67710758D01*
X114761075Y-67742000D01*
X114600925Y-67742000D01*
X114443858Y-67710758D01*
X114295898Y-67649470D01*
X114228870Y-67604683D01*
X114162743Y-67560499D01*
X114049501Y-67447257D01*
X113960529Y-67314100D01*
X113946646Y-67280583D01*
X113899242Y-67166142D01*
X113868000Y-67009075D01*
X113868000Y-66848925D01*
X113899242Y-66691858D01*
X113960530Y-66543898D01*
X114049502Y-66410742D01*
X114162742Y-66297502D01*
X114295898Y-66208530D01*
X114443858Y-66147242D01*
X114600925Y-66116000D01*
X114761075Y-66116000D01*
X114918142Y-66147242D01*
X114918142Y-66147242D01*
G37*
G36*
X106563037Y-64078250D02*
X106563039Y-64078251D01*
X106563040Y-64078251D01*
X106886251Y-64212129D01*
X106886252Y-64212130D01*
X107177137Y-64406493D01*
X107424507Y-64653863D01*
X107424509Y-64653866D01*
X107618871Y-64944749D01*
X107752749Y-65267960D01*
X107752750Y-65267963D01*
X107821000Y-65611078D01*
X107821000Y-65960922D01*
X107754050Y-66297502D01*
X107752749Y-66304040D01*
X107618871Y-66627251D01*
X107575702Y-66691858D01*
X107424507Y-66918137D01*
X107177137Y-67165507D01*
X107177134Y-67165509D01*
X106886251Y-67359871D01*
X106563040Y-67493749D01*
X106563039Y-67493749D01*
X106563037Y-67493750D01*
X106219922Y-67562000D01*
X105870078Y-67562000D01*
X105526963Y-67493750D01*
X105526961Y-67493749D01*
X105526960Y-67493749D01*
X105203749Y-67359871D01*
X104912866Y-67165509D01*
X104912863Y-67165507D01*
X104665493Y-66918137D01*
X104514298Y-66691858D01*
X104471129Y-66627251D01*
X104337251Y-66304040D01*
X104335951Y-66297502D01*
X104269000Y-65960922D01*
X104269000Y-65611078D01*
X104337250Y-65267963D01*
X104337251Y-65267960D01*
X104471129Y-64944749D01*
X104665491Y-64653866D01*
X104665493Y-64653863D01*
X104912863Y-64406493D01*
X105203748Y-64212130D01*
X105203749Y-64212129D01*
X105526960Y-64078251D01*
X105526961Y-64078251D01*
X105526963Y-64078250D01*
X105870078Y-64010000D01*
X106219922Y-64010000D01*
X106563037Y-64078250D01*
X106563037Y-64078250D01*
G37*
G36*
X158802565Y-60838389D02*
X158993834Y-60917615D01*
X159165976Y-61032637D01*
X159312363Y-61179024D01*
X159427385Y-61351166D01*
X159506611Y-61542435D01*
X159547000Y-61745484D01*
X159547000Y-61952516D01*
X159506611Y-62155565D01*
X159427385Y-62346834D01*
X159312363Y-62518976D01*
X159165976Y-62665363D01*
X158993834Y-62780385D01*
X158802565Y-62859611D01*
X158599516Y-62900000D01*
X158392484Y-62900000D01*
X158189435Y-62859611D01*
X157998166Y-62780385D01*
X157826024Y-62665363D01*
X157679637Y-62518976D01*
X157564615Y-62346834D01*
X157485389Y-62155565D01*
X157445000Y-61952516D01*
X157445000Y-61745484D01*
X157485389Y-61542435D01*
X157564615Y-61351166D01*
X157679637Y-61179024D01*
X157826024Y-61032637D01*
X157998166Y-60917615D01*
X158189435Y-60838389D01*
X158392484Y-60798000D01*
X158599516Y-60798000D01*
X158802565Y-60838389D01*
X158802565Y-60838389D01*
G37*
G36*
X133656565Y-60838389D02*
X133847834Y-60917615D01*
X134019976Y-61032637D01*
X134166363Y-61179024D01*
X134281385Y-61351166D01*
X134360611Y-61542435D01*
X134401000Y-61745484D01*
X134401000Y-61952516D01*
X134360611Y-62155565D01*
X134281385Y-62346834D01*
X134166363Y-62518976D01*
X134019976Y-62665363D01*
X133847834Y-62780385D01*
X133656565Y-62859611D01*
X133453516Y-62900000D01*
X133246484Y-62900000D01*
X133043435Y-62859611D01*
X132852166Y-62780385D01*
X132680024Y-62665363D01*
X132533637Y-62518976D01*
X132418615Y-62346834D01*
X132339389Y-62155565D01*
X132299000Y-61952516D01*
X132299000Y-61745484D01*
X132339389Y-61542435D01*
X132418615Y-61351166D01*
X132533637Y-61179024D01*
X132680024Y-61032637D01*
X132852166Y-60917615D01*
X133043435Y-60838389D01*
X133246484Y-60798000D01*
X133453516Y-60798000D01*
X133656565Y-60838389D01*
X133656565Y-60838389D01*
G37*
G36*
X156262565Y-60838389D02*
X156453834Y-60917615D01*
X156625976Y-61032637D01*
X156772363Y-61179024D01*
X156887385Y-61351166D01*
X156966611Y-61542435D01*
X157007000Y-61745484D01*
X157007000Y-61952516D01*
X156966611Y-62155565D01*
X156887385Y-62346834D01*
X156772363Y-62518976D01*
X156625976Y-62665363D01*
X156453834Y-62780385D01*
X156262565Y-62859611D01*
X156059516Y-62900000D01*
X155852484Y-62900000D01*
X155649435Y-62859611D01*
X155458166Y-62780385D01*
X155286024Y-62665363D01*
X155139637Y-62518976D01*
X155024615Y-62346834D01*
X154945389Y-62155565D01*
X154905000Y-61952516D01*
X154905000Y-61745484D01*
X154945389Y-61542435D01*
X155024615Y-61351166D01*
X155139637Y-61179024D01*
X155286024Y-61032637D01*
X155458166Y-60917615D01*
X155649435Y-60838389D01*
X155852484Y-60798000D01*
X156059516Y-60798000D01*
X156262565Y-60838389D01*
X156262565Y-60838389D01*
G37*
G36*
X131116565Y-60838389D02*
X131307834Y-60917615D01*
X131479976Y-61032637D01*
X131626363Y-61179024D01*
X131741385Y-61351166D01*
X131820611Y-61542435D01*
X131861000Y-61745484D01*
X131861000Y-61952516D01*
X131820611Y-62155565D01*
X131741385Y-62346834D01*
X131626363Y-62518976D01*
X131479976Y-62665363D01*
X131307834Y-62780385D01*
X131116565Y-62859611D01*
X130913516Y-62900000D01*
X130706484Y-62900000D01*
X130503435Y-62859611D01*
X130312166Y-62780385D01*
X130140024Y-62665363D01*
X129993637Y-62518976D01*
X129878615Y-62346834D01*
X129799389Y-62155565D01*
X129759000Y-61952516D01*
X129759000Y-61745484D01*
X129799389Y-61542435D01*
X129878615Y-61351166D01*
X129993637Y-61179024D01*
X130140024Y-61032637D01*
X130312166Y-60917615D01*
X130503435Y-60838389D01*
X130706484Y-60798000D01*
X130913516Y-60798000D01*
X131116565Y-60838389D01*
X131116565Y-60838389D01*
G37*
G36*
X106559037Y-59381250D02*
X106559039Y-59381251D01*
X106559040Y-59381251D01*
X106882251Y-59515129D01*
X107169192Y-59706857D01*
X107173137Y-59709493D01*
X107420507Y-59956863D01*
X107420509Y-59956866D01*
X107614871Y-60247749D01*
X107648568Y-60329102D01*
X107748750Y-60570963D01*
X107817000Y-60914078D01*
X107817000Y-61263921D01*
X107748749Y-61607040D01*
X107614871Y-61930251D01*
X107614870Y-61930252D01*
X107420507Y-62221137D01*
X107173137Y-62468507D01*
X107173134Y-62468509D01*
X106882251Y-62662871D01*
X106559040Y-62796749D01*
X106559039Y-62796749D01*
X106559037Y-62796750D01*
X106215922Y-62865000D01*
X105866078Y-62865000D01*
X105522963Y-62796750D01*
X105522961Y-62796749D01*
X105522960Y-62796749D01*
X105199749Y-62662871D01*
X104908866Y-62468509D01*
X104908863Y-62468507D01*
X104661493Y-62221137D01*
X104467130Y-61930252D01*
X104467129Y-61930251D01*
X104333251Y-61607040D01*
X104265000Y-61263921D01*
X104265000Y-60914078D01*
X104333250Y-60570963D01*
X104433432Y-60329102D01*
X104467129Y-60247749D01*
X104661491Y-59956866D01*
X104661493Y-59956863D01*
X104908863Y-59709493D01*
X104912808Y-59706857D01*
X105199749Y-59515129D01*
X105522960Y-59381251D01*
X105522961Y-59381251D01*
X105522963Y-59381250D01*
X105866078Y-59313000D01*
X106215922Y-59313000D01*
X106559037Y-59381250D01*
X106559037Y-59381250D01*
G37*
G36*
X114918142Y-59162242D02*
X115066102Y-59223530D01*
X115199258Y-59312502D01*
X115312498Y-59425742D01*
X115401470Y-59558898D01*
X115462758Y-59706858D01*
X115494000Y-59863925D01*
X115494000Y-60024075D01*
X115462758Y-60181142D01*
X115401470Y-60329102D01*
X115312498Y-60462258D01*
X115199258Y-60575498D01*
X115066102Y-60664470D01*
X114918142Y-60725758D01*
X114761075Y-60757000D01*
X114600925Y-60757000D01*
X114443858Y-60725758D01*
X114295898Y-60664470D01*
X114162742Y-60575498D01*
X114049502Y-60462258D01*
X113960530Y-60329102D01*
X113899242Y-60181142D01*
X113868000Y-60024075D01*
X113868000Y-59863925D01*
X113899242Y-59706858D01*
X113960530Y-59558898D01*
X114049502Y-59425742D01*
X114162742Y-59312502D01*
X114295898Y-59223530D01*
X114443858Y-59162242D01*
X114600925Y-59131000D01*
X114761075Y-59131000D01*
X114918142Y-59162242D01*
X114918142Y-59162242D01*
G37*
G36*
X114918142Y-56622242D02*
X115066102Y-56683530D01*
X115199258Y-56772502D01*
X115312498Y-56885742D01*
X115401470Y-57018898D01*
X115462758Y-57166858D01*
X115494000Y-57323925D01*
X115494000Y-57484075D01*
X115462758Y-57641142D01*
X115415354Y-57755583D01*
X115401471Y-57789100D01*
X115312499Y-57922257D01*
X115199257Y-58035499D01*
X115133130Y-58079683D01*
X115066102Y-58124470D01*
X114918142Y-58185758D01*
X114761075Y-58217000D01*
X114600925Y-58217000D01*
X114443858Y-58185758D01*
X114295898Y-58124470D01*
X114228870Y-58079683D01*
X114162743Y-58035499D01*
X114049501Y-57922257D01*
X113960529Y-57789100D01*
X113946646Y-57755583D01*
X113899242Y-57641142D01*
X113868000Y-57484075D01*
X113868000Y-57323925D01*
X113899242Y-57166858D01*
X113960530Y-57018898D01*
X114049502Y-56885742D01*
X114162742Y-56772502D01*
X114295898Y-56683530D01*
X114443858Y-56622242D01*
X114600925Y-56591000D01*
X114761075Y-56591000D01*
X114918142Y-56622242D01*
X114918142Y-56622242D01*
G37*
G36*
X106563037Y-54553250D02*
X106563039Y-54553251D01*
X106563040Y-54553251D01*
X106886251Y-54687129D01*
X106886252Y-54687130D01*
X107177137Y-54881493D01*
X107424507Y-55128863D01*
X107424509Y-55128866D01*
X107618871Y-55419749D01*
X107752749Y-55742960D01*
X107752750Y-55742963D01*
X107821000Y-56086078D01*
X107821000Y-56435922D01*
X107754050Y-56772502D01*
X107752749Y-56779040D01*
X107618871Y-57102251D01*
X107575702Y-57166858D01*
X107424507Y-57393137D01*
X107177137Y-57640507D01*
X107177134Y-57640509D01*
X106886251Y-57834871D01*
X106563040Y-57968749D01*
X106563039Y-57968749D01*
X106563037Y-57968750D01*
X106219922Y-58037000D01*
X105870078Y-58037000D01*
X105526963Y-57968750D01*
X105526961Y-57968749D01*
X105526960Y-57968749D01*
X105203749Y-57834871D01*
X104912866Y-57640509D01*
X104912863Y-57640507D01*
X104665493Y-57393137D01*
X104514298Y-57166858D01*
X104471129Y-57102251D01*
X104337251Y-56779040D01*
X104335951Y-56772502D01*
X104269000Y-56435922D01*
X104269000Y-56086078D01*
X104337250Y-55742963D01*
X104337251Y-55742960D01*
X104471129Y-55419749D01*
X104665491Y-55128866D01*
X104665493Y-55128863D01*
X104912863Y-54881493D01*
X105203748Y-54687130D01*
X105203749Y-54687129D01*
X105526960Y-54553251D01*
X105526961Y-54553251D01*
X105526963Y-54553250D01*
X105870078Y-54485000D01*
X106219922Y-54485000D01*
X106563037Y-54553250D01*
X106563037Y-54553250D01*
G37*
G36*
X106563037Y-49981250D02*
X106563039Y-49981251D01*
X106563040Y-49981251D01*
X106886251Y-50115129D01*
X106986116Y-50181857D01*
X107177137Y-50309493D01*
X107424507Y-50556863D01*
X107424509Y-50556866D01*
X107618871Y-50847749D01*
X107739705Y-51139470D01*
X107752750Y-51170963D01*
X107764891Y-51232000D01*
X107821000Y-51514079D01*
X107821000Y-51863921D01*
X107752749Y-52207040D01*
X107618871Y-52530251D01*
X107618870Y-52530252D01*
X107424507Y-52821137D01*
X107177137Y-53068507D01*
X107177134Y-53068509D01*
X106886251Y-53262871D01*
X106563040Y-53396749D01*
X106563039Y-53396749D01*
X106563037Y-53396750D01*
X106219922Y-53465000D01*
X105870078Y-53465000D01*
X105526963Y-53396750D01*
X105526961Y-53396749D01*
X105526960Y-53396749D01*
X105203749Y-53262871D01*
X104912866Y-53068509D01*
X104912863Y-53068507D01*
X104665493Y-52821137D01*
X104471130Y-52530252D01*
X104471129Y-52530251D01*
X104337251Y-52207040D01*
X104269000Y-51863921D01*
X104269000Y-51514079D01*
X104325109Y-51232000D01*
X104337250Y-51170963D01*
X104350295Y-51139470D01*
X104471129Y-50847749D01*
X104665491Y-50556866D01*
X104665493Y-50556863D01*
X104912863Y-50309493D01*
X105103884Y-50181857D01*
X105203749Y-50115129D01*
X105526960Y-49981251D01*
X105526961Y-49981251D01*
X105526963Y-49981250D01*
X105870078Y-49913000D01*
X106219922Y-49913000D01*
X106563037Y-49981250D01*
X106563037Y-49981250D01*
G37*
G36*
X114918142Y-49637242D02*
X115066102Y-49698530D01*
X115133130Y-49743317D01*
X115199257Y-49787501D01*
X115312499Y-49900743D01*
X115336941Y-49937323D01*
X115401470Y-50033898D01*
X115462758Y-50181858D01*
X115494000Y-50338925D01*
X115494000Y-50499075D01*
X115462758Y-50656142D01*
X115452047Y-50682000D01*
X115401471Y-50804100D01*
X115330240Y-50910706D01*
X115312498Y-50937258D01*
X115199258Y-51050498D01*
X115066102Y-51139470D01*
X114918142Y-51200758D01*
X114761075Y-51232000D01*
X114600925Y-51232000D01*
X114443858Y-51200758D01*
X114295898Y-51139470D01*
X114162742Y-51050498D01*
X114049502Y-50937258D01*
X114031761Y-50910706D01*
X113960529Y-50804100D01*
X113909953Y-50682000D01*
X113899242Y-50656142D01*
X113868000Y-50499075D01*
X113868000Y-50338925D01*
X113899242Y-50181858D01*
X113960530Y-50033898D01*
X114025059Y-49937323D01*
X114049501Y-49900743D01*
X114162743Y-49787501D01*
X114228870Y-49743317D01*
X114295898Y-49698530D01*
X114443858Y-49637242D01*
X114600925Y-49606000D01*
X114761075Y-49606000D01*
X114918142Y-49637242D01*
X114918142Y-49637242D01*
G37*
G36*
X118397499Y-49897445D02*
X118434993Y-49908819D01*
X118469557Y-49927294D01*
X118499847Y-49952153D01*
X118524706Y-49982443D01*
X118543181Y-50017007D01*
X118554555Y-50054501D01*
X118559000Y-50099638D01*
X118559000Y-50738362D01*
X118554555Y-50783499D01*
X118543181Y-50820993D01*
X118524706Y-50855557D01*
X118499847Y-50885847D01*
X118469557Y-50910706D01*
X118434993Y-50929181D01*
X118397499Y-50940555D01*
X118352362Y-50945000D01*
X117613638Y-50945000D01*
X117568501Y-50940555D01*
X117531007Y-50929181D01*
X117496443Y-50910706D01*
X117466153Y-50885847D01*
X117441294Y-50855557D01*
X117422819Y-50820993D01*
X117411445Y-50783499D01*
X117407000Y-50738362D01*
X117407000Y-50099638D01*
X117411445Y-50054501D01*
X117422819Y-50017007D01*
X117441294Y-49982443D01*
X117466153Y-49952153D01*
X117496443Y-49927294D01*
X117531007Y-49908819D01*
X117568501Y-49897445D01*
X117613638Y-49893000D01*
X118352362Y-49893000D01*
X118397499Y-49897445D01*
X118397499Y-49897445D01*
G37*
G36*
X120147499Y-49897445D02*
X120184993Y-49908819D01*
X120219557Y-49927294D01*
X120249847Y-49952153D01*
X120274706Y-49982443D01*
X120293181Y-50017007D01*
X120304555Y-50054501D01*
X120309000Y-50099638D01*
X120309000Y-50738362D01*
X120304555Y-50783499D01*
X120293181Y-50820993D01*
X120274706Y-50855557D01*
X120249847Y-50885847D01*
X120219557Y-50910706D01*
X120184993Y-50929181D01*
X120147499Y-50940555D01*
X120102362Y-50945000D01*
X119363638Y-50945000D01*
X119318501Y-50940555D01*
X119281007Y-50929181D01*
X119246443Y-50910706D01*
X119216153Y-50885847D01*
X119191294Y-50855557D01*
X119172819Y-50820993D01*
X119161445Y-50783499D01*
X119157000Y-50738362D01*
X119157000Y-50099638D01*
X119161445Y-50054501D01*
X119172819Y-50017007D01*
X119191294Y-49982443D01*
X119216153Y-49952153D01*
X119246443Y-49927294D01*
X119281007Y-49908819D01*
X119318501Y-49897445D01*
X119363638Y-49893000D01*
X120102362Y-49893000D01*
X120147499Y-49897445D01*
X120147499Y-49897445D01*
G37*
G36*
X114918142Y-47097242D02*
X115066102Y-47158530D01*
X115133130Y-47203317D01*
X115199257Y-47247501D01*
X115312499Y-47360743D01*
X115336941Y-47397323D01*
X115401470Y-47493898D01*
X115462758Y-47641858D01*
X115494000Y-47798925D01*
X115494000Y-47959075D01*
X115462758Y-48116142D01*
X115452047Y-48142000D01*
X115401471Y-48264100D01*
X115330240Y-48370706D01*
X115312498Y-48397258D01*
X115199258Y-48510498D01*
X115066102Y-48599470D01*
X114918142Y-48660758D01*
X114761075Y-48692000D01*
X114600925Y-48692000D01*
X114443858Y-48660758D01*
X114295898Y-48599470D01*
X114162742Y-48510498D01*
X114049502Y-48397258D01*
X114031761Y-48370706D01*
X113960529Y-48264100D01*
X113909953Y-48142000D01*
X113899242Y-48116142D01*
X113868000Y-47959075D01*
X113868000Y-47798925D01*
X113899242Y-47641858D01*
X113960530Y-47493898D01*
X114025059Y-47397323D01*
X114049501Y-47360743D01*
X114162743Y-47247501D01*
X114228870Y-47203317D01*
X114295898Y-47158530D01*
X114443858Y-47097242D01*
X114600925Y-47066000D01*
X114761075Y-47066000D01*
X114918142Y-47097242D01*
X114918142Y-47097242D01*
G37*
G36*
X120147499Y-47357445D02*
X120184993Y-47368819D01*
X120219557Y-47387294D01*
X120249847Y-47412153D01*
X120274706Y-47442443D01*
X120293181Y-47477007D01*
X120304555Y-47514501D01*
X120309000Y-47559638D01*
X120309000Y-48198362D01*
X120304555Y-48243499D01*
X120293181Y-48280993D01*
X120274706Y-48315557D01*
X120249847Y-48345847D01*
X120219557Y-48370706D01*
X120184993Y-48389181D01*
X120147499Y-48400555D01*
X120102362Y-48405000D01*
X119363638Y-48405000D01*
X119318501Y-48400555D01*
X119281007Y-48389181D01*
X119246443Y-48370706D01*
X119216153Y-48345847D01*
X119191294Y-48315557D01*
X119172819Y-48280993D01*
X119161445Y-48243499D01*
X119157000Y-48198362D01*
X119157000Y-47559638D01*
X119161445Y-47514501D01*
X119172819Y-47477007D01*
X119191294Y-47442443D01*
X119216153Y-47412153D01*
X119246443Y-47387294D01*
X119281007Y-47368819D01*
X119318501Y-47357445D01*
X119363638Y-47353000D01*
X120102362Y-47353000D01*
X120147499Y-47357445D01*
X120147499Y-47357445D01*
G37*
G36*
X118397499Y-47357445D02*
X118434993Y-47368819D01*
X118469557Y-47387294D01*
X118499847Y-47412153D01*
X118524706Y-47442443D01*
X118543181Y-47477007D01*
X118554555Y-47514501D01*
X118559000Y-47559638D01*
X118559000Y-48198362D01*
X118554555Y-48243499D01*
X118543181Y-48280993D01*
X118524706Y-48315557D01*
X118499847Y-48345847D01*
X118469557Y-48370706D01*
X118434993Y-48389181D01*
X118397499Y-48400555D01*
X118352362Y-48405000D01*
X117613638Y-48405000D01*
X117568501Y-48400555D01*
X117531007Y-48389181D01*
X117496443Y-48370706D01*
X117466153Y-48345847D01*
X117441294Y-48315557D01*
X117422819Y-48280993D01*
X117411445Y-48243499D01*
X117407000Y-48198362D01*
X117407000Y-47559638D01*
X117411445Y-47514501D01*
X117422819Y-47477007D01*
X117441294Y-47442443D01*
X117466153Y-47412153D01*
X117496443Y-47387294D01*
X117531007Y-47368819D01*
X117568501Y-47357445D01*
X117613638Y-47353000D01*
X118352362Y-47353000D01*
X118397499Y-47357445D01*
X118397499Y-47357445D01*
G37*
G36*
X114918142Y-44557242D02*
X115066102Y-44618530D01*
X115199258Y-44707502D01*
X115312498Y-44820742D01*
X115401470Y-44953898D01*
X115462758Y-45101858D01*
X115494000Y-45258925D01*
X115494000Y-45419075D01*
X115462758Y-45576142D01*
X115401470Y-45724102D01*
X115312498Y-45857258D01*
X115199258Y-45970498D01*
X115066102Y-46059470D01*
X114918142Y-46120758D01*
X114761075Y-46152000D01*
X114600925Y-46152000D01*
X114443858Y-46120758D01*
X114295898Y-46059470D01*
X114162742Y-45970498D01*
X114049502Y-45857258D01*
X113960530Y-45724102D01*
X113899242Y-45576142D01*
X113868000Y-45419075D01*
X113868000Y-45258925D01*
X113899242Y-45101858D01*
X113960530Y-44953898D01*
X114049502Y-44820742D01*
X114162742Y-44707502D01*
X114295898Y-44618530D01*
X114443858Y-44557242D01*
X114600925Y-44526000D01*
X114761075Y-44526000D01*
X114918142Y-44557242D01*
X114918142Y-44557242D01*
G37*
G36*
X106563037Y-42361250D02*
X106563039Y-42361251D01*
X106563040Y-42361251D01*
X106886251Y-42495129D01*
X106886252Y-42495130D01*
X107177137Y-42689493D01*
X107424507Y-42936863D01*
X107424509Y-42936866D01*
X107618871Y-43227749D01*
X107752749Y-43550960D01*
X107752750Y-43550963D01*
X107821000Y-43894078D01*
X107821000Y-44243922D01*
X107758677Y-44557242D01*
X107752749Y-44587040D01*
X107618871Y-44910251D01*
X107490844Y-45101857D01*
X107424507Y-45201137D01*
X107177137Y-45448507D01*
X107177134Y-45448509D01*
X106886251Y-45642871D01*
X106563040Y-45776749D01*
X106563039Y-45776749D01*
X106563037Y-45776750D01*
X106219922Y-45845000D01*
X105870078Y-45845000D01*
X105526963Y-45776750D01*
X105526961Y-45776749D01*
X105526960Y-45776749D01*
X105203749Y-45642871D01*
X104912866Y-45448509D01*
X104912863Y-45448507D01*
X104665493Y-45201137D01*
X104599156Y-45101857D01*
X104471129Y-44910251D01*
X104337251Y-44587040D01*
X104331324Y-44557242D01*
X104269000Y-44243922D01*
X104269000Y-43894078D01*
X104337250Y-43550963D01*
X104337251Y-43550960D01*
X104471129Y-43227749D01*
X104665491Y-42936866D01*
X104665493Y-42936863D01*
X104912863Y-42689493D01*
X105203748Y-42495130D01*
X105203749Y-42495129D01*
X105526960Y-42361251D01*
X105526961Y-42361251D01*
X105526963Y-42361250D01*
X105870078Y-42293000D01*
X106219922Y-42293000D01*
X106563037Y-42361250D01*
X106563037Y-42361250D01*
G37*
G36*
X156878499Y-43039445D02*
X156915993Y-43050819D01*
X156950557Y-43069294D01*
X156980847Y-43094153D01*
X157005706Y-43124443D01*
X157024181Y-43159007D01*
X157035555Y-43196501D01*
X157040000Y-43241638D01*
X157040000Y-43880362D01*
X157035555Y-43925499D01*
X157024181Y-43962993D01*
X157005706Y-43997557D01*
X156980847Y-44027847D01*
X156950557Y-44052706D01*
X156915993Y-44071181D01*
X156878499Y-44082555D01*
X156833362Y-44087000D01*
X156094638Y-44087000D01*
X156049501Y-44082555D01*
X156012007Y-44071181D01*
X155977443Y-44052706D01*
X155947153Y-44027847D01*
X155922294Y-43997557D01*
X155903819Y-43962993D01*
X155892445Y-43925499D01*
X155888000Y-43880362D01*
X155888000Y-43241638D01*
X155892445Y-43196501D01*
X155903819Y-43159007D01*
X155922294Y-43124443D01*
X155947153Y-43094153D01*
X155977443Y-43069294D01*
X156012007Y-43050819D01*
X156049501Y-43039445D01*
X156094638Y-43035000D01*
X156833362Y-43035000D01*
X156878499Y-43039445D01*
X156878499Y-43039445D01*
G37*
G36*
X139832499Y-43039445D02*
X139869993Y-43050819D01*
X139904557Y-43069294D01*
X139934847Y-43094153D01*
X139959706Y-43124443D01*
X139978181Y-43159007D01*
X139989555Y-43196501D01*
X139994000Y-43241638D01*
X139994000Y-43880362D01*
X139989555Y-43925499D01*
X139978181Y-43962993D01*
X139959706Y-43997557D01*
X139934847Y-44027847D01*
X139904557Y-44052706D01*
X139869993Y-44071181D01*
X139832499Y-44082555D01*
X139787362Y-44087000D01*
X139048638Y-44087000D01*
X139003501Y-44082555D01*
X138966007Y-44071181D01*
X138931443Y-44052706D01*
X138901153Y-44027847D01*
X138876294Y-43997557D01*
X138857819Y-43962993D01*
X138846445Y-43925499D01*
X138842000Y-43880362D01*
X138842000Y-43241638D01*
X138846445Y-43196501D01*
X138857819Y-43159007D01*
X138876294Y-43124443D01*
X138901153Y-43094153D01*
X138931443Y-43069294D01*
X138966007Y-43050819D01*
X139003501Y-43039445D01*
X139048638Y-43035000D01*
X139787362Y-43035000D01*
X139832499Y-43039445D01*
X139832499Y-43039445D01*
G37*
G36*
X155128499Y-43039445D02*
X155165993Y-43050819D01*
X155200557Y-43069294D01*
X155230847Y-43094153D01*
X155255706Y-43124443D01*
X155274181Y-43159007D01*
X155285555Y-43196501D01*
X155290000Y-43241638D01*
X155290000Y-43880362D01*
X155285555Y-43925499D01*
X155274181Y-43962993D01*
X155255706Y-43997557D01*
X155230847Y-44027847D01*
X155200557Y-44052706D01*
X155165993Y-44071181D01*
X155128499Y-44082555D01*
X155083362Y-44087000D01*
X154344638Y-44087000D01*
X154299501Y-44082555D01*
X154262007Y-44071181D01*
X154227443Y-44052706D01*
X154197153Y-44027847D01*
X154172294Y-43997557D01*
X154153819Y-43962993D01*
X154142445Y-43925499D01*
X154138000Y-43880362D01*
X154138000Y-43241638D01*
X154142445Y-43196501D01*
X154153819Y-43159007D01*
X154172294Y-43124443D01*
X154197153Y-43094153D01*
X154227443Y-43069294D01*
X154262007Y-43050819D01*
X154299501Y-43039445D01*
X154344638Y-43035000D01*
X155083362Y-43035000D01*
X155128499Y-43039445D01*
X155128499Y-43039445D01*
G37*
G36*
X148369499Y-43039445D02*
X148406993Y-43050819D01*
X148441557Y-43069294D01*
X148471847Y-43094153D01*
X148496706Y-43124443D01*
X148515181Y-43159007D01*
X148526555Y-43196501D01*
X148531000Y-43241638D01*
X148531000Y-43880362D01*
X148526555Y-43925499D01*
X148515181Y-43962993D01*
X148496706Y-43997557D01*
X148471847Y-44027847D01*
X148441557Y-44052706D01*
X148406993Y-44071181D01*
X148369499Y-44082555D01*
X148324362Y-44087000D01*
X147585638Y-44087000D01*
X147540501Y-44082555D01*
X147503007Y-44071181D01*
X147468443Y-44052706D01*
X147438153Y-44027847D01*
X147413294Y-43997557D01*
X147394819Y-43962993D01*
X147383445Y-43925499D01*
X147379000Y-43880362D01*
X147379000Y-43241638D01*
X147383445Y-43196501D01*
X147394819Y-43159007D01*
X147413294Y-43124443D01*
X147438153Y-43094153D01*
X147468443Y-43069294D01*
X147503007Y-43050819D01*
X147540501Y-43039445D01*
X147585638Y-43035000D01*
X148324362Y-43035000D01*
X148369499Y-43039445D01*
X148369499Y-43039445D01*
G37*
G36*
X146619499Y-43039445D02*
X146656993Y-43050819D01*
X146691557Y-43069294D01*
X146721847Y-43094153D01*
X146746706Y-43124443D01*
X146765181Y-43159007D01*
X146776555Y-43196501D01*
X146781000Y-43241638D01*
X146781000Y-43880362D01*
X146776555Y-43925499D01*
X146765181Y-43962993D01*
X146746706Y-43997557D01*
X146721847Y-44027847D01*
X146691557Y-44052706D01*
X146656993Y-44071181D01*
X146619499Y-44082555D01*
X146574362Y-44087000D01*
X145835638Y-44087000D01*
X145790501Y-44082555D01*
X145753007Y-44071181D01*
X145718443Y-44052706D01*
X145688153Y-44027847D01*
X145663294Y-43997557D01*
X145644819Y-43962993D01*
X145633445Y-43925499D01*
X145629000Y-43880362D01*
X145629000Y-43241638D01*
X145633445Y-43196501D01*
X145644819Y-43159007D01*
X145663294Y-43124443D01*
X145688153Y-43094153D01*
X145718443Y-43069294D01*
X145753007Y-43050819D01*
X145790501Y-43039445D01*
X145835638Y-43035000D01*
X146574362Y-43035000D01*
X146619499Y-43039445D01*
X146619499Y-43039445D01*
G37*
G36*
X143797499Y-43039445D02*
X143834993Y-43050819D01*
X143869557Y-43069294D01*
X143899847Y-43094153D01*
X143924706Y-43124443D01*
X143943181Y-43159007D01*
X143954555Y-43196501D01*
X143959000Y-43241638D01*
X143959000Y-43880362D01*
X143954555Y-43925499D01*
X143943181Y-43962993D01*
X143924706Y-43997557D01*
X143899847Y-44027847D01*
X143869557Y-44052706D01*
X143834993Y-44071181D01*
X143797499Y-44082555D01*
X143752362Y-44087000D01*
X143013638Y-44087000D01*
X142968501Y-44082555D01*
X142931007Y-44071181D01*
X142896443Y-44052706D01*
X142866153Y-44027847D01*
X142841294Y-43997557D01*
X142822819Y-43962993D01*
X142811445Y-43925499D01*
X142807000Y-43880362D01*
X142807000Y-43241638D01*
X142811445Y-43196501D01*
X142822819Y-43159007D01*
X142841294Y-43124443D01*
X142866153Y-43094153D01*
X142896443Y-43069294D01*
X142931007Y-43050819D01*
X142968501Y-43039445D01*
X143013638Y-43035000D01*
X143752362Y-43035000D01*
X143797499Y-43039445D01*
X143797499Y-43039445D01*
G37*
G36*
X142047499Y-43039445D02*
X142084993Y-43050819D01*
X142119557Y-43069294D01*
X142149847Y-43094153D01*
X142174706Y-43124443D01*
X142193181Y-43159007D01*
X142204555Y-43196501D01*
X142209000Y-43241638D01*
X142209000Y-43880362D01*
X142204555Y-43925499D01*
X142193181Y-43962993D01*
X142174706Y-43997557D01*
X142149847Y-44027847D01*
X142119557Y-44052706D01*
X142084993Y-44071181D01*
X142047499Y-44082555D01*
X142002362Y-44087000D01*
X141263638Y-44087000D01*
X141218501Y-44082555D01*
X141181007Y-44071181D01*
X141146443Y-44052706D01*
X141116153Y-44027847D01*
X141091294Y-43997557D01*
X141072819Y-43962993D01*
X141061445Y-43925499D01*
X141057000Y-43880362D01*
X141057000Y-43241638D01*
X141061445Y-43196501D01*
X141072819Y-43159007D01*
X141091294Y-43124443D01*
X141116153Y-43094153D01*
X141146443Y-43069294D01*
X141181007Y-43050819D01*
X141218501Y-43039445D01*
X141263638Y-43035000D01*
X142002362Y-43035000D01*
X142047499Y-43039445D01*
X142047499Y-43039445D01*
G37*
G36*
X138082499Y-43039445D02*
X138119993Y-43050819D01*
X138154557Y-43069294D01*
X138184847Y-43094153D01*
X138209706Y-43124443D01*
X138228181Y-43159007D01*
X138239555Y-43196501D01*
X138244000Y-43241638D01*
X138244000Y-43880362D01*
X138239555Y-43925499D01*
X138228181Y-43962993D01*
X138209706Y-43997557D01*
X138184847Y-44027847D01*
X138154557Y-44052706D01*
X138119993Y-44071181D01*
X138082499Y-44082555D01*
X138037362Y-44087000D01*
X137298638Y-44087000D01*
X137253501Y-44082555D01*
X137216007Y-44071181D01*
X137181443Y-44052706D01*
X137151153Y-44027847D01*
X137126294Y-43997557D01*
X137107819Y-43962993D01*
X137096445Y-43925499D01*
X137092000Y-43880362D01*
X137092000Y-43241638D01*
X137096445Y-43196501D01*
X137107819Y-43159007D01*
X137126294Y-43124443D01*
X137151153Y-43094153D01*
X137181443Y-43069294D01*
X137216007Y-43050819D01*
X137253501Y-43039445D01*
X137298638Y-43035000D01*
X138037362Y-43035000D01*
X138082499Y-43039445D01*
X138082499Y-43039445D01*
G37*
G36*
X159037499Y-43039445D02*
X159074993Y-43050819D01*
X159109557Y-43069294D01*
X159139847Y-43094153D01*
X159164706Y-43124443D01*
X159183181Y-43159007D01*
X159194555Y-43196501D01*
X159199000Y-43241638D01*
X159199000Y-43880362D01*
X159194555Y-43925499D01*
X159183181Y-43962993D01*
X159164706Y-43997557D01*
X159139847Y-44027847D01*
X159109557Y-44052706D01*
X159074993Y-44071181D01*
X159037499Y-44082555D01*
X158992362Y-44087000D01*
X158253638Y-44087000D01*
X158208501Y-44082555D01*
X158171007Y-44071181D01*
X158136443Y-44052706D01*
X158106153Y-44027847D01*
X158081294Y-43997557D01*
X158062819Y-43962993D01*
X158051445Y-43925499D01*
X158047000Y-43880362D01*
X158047000Y-43241638D01*
X158051445Y-43196501D01*
X158062819Y-43159007D01*
X158081294Y-43124443D01*
X158106153Y-43094153D01*
X158136443Y-43069294D01*
X158171007Y-43050819D01*
X158208501Y-43039445D01*
X158253638Y-43035000D01*
X158992362Y-43035000D01*
X159037499Y-43039445D01*
X159037499Y-43039445D01*
G37*
G36*
X160787499Y-43039445D02*
X160824993Y-43050819D01*
X160859557Y-43069294D01*
X160889847Y-43094153D01*
X160914706Y-43124443D01*
X160933181Y-43159007D01*
X160944555Y-43196501D01*
X160949000Y-43241638D01*
X160949000Y-43880362D01*
X160944555Y-43925499D01*
X160933181Y-43962993D01*
X160914706Y-43997557D01*
X160889847Y-44027847D01*
X160859557Y-44052706D01*
X160824993Y-44071181D01*
X160787499Y-44082555D01*
X160742362Y-44087000D01*
X160003638Y-44087000D01*
X159958501Y-44082555D01*
X159921007Y-44071181D01*
X159886443Y-44052706D01*
X159856153Y-44027847D01*
X159831294Y-43997557D01*
X159812819Y-43962993D01*
X159801445Y-43925499D01*
X159797000Y-43880362D01*
X159797000Y-43241638D01*
X159801445Y-43196501D01*
X159812819Y-43159007D01*
X159831294Y-43124443D01*
X159856153Y-43094153D01*
X159886443Y-43069294D01*
X159921007Y-43050819D01*
X159958501Y-43039445D01*
X160003638Y-43035000D01*
X160742362Y-43035000D01*
X160787499Y-43039445D01*
X160787499Y-43039445D01*
G37*
G36*
X152278499Y-43039445D02*
X152315993Y-43050819D01*
X152350557Y-43069294D01*
X152380847Y-43094153D01*
X152405706Y-43124443D01*
X152424181Y-43159007D01*
X152435555Y-43196501D01*
X152440000Y-43241638D01*
X152440000Y-43880362D01*
X152435555Y-43925499D01*
X152424181Y-43962993D01*
X152405706Y-43997557D01*
X152380847Y-44027847D01*
X152350557Y-44052706D01*
X152315993Y-44071181D01*
X152278499Y-44082555D01*
X152233362Y-44087000D01*
X151494638Y-44087000D01*
X151449501Y-44082555D01*
X151412007Y-44071181D01*
X151377443Y-44052706D01*
X151347153Y-44027847D01*
X151322294Y-43997557D01*
X151303819Y-43962993D01*
X151292445Y-43925499D01*
X151288000Y-43880362D01*
X151288000Y-43241638D01*
X151292445Y-43196501D01*
X151303819Y-43159007D01*
X151322294Y-43124443D01*
X151347153Y-43094153D01*
X151377443Y-43069294D01*
X151412007Y-43050819D01*
X151449501Y-43039445D01*
X151494638Y-43035000D01*
X152233362Y-43035000D01*
X152278499Y-43039445D01*
X152278499Y-43039445D01*
G37*
G36*
X150528499Y-43039445D02*
X150565993Y-43050819D01*
X150600557Y-43069294D01*
X150630847Y-43094153D01*
X150655706Y-43124443D01*
X150674181Y-43159007D01*
X150685555Y-43196501D01*
X150690000Y-43241638D01*
X150690000Y-43880362D01*
X150685555Y-43925499D01*
X150674181Y-43962993D01*
X150655706Y-43997557D01*
X150630847Y-44027847D01*
X150600557Y-44052706D01*
X150565993Y-44071181D01*
X150528499Y-44082555D01*
X150483362Y-44087000D01*
X149744638Y-44087000D01*
X149699501Y-44082555D01*
X149662007Y-44071181D01*
X149627443Y-44052706D01*
X149597153Y-44027847D01*
X149572294Y-43997557D01*
X149553819Y-43962993D01*
X149542445Y-43925499D01*
X149538000Y-43880362D01*
X149538000Y-43241638D01*
X149542445Y-43196501D01*
X149553819Y-43159007D01*
X149572294Y-43124443D01*
X149597153Y-43094153D01*
X149627443Y-43069294D01*
X149662007Y-43050819D01*
X149699501Y-43039445D01*
X149744638Y-43035000D01*
X150483362Y-43035000D01*
X150528499Y-43039445D01*
X150528499Y-43039445D01*
G37*
M02*
